<svg width="382.000000" height="374.000000" viewBox="0 0 382 374" fill="none" xmlns="http://www.w3.org/2000/svg" xmlns:xlink="http://www.w3.org/1999/xlink">
	<desc>
			Created with Pixso.
	</desc>
	<defs>
		<clipPath id="clip2_1068">
			<rect id="IMAGE" rx="0.000000" width="381.000000" height="373.000000" transform="translate(0.500000 0.500000)" fill="white" fill-opacity="0"/>
		</clipPath>
	</defs>
	<g clip-path="url(#clip2_1068)">
		<path id="Vector" d="M367.64 94.69L351.63 179.14C349.39 177.83 347.06 176.67 344.66 175.68C345.63 168.51 345.28 164.53 343.77 162.27C343.99 161.89 344.14 161.48 344.22 161.05C344.41 160.05 344.2 159 343.63 158.16C343.05 157.31 342.17 156.73 341.17 156.54C340.17 156.34 339.14 156.56 338.3 157.14C337.46 157.71 336.88 158.6 336.69 159.61C336.67 159.73 336.65 159.85 336.64 159.96C333.67 161.31 331.72 165.88 329.76 171.38L329.73 171.78C317.65 170.33 305.43 172.82 294.86 178.88C294.05 164.37 299.07 145.33 294.64 138.95C294.87 138.58 295.02 138.16 295.1 137.73C295.2 137.18 295.19 136.61 295.05 136.06C294.91 135.52 294.66 135.01 294.31 134.57C293.96 134.14 293.51 133.78 293.01 133.53C292.51 133.29 291.96 133.15 291.4 133.14C290.84 133.13 290.29 133.25 289.78 133.48C289.27 133.7 288.81 134.04 288.45 134.47C288.08 134.89 287.81 135.39 287.65 135.93C287.5 136.47 287.46 137.04 287.54 137.6C277.49 143.67 275.85 181.56 262.76 179.43C249.58 177.28 269.11 123.33 259.33 111.14C259.63 110.7 259.84 110.21 259.93 109.69C260.03 109.19 260.02 108.68 259.92 108.18C259.82 107.68 259.62 107.21 259.34 106.79C259.05 106.37 258.69 106.01 258.27 105.73C257.85 105.46 257.38 105.26 256.89 105.17C256.39 105.07 255.88 105.08 255.39 105.18C254.9 105.28 254.43 105.48 254.01 105.77C253.6 106.05 253.24 106.42 252.96 106.84C252.69 107.26 252.5 107.74 252.4 108.24C252.33 108.59 252.31 108.95 252.35 109.31C237.84 116.7 237.04 195.64 216.14 192.11C195.61 188.64 218.34 126.18 208.29 113.78C208.36 113.59 208.41 113.39 208.45 113.18C208.55 112.68 208.54 112.17 208.44 111.67C208.34 111.18 208.14 110.7 207.86 110.28C207.58 109.86 207.21 109.5 206.79 109.23C206.37 108.95 205.9 108.75 205.4 108.66C204.91 108.56 204.4 108.57 203.91 108.67C203.41 108.77 202.95 108.97 202.53 109.26C202.11 109.54 201.76 109.91 201.48 110.33C201.2 110.76 201.01 111.23 200.92 111.73C200.88 111.92 200.86 112.1 200.85 112.29C186.63 118.58 178.76 170.16 170.46 169.05L191.01 60.67L367.64 94.69ZM237.85 79.22C238.01 78.41 237.92 77.58 237.6 76.82C237.28 76.06 236.75 75.42 236.07 74.96C235.39 74.51 234.59 74.27 233.77 74.28C232.96 74.29 232.16 74.54 231.49 75C230.81 75.46 230.29 76.11 229.98 76.88C229.67 77.64 229.6 78.47 229.76 79.28C229.93 80.08 230.33 80.82 230.91 81.4C231.49 81.98 232.23 82.37 233.03 82.52C234.1 82.72 235.21 82.49 236.12 81.87C237.02 81.25 237.65 80.3 237.85 79.22ZM220.59 75.89C220.75 75.08 220.66 74.25 220.34 73.49C220.02 72.73 219.49 72.09 218.81 71.63C218.13 71.18 217.33 70.94 216.51 70.95C215.69 70.96 214.9 71.21 214.22 71.67C213.55 72.13 213.02 72.78 212.72 73.55C212.41 74.31 212.34 75.14 212.5 75.95C212.67 76.75 213.06 77.49 213.65 78.07C214.23 78.65 214.97 79.04 215.77 79.19C216.84 79.4 217.95 79.17 218.86 78.55C219.76 77.93 220.39 76.97 220.59 75.89ZM203.34 72.57C203.49 71.76 203.4 70.93 203.08 70.17C202.76 69.41 202.23 68.77 201.55 68.32C200.87 67.87 200.07 67.63 199.25 67.64C198.44 67.64 197.64 67.89 196.97 68.35C196.29 68.82 195.77 69.47 195.46 70.23C195.16 70.99 195.08 71.83 195.25 72.63C195.41 73.44 195.81 74.17 196.39 74.75C196.97 75.33 197.71 75.72 198.51 75.87C199.59 76.08 200.7 75.84 201.6 75.22C202.51 74.61 203.13 73.65 203.34 72.57Z" fill="#FFFFFF" fill-opacity="1.000000" fill-rule="nonzero"/>
		<path id="Vector" d="M363.24 188.16C373.9 198.91 379.89 213.49 379.89 228.69C379.89 243.89 373.9 258.47 363.24 269.22C352.57 279.97 338.1 286.01 323.02 286.01C307.93 286.01 293.47 279.97 282.8 269.22L323.02 228.69L363.24 188.16Z" fill="#F7CEDC" fill-opacity="1.000000" fill-rule="nonzero"/>
		<path id="Vector" d="M363.24 188.16L323.02 228.69L282.8 188.16C290.74 180.16 300.85 174.71 311.86 172.49C322.87 170.27 334.28 171.38 344.66 175.67C347.06 176.66 349.39 177.82 351.63 179.14C355.87 181.63 359.77 184.66 363.24 188.16Z" fill="#006B99" fill-opacity="1.000000" fill-rule="nonzero"/>
		<path id="Vector" d="M343.78 162.27C345.29 164.53 345.64 168.51 344.67 175.68C339.89 173.7 334.87 172.39 329.74 171.78L329.78 171.38C331.74 165.88 333.68 161.3 336.65 159.96C336.56 160.84 336.78 161.72 337.26 162.46C337.74 163.19 338.46 163.74 339.29 164.01C340.13 164.28 341.03 164.25 341.84 163.94C342.66 163.62 343.35 163.03 343.78 162.27L343.78 162.27Z" fill="#FFFFFF" fill-opacity="1.000000" fill-rule="nonzero"/>
		<path id="Vector" d="M341.18 156.54C342.18 156.73 343.07 157.31 343.64 158.16C344.21 159.01 344.42 160.05 344.23 161.05C344.16 161.48 344 161.89 343.78 162.27C342.84 160.94 341.42 160.04 339.83 159.73C338.77 159.43 337.65 159.51 336.65 159.96C336.66 159.85 336.68 159.73 336.7 159.61C336.79 159.11 336.98 158.64 337.26 158.21C337.54 157.79 337.89 157.42 338.31 157.14C338.73 156.85 339.19 156.65 339.69 156.55C340.18 156.45 340.69 156.44 341.18 156.54Z" fill="#006B99" fill-opacity="1.000000" fill-rule="nonzero"/>
		<path id="Vector" d="M343.78 162.27C343.34 163.03 342.66 163.62 341.84 163.94C341.03 164.26 340.13 164.28 339.29 164.01C338.46 163.74 337.74 163.19 337.26 162.46C336.78 161.72 336.56 160.84 336.65 159.96C337.65 159.51 338.78 159.43 339.83 159.73C341.42 160.04 342.84 160.94 343.78 162.27Z" fill="#006B99" fill-opacity="1.000000" fill-rule="nonzero"/>
		<path id="Vector" d="M323.02 228.69L282.8 269.22C277.51 263.9 273.32 257.58 270.46 250.63C267.6 243.67 266.13 236.22 266.13 228.69C266.13 221.16 267.6 213.71 270.46 206.75C273.32 199.8 277.51 193.48 282.8 188.16L323.02 228.69Z" fill="#CCEFF6" fill-opacity="1.000000" fill-rule="nonzero"/>
		<path id="Vector" d="M292.06 133.22C292.55 133.31 293.03 133.5 293.45 133.78C293.87 134.06 294.23 134.42 294.51 134.84C294.8 135.26 295 135.73 295.1 136.23C295.2 136.73 295.2 137.24 295.11 137.74C295.03 138.17 294.88 138.58 294.65 138.96C293.96 137.92 292.9 137.2 291.7 136.94C291 136.76 290.27 136.73 289.56 136.85C288.85 136.96 288.17 137.22 287.56 137.6C287.46 136.99 287.52 136.36 287.71 135.78C287.91 135.19 288.24 134.66 288.68 134.23C289.12 133.8 289.66 133.49 290.25 133.31C290.84 133.13 291.46 133.1 292.06 133.22Z" fill="#006B99" fill-opacity="1.000000" fill-rule="nonzero"/>
		<path id="Vector" d="M294.65 138.96C299.09 145.33 294.05 164.37 294.87 178.88C287.52 183.11 281.19 188.94 276.35 195.94C271.51 202.94 268.29 210.94 266.9 219.36L231.48 212.54L164.65 199.67L169.79 172.54L170.46 169.06C178.76 170.17 186.63 118.59 200.87 112.3C200.83 113.22 201.12 114.12 201.69 114.85C202.25 115.57 203.05 116.07 203.95 116.25C204.85 116.43 205.78 116.28 206.58 115.83C207.38 115.38 207.99 114.66 208.3 113.79C218.36 126.19 195.63 188.65 216.16 192.12C237.06 195.65 237.86 116.71 252.37 109.32C252.44 110.11 252.75 110.86 253.26 111.46C253.77 112.07 254.45 112.5 255.21 112.7C255.97 112.9 256.78 112.86 257.52 112.58C258.25 112.3 258.89 111.8 259.33 111.15C269.11 123.34 249.58 177.29 262.76 179.44C275.85 181.57 277.49 143.68 287.55 137.61C287.67 138.39 288.03 139.13 288.58 139.7C289.13 140.28 289.84 140.67 290.62 140.81C291.4 140.96 292.2 140.87 292.92 140.53C293.64 140.2 294.24 139.65 294.64 138.96L294.65 138.96Z" fill="#FFFFFF" fill-opacity="1.000000" fill-rule="nonzero"/>
		<path id="Vector" d="M291.7 136.94C292.9 137.2 293.96 137.92 294.65 138.96C294.25 139.65 293.65 140.2 292.93 140.53C292.21 140.86 291.41 140.96 290.63 140.81C289.85 140.66 289.14 140.27 288.59 139.7C288.04 139.12 287.68 138.39 287.56 137.6C288.17 137.22 288.85 136.96 289.56 136.85C290.27 136.73 291 136.76 291.7 136.94Z" fill="#006B99" fill-opacity="1.000000" fill-rule="nonzero"/>
		<path id="Vector" d="M256.9 105.17C257.9 105.36 258.78 105.95 259.35 106.79C259.93 107.64 260.14 108.68 259.95 109.69C259.85 110.21 259.65 110.71 259.34 111.14C258.4 109.94 257.06 109.12 255.56 108.85C254.47 108.63 253.34 108.8 252.36 109.31C252.33 108.95 252.34 108.59 252.41 108.24C252.51 107.74 252.7 107.27 252.97 106.84C253.25 106.42 253.61 106.05 254.02 105.77C254.44 105.48 254.91 105.28 255.4 105.18C255.9 105.08 256.41 105.07 256.9 105.17Z" fill="#006B99" fill-opacity="1.000000" fill-rule="nonzero"/>
		<path id="Vector" d="M259.34 111.14C258.9 111.8 258.26 112.3 257.53 112.57C256.79 112.85 255.98 112.89 255.22 112.69C254.46 112.49 253.78 112.06 253.27 111.46C252.76 110.85 252.45 110.1 252.38 109.31C253.36 108.8 254.49 108.63 255.58 108.85C257.07 109.13 258.41 109.94 259.34 111.14Z" fill="#006B99" fill-opacity="1.000000" fill-rule="nonzero"/>
		<path id="Vector" d="M234.58 74.35C235.38 74.5 236.12 74.89 236.7 75.47C237.28 76.05 237.68 76.78 237.85 77.59C238.02 78.4 237.94 79.23 237.63 80C237.33 80.76 236.8 81.42 236.13 81.88C235.45 82.34 234.66 82.59 233.84 82.6C233.02 82.6 232.22 82.37 231.54 81.91C230.86 81.46 230.32 80.81 230 80.06C229.69 79.3 229.6 78.46 229.75 77.65C229.96 76.57 230.59 75.62 231.49 75C232.39 74.38 233.5 74.14 234.58 74.35Z" fill="#F7CEDC" fill-opacity="1.000000" fill-rule="nonzero"/>
		<path id="Vector" d="M217.31 71.02C218.12 71.18 218.85 71.57 219.44 72.15C220.02 72.72 220.42 73.46 220.58 74.27C220.75 75.07 220.67 75.91 220.36 76.67C220.06 77.43 219.53 78.09 218.86 78.55C218.18 79.01 217.39 79.26 216.57 79.27C215.76 79.27 214.96 79.03 214.28 78.58C213.59 78.13 213.06 77.49 212.74 76.73C212.42 75.97 212.34 75.13 212.49 74.33C212.7 73.24 213.32 72.29 214.22 71.67C215.13 71.05 216.24 70.82 217.31 71.02Z" fill="#F7CEDC" fill-opacity="1.000000" fill-rule="nonzero"/>
		<path id="Vector" d="M203.93 250.51L216.2 316.05L206.45 317.9L194.19 252.37L203.93 250.51Z" fill="#CCEFF6" fill-opacity="1.000000" fill-rule="nonzero"/>
		<path id="Vector" d="M205.42 108.66C206.42 108.85 207.3 109.44 207.88 110.29C208.45 111.14 208.66 112.18 208.47 113.18C208.43 113.39 208.38 113.59 208.3 113.79C207.43 112.68 206.18 111.95 204.8 111.74C203.46 111.54 202.1 111.72 200.87 112.29C200.88 112.1 200.9 111.92 200.93 111.73C201.13 110.73 201.71 109.84 202.55 109.26C203.39 108.68 204.42 108.47 205.42 108.66Z" fill="#006B99" fill-opacity="1.000000" fill-rule="nonzero"/>
		<path id="Vector" d="M204.8 111.75C206.18 111.95 207.43 112.68 208.3 113.79C207.99 114.65 207.37 115.38 206.58 115.83C205.78 116.28 204.85 116.43 203.95 116.24C203.05 116.06 202.25 115.57 201.69 114.84C201.12 114.12 200.83 113.21 200.87 112.29C202.1 111.73 203.46 111.54 204.8 111.75Z" fill="#006B99" fill-opacity="1.000000" fill-rule="nonzero"/>
		<path id="Vector" d="M197.28 214.99L187.54 216.84L194.19 252.38L203.93 250.53L197.28 214.99Z" fill="#F7CEDC" fill-opacity="1.000000" fill-rule="nonzero"/>
		<path id="Vector" d="M200.06 67.7C200.86 67.86 201.6 68.25 202.18 68.82C202.76 69.4 203.16 70.14 203.33 70.94C203.49 71.75 203.42 72.59 203.11 73.35C202.8 74.11 202.28 74.76 201.6 75.23C200.93 75.69 200.13 75.94 199.32 75.94C198.5 75.95 197.7 75.71 197.02 75.26C196.34 74.81 195.8 74.16 195.49 73.41C195.17 72.65 195.08 71.81 195.23 71.01C195.44 69.92 196.06 68.97 196.97 68.35C197.87 67.73 198.98 67.5 200.06 67.7Z" fill="#F7CEDC" fill-opacity="1.000000" fill-rule="nonzero"/>
		<path id="Vector" d="M183.48 293.8L188.63 321.29L188.63 321.29L178.89 323.14L173.74 295.65L183.48 293.8Z" fill="#CCEFF6" fill-opacity="1.000000" fill-rule="nonzero"/>
		<path id="Vector" d="M169.72 220.22L159.98 222.07L173.75 295.66L183.5 293.81L169.72 220.22Z" fill="#F7CEDC" fill-opacity="1.000000" fill-rule="nonzero"/>
		<path id="Vector" d="M151.81 277.07L161.06 326.53L151.32 328.38L142.06 278.93L151.8 277.07L151.81 277.07Z" fill="#CCEFF6" fill-opacity="1.000000" fill-rule="nonzero"/>
		<path id="Vector" d="M142.15 225.45L151.81 277.07L151.8 277.07L142.06 278.93L132.4 227.3L142.15 225.45Z" fill="#F7CEDC" fill-opacity="1.000000" fill-rule="nonzero"/>
		<path id="Vector" d="M139 66.52C141.96 77.8 141.12 89.75 136.61 100.5C128.86 118.66 126.81 138.78 130.74 158.15L130.95 159.17C131.48 161.69 131.03 164.32 129.7 166.52C128.36 168.72 126.25 170.33 123.78 171.01L122.13 171.44L122.11 171.37L102.3 95.16C100.86 102.95 96.49 102.91 92.8 100.17C95.21 94.68 94.72 85.79 89.7 87.11C84.35 88.52 88.01 96.62 92.8 100.17C90.92 104.46 87.27 106.68 82.65 100.35L102.45 176.57L102.47 176.63L101.2 176.97C100.4 177.17 99.58 177.28 98.75 177.28C96.62 177.27 94.54 176.58 92.82 175.31C91.11 174.04 89.83 172.24 89.2 170.19C83.21 151.03 71.54 134.17 55.76 121.89C49.15 116.71 43.85 110.03 40.32 102.38C36.78 94.74 35.11 86.35 35.43 77.93C35.75 69.5 38.06 61.27 42.17 53.92C46.27 46.57 52.06 40.31 59.04 35.67C66.03 31.02 74.01 28.12 82.33 27.2C90.65 26.29 99.07 27.38 106.89 30.4C114.7 33.42 121.69 38.27 127.28 44.55C132.86 50.83 136.88 58.36 139 66.52Z" fill="#FAE173" fill-opacity="1.000000" fill-rule="nonzero"/>
		<path id="Vector" d="M133.92 184.2C134.09 184.84 134.13 185.52 134.05 186.18C133.96 186.84 133.74 187.48 133.4 188.06C133.07 188.63 132.62 189.14 132.1 189.54C131.57 189.94 130.96 190.23 130.32 190.4L105.29 197.01C104.65 197.18 103.98 197.22 103.33 197.13C102.67 197.03 102.04 196.81 101.46 196.48C100.89 196.14 100.39 195.69 99.99 195.16C99.59 194.62 99.3 194.02 99.13 193.37C99.02 192.95 98.97 192.52 98.97 192.08C98.97 190.96 99.34 189.87 100.02 188.98C100.7 188.09 101.66 187.45 102.73 187.17L127.76 180.56C128.86 180.27 130.02 180.36 131.05 180.81C131.76 181.12 132.38 181.58 132.88 182.17C133.37 182.76 133.73 183.45 133.92 184.2Z" fill="#CCEFF6" fill-opacity="1.000000" fill-rule="nonzero"/>
		<path id="Vector" d="M131.43 320.74L121.69 322.59L123.76 333.63L133.5 331.78L131.43 320.74Z" fill="#CCEFF6" fill-opacity="1.000000" fill-rule="nonzero"/>
		<path id="Vector" d="M131.44 190.19C131.66 191.04 131.77 191.9 131.77 192.78C131.76 195.02 131.02 197.21 129.66 198.99C128.3 200.76 126.39 202.04 124.23 202.61L115.78 204.83C114.5 205.17 113.16 205.25 111.85 205.07C110.54 204.89 109.27 204.45 108.13 203.78C106.98 203.1 105.98 202.21 105.18 201.14C104.38 200.08 103.8 198.86 103.46 197.57L131.44 190.19Z" fill="#CCEFF6" fill-opacity="1.000000" fill-rule="nonzero"/>
		<path id="Vector" d="M114.58 230.69L131.43 320.73L121.69 322.58L104.83 232.54L114.58 230.69Z" fill="#F7CEDC" fill-opacity="1.000000" fill-rule="nonzero"/>
		<path id="Vector" d="M131.35 174.27C131.46 174.69 131.51 175.13 131.51 175.56C131.51 176.69 131.14 177.78 130.46 178.67C129.78 179.56 128.82 180.2 127.74 180.49L102.71 187.09C101.95 187.3 101.15 187.31 100.38 187.15C99.61 186.98 98.89 186.63 98.28 186.13C97.69 185.65 97.22 185.05 96.89 184.36C96.57 183.67 96.4 182.92 96.39 182.16C96.39 181.04 96.77 179.95 97.45 179.06C98.13 178.17 99.08 177.53 100.16 177.24L101.2 176.97L102.48 176.63L122.13 171.45L123.78 171.02L125.19 170.65C126.49 170.31 127.86 170.49 129.02 171.18C130.17 171.86 131.01 172.97 131.35 174.27Z" fill="#CCEFF6" fill-opacity="1.000000" fill-rule="nonzero"/>
		<path id="Vector" d="M122.1 171.38L122.12 171.45L102.47 176.63L102.45 176.57L82.64 100.35C87.27 106.68 90.92 104.46 92.8 100.17C96.49 102.91 100.85 102.95 102.29 95.16L122.1 171.38Z" fill="#FAE173" fill-opacity="1.000000" fill-rule="nonzero"/>
		<path id="Vector" d="M89.7 87.11C94.72 85.79 95.21 94.68 92.8 100.17C88.01 96.62 84.35 88.52 89.7 87.11Z" fill="#F7CEDC" fill-opacity="1.000000" fill-rule="nonzero"/>
		<path id="Vector" d="M80.09 262.53C81.3 269.01 79.91 275.7 76.22 281.15C72.53 286.59 66.85 290.33 60.43 291.56L59.15 284.71C62.46 284.08 65.52 282.52 67.98 280.2C70.44 277.89 72.19 274.91 73.04 271.63C73.89 268.35 73.79 264.89 72.76 261.66C71.73 258.43 69.81 255.56 67.22 253.39L71.86 248.24C76.15 251.91 79.05 256.96 80.09 262.53Z" fill="#CCEFF6" fill-opacity="1.000000" fill-rule="nonzero"/>
		<path id="Vector" d="M71.86 248.24L67.22 253.39C64.28 250.92 60.63 249.47 56.8 249.26C52.98 249.05 49.19 250.09 46.01 252.23C42.82 254.37 40.41 257.5 39.13 261.13C37.85 264.77 37.77 268.72 38.9 272.41L38.79 272.44L32.09 273.72C31.91 273.07 31.76 272.41 31.63 271.74C30.69 266.69 31.32 261.46 33.44 256.79C35.57 252.11 39.08 248.21 43.49 245.63C47.91 243.06 53.01 241.92 58.09 242.39C63.17 242.85 67.99 244.9 71.87 248.24L71.86 248.24Z" fill="#F7CEDC" fill-opacity="1.000000" fill-rule="nonzero"/>
		<path id="Vector" d="M65.77 333.22L67.84 344.25L49.38 347.77L47.31 336.72L65.77 333.22Z" fill="#006B99" fill-opacity="1.000000" fill-rule="nonzero"/>
		<path id="Vector" d="M62.7 316.76L64.76 327.8L46.29 331.31L44.23 320.27L62.7 316.76Z" fill="#006B99" fill-opacity="1.000000" fill-rule="nonzero"/>
		<path id="Vector" d="M61.86 204.46C62.03 205.42 61.93 206.42 61.54 207.33C61.16 208.23 60.52 209 59.7 209.54C58.88 210.07 57.93 210.36 56.95 210.35C55.97 210.33 55.02 210.03 54.22 209.48C53.41 208.92 52.79 208.14 52.42 207.23C52.06 206.32 51.97 205.32 52.17 204.35C52.37 203.39 52.85 202.51 53.54 201.82C54.24 201.13 55.12 200.66 56.08 200.48C56.72 200.36 57.38 200.37 58.01 200.5C58.65 200.63 59.25 200.89 59.79 201.26C60.32 201.63 60.78 202.1 61.14 202.65C61.49 203.2 61.74 203.81 61.86 204.46Z" fill="#F7CEDC" fill-opacity="1.000000" fill-rule="nonzero"/>
		<path id="Vector" d="M59.61 300.31L61.68 311.34L43.21 314.86L41.15 303.82L59.61 300.31Z" fill="#006B99" fill-opacity="1.000000" fill-rule="nonzero"/>
		<path id="Vector" d="M59.15 284.71L60.43 291.55C54.35 292.71 48.05 291.52 42.8 288.21C37.55 284.91 33.73 279.74 32.09 273.72L38.79 272.45L38.9 272.41C40.19 276.61 42.96 280.19 46.7 282.45C50.43 284.72 54.86 285.52 59.15 284.71Z" fill="#006B99" fill-opacity="1.000000" fill-rule="nonzero"/>
		<path id="Vector" d="M41.18 208.38C41.36 209.35 41.25 210.35 40.87 211.25C40.49 212.16 39.85 212.93 39.03 213.47C38.21 214.01 37.26 214.29 36.28 214.28C35.3 214.27 34.35 213.97 33.55 213.42C32.74 212.86 32.11 212.08 31.75 211.17C31.38 210.25 31.29 209.25 31.49 208.29C31.69 207.33 32.17 206.44 32.87 205.75C33.56 205.06 34.45 204.6 35.41 204.42C36.04 204.29 36.7 204.3 37.33 204.43C37.97 204.57 38.57 204.83 39.11 205.19C39.64 205.56 40.1 206.03 40.46 206.58C40.81 207.13 41.06 207.74 41.18 208.38Z" fill="#F7CEDC" fill-opacity="1.000000" fill-rule="nonzero"/>
		<path id="Vector" d="M20.5 212.32C20.68 213.28 20.57 214.28 20.19 215.19C19.81 216.09 19.17 216.86 18.35 217.4C17.53 217.93 16.57 218.22 15.6 218.21C14.62 218.2 13.67 217.89 12.87 217.34C12.06 216.79 11.44 216 11.07 215.09C10.71 214.18 10.62 213.18 10.82 212.21C11.02 211.25 11.5 210.37 12.19 209.68C12.89 208.99 13.77 208.53 14.73 208.34C15.37 208.22 16.02 208.23 16.66 208.36C17.3 208.49 17.9 208.75 18.44 209.12C18.97 209.49 19.43 209.96 19.79 210.51C20.14 211.06 20.39 211.67 20.5 212.32Z" fill="#F7CEDC" fill-opacity="1.000000" fill-rule="nonzero"/>
		<path id="Vector" d="M123.77 171.02C126.24 170.34 128.36 168.73 129.69 166.53C131.02 164.33 131.47 161.7 130.94 159.18L130.73 158.16C126.8 138.79 128.86 118.67 136.61 100.51C140.41 91.38 141.61 81.36 140.05 71.58C138.5 61.8 134.26 52.65 127.82 45.17C121.38 37.69 112.99 32.18 103.6 29.26C94.21 26.33 84.19 26.11 74.69 28.63C65.18 31.14 56.56 36.28 49.81 43.48C43.05 50.67 38.43 59.62 36.46 69.33C34.49 79.03 35.25 89.09 38.66 98.38C42.07 107.67 47.99 115.81 55.76 121.89C71.53 134.17 83.2 151.03 89.19 170.19C89.83 172.24 91.1 174.04 92.81 175.31C94.53 176.58 96.61 177.27 98.74 177.28C99.57 177.28 100.39 177.17 101.19 176.97" stroke="#1F2223" stroke-opacity="1.000000" stroke-width="2.000000" stroke-linejoin="round" stroke-linecap="round"/>
		<path id="Vector" d="M98.27 186.13C97.69 185.65 97.21 185.05 96.89 184.36C96.56 183.68 96.39 182.93 96.39 182.17C96.39 181.04 96.76 179.95 97.44 179.06C98.12 178.17 99.08 177.53 100.16 177.25L101.19 176.98L102.47 176.64L122.12 171.46L123.77 171.02L125.19 170.65C125.83 170.48 126.5 170.44 127.15 170.53C127.81 170.62 128.44 170.84 129.02 171.17C129.59 171.51 130.09 171.96 130.49 172.49C130.89 173.02 131.19 173.63 131.36 174.28C131.46 174.7 131.52 175.13 131.52 175.57C131.52 176.69 131.15 177.79 130.47 178.68C129.78 179.57 128.83 180.21 127.75 180.49L102.72 187.09C101.95 187.3 101.15 187.31 100.38 187.15C99.61 186.98 98.89 186.63 98.28 186.13" stroke="#1F2223" stroke-opacity="1.000000" stroke-width="2.000000" stroke-linejoin="round" stroke-linecap="round"/>
		<path id="Vector" d="M102.3 95.16L122.1 171.38" stroke="#1F2223" stroke-opacity="1.000000" stroke-width="2.000000" stroke-linejoin="round" stroke-linecap="round"/>
		<path id="Vector" d="M92.8 100.17C96.49 102.91 100.86 102.95 102.3 95.16" stroke="#1F2223" stroke-opacity="1.000000" stroke-width="2.000000" stroke-linejoin="round" stroke-linecap="round"/>
		<path id="Vector" d="M89.7 87.11C84.35 88.52 88.01 96.62 92.8 100.17C95.21 94.68 94.72 85.79 89.7 87.11Z" stroke="#1F2223" stroke-opacity="1.000000" stroke-width="2.000000" stroke-linejoin="round"/>
		<path id="Vector" d="M102.45 176.57L82.64 100.35C87.27 106.68 90.92 104.46 92.8 100.17" stroke="#1F2223" stroke-opacity="1.000000" stroke-width="2.000000" stroke-linejoin="round" stroke-linecap="round"/>
		<path id="Vector" d="M133.37 182.85C133.91 183.76 134.16 184.81 134.07 185.87C133.99 186.92 133.59 187.93 132.92 188.74C132.24 189.55 131.34 190.13 130.32 190.4L105.29 197.01C104.65 197.18 103.98 197.22 103.33 197.13C102.67 197.03 102.04 196.81 101.46 196.48C100.89 196.14 100.39 195.69 99.99 195.16C99.59 194.62 99.3 194.02 99.13 193.37C99.02 192.95 98.97 192.52 98.97 192.08C98.97 190.96 99.34 189.87 100.02 188.98C100.7 188.09 101.66 187.45 102.73 187.17L127.76 180.56C128.86 180.27 130.02 180.36 131.05 180.81C132.02 181.23 132.83 181.95 133.37 182.85Z" stroke="#1F2223" stroke-opacity="1.000000" stroke-width="2.000000" stroke-linejoin="round"/>
		<path id="Vector" d="M115.78 204.84C114.5 205.17 113.16 205.26 111.85 205.07C110.54 204.89 109.27 204.45 108.13 203.78C106.98 203.1 105.98 202.21 105.18 201.14C104.38 200.08 103.8 198.86 103.46 197.57L131.44 190.19C131.66 191.04 131.77 191.9 131.77 192.78C131.76 195.02 131.02 197.21 129.66 198.99C128.3 200.77 126.39 202.04 124.23 202.61L115.78 204.84Z" stroke="#1F2223" stroke-opacity="1.000000" stroke-width="2.000000" stroke-linejoin="round"/>
		<path id="Vector" d="M351.63 179.15C364.24 186.57 373.49 198.63 377.45 212.79C381.4 226.95 379.75 242.11 372.82 255.06C365.9 268.02 354.26 277.76 340.35 282.23C326.45 286.7 311.36 285.56 298.27 279.03C285.19 272.51 275.13 261.12 270.21 247.27C265.3 233.42 265.91 218.18 271.93 204.78C277.94 191.37 288.89 180.84 302.46 175.42C316.03 169.99 331.16 170.08 344.66 175.68C347.06 176.67 349.39 177.83 351.63 179.14" stroke="#1F2223" stroke-opacity="1.000000" stroke-width="2.000000" stroke-linejoin="round" stroke-linecap="round"/>
		<path id="Vector" d="M130.77 179.96L130.89 179.93L169.79 172.54" stroke="#1F2223" stroke-opacity="1.000000" stroke-width="2.000000" stroke-linejoin="round" stroke-linecap="round"/>
		<path id="Vector" d="M231.48 212.53L253.29 329.08L32.76 371.01L1.6 204.51L98.27 186.13L98.28 186.13" stroke="#1F2223" stroke-opacity="1.000000" stroke-width="2.000000" stroke-linejoin="round" stroke-linecap="round"/>
		<path id="Vector" d="M29.33 224.93L160.49 199.99" stroke="#1F2223" stroke-opacity="1.000000" stroke-width="2.000000" stroke-linejoin="round" stroke-linecap="round"/>
		<path id="Vector" d="M20.19 215.19C19.81 216.09 19.17 216.86 18.35 217.4C17.53 217.93 16.57 218.22 15.6 218.21C14.62 218.2 13.67 217.89 12.87 217.34C12.06 216.79 11.44 216 11.07 215.09C10.71 214.18 10.62 213.18 10.82 212.21C11.02 211.25 11.5 210.37 12.19 209.68C12.89 208.99 13.77 208.53 14.73 208.34C15.37 208.22 16.02 208.23 16.66 208.36C17.3 208.49 17.9 208.75 18.44 209.12C18.97 209.49 19.43 209.96 19.79 210.51C20.14 211.06 20.39 211.67 20.5 212.32C20.68 213.28 20.57 214.28 20.19 215.19Z" stroke="#1F2223" stroke-opacity="1.000000" stroke-width="2.000000" stroke-linejoin="round"/>
		<path id="Vector" d="M40.87 211.25C40.49 212.16 39.85 212.93 39.03 213.47C38.21 214.01 37.26 214.29 36.28 214.28C35.3 214.27 34.35 213.97 33.55 213.42C32.74 212.86 32.11 212.08 31.75 211.17C31.38 210.25 31.29 209.25 31.49 208.29C31.69 207.33 32.17 206.44 32.87 205.75C33.56 205.06 34.45 204.6 35.41 204.42C36.04 204.29 36.7 204.3 37.33 204.43C37.97 204.57 38.57 204.83 39.11 205.19C39.64 205.56 40.1 206.03 40.46 206.58C40.81 207.13 41.06 207.74 41.18 208.38C41.36 209.35 41.25 210.35 40.87 211.25Z" stroke="#1F2223" stroke-opacity="1.000000" stroke-width="2.000000" stroke-linejoin="round"/>
		<path id="Vector" d="M61.54 207.33C61.16 208.23 60.52 209 59.7 209.54C58.88 210.07 57.93 210.36 56.95 210.35C55.97 210.33 55.02 210.03 54.22 209.48C53.41 208.92 52.79 208.14 52.42 207.23C52.06 206.32 51.97 205.32 52.17 204.35C52.37 203.39 52.85 202.51 53.54 201.82C54.24 201.13 55.12 200.66 56.08 200.48C56.72 200.36 57.38 200.37 58.01 200.5C58.65 200.63 59.25 200.89 59.79 201.26C60.32 201.63 60.78 202.1 61.14 202.65C61.49 203.2 61.74 203.81 61.86 204.46C62.03 205.42 61.93 206.42 61.54 207.33Z" stroke="#1F2223" stroke-opacity="1.000000" stroke-width="2.000000" stroke-linejoin="round"/>
		<path id="Vector" d="M266.9 219.36L231.48 212.53L164.65 199.66L169.79 172.54L170.46 169.05L191.01 60.67L367.65 94.69L351.63 179.14L351.63 179.15" stroke="#1F2223" stroke-opacity="1.000000" stroke-width="2.000000" stroke-linejoin="round" stroke-linecap="round"/>
		<path id="Vector" d="M206.97 83.51L347.5 110.58" stroke="#1F2223" stroke-opacity="1.000000" stroke-width="2.000000" stroke-linejoin="round" stroke-linecap="round"/>
		<path id="Vector" d="M202.22 74.7C201.65 75.29 200.92 75.69 200.12 75.86C199.32 76.02 198.49 75.95 197.74 75.64C196.98 75.33 196.33 74.8 195.87 74.12C195.42 73.44 195.17 72.64 195.16 71.82C195.16 71 195.39 70.19 195.84 69.51C196.29 68.82 196.93 68.28 197.68 67.96C198.43 67.64 199.26 67.55 200.06 67.71C200.59 67.81 201.1 68.01 201.55 68.31C202 68.61 202.39 69 202.7 69.45C203 69.9 203.21 70.41 203.32 70.95C203.43 71.48 203.44 72.03 203.34 72.57C203.18 73.37 202.79 74.12 202.22 74.7Z" stroke="#1F2223" stroke-opacity="1.000000" stroke-width="2.000000" stroke-linejoin="round"/>
		<path id="Vector" d="M219.48 78.03C218.91 78.61 218.18 79.01 217.38 79.18C216.58 79.35 215.75 79.27 214.99 78.96C214.24 78.65 213.59 78.12 213.13 77.44C212.67 76.76 212.42 75.96 212.42 75.14C212.41 74.32 212.65 73.51 213.09 72.83C213.54 72.14 214.18 71.6 214.93 71.28C215.68 70.96 216.51 70.87 217.31 71.02C217.85 71.13 218.35 71.33 218.81 71.63C219.26 71.93 219.65 72.32 219.96 72.77C220.26 73.22 220.47 73.73 220.58 74.27C220.69 74.8 220.7 75.35 220.59 75.89C220.44 76.7 220.05 77.44 219.48 78.03Z" stroke="#1F2223" stroke-opacity="1.000000" stroke-width="2.000000" stroke-linejoin="round"/>
		<path id="Vector" d="M236.74 81.35C236.17 81.94 235.43 82.34 234.63 82.5C233.84 82.67 233.01 82.59 232.25 82.28C231.5 81.97 230.85 81.44 230.39 80.76C229.93 80.08 229.69 79.28 229.68 78.46C229.67 77.64 229.91 76.83 230.36 76.15C230.81 75.46 231.45 74.92 232.2 74.6C232.95 74.28 233.78 74.19 234.58 74.35C235.65 74.56 236.6 75.19 237.22 76.1C237.83 77.01 238.06 78.14 237.85 79.22C237.7 80.03 237.31 80.77 236.74 81.35Z" stroke="#1F2223" stroke-opacity="1.000000" stroke-width="2.000000" stroke-linejoin="round"/>
		<path id="Vector" d="M343.78 162.27C345.29 164.53 345.64 168.51 344.67 175.68" stroke="#1F2223" stroke-opacity="1.000000" stroke-width="2.000000" stroke-linejoin="round" stroke-linecap="round"/>
		<path id="Vector" d="M329.77 171.38C331.73 165.88 333.68 161.31 336.64 159.96" stroke="#1F2223" stroke-opacity="1.000000" stroke-width="2.000000" stroke-linejoin="round" stroke-linecap="round"/>
		<path id="Vector" d="M294.65 138.96C299.09 145.33 294.05 164.37 294.87 178.89" stroke="#1F2223" stroke-opacity="1.000000" stroke-width="2.000000" stroke-linejoin="round" stroke-linecap="round"/>
		<path id="Vector" d="M259.34 111.14C269.12 123.33 249.59 177.28 262.77 179.44C275.86 181.56 277.5 143.68 287.56 137.6" stroke="#1F2223" stroke-opacity="1.000000" stroke-width="2.000000" stroke-linejoin="round" stroke-linecap="round"/>
		<path id="Vector" d="M208.3 113.79C218.36 126.18 195.63 188.64 216.16 192.11C237.06 195.65 237.86 116.7 252.37 109.31" stroke="#1F2223" stroke-opacity="1.000000" stroke-width="2.000000" stroke-linejoin="round" stroke-linecap="round"/>
		<path id="Vector" d="M170.46 169.05C178.76 170.16 186.63 118.58 200.87 112.29" stroke="#1F2223" stroke-opacity="1.000000" stroke-width="2.000000" stroke-linejoin="round" stroke-linecap="round"/>
		<path id="Vector" d="M78.59 257.53C80.08 261.11 80.72 265 80.45 268.88C80.18 272.76 79.01 276.52 77.04 279.85C75.06 283.19 72.34 286.02 69.08 288.1C65.83 290.19 62.14 291.48 58.3 291.86C54.46 292.25 50.59 291.72 46.99 290.32C43.39 288.92 40.17 286.69 37.58 283.81C34.99 280.93 33.11 277.47 32.09 273.72C31.91 273.07 31.76 272.41 31.63 271.74C30.68 266.69 31.31 261.46 33.44 256.79C35.56 252.11 39.08 248.22 43.49 245.64C47.9 243.06 53.01 241.93 58.09 242.39C63.17 242.86 67.98 244.9 71.86 248.24C74.8 250.76 77.1 253.95 78.59 257.53Z" stroke="#1F2223" stroke-opacity="1.000000" stroke-width="2.000000" stroke-linejoin="round"/>
		<path id="Vector" d="M73.25 263.56C74.06 267.55 73.5 271.69 71.65 275.31C69.81 278.93 66.8 281.8 63.12 283.47C59.44 285.13 55.3 285.48 51.4 284.46C47.49 283.44 44.05 281.1 41.63 277.85C39.22 274.59 37.98 270.6 38.11 266.54C38.25 262.47 39.76 258.58 42.38 255.49C45.01 252.4 48.6 250.31 52.57 249.56C55.14 249.06 57.79 249.15 60.32 249.81C62.86 250.47 65.21 251.7 67.22 253.39C70.32 255.99 72.45 259.58 73.25 263.56Z" stroke="#1F2223" stroke-opacity="1.000000" stroke-width="2.000000" stroke-linejoin="round"/>
		<path id="Vector" d="M59.15 284.71L60.43 291.55" stroke="#1F2223" stroke-opacity="1.000000" stroke-width="2.000000" stroke-linejoin="round" stroke-linecap="round"/>
		<path id="Vector" d="M67.22 253.39L71.86 248.24" stroke="#1F2223" stroke-opacity="1.000000" stroke-width="2.000000" stroke-linejoin="round" stroke-linecap="round"/>
		<path id="Vector" d="M38.79 272.45L32.09 273.72L32.01 273.74" stroke="#1F2223" stroke-opacity="1.000000" stroke-width="2.000000" stroke-linejoin="round" stroke-linecap="round"/>
		<path id="Vector" d="M216.2 316.05L236.52 312.19L218 213.27" stroke="#1F2223" stroke-opacity="1.000000" stroke-width="2.000000" stroke-linejoin="round" stroke-linecap="round"/>
		<path id="Vector" d="M188.63 321.29L206.45 317.9" stroke="#1F2223" stroke-opacity="1.000000" stroke-width="2.000000" stroke-linejoin="round" stroke-linecap="round"/>
		<path id="Vector" d="M178.89 323.14L188.63 321.29" stroke="#1F2223" stroke-opacity="1.000000" stroke-width="2.000000" stroke-linejoin="round" stroke-linecap="round"/>
		<path id="Vector" d="M161.06 326.53L178.89 323.15" stroke="#1F2223" stroke-opacity="1.000000" stroke-width="2.000000" stroke-linejoin="round" stroke-linecap="round"/>
		<path id="Vector" d="M133.5 331.77L151.32 328.38" stroke="#1F2223" stroke-opacity="1.000000" stroke-width="2.000000" stroke-linejoin="round" stroke-linecap="round"/>
		<path id="Vector" d="M105.32 337.13L123.76 333.63" stroke="#1F2223" stroke-opacity="1.000000" stroke-width="2.000000" stroke-linejoin="round" stroke-linecap="round"/>
		<path id="Vector" d="M43.21 314.86L41.15 303.82L59.61 300.31L61.68 311.34L43.21 314.86Z" stroke="#1F2223" stroke-opacity="1.000000" stroke-width="2.000000" stroke-linejoin="round"/>
		<path id="Vector" d="M46.29 331.31L44.23 320.27L62.7 316.76L64.76 327.8L46.29 331.31Z" stroke="#1F2223" stroke-opacity="1.000000" stroke-width="2.000000" stroke-linejoin="round"/>
		<path id="Vector" d="M49.38 347.77L47.31 336.72L65.77 333.22L67.84 344.25L49.38 347.77Z" stroke="#1F2223" stroke-opacity="1.000000" stroke-width="2.000000" stroke-linejoin="round"/>
		<path id="Vector" d="M123.76 333.63L121.69 322.58L104.83 232.54L114.58 230.69L131.43 320.73L133.5 331.77L123.76 333.63Z" stroke="#1F2223" stroke-opacity="1.000000" stroke-width="2.000000" stroke-linejoin="round"/>
		<path id="Vector" d="M151.32 328.38L142.06 278.93L132.4 227.3L142.15 225.45L151.81 277.07L161.06 326.53L151.32 328.38Z" stroke="#1F2223" stroke-opacity="1.000000" stroke-width="2.000000" stroke-linejoin="round"/>
		<path id="Vector" d="M178.89 323.15L178.89 323.14L173.74 295.65L159.97 222.06L169.71 220.21L183.48 293.8L188.63 321.29L188.63 321.29L178.89 323.15Z" stroke="#1F2223" stroke-opacity="1.000000" stroke-width="2.000000" stroke-linejoin="round"/>
		<path id="Vector" d="M206.45 317.9L194.19 252.37L187.53 216.82L197.27 214.97L203.93 250.51L216.2 316.05L206.45 317.9Z" stroke="#1F2223" stroke-opacity="1.000000" stroke-width="2.000000" stroke-linejoin="round"/>
		<path id="Vector" d="M121.69 322.58L131.43 320.73" stroke="#1F2223" stroke-opacity="1.000000" stroke-width="2.000000" stroke-linejoin="round" stroke-linecap="round"/>
		<path id="Vector" d="M142.06 278.93L151.8 277.07" stroke="#1F2223" stroke-opacity="1.000000" stroke-width="2.000000" stroke-linejoin="round" stroke-linecap="round"/>
		<path id="Vector" d="M173.74 295.65L183.48 293.8" stroke="#1F2223" stroke-opacity="1.000000" stroke-width="2.000000" stroke-linejoin="round" stroke-linecap="round"/>
		<path id="Vector" d="M194.19 252.37L203.93 250.51" stroke="#1F2223" stroke-opacity="1.000000" stroke-width="2.000000" stroke-linejoin="round" stroke-linecap="round"/>
		<path id="Vector" d="M363.23 188.16L323.02 228.69L282.81 269.21" stroke="#1F2223" stroke-opacity="1.000000" stroke-width="2.000000" stroke-linejoin="round" stroke-linecap="round"/>
		<path id="Vector" d="M282.81 188.16L323.02 228.69" stroke="#1F2223" stroke-opacity="1.000000" stroke-width="2.000000" stroke-linejoin="round" stroke-linecap="round"/>
		<path id="Vector" d="M71.4 19.78L66.54 1.6" stroke="#1F2223" stroke-opacity="1.000000" stroke-width="2.000000" stroke-linejoin="round" stroke-linecap="round"/>
		<path id="Vector" d="M92.49 19.78L94.46 3.48" stroke="#1F2223" stroke-opacity="1.000000" stroke-width="2.000000" stroke-linejoin="round" stroke-linecap="round"/>
		<path id="Vector" d="M52.79 32.28L42.07 19.78" stroke="#1F2223" stroke-opacity="1.000000" stroke-width="2.000000" stroke-linejoin="round" stroke-linecap="round"/>
	</g>
</svg>
