<svg width="355.000000" height="238.000000" viewBox="0 0 355 238" fill="none" xmlns="http://www.w3.org/2000/svg" xmlns:xlink="http://www.w3.org/1999/xlink">
	<desc>
			Created with Pixso.
	</desc>
	<defs>
		<clipPath id="clip2_1495">
			<rect id="IMAGE" rx="0.000000" width="354.000000" height="237.000000" transform="translate(0.500000 0.500000)" fill="white" fill-opacity="0"/>
		</clipPath>
	</defs>
	<g clip-path="url(#clip2_1495)">
		<path id="Vector" d="M0 0L355 0L355 238L0 238L0 0Z" fill="#F7CEDC" fill-opacity="1.000000" fill-rule="evenodd"/>
		<path id="Vector" d="M252.7 117.42L249.96 117.42L249.96 149.32L252.7 149.32L252.7 117.42Z" fill="#FFCEB6" fill-opacity="1.000000" fill-rule="nonzero"/>
		<path id="Vector" d="M176.03 152.53L175.15 151.63C170.78 151.29 164.13 149.53 159.91 144.31C159.67 144.01 159.44 143.69 159.24 143.36C158.86 142.75 158.6 142.07 158.46 141.37C157.74 137.61 161.62 134.87 163.45 134.42C165.74 133.87 169.7 134.59 171.29 134.93C171.73 135.02 171.99 135.09 171.99 135.09C172.28 135.11 172.56 135.11 172.85 135.09C173.04 135.08 173.25 135.06 173.48 135.04C173.55 135.04 173.62 135.04 173.7 135.03C173.74 135.03 173.79 135.03 173.83 135.02C174.7 134.96 175.57 134.97 176.43 135.05C176.68 135.08 176.94 135.12 177.2 135.16C177.35 135.19 177.5 135.21 177.64 135.25C177.76 135.27 177.88 135.3 178.01 135.33C178.1 135.35 178.19 135.38 178.28 135.4C178.47 135.45 178.65 135.51 178.83 135.57C178.84 135.58 178.85 135.58 178.86 135.58C178.95 135.61 179.03 135.64 179.12 135.67L179.12 135.67C180.45 136.16 181.68 136.89 182.76 137.81C183.77 138.66 184.88 139.55 186.03 140.44C187.57 141.62 189.19 142.79 190.77 143.86C190.77 143.86 191.35 143.97 192.2 144.08L192.21 143.99L192.21 133.39L213.21 133.39C216.64 140.69 222 153.93 225.8 164.54C229.76 175.58 242.47 194.86 245.05 201.31C248.12 208.97 248.12 213.24 248.12 213.24L202.95 213.24C202.97 211.55 202.8 209.87 202.42 208.23L204.07 200.85C202.79 200.88 200.78 200.85 200.78 200.85L200.78 200.86C200.55 200.81 199.39 200.52 194.7 199.29C187.54 197.42 172.01 177.94 172.01 177.94C170.44 177.2 167.69 173.77 166.06 171.61C165.25 170.53 164.76 169.25 164.64 167.9L164.61 167.9C164.61 167.9 156.45 166.96 152.07 165.56C152.07 165.56 145.08 163.72 143.14 162.88C143.14 162.88 130.93 158.34 127.85 156.55C124.77 154.77 126.22 147.27 132.4 149.07C136.03 150.12 139.24 151.18 139.38 151.24C140.78 152.24 142.44 152.78 144.16 152.77L153.19 152.77C153.19 152.77 163.71 155.07 165.69 155.51L165.95 155.52C166.16 154.57 166.49 153.64 166.95 152.77L175.84 152.77L176.03 152.53Z" fill="#FFCEB6" fill-opacity="1.000000" fill-rule="nonzero"/>
		<path id="Vector" d="M245.62 127.62C245.64 127.58 245.67 127.55 245.69 127.52C245.6 128.43 245.26 129.3 244.7 130.02C244.33 130.56 243.79 130.96 243.16 131.17C242.54 131.37 241.87 131.37 241.25 131.16L239.11 133.88L236.71 130.83L238.85 128.11C238.67 127.35 238.66 126.57 238.81 125.81C238.96 125.05 239.28 124.34 239.74 123.71C240.22 123.06 240.92 122.61 241.71 122.45C241.68 122.48 241.65 122.52 241.63 122.55C241.09 123.29 240.8 124.17 240.8 125.09C240.8 126 241.09 126.89 241.63 127.62C241.85 127.94 242.15 128.21 242.5 128.39C242.84 128.57 243.23 128.67 243.62 128.67C244.01 128.67 244.4 128.57 244.75 128.39C245.1 128.21 245.39 127.94 245.62 127.62Z" fill="#CCEFF6" fill-opacity="1.000000" fill-rule="nonzero"/>
		<path id="Vector" d="M243.7 138.64C244.14 139.24 244.37 139.96 244.37 140.71C244.37 141.45 244.14 142.18 243.7 142.78C243.52 143.04 243.27 143.26 242.99 143.41C242.71 143.55 242.39 143.63 242.07 143.63C241.75 143.63 241.43 143.55 241.15 143.41C240.87 143.26 240.62 143.04 240.44 142.78C240 142.19 239.77 141.48 239.77 140.75L239.74 140.79L236.7 136.93L234.3 133.88L232.16 131.16C231.54 131.37 230.87 131.38 230.24 131.17C229.62 130.97 229.08 130.56 228.7 130.02C228.15 129.3 227.81 128.43 227.71 127.52C227.74 127.55 227.76 127.59 227.79 127.62C228.01 127.94 228.31 128.21 228.66 128.39C229.01 128.57 229.39 128.67 229.78 128.67C230.18 128.67 230.56 128.57 230.91 128.39C231.26 128.21 231.56 127.94 231.78 127.62C232.32 126.89 232.61 126 232.61 125.09C232.61 124.17 232.32 123.29 231.78 122.55C231.75 122.52 231.73 122.49 231.7 122.45C232.49 122.62 233.19 123.06 233.67 123.71C234.13 124.33 234.44 125.05 234.6 125.81C234.75 126.57 234.74 127.35 234.56 128.11L236.7 130.83L239.1 133.88L242.14 137.74L242.11 137.78C242.42 137.8 242.72 137.88 243 138.03C243.28 138.17 243.51 138.38 243.7 138.64Z" fill="#CCEFF6" fill-opacity="1.000000" fill-rule="nonzero"/>
		<path id="Vector" d="M234.3 133.88L236.7 136.93L235.61 138.32L234.3 133.88Z" fill="#006B99" fill-opacity="1.000000" fill-rule="nonzero"/>
		<path id="Vector" d="M234.3 133.88L235.61 138.32L233.66 140.79L233.63 140.75C233.63 141.48 233.39 142.19 232.96 142.78C232.77 143.04 232.53 143.26 232.25 143.41C231.96 143.55 231.65 143.63 231.33 143.63C231.01 143.63 230.69 143.55 230.41 143.41C230.12 143.26 229.88 143.04 229.7 142.78C229.26 142.18 229.03 141.45 229.03 140.71C229.03 139.96 229.26 139.24 229.7 138.64C229.88 138.38 230.12 138.17 230.4 138.03C230.67 137.88 230.98 137.79 231.29 137.78L231.26 137.74L234.3 133.88Z" fill="#CCEFF6" fill-opacity="1.000000" fill-rule="nonzero"/>
		<path id="Vector" d="M233.87 52.25L231.25 52.25L231.25 82.68L233.87 82.68L233.87 52.25Z" fill="#FFCEB6" fill-opacity="1.000000" fill-rule="nonzero"/>
		<path id="Vector" d="M221.68 66.98C221.85 67.17 221.96 67.41 221.99 67.67C222.03 67.92 221.98 68.18 221.86 68.41L221.69 68.73L220.06 71.74C220.23 72.12 220.33 72.52 220.35 72.93C220.45 74.38 219.65 75.61 218.58 75.68C217.51 75.74 216.56 74.63 216.47 73.18C216.37 71.73 217.17 70.5 218.24 70.43C218.44 70.42 218.64 70.45 218.83 70.51L220.28 67.83L220.64 67.17C220.68 67.07 220.74 66.98 220.82 66.92C220.91 66.85 221 66.8 221.11 66.78C221.21 66.77 221.32 66.77 221.42 66.81C221.52 66.84 221.61 66.9 221.68 66.98Z" fill="#CCEFF6" fill-opacity="1.000000" fill-rule="nonzero"/>
		<path id="Vector" d="M213.21 133.39L192.22 133.39L192.22 94.51C192.22 94.51 195.31 95.46 199.26 102.26C203.21 109.05 209.43 125.47 212.81 132.55C212.94 132.82 213.08 133.1 213.21 133.39Z" fill="#FFCEB6" fill-opacity="1.000000" fill-rule="nonzero"/>
		<path id="Vector" d="M200.82 200.86L200.78 200.85C200.78 200.85 202.79 200.88 204.07 200.85L202.42 208.23C201.78 204.78 200.83 201.03 200.78 200.85C200.79 200.86 200.81 200.86 200.82 200.86Z" fill="#006B99" fill-opacity="1.000000" fill-rule="nonzero"/>
		<path id="Vector" d="M192.22 133.39L192.22 143.98L192.2 144.07C191.35 143.96 190.77 143.85 190.77 143.85C189.19 142.78 187.57 141.61 186.03 140.43L186.08 140.36C186.34 139.76 186.47 139.12 186.47 138.46L186.47 133.4L192.22 133.39Z" fill="#CCEFF6" fill-opacity="1.000000" fill-rule="nonzero"/>
		<path id="Vector" d="M186.47 72.23L186.47 66.99C186.47 65.7 185.95 64.45 185.04 63.53C184.12 62.62 182.88 62.1 181.59 62.1L152.64 62.1C151.35 62.1 150.11 62.62 149.19 63.53C148.28 64.45 147.76 65.7 147.76 66.99L147.76 77.66C147.76 78.3 147.89 78.94 148.13 79.53C148.38 80.13 148.74 80.66 149.19 81.12C149.64 81.57 150.18 81.93 150.78 82.18C151.37 82.43 152 82.55 152.64 82.55L181.58 82.55C182.22 82.55 182.86 82.43 183.45 82.18C184.04 81.93 184.58 81.57 185.03 81.12C185.49 80.66 185.85 80.13 186.09 79.53C186.34 78.94 186.46 78.3 186.46 77.66L186.47 72.23ZM141.17 103.54L141.17 58.97C141.17 56.63 142.09 54.4 143.74 52.75C145.38 51.11 147.61 50.18 149.93 50.18L150.98 50.18C150.98 51.93 151.68 53.62 152.92 54.86C154.16 56.1 155.83 56.8 157.59 56.8L174.01 56.8C175.76 56.8 177.44 56.1 178.68 54.86C179.92 53.62 180.61 51.93 180.61 50.18L183.45 50.18C184.6 50.18 185.74 50.41 186.8 50.85C187.87 51.29 188.83 51.94 189.65 52.75C190.46 53.57 191.11 54.54 191.55 55.6C191.99 56.67 192.22 57.81 192.22 58.97L192.22 133.39L186.47 133.39L186.47 127.8C186.47 126.5 185.95 125.26 185.04 124.34C184.12 123.42 182.88 122.91 181.59 122.91L152.64 122.91C151.35 122.91 150.11 123.42 149.19 124.34C148.28 125.26 147.76 126.5 147.76 127.8L147.76 138.46C147.76 139.76 148.28 141 149.19 141.92C150.11 142.84 151.35 143.35 152.64 143.35L159.24 143.35C159.45 143.69 159.67 144.01 159.92 144.31C164.13 149.53 170.78 151.28 175.16 151.63L176.03 152.53L175.85 152.77L149.93 152.77C147.61 152.77 145.38 151.85 143.74 150.2C142.09 148.55 141.17 146.31 141.17 143.98L141.17 103.54ZM147.77 103.54L147.77 108.06C147.77 109.36 148.28 110.6 149.2 111.52C150.11 112.44 151.36 112.95 152.65 112.95L181.59 112.95C182.88 112.95 184.13 112.44 185.04 111.52C185.96 110.6 186.47 109.36 186.47 108.06L186.47 97.4C186.47 96.1 185.96 94.86 185.04 93.94C184.13 93.02 182.88 92.51 181.59 92.51L152.64 92.51C151.35 92.51 150.11 93.02 149.19 93.94C148.28 94.86 147.76 96.1 147.76 97.4L147.77 103.54Z" fill="#CCEFF6" fill-opacity="1.000000" fill-rule="nonzero"/>
		<path id="Vector" d="M186.47 133.39L186.47 138.46C186.47 139.11 186.34 139.76 186.08 140.36L186.03 140.42C184.88 139.54 183.77 138.65 182.77 137.8C181.69 136.87 180.45 136.15 179.12 135.65C179.45 135.08 179.64 134.43 179.69 133.77C179.73 133.11 179.62 132.44 179.37 131.83C179.11 131.21 178.72 130.67 178.22 130.23C177.72 129.79 177.13 129.47 176.49 129.3C175.85 129.13 175.18 129.11 174.53 129.24C173.88 129.37 173.26 129.64 172.74 130.05C172.21 130.45 171.79 130.97 171.49 131.57C171.2 132.17 171.05 132.82 171.05 133.49C171.05 133.98 171.13 134.46 171.3 134.93C169.7 134.59 165.75 133.86 163.45 134.42C161.62 134.87 157.74 137.61 158.46 141.37C158.6 142.07 158.86 142.74 159.24 143.35L152.64 143.35C151.35 143.35 150.11 142.84 149.19 141.92C148.28 141 147.76 139.76 147.76 138.46L147.76 127.8C147.76 126.5 148.28 125.26 149.19 124.34C150.11 123.42 151.35 122.91 152.64 122.91L181.58 122.91C182.88 122.91 184.12 123.42 185.03 124.34C185.95 125.26 186.46 126.5 186.46 127.8L186.46 133.39L186.47 133.39Z" fill="#CCEFF6" fill-opacity="1.000000" fill-rule="nonzero"/>
		<path id="Vector" d="M147.76 103.54L147.76 97.4C147.76 96.1 148.28 94.86 149.19 93.94C150.11 93.02 151.35 92.51 152.64 92.51L181.58 92.51C182.88 92.51 184.12 93.02 185.03 93.94C185.95 94.86 186.46 96.1 186.46 97.4L186.46 108.06C186.46 109.36 185.95 110.6 185.03 111.52C184.12 112.44 182.88 112.95 181.58 112.95L152.64 112.95C151.35 112.95 150.11 112.44 149.19 111.52C148.28 110.6 147.76 109.36 147.76 108.06L147.76 103.54ZM161.84 103.63C161.84 102.78 161.59 101.94 161.11 101.23C160.64 100.51 159.96 99.96 159.17 99.63C158.38 99.3 157.51 99.22 156.67 99.38C155.83 99.55 155.06 99.96 154.46 100.57C153.85 101.18 153.44 101.95 153.28 102.79C153.11 103.63 153.19 104.5 153.52 105.29C153.85 106.09 154.4 106.76 155.11 107.24C155.82 107.72 156.66 107.97 157.51 107.97C158.08 107.97 158.64 107.86 159.17 107.64C159.7 107.42 160.17 107.1 160.57 106.7C160.98 106.3 161.3 105.82 161.51 105.29C161.73 104.77 161.84 104.2 161.84 103.63L161.84 103.63Z" fill="#CCEFF6" fill-opacity="1.000000" fill-rule="nonzero"/>
		<path id="Vector" d="M186.47 72.23L186.47 77.66C186.47 78.3 186.34 78.94 186.09 79.53C185.85 80.13 185.49 80.66 185.04 81.12C184.58 81.57 184.05 81.93 183.45 82.18C182.86 82.43 182.23 82.55 181.59 82.55L152.64 82.55C152 82.55 151.37 82.43 150.78 82.18C150.18 81.93 149.64 81.57 149.19 81.12C148.74 80.66 148.38 80.13 148.13 79.53C147.89 78.94 147.76 78.3 147.76 77.66L147.76 67C147.76 65.7 148.28 64.45 149.19 63.54C150.11 62.62 151.35 62.1 152.64 62.1L181.58 62.1C182.88 62.1 184.12 62.62 185.03 63.54C185.95 64.45 186.46 65.7 186.46 67L186.47 72.23ZM179.7 72.32C179.7 71.47 179.44 70.63 178.97 69.91C178.49 69.2 177.82 68.64 177.03 68.32C176.24 67.99 175.37 67.9 174.53 68.07C173.69 68.24 172.92 68.65 172.31 69.26C171.71 69.86 171.29 70.64 171.13 71.48C170.96 72.32 171.05 73.19 171.37 73.98C171.7 74.77 172.26 75.45 172.97 75.93C173.68 76.4 174.51 76.66 175.37 76.66C176.52 76.66 177.62 76.2 178.43 75.39C179.24 74.58 179.69 73.47 179.69 72.32L179.7 72.32Z" fill="#CCEFF6" fill-opacity="1.000000" fill-rule="nonzero"/>
		<path id="Vector" d="M150.98 50.18L180.61 50.18C180.61 51.93 179.92 53.62 178.68 54.86C177.44 56.1 175.76 56.8 174.01 56.8L157.59 56.8C155.83 56.8 154.16 56.1 152.92 54.86C151.68 53.62 150.98 51.93 150.98 50.18Z" fill="#006B99" fill-opacity="1.000000" fill-rule="nonzero"/>
		<path id="Vector" d="M179.69 133.49C179.69 134.25 179.49 135 179.12 135.66L178.86 135.57C178.85 135.57 178.84 135.57 178.83 135.56C178.64 135.5 178.46 135.44 178.27 135.39C178.18 135.37 178.09 135.34 178 135.32C177.88 135.29 177.76 135.26 177.64 135.24C177.49 135.21 177.34 135.18 177.2 135.15C176.94 135.1 176.69 135.07 176.43 135.05C175.56 134.96 174.69 134.95 173.83 135.01C173.78 135.01 173.74 135.02 173.69 135.02C173.62 135.03 173.55 135.03 173.47 135.03C173.25 135.05 173.03 135.06 172.84 135.08C172.56 135.1 172.27 135.1 171.99 135.08C171.99 135.08 171.73 135.02 171.29 134.92C171.12 134.46 171.04 133.97 171.04 133.48C171.03 132.91 171.14 132.34 171.35 131.8C171.56 131.27 171.88 130.79 172.28 130.38C172.69 129.97 173.16 129.64 173.69 129.42C174.22 129.2 174.79 129.09 175.36 129.09C175.94 129.09 176.5 129.2 177.03 129.42C177.56 129.64 178.04 129.97 178.44 130.38C178.85 130.79 179.16 131.27 179.38 131.8C179.59 132.34 179.7 132.91 179.69 133.48L179.69 133.49Z" fill="#FFFFFF" fill-opacity="1.000000" fill-rule="nonzero"/>
		<path id="Vector" d="M175.37 76.66C177.76 76.66 179.7 74.72 179.7 72.32C179.7 69.93 177.76 67.99 175.37 67.99C172.98 67.99 171.04 69.93 171.04 72.32C171.04 74.72 172.98 76.66 175.37 76.66Z" fill="#FFFFFF" fill-opacity="1.000000" fill-rule="nonzero"/>
		<path id="Vector" d="M153.19 152.77L166.95 152.77C166.49 153.64 166.16 154.57 165.95 155.52L165.69 155.51C163.71 155.07 153.19 152.77 153.19 152.77Z" fill="#006B99" fill-opacity="1.000000" fill-rule="nonzero"/>
		<path id="Vector" d="M157.52 99.3C158.37 99.3 159.21 99.55 159.92 100.03C160.63 100.5 161.19 101.18 161.52 101.97C161.84 102.77 161.93 103.64 161.76 104.48C161.6 105.32 161.19 106.09 160.58 106.7C159.98 107.31 159.2 107.72 158.37 107.89C157.53 108.06 156.66 107.97 155.87 107.64C155.07 107.31 154.4 106.76 153.92 106.04C153.45 105.33 153.19 104.49 153.19 103.63C153.2 102.49 153.65 101.38 154.46 100.57C155.27 99.76 156.37 99.3 157.52 99.3Z" fill="#FFFFFF" fill-opacity="1.000000" fill-rule="nonzero"/>
		<path id="Vector" d="M147.39 50.18L149.93 50.18C147.61 50.18 145.38 51.11 143.74 52.75C142.09 54.4 141.17 56.63 141.17 58.97L141.17 103.54L138.63 103.54L138.63 58.97C138.63 56.63 139.55 54.4 141.2 52.75C142.84 51.11 145.07 50.18 147.39 50.18Z" fill="#006B99" fill-opacity="1.000000" fill-rule="nonzero"/>
		<path id="Vector" d="M149.93 152.77L147.39 152.77C145.07 152.77 142.84 151.85 141.19 150.2C139.55 148.55 138.62 146.31 138.62 143.98L138.62 103.54L141.17 103.54L141.17 143.98C141.17 146.31 142.09 148.55 143.74 150.2C145.38 151.84 147.61 152.77 149.93 152.77Z" fill="#006B99" fill-opacity="1.000000" fill-rule="nonzero"/>
		<path id="Vector" d="M135.96 128.32L135.96 139.44C135.96 139.44 132 138.76 126.61 137.86C121.22 136.96 121.21 130.48 124.09 128.32C126.97 126.15 135.59 128.32 135.59 128.32L135.96 128.32Z" fill="#FFCEB6" fill-opacity="1.000000" fill-rule="nonzero"/>
		<path id="Vector" d="M119.06 99.89L119.06 105.74L117.29 105.74C116.64 105.74 116.32 106.73 116.78 107.31L118.03 108.88L114.74 113.01L113.5 111.44C113.03 110.86 112.25 111.27 112.25 112.09L112.25 114.31L107.61 114.31L107.61 112.09C107.61 111.27 106.82 110.86 106.36 111.44L105.11 113.01L101.83 108.88L103.08 107.31C103.54 106.73 103.21 105.74 102.56 105.74L100.8 105.74L100.8 99.89L102.56 99.89C103.21 99.89 103.54 98.89 103.08 98.31L101.83 96.74L105.11 92.61L106.36 94.18C106.82 94.75 107.61 94.35 107.61 93.52L107.61 91.31L112.25 91.31L112.25 93.53C112.25 94.35 113.03 94.76 113.5 94.18L114.74 92.61L118.02 96.74L116.78 98.31C116.32 98.89 116.64 99.88 117.29 99.88L119.06 99.89ZM112.68 102.81C112.68 100.89 111.45 99.34 109.93 99.34C108.41 99.34 107.17 100.89 107.17 102.81C107.17 104.73 108.41 106.28 109.93 106.28C111.45 106.28 112.68 104.72 112.68 102.81Z" fill="#CCEFF6" fill-opacity="1.000000" fill-rule="nonzero"/>
		<path id="Vector" d="M95.73 86.22L92.75 86.22L92.75 120.86L95.73 120.86L95.73 86.22Z" fill="#FFCEB6" fill-opacity="1.000000" fill-rule="nonzero"/>
		<path id="Vector" d="M95.73 86.22L124.88 88.77L124.88 118.31L95.73 120.86" stroke="#006B99" stroke-opacity="1.000000" stroke-width="3.704000" stroke-linejoin="round" stroke-linecap="round"/>
		<path id="Vector" d="M92.75 86.22L92.75 120.86L95.73 120.86L95.73 86.22L92.75 86.22Z" stroke="#006B99" stroke-opacity="1.000000" stroke-width="3.704000" stroke-linejoin="round"/>
		<path id="Vector" d="M231.25 52.25L205.65 57.77L205.65 85.54L231.25 82.68" stroke="#006B99" stroke-opacity="1.000000" stroke-width="3.704000" stroke-linejoin="round" stroke-linecap="round"/>
		<path id="Vector" d="M231.25 52.25L231.25 82.68L233.87 82.68L233.87 52.25L231.25 52.25Z" stroke="#006B99" stroke-opacity="1.000000" stroke-width="3.704000" stroke-linejoin="round"/>
		<path id="Vector" d="M249.96 117.42L223.12 119.77L223.12 146.97L249.96 149.32" stroke="#006B99" stroke-opacity="1.000000" stroke-width="3.704000" stroke-linejoin="round" stroke-linecap="round"/>
		<path id="Vector" d="M249.96 117.42L249.96 149.32L252.7 149.32L252.7 117.42L249.96 117.42Z" stroke="#006B99" stroke-opacity="1.000000" stroke-width="3.704000" stroke-linejoin="round"/>
		<path id="Vector" d="M180.61 50.18L183.45 50.18C184.6 50.18 185.74 50.41 186.8 50.85C187.87 51.29 188.83 51.94 189.65 52.75C190.46 53.57 191.11 54.54 191.55 55.6C191.99 56.67 192.22 57.81 192.22 58.97L192.22 143.98" stroke="#006B99" stroke-opacity="1.000000" stroke-width="3.704000" stroke-linejoin="round" stroke-linecap="round"/>
		<path id="Vector" d="M150.52 50.18L150.98 50.18" stroke="#006B99" stroke-opacity="1.000000" stroke-width="3.704000" stroke-linejoin="round" stroke-linecap="round"/>
		<path id="Vector" d="M147.39 152.77C145.07 152.77 142.84 151.85 141.19 150.2C139.55 148.55 138.62 146.31 138.62 143.98L138.62 58.97C138.62 57.81 138.85 56.67 139.29 55.6C139.73 54.54 140.38 53.57 141.19 52.75C142.01 51.94 142.97 51.29 144.04 50.85C145.1 50.41 146.24 50.18 147.39 50.18" stroke="#006B99" stroke-opacity="1.000000" stroke-width="3.704000" stroke-linejoin="round" stroke-linecap="round"/>
		<path id="Vector" d="M175.85 152.77L166.95 152.77L153.19 152.77L150.52 152.77" stroke="#006B99" stroke-opacity="1.000000" stroke-width="3.704000" stroke-linejoin="round" stroke-linecap="round"/>
		<path id="Vector" d="M149.93 152.77C147.61 152.77 145.38 151.84 143.74 150.2C142.09 148.55 141.17 146.31 141.17 143.98L141.17 58.97C141.17 56.63 142.09 54.4 143.74 52.75C145.38 51.11 147.61 50.18 149.93 50.18" stroke="#006B99" stroke-opacity="1.000000" stroke-width="3.704000" stroke-linejoin="round" stroke-linecap="round"/>
		<path id="Vector" d="M139.39 151.24C138.33 150.48 137.46 149.47 136.86 148.31C136.27 147.14 135.96 145.85 135.96 144.55L135.96 58.4C135.96 57.32 136.17 56.25 136.58 55.25C137 54.26 137.6 53.35 138.36 52.59C139.13 51.82 140.03 51.22 141.03 50.8C142.02 50.39 143.09 50.18 144.17 50.18L150.52 50.18" stroke="#006B99" stroke-opacity="1.000000" stroke-width="3.704000" stroke-linejoin="round" stroke-linecap="round"/>
		<path id="Vector" d="M150.52 152.77L144.17 152.77C142.46 152.78 140.78 152.24 139.39 151.24" stroke="#006B99" stroke-opacity="1.000000" stroke-width="3.704000" stroke-linejoin="round" stroke-linecap="round"/>
		<path id="Vector" d="M178.68 54.86C177.44 56.1 175.76 56.8 174.01 56.8L157.59 56.8C155.83 56.8 154.16 56.1 152.92 54.86C151.68 53.62 150.98 51.93 150.98 50.18L180.61 50.18C180.61 51.93 179.92 53.62 178.68 54.86Z" stroke="#006B99" stroke-opacity="1.000000" stroke-width="3.704000" stroke-linejoin="round"/>
		<path id="Vector" d="M152.64 82.55C151.35 82.55 150.11 82.03 149.19 81.12C148.28 80.2 147.76 78.96 147.76 77.66L147.76 67C147.76 65.7 148.28 64.45 149.19 63.54C150.11 62.62 151.35 62.1 152.64 62.1L181.58 62.1C182.88 62.1 184.12 62.62 185.03 63.54C185.95 64.45 186.46 65.7 186.46 67L186.46 77.66C186.46 78.96 185.95 80.2 185.03 81.12C184.12 82.03 182.88 82.55 181.58 82.55L152.64 82.55Z" stroke="#006B99" stroke-opacity="1.000000" stroke-width="3.704000" stroke-linejoin="round"/>
		<path id="Vector" d="M152.64 112.95C151.35 112.95 150.11 112.44 149.19 111.52C148.28 110.6 147.76 109.36 147.76 108.06L147.76 97.4C147.76 96.1 148.28 94.86 149.19 93.94C150.11 93.02 151.35 92.51 152.64 92.51L181.58 92.51C182.88 92.51 184.12 93.02 185.03 93.94C185.95 94.86 186.46 96.1 186.46 97.4L186.46 108.06C186.46 109.36 185.95 110.6 185.03 111.52C184.12 112.44 182.88 112.95 181.58 112.95L152.64 112.95Z" stroke="#006B99" stroke-opacity="1.000000" stroke-width="3.704000" stroke-linejoin="round"/>
		<path id="Vector" d="M159.25 143.35L152.64 143.35C151.35 143.35 150.11 142.84 149.19 141.92C148.28 141 147.76 139.76 147.76 138.46L147.76 127.8C147.76 126.5 148.28 125.26 149.19 124.34C150.11 123.42 151.35 122.91 152.64 122.91L181.58 122.91C182.88 122.91 184.12 123.42 185.03 124.34C185.95 125.26 186.46 126.5 186.46 127.8L186.46 138.46C186.46 139.12 186.33 139.76 186.08 140.36" stroke="#006B99" stroke-opacity="1.000000" stroke-width="3.704000" stroke-linejoin="round" stroke-linecap="round"/>
		<path id="Vector" d="M127.46 103.54L135.96 103.54L138.62 103.54L141.17 103.54L147.77 103.54L150.98 103.54" stroke="#006B99" stroke-opacity="1.000000" stroke-width="3.704000" stroke-linejoin="round" stroke-linecap="round"/>
		<path id="Vector" d="M171.3 134.93C169.7 134.59 165.75 133.86 163.45 134.42C161.62 134.87 157.74 137.61 158.46 141.37C158.6 142.07 158.86 142.74 159.24 143.35C159.45 143.69 159.67 144.01 159.92 144.31C164.13 149.52 170.78 151.28 175.16 151.63L176.03 152.52C178.16 154.71 183.55 160.25 184.99 161.79C184.99 161.79 189.17 178.23 193.8 182.87C200.06 189.15 203.64 190.94 207.67 191.54" stroke="#006B99" stroke-opacity="1.000000" stroke-width="3.704000" stroke-linejoin="round" stroke-linecap="round"/>
		<path id="Vector" d="M173.48 135.04C173.25 135.05 173.04 135.07 172.85 135.08" stroke="#006B99" stroke-opacity="1.000000" stroke-width="3.704000" stroke-linejoin="round" stroke-linecap="round"/>
		<path id="Vector" d="M177.2 135.15C176.94 135.11 176.69 135.07 176.43 135.05C175.57 134.96 174.69 134.95 173.83 135.02" stroke="#006B99" stroke-opacity="1.000000" stroke-width="3.704000" stroke-linejoin="round" stroke-linecap="round"/>
		<path id="Vector" d="M178 135.32C177.88 135.29 177.76 135.26 177.64 135.24" stroke="#006B99" stroke-opacity="1.000000" stroke-width="3.704000" stroke-linejoin="round" stroke-linecap="round"/>
		<path id="Vector" d="M178.83 135.56C178.65 135.5 178.46 135.44 178.28 135.39" stroke="#006B99" stroke-opacity="1.000000" stroke-width="3.704000" stroke-linejoin="round" stroke-linecap="round"/>
		<path id="Vector" d="M197.97 147.94C195.44 146.83 193.03 145.46 190.77 143.85C189.19 142.78 187.57 141.61 186.03 140.43C184.88 139.54 183.77 138.66 182.77 137.8C181.69 136.88 180.45 136.15 179.12 135.66L178.86 135.57" stroke="#006B99" stroke-opacity="1.000000" stroke-width="3.704000" stroke-linejoin="round" stroke-linecap="round"/>
		<path id="Vector" d="M190.77 143.86C190.77 143.86 191.35 143.97 192.2 144.08C193.98 144.31 196.97 144.55 198.63 143.86" stroke="#006B99" stroke-opacity="1.000000" stroke-width="3.704000" stroke-linejoin="round" stroke-linecap="round"/>
		<path id="Vector" d="M173.7 135.02C172.76 136.05 168.24 139.5 168.82 143.85" stroke="#006B99" stroke-opacity="1.000000" stroke-width="3.704000" stroke-linejoin="round" stroke-linecap="round"/>
		<path id="Vector" d="M158.46 141.37C160.16 142.65 164.36 143.43 166 142.5C166 142.5 166.97 137.57 169.14 135.93" stroke="#006B99" stroke-opacity="1.000000" stroke-width="3.704000" stroke-linejoin="round" stroke-linecap="round"/>
		<path id="Vector" d="M248.12 213.24C248.12 213.24 248.12 208.97 245.05 201.31C242.47 194.87 229.76 175.58 225.81 164.55C222 153.93 216.64 140.69 213.21 133.4C213.08 133.1 212.94 132.82 212.81 132.55C209.43 125.47 203.21 109.05 199.26 102.25C195.3 95.46 192.22 94.51 192.22 94.51" stroke="#006B99" stroke-opacity="1.000000" stroke-width="3.704000" stroke-linejoin="round" stroke-linecap="round"/>
		<path id="Vector" d="M200.82 200.86L200.78 200.85L200.78 200.86C200.82 201.03 201.78 204.79 202.42 208.23C202.79 209.88 202.97 211.56 202.95 213.24" stroke="#006B99" stroke-opacity="1.000000" stroke-width="3.704000" stroke-linejoin="round" stroke-linecap="round"/>
		<path id="Vector" d="M164.76 165.56C164.64 166.15 164.59 166.75 164.61 167.35C164.61 167.53 164.62 167.72 164.64 167.9C164.76 169.25 165.25 170.53 166.07 171.61C167.69 173.77 170.44 177.2 172.01 177.94C172.01 177.94 187.54 197.42 194.7 199.29C199.4 200.52 200.55 200.81 200.78 200.86C200.79 200.86 200.81 200.86 200.82 200.86C200.83 200.87 200.83 200.87 200.84 200.86" stroke="#006B99" stroke-opacity="1.000000" stroke-width="3.704000" stroke-linejoin="round" stroke-linecap="round"/>
		<path id="Vector" d="M164.61 167.9C164.61 167.9 156.45 166.96 152.07 165.56C152.07 165.56 145.09 163.72 143.14 162.88C143.14 162.88 130.94 158.34 127.85 156.55C124.77 154.77 126.23 147.27 132.4 149.07C136.03 150.12 139.24 151.18 139.39 151.24" stroke="#006B99" stroke-opacity="1.000000" stroke-width="3.704000" stroke-linejoin="round" stroke-linecap="round"/>
		<path id="Vector" d="M142.18 155.14C142.18 155.14 141.75 157.08 141.65 158.04" stroke="#006B99" stroke-opacity="1.000000" stroke-width="3.704000" stroke-linejoin="round" stroke-linecap="round"/>
		<path id="Vector" d="M153.44 156.97C153.44 156.97 153.01 159.99 152.9 160.95" stroke="#006B99" stroke-opacity="1.000000" stroke-width="3.704000" stroke-linejoin="round" stroke-linecap="round"/>
		<path id="Vector" d="M200.78 200.85C200.78 200.85 202.79 200.88 204.07 200.85L202.42 208.23" stroke="#006B99" stroke-opacity="1.000000" stroke-width="3.704000" stroke-linejoin="round" stroke-linecap="round"/>
		<path id="Vector" d="M135.59 128.32C135.59 128.32 126.97 126.15 124.09 128.32C121.22 130.48 121.22 136.96 126.61 137.86C132 138.76 135.96 139.44 135.96 139.44" stroke="#006B99" stroke-opacity="1.000000" stroke-width="3.704000" stroke-linejoin="round" stroke-linecap="round"/>
		<path id="Vector" d="M166.95 152.77C166.49 153.64 166.16 154.57 165.95 155.52C165.81 156.12 165.73 156.72 165.69 157.33" stroke="#006B99" stroke-opacity="1.000000" stroke-width="3.704000" stroke-linejoin="round" stroke-linecap="round"/>
		<path id="Vector" d="M153.19 152.77C153.19 152.77 163.71 155.07 165.69 155.51" stroke="#006B99" stroke-opacity="1.000000" stroke-width="3.704000" stroke-linejoin="round" stroke-linecap="round"/>
		<path id="Vector" d="M161.11 106.04C160.64 106.76 159.96 107.31 159.17 107.64C158.38 107.97 157.51 108.05 156.67 107.88C155.84 107.72 155.07 107.31 154.46 106.7C153.86 106.09 153.44 105.32 153.28 104.48C153.11 103.64 153.2 102.77 153.52 101.98C153.85 101.18 154.4 100.51 155.12 100.03C155.83 99.55 156.66 99.3 157.52 99.3C158.09 99.3 158.65 99.41 159.17 99.63C159.7 99.85 160.17 100.17 160.58 100.57C160.98 100.97 161.3 101.45 161.51 101.97C161.73 102.5 161.84 103.06 161.84 103.63C161.84 104.49 161.59 105.33 161.11 106.04Z" stroke="#006B99" stroke-opacity="1.000000" stroke-width="3.704000" stroke-linejoin="round"/>
		<path id="Vector" d="M201.79 72.23L192.22 72.23L186.47 72.23L181.91 72.23" stroke="#006B99" stroke-opacity="1.000000" stroke-width="3.704000" stroke-linejoin="round" stroke-linecap="round"/>
		<path id="Vector" d="M179.7 72.32C179.7 69.93 177.76 67.99 175.37 67.99C172.98 67.99 171.04 69.93 171.04 72.32C171.04 74.72 172.98 76.66 175.37 76.66C177.76 76.66 179.7 74.72 179.7 72.32Z" stroke="#006B99" stroke-opacity="1.000000" stroke-width="3.704000" stroke-linejoin="round"/>
		<path id="Vector" d="M219.95 133.39L213.21 133.39L192.22 133.39L186.47 133.39L181.91 133.39" stroke="#006B99" stroke-opacity="1.000000" stroke-width="3.704000" stroke-linejoin="round" stroke-linecap="round"/>
		<path id="Vector" d="M171.99 135.08C172.28 135.11 172.56 135.11 172.85 135.08C173.04 135.07 173.26 135.06 173.48 135.04C173.55 135.04 173.63 135.03 173.7 135.03C173.75 135.03 173.79 135.03 173.83 135.02C174.7 134.96 175.57 134.97 176.44 135.05C176.68 135.08 176.94 135.11 177.21 135.16C177.35 135.18 177.5 135.21 177.65 135.24C177.77 135.27 177.89 135.3 178.01 135.33C178.1 135.35 178.19 135.38 178.28 135.4C178.47 135.45 178.65 135.51 178.84 135.57C178.85 135.57 178.85 135.57 178.86 135.58C178.95 135.6 179.03 135.63 179.12 135.67L179.12 135.66C179.45 135.09 179.65 134.44 179.69 133.78C179.73 133.12 179.62 132.45 179.37 131.84C179.11 131.22 178.72 130.67 178.22 130.24C177.72 129.8 177.13 129.48 176.49 129.31C175.85 129.14 175.18 129.12 174.53 129.25C173.88 129.37 173.26 129.65 172.74 130.06C172.21 130.46 171.79 130.98 171.49 131.58C171.2 132.18 171.05 132.83 171.05 133.5C171.05 133.99 171.13 134.47 171.3 134.93C171.73 135.02 171.99 135.08 171.99 135.08Z" stroke="#006B99" stroke-opacity="1.000000" stroke-width="3.704000" stroke-linejoin="round"/>
		<path id="Vector" d="M117.29 99.89C116.64 99.89 116.32 98.89 116.78 98.31L118.02 96.74L114.74 92.61L113.5 94.18C113.03 94.75 112.25 94.35 112.25 93.52L112.25 91.31L107.61 91.31L107.61 93.53C107.61 94.35 106.82 94.76 106.36 94.18L105.11 92.61L101.83 96.74L103.08 98.31C103.54 98.89 103.21 99.89 102.56 99.89L100.8 99.89L100.8 105.74L102.56 105.74C103.21 105.74 103.54 106.73 103.08 107.31L101.83 108.88L105.11 113.01L106.36 111.44C106.82 110.86 107.61 111.27 107.61 112.09L107.61 114.31L112.25 114.31L112.25 112.09C112.25 111.27 113.03 110.86 113.5 111.44L114.74 113.01L118.02 108.88L116.78 107.31C116.32 106.73 116.64 105.74 117.29 105.74L119.05 105.74L119.05 99.89L119.06 99.89L117.29 99.89Z" stroke="#006B99" stroke-opacity="1.000000" stroke-width="3.704000" stroke-linejoin="round"/>
		<path id="Vector" d="M109.93 106.28C108.41 106.28 107.17 104.73 107.17 102.81C107.17 100.9 108.41 99.34 109.93 99.34C111.45 99.34 112.68 100.89 112.68 102.81C112.68 104.73 111.45 106.28 109.93 106.28Z" stroke="#006B99" stroke-opacity="1.000000" stroke-width="3.704000" stroke-linejoin="round"/>
		<path id="Vector" d="M220.28 67.83C219.58 67.51 218.81 67.37 218.04 67.41C216.37 67.52 214.91 68.73 213.91 70.47C212.87 72.37 212.39 74.53 212.53 76.7C212.54 76.81 212.55 76.92 212.56 77.04" stroke="#006B99" stroke-opacity="1.000000" stroke-width="3.704000" stroke-linejoin="round" stroke-linecap="round"/>
		<path id="Vector" d="M224.63 75.52C224.63 75.41 224.63 75.29 224.62 75.18C224.52 73.31 223.9 71.51 222.83 69.98C222.5 69.52 222.11 69.1 221.69 68.73" stroke="#006B99" stroke-opacity="1.000000" stroke-width="3.704000" stroke-linejoin="round" stroke-linecap="round"/>
		<path id="Vector" d="M224.63 75.52L228.23 75.29C228.22 75.17 228.22 75.06 228.21 74.94C228.06 71.98 227.07 69.11 225.38 66.68C223.43 63.98 220.68 62.37 217.74 62.56C214.91 62.75 212.47 64.77 210.88 67.69C209.39 70.53 208.72 73.73 208.95 76.93C208.95 77.04 208.96 77.16 208.97 77.27L212.57 77.04" stroke="#006B99" stroke-opacity="1.000000" stroke-width="3.704000" stroke-linejoin="round" stroke-linecap="round"/>
		<path id="Vector" d="M221.86 68.41C221.98 68.18 222.03 67.92 221.99 67.67C221.96 67.41 221.85 67.17 221.68 66.98C221.61 66.9 221.52 66.84 221.42 66.81C221.32 66.77 221.21 66.76 221.11 66.78C221 66.8 220.9 66.85 220.82 66.91C220.74 66.98 220.67 67.07 220.63 67.17L220.28 67.83L218.82 70.51C218.64 70.45 218.44 70.42 218.24 70.43C217.17 70.5 216.37 71.73 216.46 73.18C216.56 74.63 217.51 75.75 218.58 75.68C219.65 75.61 220.45 74.38 220.35 72.93C220.33 72.52 220.23 72.12 220.06 71.74L221.69 68.73L221.86 68.41Z" stroke="#006B99" stroke-opacity="1.000000" stroke-width="3.704000" stroke-linejoin="round"/>
		<path id="Vector" d="M217.73 62.56L218.04 67.41" stroke="#006B99" stroke-opacity="1.000000" stroke-width="3.704000" stroke-linejoin="round" stroke-linecap="round"/>
		<path id="Vector" d="M210.9 67.71L213.53 70.45" stroke="#006B99" stroke-opacity="1.000000" stroke-width="3.704000" stroke-linejoin="round" stroke-linecap="round"/>
		<path id="Vector" d="M225.24 66.77L223.04 69.83" stroke="#006B99" stroke-opacity="1.000000" stroke-width="3.704000" stroke-linejoin="round" stroke-linecap="round"/>
		<path id="Vector" d="M239.11 133.88L241.25 131.16C241.87 131.37 242.54 131.37 243.16 131.17C243.79 130.97 244.33 130.56 244.7 130.02C245.26 129.3 245.6 128.43 245.69 127.52C245.67 127.55 245.64 127.58 245.62 127.62C245.39 127.94 245.1 128.21 244.75 128.39C244.4 128.57 244.01 128.67 243.62 128.67C243.23 128.67 242.84 128.57 242.5 128.39C242.15 128.21 241.85 127.94 241.63 127.62C241.09 126.88 240.8 126 240.8 125.08C240.8 124.17 241.09 123.29 241.63 122.55C241.65 122.52 241.68 122.48 241.71 122.45C240.92 122.61 240.22 123.06 239.74 123.71C239.28 124.33 238.96 125.05 238.81 125.81C238.65 126.57 238.67 127.35 238.85 128.11L236.71 130.83" stroke="#006B99" stroke-opacity="1.000000" stroke-width="3.704000" stroke-linejoin="round" stroke-linecap="round"/>
		<path id="Vector" d="M234.3 133.88L231.26 137.74L231.29 137.78C230.98 137.8 230.67 137.88 230.4 138.03C230.12 138.18 229.88 138.39 229.7 138.64C229.26 139.24 229.03 139.97 229.03 140.71C229.03 141.45 229.26 142.18 229.7 142.78C229.88 143.04 230.12 143.26 230.41 143.41C230.69 143.56 231.01 143.63 231.33 143.63C231.65 143.63 231.96 143.56 232.25 143.41C232.53 143.26 232.77 143.04 232.96 142.78C233.39 142.2 233.63 141.49 233.63 140.75L233.66 140.79L235.61 138.32L236.7 136.93" stroke="#006B99" stroke-opacity="1.000000" stroke-width="3.704000" stroke-linejoin="round" stroke-linecap="round"/>
		<path id="Vector" d="M234.56 128.11C234.74 127.35 234.75 126.57 234.6 125.81C234.44 125.05 234.13 124.33 233.67 123.71C233.19 123.06 232.49 122.61 231.7 122.45C231.73 122.48 231.75 122.52 231.78 122.55C232.31 123.28 232.6 124.17 232.6 125.08C232.6 126 232.31 126.88 231.78 127.62C231.55 127.94 231.26 128.21 230.91 128.39C230.56 128.57 230.18 128.67 229.78 128.67C229.39 128.67 229.01 128.57 228.66 128.39C228.31 128.21 228.01 127.94 227.79 127.62C227.76 127.58 227.74 127.55 227.71 127.52C227.81 128.43 228.15 129.29 228.7 130.02C229.08 130.56 229.62 130.97 230.24 131.17C230.87 131.37 231.54 131.37 232.16 131.16L234.3 133.88L236.7 136.93L239.74 140.79L239.77 140.75C239.77 141.48 240 142.19 240.44 142.78C240.62 143.04 240.87 143.25 241.15 143.4C241.43 143.55 241.75 143.63 242.07 143.63C242.39 143.63 242.7 143.55 242.99 143.4C243.27 143.25 243.52 143.04 243.7 142.78C244.14 142.18 244.37 141.45 244.37 140.71C244.37 139.96 244.14 139.24 243.7 138.64C243.51 138.38 243.28 138.17 243 138.03C242.73 137.88 242.42 137.79 242.11 137.78L242.14 137.74L239.1 133.88L236.7 130.83L234.56 128.11Z" stroke="#006B99" stroke-opacity="1.000000" stroke-width="3.704000" stroke-linejoin="round"/>
		<path id="Vector" d="M234.3 133.88L235.61 138.32" stroke="#006B99" stroke-opacity="1.000000" stroke-width="3.704000" stroke-linejoin="round" stroke-linecap="round"/>
	</g>
</svg>
