<svg width="355.000000" height="238.000000" viewBox="0 0 355 238" fill="none" xmlns="http://www.w3.org/2000/svg" xmlns:xlink="http://www.w3.org/1999/xlink">
	<desc>
			Created with Pixso.
	</desc>
	<defs>
		<clipPath id="clip2_1234">
			<rect id="IMAGE" rx="0.000000" width="354.000000" height="237.000000" transform="translate(0.500000 0.500000)" fill="white" fill-opacity="0"/>
		</clipPath>
	</defs>
	<g clip-path="url(#clip2_1234)">
		<path id="Vector" d="M0 0L355 0L355 238L0 238L0 0Z" fill="#CCEFF6" fill-opacity="1.000000" fill-rule="evenodd"/>
		<path id="Vector" d="M262.07 83.35L262.07 88.13L195.39 88.13L195.39 83.35L262.07 83.35ZM208.4 85.94C208.4 85.72 208.33 85.5 208.21 85.32C208.09 85.13 207.92 84.99 207.72 84.91C207.51 84.82 207.29 84.8 207.08 84.84C206.86 84.89 206.67 84.99 206.51 85.15C206.36 85.31 206.25 85.5 206.21 85.72C206.17 85.94 206.19 86.16 206.27 86.37C206.35 86.57 206.5 86.74 206.68 86.87C206.86 86.99 207.07 87.06 207.29 87.06C207.44 87.06 207.58 87.03 207.72 86.97C207.85 86.92 207.98 86.83 208.08 86.73C208.18 86.62 208.26 86.5 208.32 86.36C208.37 86.23 208.4 86.08 208.4 85.93L208.4 85.94ZM204.05 85.94C204.05 85.72 203.98 85.5 203.86 85.32C203.74 85.13 203.56 84.99 203.36 84.91C203.16 84.82 202.94 84.8 202.72 84.84C202.51 84.89 202.31 84.99 202.16 85.15C202 85.3 201.9 85.5 201.86 85.72C201.81 85.94 201.83 86.16 201.92 86.37C202 86.57 202.14 86.74 202.32 86.87C202.51 86.99 202.72 87.06 202.94 87.06C203.08 87.06 203.23 87.03 203.36 86.97C203.5 86.92 203.62 86.83 203.73 86.73C203.83 86.62 203.91 86.5 203.97 86.36C204.02 86.23 204.05 86.08 204.05 85.93L204.05 85.94ZM199.69 85.94C199.69 85.72 199.63 85.5 199.51 85.32C199.38 85.13 199.21 84.99 199.01 84.91C198.81 84.82 198.58 84.8 198.37 84.84C198.16 84.89 197.96 84.99 197.8 85.15C197.65 85.31 197.54 85.5 197.5 85.72C197.46 85.94 197.48 86.16 197.56 86.37C197.65 86.57 197.79 86.74 197.97 86.87C198.15 86.99 198.37 87.06 198.59 87.06C198.73 87.06 198.88 87.03 199.01 86.97C199.15 86.92 199.27 86.83 199.37 86.73C199.48 86.63 199.56 86.5 199.62 86.37C199.67 86.23 199.7 86.08 199.7 85.93L199.69 85.94Z" fill="#006B99" fill-opacity="1.000000" fill-rule="nonzero"/>
		<path id="Vector" d="M248.78 183.23L176.01 183.23L166.86 176.68L139.49 157.1L139.53 156.92C139.92 157.04 140.33 157.1 140.74 157.1L209.42 157.1C210.14 157.1 210.85 156.91 211.47 156.54L248.78 183.23ZM209.15 173.19L228.72 173.19L222.97 169.08L210.2 159.94L151.13 159.94L156.25 163.6L169.65 173.19L209.15 173.19ZM193.19 180.72L221.59 180.72L214.51 175.65L186.04 175.65L193.12 180.72L193.19 180.72Z" fill="#CCEFF6" fill-opacity="1.000000" fill-rule="nonzero"/>
		<path id="Vector" d="M228.72 173.19L209.15 173.19L209.15 173.07L203.82 169.26L222.85 169.26L222.97 169.08L228.72 173.19Z" fill="#CCEFF6" fill-opacity="1.000000" fill-rule="nonzero"/>
		<path id="Vector" d="M178.01 163.6L172.89 159.94L210.2 159.94L222.97 169.08L222.85 169.26L203.82 169.26L209.15 173.07L209.15 173.19L169.64 173.19L156.24 163.6L178.01 163.6Z" fill="#CCEFF6" fill-opacity="1.000000" fill-rule="nonzero"/>
		<path id="Vector" d="M221.59 180.72L193.19 180.72L193.12 180.72L186.04 175.65L214.43 175.65L214.51 175.65L221.59 180.72Z" fill="#F7CEDC" fill-opacity="1.000000" fill-rule="nonzero"/>
		<path id="Vector" d="M213.5 128.28L213.5 152.98C213.5 153.52 213.4 154.06 213.19 154.56C212.99 155.06 212.68 155.51 212.3 155.89C211.93 156.28 211.47 156.58 210.98 156.79C210.48 157 209.95 157.1 209.42 157.1L140.74 157.1C140.21 157.1 139.67 157 139.18 156.79C138.68 156.58 138.23 156.28 137.86 155.89C137.48 155.51 137.17 155.06 136.97 154.56C136.77 154.06 136.66 153.52 136.66 152.98L136.66 103.59C136.66 102.49 137.09 101.45 137.86 100.67C138.62 99.9 139.66 99.46 140.74 99.46L209.42 99.46C209.95 99.46 210.48 99.57 210.98 99.78C211.48 99.98 211.93 100.29 212.31 100.67C212.68 101.05 212.99 101.51 213.19 102.01C213.4 102.51 213.5 103.05 213.5 103.59L213.5 128.28ZM210.39 150.72L210.39 105.84C210.39 104.98 210.05 104.16 209.45 103.55C208.85 102.94 208.04 102.6 207.18 102.6L142.98 102.6C142.12 102.6 141.31 102.94 140.71 103.55C140.11 104.16 139.77 104.98 139.77 105.84L139.77 150.72C139.77 151.58 140.11 152.41 140.71 153.01C141.31 153.62 142.12 153.96 142.98 153.96L207.18 153.96C208.03 153.96 208.85 153.62 209.45 153.01C210.05 152.41 210.39 151.58 210.39 150.72L210.39 150.72Z" fill="#CCEFF6" fill-opacity="1.000000" fill-rule="nonzero"/>
		<path id="Vector" d="M210.39 105.84L210.39 119.72L209.78 119.72L209.78 119.48C209.78 115.52 207.57 113.59 204.88 113.59L204.59 113.59C204.41 113.59 204.24 113.52 204.12 113.39C204 113.27 203.93 113.1 203.93 112.92L203.93 111.88C204.35 111.67 204.71 111.34 204.95 110.94C205.2 110.53 205.34 110.07 205.34 109.59L205.34 108.17C205.34 107.5 205.07 106.85 204.6 106.37C204.12 105.89 203.48 105.62 202.81 105.62C202.14 105.62 201.5 105.89 201.02 106.37C200.55 106.85 200.29 107.5 200.29 108.17L200.29 109.59C200.29 110.07 200.42 110.53 200.67 110.94C200.92 111.34 201.27 111.67 201.69 111.88L201.69 112.93C201.69 113.1 201.62 113.27 201.5 113.4C201.38 113.52 201.21 113.59 201.04 113.6C200.28 113.57 199.54 113.7 198.84 113.98C198.14 114.27 197.51 114.69 196.99 115.24C196.46 115.78 196.05 116.43 195.79 117.14C195.53 117.85 195.41 118.61 195.45 119.37L195.39 119.37L195.39 102.6L207.18 102.6C208.03 102.6 208.85 102.94 209.45 103.55C210.05 104.16 210.39 104.98 210.39 105.84Z" fill="#F7CEDC" fill-opacity="1.000000" fill-rule="nonzero"/>
		<path id="Vector" d="M209.71 152.52L209.85 152.53C209.55 152.97 209.16 153.33 208.69 153.58C208.23 153.83 207.71 153.96 207.19 153.96L195.39 153.96L195.39 153.6L195.45 153.6C195.41 152.84 195.53 152.08 195.79 151.37C196.05 150.66 196.46 150.01 196.99 149.47C197.51 148.93 198.14 148.5 198.84 148.22C199.54 147.94 200.28 147.8 201.04 147.83C201.12 147.83 201.21 147.81 201.29 147.78C201.37 147.75 201.44 147.7 201.5 147.64C201.56 147.58 201.61 147.5 201.64 147.42C201.68 147.34 201.7 147.25 201.7 147.17L201.7 146.12C201.27 145.91 200.92 145.58 200.67 145.18C200.42 144.77 200.29 144.31 200.29 143.83L200.29 142.41C200.29 141.74 200.55 141.09 201.03 140.61C201.5 140.13 202.14 139.86 202.81 139.86C203.48 139.86 204.12 140.13 204.6 140.61C205.07 141.09 205.34 141.74 205.34 142.41L205.34 143.83C205.34 144.31 205.2 144.77 204.96 145.18C204.71 145.58 204.35 145.91 203.93 146.12L203.93 147.17C203.93 147.35 204 147.51 204.12 147.64C204.25 147.76 204.41 147.83 204.59 147.83L204.88 147.83C207.29 147.83 209.3 149.37 209.71 152.52Z" fill="#006B99" fill-opacity="1.000000" fill-rule="nonzero"/>
		<path id="Vector" d="M209.78 136.45L209.78 136.78L195.39 136.78L195.39 136.32L195.45 136.32C195.41 135.57 195.53 134.81 195.79 134.1C196.05 133.38 196.46 132.74 196.99 132.19C197.51 131.65 198.14 131.23 198.84 130.94C199.54 130.66 200.28 130.53 201.04 130.55C201.21 130.55 201.38 130.48 201.5 130.36C201.63 130.23 201.69 130.07 201.7 129.89L201.7 128.84C201.27 128.63 200.92 128.31 200.67 127.9C200.42 127.5 200.29 127.03 200.29 126.55L200.29 125.13C200.29 124.46 200.55 123.81 201.03 123.33C201.5 122.85 202.14 122.58 202.81 122.58C203.48 122.58 204.12 122.85 204.6 123.33C205.07 123.81 205.34 124.46 205.34 125.13L205.34 126.56C205.34 127.03 205.2 127.5 204.96 127.9C204.71 128.31 204.35 128.63 203.93 128.84L203.93 129.89C203.93 130.06 204 130.23 204.12 130.36C204.25 130.48 204.41 130.55 204.59 130.55L204.88 130.55C207.57 130.55 209.78 132.49 209.78 136.45Z" fill="#006B99" fill-opacity="1.000000" fill-rule="nonzero"/>
		<path id="Vector" d="M209.78 119.49L209.78 119.72L195.39 119.72L195.39 119.36L195.45 119.36C195.41 118.6 195.53 117.84 195.79 117.13C196.05 116.42 196.46 115.78 196.99 115.23C197.51 114.69 198.14 114.27 198.84 113.98C199.54 113.7 200.28 113.57 201.04 113.59C201.21 113.59 201.38 113.52 201.5 113.4C201.63 113.28 201.69 113.11 201.7 112.93L201.7 111.88C201.27 111.67 200.92 111.34 200.67 110.94C200.42 110.53 200.29 110.07 200.29 109.59L200.29 108.17C200.29 107.49 200.55 106.85 201.03 106.37C201.5 105.89 202.14 105.62 202.81 105.62C203.48 105.62 204.12 105.89 204.6 106.37C205.07 106.85 205.34 107.49 205.34 108.17L205.34 109.59C205.34 110.07 205.2 110.53 204.96 110.94C204.71 111.34 204.35 111.67 203.93 111.88L203.93 112.93C203.93 113.1 204 113.27 204.12 113.4C204.25 113.52 204.41 113.59 204.59 113.59L204.88 113.59C207.57 113.59 209.78 115.53 209.78 119.49Z" fill="#006B99" fill-opacity="1.000000" fill-rule="nonzero"/>
		<path id="Vector" d="M202.94 84.82C203.16 84.82 203.37 84.88 203.56 85.01C203.74 85.13 203.88 85.3 203.97 85.51C204.05 85.71 204.07 85.94 204.03 86.15C203.99 86.37 203.88 86.57 203.73 86.73C203.57 86.88 203.37 86.99 203.16 87.03C202.94 87.07 202.72 87.05 202.52 86.97C202.32 86.88 202.15 86.74 202.02 86.56C201.9 86.37 201.84 86.16 201.84 85.93C201.84 85.64 201.95 85.36 202.16 85.15C202.37 84.94 202.65 84.82 202.94 84.82Z" fill="#FFCEB6" fill-opacity="1.000000" fill-rule="nonzero"/>
		<path id="Vector" d="M198.59 84.82C198.81 84.82 199.02 84.88 199.2 85.01C199.39 85.13 199.53 85.3 199.61 85.51C199.7 85.71 199.72 85.94 199.68 86.15C199.63 86.37 199.53 86.57 199.37 86.73C199.22 86.88 199.02 86.99 198.81 87.03C198.59 87.07 198.37 87.05 198.17 86.97C197.96 86.88 197.79 86.74 197.67 86.56C197.55 86.37 197.48 86.16 197.49 85.93C197.49 85.64 197.6 85.36 197.81 85.15C198.02 84.94 198.3 84.82 198.59 84.82Z" fill="#CCEFF6" fill-opacity="1.000000" fill-rule="nonzero"/>
		<path id="Vector" d="M184.34 51.62L184.34 56.4L92.78 56.4L92.78 51.62L184.34 51.62ZM105.79 54.21C105.79 53.99 105.72 53.77 105.6 53.59C105.48 53.4 105.31 53.26 105.11 53.18C104.9 53.09 104.68 53.07 104.47 53.11C104.25 53.16 104.06 53.26 103.9 53.42C103.75 53.58 103.64 53.77 103.6 53.99C103.56 54.21 103.58 54.43 103.66 54.64C103.75 54.84 103.89 55.02 104.07 55.14C104.25 55.26 104.46 55.33 104.68 55.33C104.83 55.33 104.97 55.3 105.11 55.24C105.24 55.19 105.36 55.1 105.47 55C105.57 54.9 105.65 54.77 105.71 54.64C105.76 54.5 105.79 54.36 105.79 54.21ZM101.44 54.21C101.44 53.99 101.37 53.77 101.25 53.59C101.13 53.4 100.96 53.26 100.75 53.18C100.55 53.09 100.33 53.07 100.12 53.11C99.9 53.16 99.7 53.26 99.55 53.42C99.39 53.58 99.29 53.77 99.25 53.99C99.2 54.21 99.22 54.43 99.31 54.64C99.39 54.84 99.53 55.01 99.71 55.14C99.9 55.26 100.11 55.33 100.33 55.33C100.47 55.33 100.62 55.3 100.75 55.24C100.89 55.19 101.01 55.1 101.11 55C101.22 54.9 101.3 54.77 101.35 54.64C101.41 54.5 101.44 54.36 101.44 54.21ZM97.08 54.21C97.08 53.99 97.02 53.77 96.9 53.59C96.77 53.4 96.6 53.26 96.4 53.18C96.2 53.09 95.98 53.07 95.76 53.11C95.55 53.16 95.35 53.26 95.2 53.42C95.04 53.58 94.94 53.77 94.89 53.99C94.85 54.21 94.87 54.43 94.96 54.64C95.04 54.84 95.18 55.02 95.36 55.14C95.54 55.26 95.76 55.33 95.98 55.33C96.12 55.33 96.27 55.3 96.4 55.24C96.53 55.19 96.66 55.1 96.76 55C96.86 54.9 96.94 54.77 97 54.64C97.05 54.5 97.08 54.36 97.08 54.21Z" fill="#006B99" fill-opacity="1.000000" fill-rule="nonzero"/>
		<path id="Vector" d="M181.18 120.63L181.18 122.82L179.03 121.74C179.25 121.37 179.57 121.07 179.95 120.88C180.33 120.68 180.76 120.59 181.18 120.63Z" fill="#FFCEB6" fill-opacity="1.000000" fill-rule="nonzero"/>
		<path id="Vector" d="M172.89 159.94L178.01 163.6L156.24 163.6L151.12 159.94L172.89 159.94Z" fill="#CCEFF6" fill-opacity="1.000000" fill-rule="nonzero"/>
		<path id="Vector" d="M163.19 75.94C163.27 76 163.33 76.07 163.38 76.16C163.43 76.24 163.46 76.34 163.47 76.44C163.48 76.53 163.47 76.63 163.44 76.73C163.41 76.82 163.36 76.91 163.29 76.98L161.33 79.07L159.3 81.23L155.49 85.3L155.27 85.33C155.18 85.24 155.08 85.15 154.97 85.09C154.72 84.93 154.44 84.84 154.16 84.83L154.16 84.82L159.34 79.22L162.28 76.03C162.34 75.96 162.42 75.9 162.51 75.87C162.59 75.83 162.69 75.81 162.78 75.81C162.93 75.81 163.07 75.85 163.19 75.94Z" fill="#006B99" fill-opacity="1.000000" fill-rule="nonzero"/>
		<path id="Vector" d="M158.78 111.55L161.12 112.72C160.66 114.16 158.78 113.69 158.78 113.69L158.78 111.55Z" fill="#FFCEB6" fill-opacity="1.000000" fill-rule="nonzero"/>
		<path id="Vector" d="M157.74 68.37L157.74 70.57L155.59 69.49C155.81 69.12 156.13 68.82 156.51 68.62C156.89 68.43 157.32 68.34 157.74 68.37Z" fill="#FFCEB6" fill-opacity="1.000000" fill-rule="nonzero"/>
		<path id="Vector" d="M156.24 88.62C156.57 89.56 155.54 90.51 155.54 90.51C154.75 89.96 153.11 90.71 152.64 91.61C151.22 91.41 151.25 90.66 151.75 89.95C152.09 89.49 152.52 89.11 153 88.81C154.12 88.13 155.9 87.68 156.24 88.62Z" fill="#FFCEB6" fill-opacity="1.000000" fill-rule="nonzero"/>
		<path id="Vector" d="M155.12 86.94C156.39 87.66 156.24 88.62 156.24 88.62C155.9 87.68 154.12 88.13 153 88.81C152.52 89.1 152.09 89.49 151.75 89.95L151.59 89.84C151.46 89.83 151.33 89.81 151.2 89.78C150.15 89.52 150.78 88.56 150.82 88.49C151.38 88.27 151.91 87.99 152.4 87.64C152.54 87.53 152.66 87.39 152.75 87.24L152.85 87.25C152.85 87.25 154.27 86.45 155.12 86.94Z" fill="#FFCEB6" fill-opacity="1.000000" fill-rule="nonzero"/>
		<path id="Vector" d="M152.64 91.6C153.11 90.7 154.74 89.96 155.54 90.51C156.33 91.06 155.88 92.55 154 94.7C153.55 95.3 152.98 95.79 152.32 96.13C151.66 96.47 150.93 96.66 150.18 96.68L148.85 99.42L148.85 99.46L141.97 99.46L141.97 99.43L144.84 93.28L147.5 88.15C147.67 87.87 147.92 87.64 148.22 87.5C149.39 86.86 150.66 86.42 151.97 86.21C152.12 86.2 152.26 86.22 152.4 86.25C152.49 86.28 152.58 86.34 152.65 86.41C152.73 86.47 152.78 86.56 152.82 86.66C152.85 86.75 152.86 86.85 152.85 86.95C152.84 87.05 152.8 87.15 152.75 87.23C152.66 87.39 152.54 87.52 152.4 87.63C151.91 87.98 151.38 88.27 150.82 88.48C150.65 88.55 150.49 88.62 150.35 88.67L150.37 88.74L145.93 93.49C145.86 93.56 145.81 93.64 145.78 93.74C145.75 93.83 145.74 93.93 145.75 94.03C145.76 94.13 145.79 94.22 145.84 94.31C145.89 94.39 145.95 94.46 146.03 94.52C146.15 94.61 146.29 94.65 146.44 94.65C146.53 94.65 146.63 94.63 146.72 94.6C146.8 94.56 146.88 94.5 146.95 94.43L151.09 90L151.2 89.78C151.33 89.81 151.46 89.83 151.59 89.84L151.75 89.95C151.25 90.66 151.22 91.41 152.64 91.6Z" fill="#FFCEB6" fill-opacity="1.000000" fill-rule="nonzero"/>
		<path id="Vector" d="M155.27 85.34C155.85 86.02 155.12 86.94 155.12 86.94C154.27 86.45 152.85 87.25 152.85 87.25L152.75 87.24C152.81 87.15 152.84 87.05 152.85 86.95C152.86 86.85 152.85 86.75 152.82 86.66C152.78 86.56 152.73 86.48 152.66 86.41C152.58 86.34 152.5 86.28 152.4 86.26C152.26 86.22 152.12 86.2 151.98 86.21C152.2 85.82 152.51 85.48 152.89 85.24C153.27 85 153.71 84.86 154.16 84.83C154.45 84.85 154.73 84.94 154.97 85.09C155.08 85.16 155.18 85.24 155.27 85.34Z" fill="#FFCEB6" fill-opacity="1.000000" fill-rule="nonzero"/>
		<path id="Vector" d="M154.97 153.6L154.97 153.96L142.98 153.96C142.45 153.96 141.94 153.83 141.48 153.59C141.02 153.34 140.63 152.99 140.33 152.55L140.38 152.52C140.78 149.37 142.8 147.83 145.21 147.83L145.5 147.83C145.67 147.83 145.84 147.76 145.96 147.63C146.09 147.51 146.16 147.34 146.16 147.17L146.16 146.12C145.73 145.91 145.38 145.58 145.13 145.18C144.88 144.77 144.75 144.31 144.75 143.83L144.75 142.41C144.74 142.07 144.81 141.73 144.93 141.42C145.05 141.1 145.24 140.82 145.47 140.58C145.71 140.33 145.99 140.14 146.3 140.01C146.61 139.88 146.94 139.81 147.28 139.81C147.61 139.81 147.94 139.88 148.25 140.01C148.56 140.14 148.84 140.33 149.08 140.58C149.31 140.82 149.5 141.1 149.62 141.42C149.75 141.73 149.81 142.07 149.8 142.41L149.8 143.83C149.8 144.31 149.67 144.77 149.42 145.18C149.17 145.58 148.82 145.91 148.39 146.12L148.39 147.17C148.39 147.35 148.46 147.51 148.58 147.64C148.71 147.76 148.87 147.83 149.05 147.83C149.8 147.81 150.55 147.94 151.25 148.22C151.94 148.5 152.58 148.93 153.1 149.47C153.63 150.02 154.03 150.66 154.3 151.37C154.56 152.09 154.68 152.84 154.63 153.6L154.97 153.6Z" fill="#006B99" fill-opacity="1.000000" fill-rule="nonzero"/>
		<path id="Vector" d="M154.97 136.78L154.97 153.6L154.63 153.6C154.68 152.84 154.56 152.08 154.3 151.37C154.03 150.66 153.63 150.01 153.1 149.47C152.58 148.93 151.94 148.5 151.25 148.22C150.55 147.94 149.8 147.8 149.05 147.83C148.88 147.83 148.71 147.76 148.59 147.64C148.46 147.51 148.39 147.34 148.39 147.17L148.39 146.12C148.82 145.91 149.17 145.58 149.42 145.18C149.67 144.77 149.8 144.31 149.8 143.83L149.8 142.41C149.79 141.74 149.52 141.11 149.05 140.64C148.57 140.17 147.94 139.91 147.28 139.91C146.61 139.91 145.98 140.17 145.51 140.64C145.03 141.11 144.76 141.74 144.75 142.41L144.75 143.83C144.75 144.31 144.88 144.77 145.13 145.18C145.38 145.58 145.73 145.91 146.16 146.12L146.16 147.17C146.16 147.35 146.09 147.51 145.96 147.64C145.84 147.76 145.67 147.83 145.5 147.83L145.21 147.83C142.8 147.83 140.78 149.38 140.38 152.53L140.33 152.56C139.97 152.02 139.77 151.38 139.77 150.72L139.77 136.78L154.97 136.78Z" fill="#F7CEDC" fill-opacity="1.000000" fill-rule="nonzero"/>
		<path id="Vector" d="M154.97 136.32L154.97 136.78L140.3 136.78L140.3 136.45C140.3 132.49 142.51 130.55 145.21 130.55L145.5 130.55C145.67 130.55 145.84 130.48 145.96 130.36C146.08 130.23 146.15 130.07 146.15 129.89L146.15 128.84C145.73 128.63 145.38 128.3 145.13 127.9C144.88 127.5 144.75 127.03 144.75 126.55L144.75 125.13C144.74 124.8 144.8 124.46 144.93 124.14C145.05 123.83 145.24 123.54 145.47 123.3C145.71 123.06 145.99 122.87 146.3 122.73C146.61 122.6 146.94 122.54 147.27 122.54C147.61 122.54 147.94 122.6 148.25 122.73C148.56 122.87 148.84 123.06 149.08 123.3C149.31 123.54 149.5 123.83 149.62 124.14C149.74 124.46 149.8 124.8 149.8 125.13L149.8 126.56C149.8 127.03 149.67 127.5 149.42 127.9C149.17 128.31 148.81 128.63 148.39 128.84L148.39 129.89C148.39 130.06 148.46 130.23 148.58 130.36C148.71 130.48 148.87 130.55 149.05 130.55C149.8 130.52 150.55 130.66 151.24 130.94C151.94 131.22 152.57 131.65 153.1 132.19C153.62 132.73 154.03 133.38 154.3 134.09C154.56 134.8 154.67 135.56 154.63 136.32L154.97 136.32Z" fill="#006B99" fill-opacity="1.000000" fill-rule="nonzero"/>
		<path id="Vector" d="M154.97 119.36L154.97 119.72L140.3 119.72L140.3 119.49C140.3 115.53 142.51 113.59 145.21 113.59L145.5 113.59C145.67 113.59 145.84 113.52 145.96 113.4C146.08 113.27 146.15 113.11 146.15 112.93L146.15 111.88C145.73 111.67 145.38 111.34 145.13 110.94C144.88 110.53 144.75 110.07 144.75 109.59L144.75 108.17C144.74 107.83 144.8 107.5 144.93 107.18C145.05 106.87 145.24 106.58 145.47 106.34C145.71 106.09 145.99 105.9 146.3 105.77C146.61 105.64 146.94 105.57 147.27 105.57C147.61 105.57 147.94 105.64 148.25 105.77C148.56 105.9 148.84 106.09 149.08 106.34C149.31 106.58 149.5 106.87 149.62 107.18C149.74 107.5 149.8 107.83 149.8 108.17L149.8 109.59C149.8 110.07 149.67 110.53 149.42 110.94C149.17 111.34 148.81 111.67 148.39 111.88L148.39 112.93C148.39 113.1 148.46 113.27 148.58 113.4C148.71 113.52 148.87 113.59 149.05 113.59C149.8 113.56 150.55 113.7 151.24 113.98C151.94 114.26 152.57 114.69 153.1 115.23C153.62 115.77 154.03 116.42 154.3 117.13C154.56 117.84 154.67 118.6 154.63 119.36L154.97 119.36Z" fill="#006B99" fill-opacity="1.000000" fill-rule="nonzero"/>
		<path id="Vector" d="M151.2 89.78L151.09 90.01L146.95 94.43C146.89 94.5 146.81 94.56 146.72 94.6C146.63 94.64 146.54 94.66 146.44 94.66C146.3 94.66 146.15 94.61 146.04 94.53C145.96 94.47 145.89 94.39 145.84 94.31C145.79 94.22 145.76 94.13 145.75 94.03C145.74 93.93 145.75 93.83 145.79 93.74C145.82 93.65 145.87 93.56 145.93 93.49L150.37 88.75L150.35 88.68C150.49 88.62 150.65 88.56 150.82 88.49C150.78 88.56 150.15 89.52 151.2 89.78Z" fill="#006B99" fill-opacity="1.000000" fill-rule="nonzero"/>
		<path id="Vector" d="M135.34 59.29L137.68 60.47C137.23 61.9 135.34 61.43 135.34 61.43L135.34 59.29Z" fill="#FFCEB6" fill-opacity="1.000000" fill-rule="nonzero"/>
		<path id="Vector" d="M136.66 105.33L136.66 115.4L132.45 115.4L132.45 115.3L129.58 111.88C130.15 110.53 130.46 109.09 130.48 107.63C130.48 105.93 129.37 103.81 128.42 102.29L132.45 99.46L136.66 105.33Z" fill="#FFCEB6" fill-opacity="1.000000" fill-rule="nonzero"/>
		<path id="Vector" d="M127.58 56.4L127.58 91.75L127.53 91.84C126.94 91.57 126.32 91.38 125.68 91.26L125.71 91.12L125.71 56.4L127.58 56.4Z" fill="#CCEFF6" fill-opacity="1.000000" fill-rule="nonzero"/>
		<path id="Vector" d="M121.08 83.44C121.58 84.46 121.02 85.94 119.95 86.08C119.57 86.13 119.18 86.07 118.84 85.9C119.28 85.24 119.62 84.51 119.84 83.75C119.97 83.43 120.18 83.09 120.39 82.65C120.69 82.84 120.92 83.12 121.08 83.44Z" fill="#006B99" fill-opacity="1.000000" fill-rule="nonzero"/>
		<path id="Vector" d="M117.52 90.03L120.96 91.12C120.96 91.12 119.07 93.23 113.97 93.51C110.77 93.62 107.62 92.79 104.87 91.12L109.2 89.31L106.4 86.37C106.41 86.37 106.03 83.24 106.04 83.24C106.58 83.17 110.34 86.55 110.65 86.1L111.49 86.3C112.3 86.86 113.2 87.31 114.14 87.62L114.17 87.63C114.45 87.73 116.5 88.49 117.44 88.78L117.46 88.78L117.47 88.95L117.52 90.03Z" fill="#FFCEB6" fill-opacity="1.000000" fill-rule="nonzero"/>
		<path id="Vector" d="M118.76 83.04C118.66 83.11 118.55 83.17 118.44 83.23C118.44 83.23 117.38 82.99 116.98 82.96C116.67 82.93 114.89 83.02 114.21 83.06C114.04 83.06 113.94 83.07 113.94 83.07C114.38 83.45 114.85 83.81 115.34 84.13C115.61 84.33 115.91 84.46 116.23 84.51C116.55 84.57 116.88 84.55 117.2 84.46C117.78 84.06 118.31 83.59 118.76 83.04ZM105.27 78.61C105.76 78.07 106.44 78.37 106.87 78.67C107.32 79 107.87 79.17 108.43 79.15C111.35 78.95 111.97 74.54 112.16 72.96C112.16 72.96 116.17 73.4 117.47 74.05C117.59 74.11 117.72 74.18 117.84 74.25C119.11 75.01 120.05 76.22 120.47 77.65L120.44 77.74C120.36 77.98 120.29 78.14 120.29 78.14C120.67 78.97 120.81 79.89 120.7 80.8C120.58 81.47 120.37 82.12 120.08 82.74C119.8 83.33 119.51 83.79 119.33 84.22C119.04 85.25 118.58 86.22 117.99 87.11C117.82 87.32 117.61 87.5 117.37 87.63C117.15 87.76 116.9 87.84 116.65 87.88C115.95 87.96 115.25 87.91 114.57 87.73C114.44 87.7 114.3 87.67 114.18 87.63L114.14 87.62C113.2 87.31 112.31 86.86 111.49 86.3L110.03 86.1C110.32 85.75 110.49 85.33 110.53 84.87C110.56 84.43 110.46 83.97 110.24 83.58C109.71 82.73 109.32 82.39 107.97 83C107.64 83.17 107.37 83.44 107.19 83.77L107.09 84.19C106.18 83.66 104.15 80.89 105.02 79.01C105.08 78.86 105.17 78.73 105.27 78.61Z" fill="#FFCEB6" fill-opacity="1.000000" fill-rule="nonzero"/>
		<path id="Vector" d="M112.15 72.95C112.15 72.95 112.15 72.96 112.15 72.96C111.96 74.65 111.26 79.61 107.74 79.12C107.5 79.08 107.26 78.98 107.07 78.82C106.67 78.5 105.84 77.97 105.27 78.61C105.16 78.73 105.08 78.86 105.02 79.01C104.15 80.89 105.78 82.44 106.69 82.97L107.43 83.48C107.27 83.75 107.18 84.07 107.17 84.4C107.16 84.72 107.23 85.04 107.38 85.33C107.76 86.42 108.64 86.3 109.31 86.31L109.2 89.31L104.87 91.12C102.98 91.44 101.15 92.04 99.42 92.89C97.81 88.36 103.12 80.88 104.6 76.48C104.75 76.02 104.56 72.66 107 69.89C108.23 68.88 109.68 68.18 111.22 67.82C111.4 67.78 111.57 67.74 111.74 67.7C113.35 67.39 115.03 67.62 116.51 68.34C117.99 69.06 119.21 70.24 119.97 71.71C122.06 76 120.47 77.65 120.47 77.65C120.05 76.22 119.11 75.01 117.84 74.25C116.73 73.33 115.42 72.69 114.02 72.38C112.11 72.07 112.14 72.84 112.15 72.95Z" fill="#006B99" fill-opacity="1.000000" fill-rule="nonzero"/>
		<path id="Vector" d="M117.84 74.25C117.71 74.18 117.59 74.11 117.47 74.05C116.17 73.4 112.15 72.96 112.15 72.96C112.16 72.96 112.16 72.95 112.15 72.95C112.14 72.84 112.11 72.07 114.03 72.38C115.43 72.69 116.73 73.33 117.84 74.25Z" fill="#006B99" fill-opacity="1.000000" fill-rule="nonzero"/>
		<path id="Vector" d="M117.4 87.68L117.46 88.78L117.44 88.78C116.5 88.49 114.45 87.73 114.17 87.62C114.3 87.67 114.44 87.7 114.57 87.73C115.25 87.91 115.95 87.96 116.65 87.88C116.9 87.84 117.15 87.76 117.37 87.63L117.4 87.68Z" fill="#006B99" fill-opacity="1.000000" fill-rule="nonzero"/>
		<path id="Vector" d="M109.14 86.16C108.74 86.21 108.33 86.11 107.99 85.88C107.65 85.65 107.4 85.31 107.28 84.92C107.2 84.68 107.17 84.43 107.2 84.18C107.22 83.93 107.3 83.69 107.43 83.48C107.56 83.27 107.74 83.1 107.97 83C108.16 82.89 108.37 82.82 108.6 82.79C108.82 82.77 109.04 82.79 109.25 82.86C109.47 82.93 109.66 83.04 109.83 83.19C109.99 83.34 110.13 83.53 110.22 83.74C110.35 84.03 110.41 84.36 110.38 84.68C110.35 85.01 110.24 85.32 110.06 85.59C109.96 85.74 109.84 85.87 109.68 85.97C109.53 86.06 109.36 86.13 109.19 86.15C109.17 86.15 109.16 86.16 109.14 86.16Z" fill="#CCEFF6" fill-opacity="1.000000" fill-rule="nonzero"/>
		<path id="Vector" d="M104.87 106.47L104.6 115.4L95.57 115.4L95.57 106.1L104.87 106.47Z" fill="#FFCEB6" fill-opacity="1.000000" fill-rule="nonzero"/>
		<path id="Vector" d="M100.33 53.09C100.55 53.09 100.76 53.16 100.94 53.28C101.13 53.4 101.27 53.58 101.35 53.78C101.44 53.99 101.46 54.21 101.41 54.43C101.37 54.64 101.27 54.84 101.11 55C100.96 55.16 100.76 55.26 100.55 55.31C100.33 55.35 100.11 55.33 99.91 55.24C99.7 55.16 99.53 55.01 99.41 54.83C99.29 54.65 99.22 54.43 99.22 54.21C99.22 53.91 99.34 53.63 99.55 53.42C99.75 53.21 100.04 53.09 100.33 53.09Z" fill="#FFCEB6" fill-opacity="1.000000" fill-rule="nonzero"/>
		<path id="Vector" d="M95.98 53.09C96.19 53.09 96.41 53.16 96.59 53.28C96.77 53.4 96.91 53.58 97 53.78C97.08 53.99 97.1 54.21 97.06 54.43C97.02 54.64 96.91 54.84 96.76 55C96.6 55.16 96.41 55.26 96.19 55.31C95.98 55.35 95.76 55.33 95.55 55.24C95.35 55.16 95.18 55.01 95.06 54.83C94.94 54.65 94.87 54.43 94.87 54.21C94.87 53.91 94.99 53.63 95.2 53.42C95.4 53.21 95.68 53.09 95.98 53.09Z" fill="#CCEFF6" fill-opacity="1.000000" fill-rule="nonzero"/>
		<path id="Vector" d="M209.42 157.1L140.74 157.1C140.21 157.1 139.67 157 139.18 156.79C138.68 156.58 138.23 156.28 137.86 155.89C137.48 155.51 137.17 155.06 136.97 154.56C136.77 154.06 136.66 153.52 136.66 152.98L136.66 103.59C136.66 102.49 137.09 101.45 137.86 100.67C138.62 99.9 139.66 99.46 140.74 99.46L209.42 99.46C209.95 99.46 210.48 99.57 210.98 99.78C211.48 99.98 211.93 100.29 212.31 100.67C212.68 101.05 212.99 101.51 213.19 102.01C213.4 102.51 213.5 103.05 213.5 103.59L213.5 152.98C213.5 153.7 213.31 154.41 212.96 155.03C212.6 155.66 212.09 156.18 211.47 156.54C210.85 156.91 210.14 157.1 209.42 157.1Z" stroke="#006B99" stroke-opacity="1.000000" stroke-width="3.234350" stroke-linejoin="round"/>
		<path id="Vector" d="M142.98 153.96C142.12 153.96 141.31 153.62 140.71 153.01C140.11 152.4 139.77 151.58 139.77 150.72L139.77 105.84C139.77 104.98 140.11 104.16 140.71 103.55C141.31 102.94 142.12 102.6 142.98 102.6L207.18 102.6C208.03 102.6 208.85 102.94 209.45 103.55C210.05 104.16 210.39 104.98 210.39 105.84L210.39 150.72C210.39 151.58 210.05 152.41 209.45 153.01C208.85 153.62 208.03 153.96 207.18 153.96L154.97 153.96L154.97 153.96L142.98 153.96Z" stroke="#006B99" stroke-opacity="1.000000" stroke-width="3.234350" stroke-linejoin="round"/>
		<path id="Vector" d="M171.06 101.3L176.35 101.3" stroke="#006B99" stroke-opacity="1.000000" stroke-width="3.234350" stroke-linejoin="round" stroke-linecap="round"/>
		<path id="Vector" d="M154.97 102.6L154.97 119.36L154.97 119.72L154.97 136.32L154.97 136.78L154.97 153.6L154.97 153.96" stroke="#006B99" stroke-opacity="1.000000" stroke-width="3.234350" stroke-linejoin="round" stroke-linecap="round"/>
		<path id="Vector" d="M195.39 102.6L195.39 119.36L195.39 119.72L195.39 136.32L195.39 136.78L195.39 153.6L195.39 153.96" stroke="#006B99" stroke-opacity="1.000000" stroke-width="3.234350" stroke-linejoin="round" stroke-linecap="round"/>
		<path id="Vector" d="M139.77 119.72L140.3 119.72L154.97 119.72" stroke="#006B99" stroke-opacity="1.000000" stroke-width="3.234350" stroke-linejoin="round" stroke-linecap="round"/>
		<path id="Vector" d="M139.77 136.78L140.3 136.78L154.97 136.78" stroke="#006B99" stroke-opacity="1.000000" stroke-width="3.234350" stroke-linejoin="round" stroke-linecap="round"/>
		<path id="Vector" d="M154.63 119.36C154.67 118.6 154.56 117.84 154.3 117.13C154.03 116.42 153.63 115.78 153.1 115.23C152.57 114.69 151.94 114.27 151.25 113.98C150.55 113.7 149.8 113.57 149.05 113.59C148.87 113.59 148.71 113.52 148.59 113.4C148.46 113.28 148.39 113.11 148.39 112.93L148.39 111.88C148.82 111.67 149.17 111.34 149.42 110.94C149.67 110.53 149.8 110.07 149.8 109.59L149.8 108.17C149.79 107.5 149.52 106.87 149.04 106.4C148.57 105.93 147.94 105.67 147.28 105.67C146.61 105.67 145.98 105.93 145.51 106.4C145.03 106.87 144.76 107.5 144.75 108.17L144.75 109.59C144.75 110.07 144.88 110.53 145.13 110.94C145.38 111.34 145.73 111.67 146.16 111.88L146.16 112.93C146.16 113.1 146.09 113.27 145.96 113.4C145.84 113.52 145.67 113.59 145.5 113.59L145.21 113.59C142.51 113.59 140.31 115.53 140.31 119.49" stroke="#006B99" stroke-opacity="1.000000" stroke-width="3.234350" stroke-linejoin="round" stroke-linecap="round"/>
		<path id="Vector" d="M154.63 136.32C154.67 135.57 154.56 134.81 154.3 134.1C154.03 133.38 153.63 132.74 153.1 132.19C152.58 131.65 151.94 131.22 151.25 130.94C150.55 130.66 149.8 130.53 149.05 130.55C148.87 130.55 148.71 130.48 148.59 130.36C148.46 130.23 148.39 130.07 148.39 129.89L148.39 128.84C148.81 128.63 149.17 128.31 149.42 127.9C149.67 127.5 149.8 127.03 149.8 126.56L149.8 125.13C149.79 124.47 149.52 123.83 149.05 123.36C148.57 122.89 147.94 122.63 147.28 122.63C146.61 122.63 145.98 122.89 145.51 123.36C145.03 123.83 144.76 124.47 144.75 125.13L144.75 126.56C144.75 127.03 144.88 127.5 145.13 127.9C145.38 128.31 145.73 128.63 146.16 128.84L146.16 129.89C146.16 130.06 146.09 130.23 145.96 130.36C145.84 130.48 145.67 130.55 145.5 130.55L145.21 130.55C142.51 130.55 140.31 132.49 140.31 136.45" stroke="#006B99" stroke-opacity="1.000000" stroke-width="3.234350" stroke-linejoin="round" stroke-linecap="round"/>
		<path id="Vector" d="M154.63 153.6C154.68 152.84 154.56 152.08 154.3 151.37C154.03 150.66 153.63 150.01 153.1 149.47C152.58 148.93 151.94 148.5 151.25 148.22C150.55 147.94 149.8 147.8 149.05 147.83C148.87 147.83 148.71 147.76 148.58 147.64C148.46 147.51 148.39 147.34 148.39 147.17L148.39 146.12C148.81 145.91 149.17 145.58 149.42 145.18C149.67 144.77 149.8 144.31 149.8 143.83L149.8 142.41C149.79 141.74 149.52 141.11 149.04 140.64C148.57 140.17 147.94 139.91 147.28 139.91C146.61 139.91 145.98 140.17 145.51 140.64C145.03 141.11 144.76 141.74 144.75 142.41L144.75 143.83C144.75 144.31 144.88 144.77 145.13 145.18C145.38 145.58 145.73 145.91 146.16 146.12L146.16 147.17C146.16 147.35 146.09 147.51 145.96 147.64C145.84 147.76 145.67 147.83 145.5 147.83L145.21 147.83C142.8 147.83 140.78 149.38 140.38 152.53" stroke="#006B99" stroke-opacity="1.000000" stroke-width="3.234350" stroke-linejoin="round" stroke-linecap="round"/>
		<path id="Vector" d="M210.39 119.72L209.78 119.72L195.43 119.72" stroke="#006B99" stroke-opacity="1.000000" stroke-width="3.234350" stroke-linejoin="round" stroke-linecap="round"/>
		<path id="Vector" d="M210.39 136.78L209.78 136.78L195.43 136.78" stroke="#006B99" stroke-opacity="1.000000" stroke-width="3.234350" stroke-linejoin="round" stroke-linecap="round"/>
		<path id="Vector" d="M195.45 119.36C195.41 118.6 195.53 117.85 195.79 117.13C196.05 116.42 196.46 115.78 196.99 115.24C197.51 114.69 198.14 114.27 198.84 113.98C199.54 113.7 200.28 113.57 201.04 113.59C201.21 113.59 201.38 113.52 201.5 113.4C201.63 113.28 201.69 113.11 201.69 112.93L201.69 111.88C201.27 111.67 200.92 111.34 200.67 110.94C200.42 110.53 200.29 110.07 200.29 109.59L200.29 108.17C200.29 107.49 200.55 106.85 201.03 106.37C201.5 105.89 202.14 105.62 202.81 105.62C203.48 105.62 204.12 105.89 204.6 106.37C205.07 106.85 205.34 107.49 205.34 108.17L205.34 109.59C205.34 110.07 205.2 110.53 204.96 110.94C204.71 111.34 204.35 111.67 203.93 111.88L203.93 112.93C203.93 113.1 204 113.27 204.12 113.4C204.25 113.52 204.41 113.59 204.59 113.59L204.88 113.59C207.57 113.59 209.78 115.53 209.78 119.49" stroke="#006B99" stroke-opacity="1.000000" stroke-width="3.234350" stroke-linejoin="round" stroke-linecap="round"/>
		<path id="Vector" d="M195.45 136.32C195.41 135.57 195.53 134.81 195.79 134.1C196.05 133.38 196.46 132.74 196.99 132.19C197.51 131.65 198.14 131.23 198.84 130.94C199.54 130.66 200.28 130.53 201.04 130.55C201.21 130.55 201.38 130.48 201.5 130.36C201.63 130.23 201.69 130.07 201.7 129.89L201.7 128.84C201.27 128.63 200.92 128.31 200.67 127.9C200.42 127.5 200.29 127.03 200.29 126.55L200.29 125.13C200.29 124.46 200.55 123.81 201.03 123.33C201.5 122.85 202.14 122.58 202.81 122.58C203.48 122.58 204.12 122.85 204.6 123.33C205.07 123.81 205.34 124.46 205.34 125.13L205.34 126.56C205.34 127.03 205.2 127.5 204.96 127.9C204.71 128.31 204.35 128.63 203.93 128.84L203.93 129.89C203.93 130.06 204 130.23 204.12 130.36C204.25 130.48 204.41 130.55 204.59 130.55L204.88 130.55C207.57 130.55 209.78 132.49 209.78 136.45" stroke="#006B99" stroke-opacity="1.000000" stroke-width="3.234350" stroke-linejoin="round" stroke-linecap="round"/>
		<path id="Vector" d="M195.45 153.6C195.41 152.84 195.53 152.08 195.79 151.37C196.05 150.66 196.46 150.01 196.99 149.47C197.51 148.93 198.14 148.5 198.84 148.22C199.54 147.94 200.28 147.8 201.04 147.83C201.12 147.83 201.21 147.81 201.29 147.78C201.37 147.75 201.44 147.7 201.5 147.64C201.56 147.57 201.61 147.5 201.64 147.42C201.68 147.34 201.69 147.25 201.7 147.17L201.7 146.12C201.27 145.91 200.92 145.58 200.67 145.18C200.42 144.77 200.29 144.31 200.29 143.83L200.29 142.41C200.29 141.73 200.55 141.09 201.03 140.61C201.5 140.13 202.14 139.86 202.81 139.86C203.48 139.86 204.12 140.13 204.6 140.61C205.07 141.09 205.34 141.73 205.34 142.41L205.34 143.83C205.34 144.31 205.2 144.77 204.96 145.18C204.71 145.58 204.35 145.91 203.93 146.12L203.93 147.17C203.93 147.35 204 147.51 204.12 147.64C204.25 147.76 204.41 147.83 204.59 147.83L204.88 147.83C207.28 147.83 209.3 149.38 209.71 152.53" stroke="#006B99" stroke-opacity="1.000000" stroke-width="3.234350" stroke-linejoin="round" stroke-linecap="round"/>
		<path id="Vector" d="M195.39 99.46L195.39 88.13L195.39 83.35L262.07 83.35L262.07 88.13L262.07 128.28L213.5 128.28" stroke="#006B99" stroke-opacity="1.000000" stroke-width="3.234350" stroke-linejoin="round" stroke-linecap="round"/>
		<path id="Vector" d="M195.39 88.13L262.07 88.13" stroke="#006B99" stroke-opacity="1.000000" stroke-width="3.234350" stroke-linejoin="round" stroke-linecap="round"/>
		<path id="Vector" d="M199.51 86.56C199.39 86.74 199.22 86.88 199.02 86.97C198.82 87.05 198.59 87.07 198.38 87.03C198.16 86.99 197.97 86.88 197.81 86.73C197.66 86.57 197.55 86.37 197.51 86.16C197.47 85.94 197.49 85.71 197.57 85.51C197.65 85.31 197.8 85.13 197.98 85.01C198.16 84.88 198.37 84.82 198.59 84.82C198.74 84.82 198.88 84.85 199.02 84.9C199.15 84.96 199.27 85.04 199.37 85.15C199.48 85.25 199.56 85.37 199.61 85.51C199.67 85.64 199.7 85.79 199.7 85.93C199.7 86.16 199.63 86.37 199.51 86.56Z" stroke="#006B99" stroke-opacity="1.000000" stroke-width="3.234350" stroke-linejoin="round"/>
		<path id="Vector" d="M203.86 86.56C203.74 86.74 203.57 86.88 203.37 86.97C203.17 87.05 202.94 87.07 202.73 87.03C202.51 86.99 202.32 86.88 202.16 86.73C202.01 86.57 201.9 86.37 201.86 86.16C201.82 85.94 201.84 85.71 201.92 85.51C202 85.31 202.15 85.13 202.33 85.01C202.51 84.89 202.72 84.82 202.94 84.82C203.09 84.82 203.23 84.85 203.37 84.9C203.5 84.96 203.62 85.04 203.72 85.14C203.83 85.25 203.91 85.37 203.96 85.51C204.02 85.64 204.05 85.79 204.05 85.93C204.05 86.16 203.98 86.37 203.86 86.56Z" stroke="#006B99" stroke-opacity="1.000000" stroke-width="3.234350" stroke-linejoin="round"/>
		<path id="Vector" d="M208.22 86.56C208.1 86.74 207.92 86.88 207.72 86.97C207.52 87.05 207.3 87.07 207.08 87.03C206.87 86.99 206.67 86.88 206.52 86.73C206.36 86.57 206.25 86.37 206.21 86.16C206.17 85.94 206.19 85.71 206.27 85.51C206.36 85.31 206.5 85.13 206.68 85.01C206.86 84.88 207.08 84.82 207.3 84.82C207.44 84.82 207.58 84.85 207.72 84.9C207.85 84.96 207.97 85.04 208.08 85.14C208.18 85.25 208.26 85.37 208.32 85.51C208.37 85.64 208.4 85.79 208.4 85.93C208.4 86.16 208.34 86.37 208.22 86.56Z" stroke="#006B99" stroke-opacity="1.000000" stroke-width="3.234350" stroke-linejoin="round"/>
		<path id="Vector" d="M136.66 115.4L132.45 115.4L127.58 115.4L104.6 115.4L95.57 115.4L92.78 115.4L92.78 56.4L92.78 51.62L184.34 51.62L184.34 56.4L184.34 99.46" stroke="#006B99" stroke-opacity="1.000000" stroke-width="3.234350" stroke-linejoin="round" stroke-linecap="round"/>
		<path id="Vector" d="M92.78 56.4L125.71 56.4L127.58 56.4L184.34 56.4" stroke="#006B99" stroke-opacity="1.000000" stroke-width="3.234350" stroke-linejoin="round" stroke-linecap="round"/>
		<path id="Vector" d="M96.9 54.83C96.78 55.01 96.6 55.16 96.4 55.24C96.2 55.33 95.98 55.35 95.76 55.31C95.55 55.26 95.35 55.16 95.2 55C95.04 54.85 94.94 54.65 94.89 54.43C94.85 54.21 94.87 53.99 94.95 53.78C95.04 53.58 95.18 53.4 95.36 53.28C95.54 53.16 95.76 53.09 95.98 53.09C96.27 53.09 96.55 53.21 96.76 53.42C96.97 53.63 97.08 53.91 97.08 54.21C97.08 54.43 97.02 54.65 96.9 54.83Z" stroke="#006B99" stroke-opacity="1.000000" stroke-width="3.234350" stroke-linejoin="round"/>
		<path id="Vector" d="M101.25 54.83C101.13 55.01 100.96 55.16 100.76 55.24C100.55 55.33 100.33 55.35 100.12 55.31C99.9 55.26 99.7 55.16 99.55 55C99.39 54.85 99.29 54.65 99.25 54.43C99.2 54.21 99.22 53.99 99.31 53.78C99.39 53.58 99.53 53.41 99.71 53.28C99.9 53.16 100.11 53.09 100.33 53.09C100.47 53.09 100.62 53.12 100.75 53.18C100.89 53.23 101.01 53.32 101.11 53.42C101.21 53.52 101.3 53.65 101.35 53.78C101.41 53.92 101.44 54.06 101.44 54.21C101.44 54.43 101.37 54.65 101.25 54.83Z" stroke="#006B99" stroke-opacity="1.000000" stroke-width="3.234350" stroke-linejoin="round"/>
		<path id="Vector" d="M105.6 54.83C105.48 55.01 105.31 55.16 105.11 55.24C104.91 55.33 104.68 55.35 104.47 55.31C104.25 55.26 104.06 55.16 103.9 55C103.75 54.85 103.64 54.65 103.6 54.43C103.56 54.21 103.58 53.99 103.66 53.78C103.74 53.58 103.89 53.4 104.07 53.28C104.25 53.16 104.46 53.09 104.68 53.09C104.98 53.09 105.26 53.21 105.46 53.42C105.67 53.63 105.79 53.91 105.79 54.21C105.79 54.43 105.72 54.65 105.6 54.83Z" stroke="#006B99" stroke-opacity="1.000000" stroke-width="3.234350" stroke-linejoin="round"/>
		<path id="Vector" d="M166.86 176.68L139.49 157.1L139.49 158.18C139.49 158.92 139.66 159.64 140 160.29C140.33 160.95 140.82 161.51 141.41 161.93L173.93 185.2C175.29 186.16 176.91 186.68 178.57 186.69L245.5 186.69C245.93 186.69 246.35 186.6 246.75 186.43C247.15 186.27 247.51 186.02 247.82 185.71C248.12 185.41 248.36 185.04 248.53 184.64C248.69 184.24 248.78 183.8 248.78 183.37L248.78 183.23" stroke="#006B99" stroke-opacity="1.000000" stroke-width="3.234350" stroke-linejoin="round" stroke-linecap="round"/>
		<path id="Vector" d="M211.47 156.54L248.78 183.23L176.01 183.23" stroke="#006B99" stroke-opacity="1.000000" stroke-width="3.234350" stroke-linejoin="round" stroke-linecap="round"/>
		<path id="Vector" d="M205.89 96.27L251.57 96.27" stroke="#006B99" stroke-opacity="1.000000" stroke-width="3.234350" stroke-linejoin="round" stroke-linecap="round"/>
		<path id="Vector" d="M213.98 106.64L251.57 106.64" stroke="#006B99" stroke-opacity="1.000000" stroke-width="3.234350" stroke-linejoin="round" stroke-linecap="round"/>
		<path id="Vector" d="M213.98 117L251.57 117" stroke="#006B99" stroke-opacity="1.000000" stroke-width="3.234350" stroke-linejoin="round" stroke-linecap="round"/>
		<path id="Vector" d="M119.38 143.92L134.5 143.92" stroke="#006B99" stroke-opacity="1.000000" stroke-width="3.234350" stroke-linejoin="round" stroke-linecap="round"/>
		<path id="Vector" d="M215.77 143.92L237.12 143.92" stroke="#006B99" stroke-opacity="1.000000" stroke-width="3.234350" stroke-linejoin="round" stroke-linecap="round"/>
		<path id="Vector" d="M166.86 176.68L176.01 183.23L176.01 186.18" stroke="#006B99" stroke-opacity="1.000000" stroke-width="3.234350" stroke-linejoin="round" stroke-linecap="round"/>
		<path id="Vector" d="M193.12 180.72L186.04 175.65L214.43 175.65" stroke="#F7CEDC" stroke-opacity="1.000000" stroke-width="3.234350" stroke-linejoin="round" stroke-linecap="round"/>
		<path id="Vector" d="M214.51 175.65L221.59 180.72L193.19 180.72" stroke="#006B99" stroke-opacity="1.000000" stroke-width="3.234350" stroke-linejoin="round" stroke-linecap="round"/>
		<path id="Vector" d="M209.15 173.19L169.64 173.19L156.24 163.6L151.12 159.94L172.89 159.94L210.2 159.94L222.97 169.08L228.72 173.19L209.15 173.19Z" stroke="#006B99" stroke-opacity="1.000000" stroke-width="3.234350" stroke-linejoin="round"/>
		<path id="Vector" d="M156.24 163.6L178.01 163.6L207.3 163.6" stroke="#006B99" stroke-opacity="1.000000" stroke-width="3.234350" stroke-linejoin="round" stroke-linecap="round"/>
		<path id="Vector" d="M171.79 169.26L203.82 169.26L222.85 169.26" stroke="#006B99" stroke-opacity="1.000000" stroke-width="3.234350" stroke-linejoin="round" stroke-linecap="round"/>
		<path id="Vector" d="M172.89 159.94L178.01 163.6L183.34 167.42" stroke="#006B99" stroke-opacity="1.000000" stroke-width="3.234350" stroke-linejoin="round" stroke-linecap="round"/>
		<path id="Vector" d="M198.7 165.59L203.82 169.26L209.15 173.07" stroke="#006B99" stroke-opacity="1.000000" stroke-width="3.234350" stroke-linejoin="round" stroke-linecap="round"/>
		<path id="Vector" d="M184.95 133.35C185.73 133.68 186.45 134.16 187.04 134.77C187.65 135.38 188.12 136.1 188.45 136.89C188.77 137.68 188.94 138.53 188.94 139.39C188.94 139.41 188.94 139.43 188.94 139.45C188.94 141.18 188.26 142.84 187.04 144.07C185.83 145.29 184.19 145.98 182.48 145.98C180.76 145.98 179.12 145.29 177.91 144.07C176.7 142.84 176.02 141.18 176.02 139.45C176.02 139.43 176.02 139.41 176.02 139.39C176.02 137.66 176.7 136 177.91 134.77C179.12 133.55 180.76 132.86 182.48 132.86C183.32 132.86 184.16 133.03 184.95 133.35Z" stroke="#006B99" stroke-opacity="1.000000" stroke-width="3.234350" stroke-linejoin="round"/>
		<path id="Vector" d="M182.48 128.72L182.48 132.86L182.48 139.45L182.48 145.92L182.48 149.56" stroke="#006B99" stroke-opacity="1.000000" stroke-width="3.234350" stroke-linejoin="round" stroke-linecap="round"/>
		<path id="Vector" d="M192.79 139.45L188.93 139.45L182.48 139.45L176.02 139.45L172.16 139.45" stroke="#006B99" stroke-opacity="1.000000" stroke-width="3.234350" stroke-linejoin="round" stroke-linecap="round"/>
		<path id="Vector" d="M158.95 79.1C158.99 77.39 159.69 75.77 160.9 74.58C162.1 73.39 163.72 72.72 165.41 72.72C167.1 72.72 168.72 73.39 169.93 74.58C171.13 75.77 171.83 77.39 171.87 79.1C171.87 79.12 171.87 79.14 171.87 79.17C171.86 80.7 171.3 82.19 170.31 83.35C169.32 84.52 167.95 85.29 166.45 85.54C164.95 85.79 163.41 85.49 162.1 84.71C160.79 83.92 159.8 82.69 159.3 81.24" stroke="#006B99" stroke-opacity="1.000000" stroke-width="3.234350" stroke-linejoin="round" stroke-linecap="round"/>
		<path id="Vector" d="M165.41 68.43L165.41 72.57L165.41 79.17L165.41 85.63L165.41 89.27" stroke="#006B99" stroke-opacity="1.000000" stroke-width="3.234350" stroke-linejoin="round" stroke-linecap="round"/>
		<path id="Vector" d="M159.27 79.17L158.95 79.17L155.1 79.17" stroke="#006B99" stroke-opacity="1.000000" stroke-width="3.234350" stroke-linejoin="round" stroke-linecap="round"/>
		<path id="Vector" d="M175.73 79.17L171.87 79.17L165.41 79.17L161.43 79.17" stroke="#006B99" stroke-opacity="1.000000" stroke-width="3.234350" stroke-linejoin="round" stroke-linecap="round"/>
		<path id="Vector" d="M169 116.69L161.12 112.72L158.78 111.55L158.78 113.69L158.78 117.91L169 116.69L181.18 115.25L181.18 120.63L181.18 122.82L179.03 121.74L169 116.69Z" stroke="#006B99" stroke-opacity="1.000000" stroke-width="3.234350" stroke-linejoin="round"/>
		<path id="Vector" d="M158.78 113.68C158.78 113.68 160.66 114.16 161.12 112.72" stroke="#006B99" stroke-opacity="1.000000" stroke-width="3.234350" stroke-linejoin="round" stroke-linecap="round"/>
		<path id="Vector" d="M179.03 121.74C179.25 121.37 179.57 121.07 179.95 120.87C180.33 120.68 180.75 120.59 181.18 120.63" stroke="#006B99" stroke-opacity="1.000000" stroke-width="3.234350" stroke-linejoin="round" stroke-linecap="round"/>
		<path id="Vector" d="M145.57 64.44L137.68 60.47L135.34 59.29L135.34 61.43L135.34 65.65L145.57 64.44L157.74 62.99L157.74 68.37L157.74 70.57L155.59 69.48L145.57 64.44Z" stroke="#006B99" stroke-opacity="1.000000" stroke-width="3.234350" stroke-linejoin="round"/>
		<path id="Vector" d="M135.34 61.43C135.34 61.43 137.23 61.9 137.68 60.47" stroke="#006B99" stroke-opacity="1.000000" stroke-width="3.234350" stroke-linejoin="round" stroke-linecap="round"/>
		<path id="Vector" d="M155.59 69.49C155.81 69.12 156.13 68.82 156.51 68.62C156.89 68.43 157.32 68.34 157.75 68.38" stroke="#006B99" stroke-opacity="1.000000" stroke-width="3.234350" stroke-linejoin="round" stroke-linecap="round"/>
		<path id="Vector" d="M164.57 136.38L164.57 133.24L164.57 128.72L169.04 128.72L172.15 128.72L172.15 136.38L164.57 136.38Z" stroke="#006B99" stroke-opacity="1.000000" stroke-width="3.234350" stroke-linejoin="round"/>
		<path id="Vector" d="M164.57 133.24L161.46 133.24L161.46 125.58L169.04 125.58L169.04 128.72L169.04 133.24L164.57 133.24Z" stroke="#006B99" stroke-opacity="1.000000" stroke-width="3.234350" stroke-linejoin="round"/>
		<path id="Vector" d="M161.46 125.58L164.57 128.72" stroke="#006B99" stroke-opacity="1.000000" stroke-width="3.234350" stroke-linejoin="round" stroke-linecap="round"/>
		<path id="Vector" d="M169.04 125.58L172.15 128.72" stroke="#006B99" stroke-opacity="1.000000" stroke-width="3.234350" stroke-linejoin="round" stroke-linecap="round"/>
		<path id="Vector" d="M169.04 133.24L172.15 136.38" stroke="#006B99" stroke-opacity="1.000000" stroke-width="3.234350" stroke-linejoin="round" stroke-linecap="round"/>
		<path id="Vector" d="M161.46 133.24L164.57 136.38" stroke="#006B99" stroke-opacity="1.000000" stroke-width="3.234350" stroke-linejoin="round" stroke-linecap="round"/>
		<path id="Vector" d="M136.59 87L136.59 83.86L136.59 79.34L141.06 79.34L144.17 79.34L144.17 87L136.59 87Z" stroke="#006B99" stroke-opacity="1.000000" stroke-width="3.234350" stroke-linejoin="round"/>
		<path id="Vector" d="M136.59 83.85L133.48 83.85L133.48 76.2L141.06 76.2L141.06 79.34L141.06 83.85L136.59 83.85Z" stroke="#006B99" stroke-opacity="1.000000" stroke-width="3.234350" stroke-linejoin="round"/>
		<path id="Vector" d="M133.48 76.2L136.59 79.34" stroke="#006B99" stroke-opacity="1.000000" stroke-width="3.234350" stroke-linejoin="round" stroke-linecap="round"/>
		<path id="Vector" d="M141.06 76.2L144.17 79.34" stroke="#006B99" stroke-opacity="1.000000" stroke-width="3.234350" stroke-linejoin="round" stroke-linecap="round"/>
		<path id="Vector" d="M141.06 83.85L144.17 87" stroke="#006B99" stroke-opacity="1.000000" stroke-width="3.234350" stroke-linejoin="round" stroke-linecap="round"/>
		<path id="Vector" d="M133.48 83.85L136.59 87" stroke="#006B99" stroke-opacity="1.000000" stroke-width="3.234350" stroke-linejoin="round" stroke-linecap="round"/>
		<path id="Vector" d="M161.15 146.17C161.15 146.17 159.88 146.7 159.81 147.61C159.75 148.52 160.91 148.52 161.42 148C161.44 147.38 161.38 146.76 161.23 146.15C161.18 145.94 161.1 145.74 161 145.55C160.52 144.64 159.71 144.77 159.42 145.39" stroke="#006B99" stroke-opacity="1.000000" stroke-width="3.234350" stroke-linejoin="round" stroke-linecap="round"/>
		<path id="Vector" d="M185.75 108.46C185.75 108.46 184.48 108.99 184.41 109.9C184.35 110.81 185.51 110.81 186.03 110.29C186.05 109.67 185.98 109.05 185.83 108.44C185.78 108.24 185.71 108.04 185.61 107.85C185.13 106.93 184.32 107.06 184.03 107.68" stroke="#006B99" stroke-opacity="1.000000" stroke-width="3.234350" stroke-linejoin="round" stroke-linecap="round"/>
		<path id="Vector" d="M163.01 145.92L164.57 145.92" stroke="#006B99" stroke-opacity="1.000000" stroke-width="3.234350" stroke-linejoin="round" stroke-linecap="round"/>
		<path id="Vector" d="M163.01 147.17L164.57 147.17" stroke="#006B99" stroke-opacity="1.000000" stroke-width="3.234350" stroke-linejoin="round" stroke-linecap="round"/>
		<path id="Vector" d="M166.02 145.52C166.1 144.53 168.43 144.52 167.98 146.23C167.68 147.4 166.06 148.35 166.06 148.35L168.7 148.35" stroke="#006B99" stroke-opacity="1.000000" stroke-width="3.234350" stroke-linejoin="round" stroke-linecap="round"/>
		<path id="Vector" d="M176.77 107.76C176.85 106.78 179.19 106.75 178.73 108.47C178.43 109.64 176.82 110.59 176.82 110.59L179.45 110.59" stroke="#006B99" stroke-opacity="1.000000" stroke-width="3.234350" stroke-linejoin="round" stroke-linecap="round"/>
		<path id="Vector" d="M171.38 106.49C171.44 105.83 173.01 105.82 172.7 106.97C172.5 107.75 171.42 108.39 171.42 108.39L173.18 108.39" stroke="#006B99" stroke-opacity="1.000000" stroke-width="3.234350" stroke-linejoin="round" stroke-linecap="round"/>
		<path id="Vector" d="M172.57 146.97C172.01 145.69 170.52 146.6 170.42 147.78C171.49 149.03 173.12 148.24 172.57 146.97Z" stroke="#006B99" stroke-opacity="1.000000" stroke-width="3.234350" stroke-linejoin="round"/>
		<path id="Vector" d="M171.4 144.32C170.76 145.01 169.35 146.52 170.42 147.78" stroke="#006B99" stroke-opacity="1.000000" stroke-width="3.234350" stroke-linejoin="round" stroke-linecap="round"/>
		<path id="Vector" d="M181.55 107.51L181.55 108.51L181.55 109.51" stroke="#006B99" stroke-opacity="1.000000" stroke-width="3.234350" stroke-linejoin="round" stroke-linecap="round"/>
		<path id="Vector" d="M180.44 108.51L181.55 108.51L182.57 108.51" stroke="#006B99" stroke-opacity="1.000000" stroke-width="3.234350" stroke-linejoin="round" stroke-linecap="round"/>
		<path id="Vector" d="M175.9 106.01C174.98 106.29 174.22 108.06 174.5 109.3C174.58 109.82 174.79 110.32 175.11 110.75C175.44 111.17 175.87 111.5 176.35 111.7" stroke="#006B99" stroke-opacity="1.000000" stroke-width="3.234350" stroke-linejoin="round" stroke-linecap="round"/>
		<path id="Vector" d="M186.72 106.01C187.63 106.29 188.4 108.06 188.11 109.3C188.03 109.82 187.82 110.32 187.5 110.74C187.17 111.17 186.75 111.5 186.26 111.7" stroke="#006B99" stroke-opacity="1.000000" stroke-width="3.234350" stroke-linejoin="round" stroke-linecap="round"/>
		<path id="Vector" d="M125.71 56.4L125.71 91.12" stroke="#006B99" stroke-opacity="1.000000" stroke-width="3.234350" stroke-linejoin="round" stroke-linecap="round"/>
		<path id="Vector" d="M127.58 56.4L127.58 91.75" stroke="#006B99" stroke-opacity="1.000000" stroke-width="3.234350" stroke-linejoin="round" stroke-linecap="round"/>
		<path id="Vector" d="M104.87 104.88L104.87 106.47L95.57 106.1L94.55 106.06C94.55 106.06 94.62 98.73 96.53 95.42C97.25 94.32 98.25 93.45 99.42 92.89C101.15 92.04 102.98 91.44 104.87 91.12C107.62 92.78 110.77 93.61 113.97 93.5C119.07 93.23 120.96 91.12 120.96 91.12C122.53 90.94 124.12 90.99 125.68 91.26C126.32 91.38 126.94 91.57 127.53 91.84C127.98 92.04 128.4 92.32 128.76 92.66C130.53 94.51 132.09 96.57 133.39 98.79L132.45 99.46L128.42 102.29" stroke="#006B99" stroke-opacity="1.000000" stroke-width="3.234350" stroke-linejoin="round" stroke-linecap="round"/>
		<path id="Vector" d="M95.57 106.1L95.57 115.4" stroke="#006B99" stroke-opacity="1.000000" stroke-width="3.234350" stroke-linejoin="round" stroke-linecap="round"/>
		<path id="Vector" d="M104.88 106.47L104.6 115.4" stroke="#006B99" stroke-opacity="1.000000" stroke-width="3.234350" stroke-linejoin="round" stroke-linecap="round"/>
		<path id="Vector" d="M127.05 100.33C127.05 100.33 127.69 101.13 128.42 102.29C129.37 103.81 130.48 105.93 130.48 107.63C130.46 109.09 130.15 110.53 129.58 111.88C129.08 113.11 128.4 114.26 127.58 115.3" stroke="#006B99" stroke-opacity="1.000000" stroke-width="3.234350" stroke-linejoin="round" stroke-linecap="round"/>
		<path id="Vector" d="M119.98 106.1C119.98 106.1 120.22 110.55 118.58 112.55" stroke="#006B99" stroke-opacity="1.000000" stroke-width="3.234350" stroke-linejoin="round" stroke-linecap="round"/>
		<path id="Vector" d="M119.39 78.9C119.11 78.78 118.81 78.7 118.5 78.67C118.21 78.61 117.91 78.63 117.63 78.73" stroke="#006B99" stroke-opacity="1.000000" stroke-width="3.234350" stroke-linejoin="round" stroke-linecap="round"/>
		<path id="Vector" d="M112.85 78.58C113.2 78.49 113.55 78.43 113.91 78.39C114.2 78.33 114.5 78.36 114.78 78.46" stroke="#006B99" stroke-opacity="1.000000" stroke-width="3.234350" stroke-linejoin="round" stroke-linecap="round"/>
		<path id="Vector" d="M117.23 77.7C117.11 77.96 117.05 78.24 117.05 78.52C117.05 78.8 117.12 79.08 117.24 79.33C117.43 79.95 118.01 80.62 117.91 81.2C117.81 81.79 116.73 82.03 116.11 81.85" stroke="#006B99" stroke-opacity="1.000000" stroke-width="3.234350" stroke-linejoin="round" stroke-linecap="round"/>
		<path id="Vector" d="M114.14 87.62C113.2 87.31 112.3 86.86 111.49 86.3" stroke="#006B99" stroke-opacity="1.000000" stroke-width="3.234350" stroke-linejoin="round" stroke-linecap="round"/>
		<path id="Vector" d="M120.07 82.73C119.8 83.33 119.51 83.79 119.33 84.22C119.03 85.25 118.58 86.22 117.99 87.11C117.81 87.32 117.6 87.5 117.36 87.63C117.14 87.76 116.9 87.84 116.64 87.88C115.95 87.96 115.24 87.91 114.56 87.73C114.43 87.7 114.3 87.66 114.17 87.62" stroke="#006B99" stroke-opacity="1.000000" stroke-width="3.234350" stroke-linejoin="round" stroke-linecap="round"/>
		<path id="Vector" d="M120.43 77.74C120.35 77.98 120.28 78.13 120.28 78.13C120.67 78.96 120.81 79.89 120.69 80.8C120.57 81.47 120.36 82.12 120.07 82.73" stroke="#006B99" stroke-opacity="1.000000" stroke-width="3.234350" stroke-linejoin="round" stroke-linecap="round"/>
		<path id="Vector" d="M112.07 77.45C112.85 76.96 113.77 76.73 114.69 76.81C115.7 76.98 115.76 77.33 115.76 77.35" stroke="#006B99" stroke-opacity="1.000000" stroke-width="3.234350" stroke-linejoin="round" stroke-linecap="round"/>
		<path id="Vector" d="M120.11 76.91C119.81 76.88 119.51 76.9 119.22 76.96C118.79 77.05 118.36 77.16 117.95 77.31" stroke="#006B99" stroke-opacity="1.000000" stroke-width="3.234350" stroke-linejoin="round" stroke-linecap="round"/>
		<path id="Vector" d="M118.76 83.04C118.66 83.11 118.56 83.17 118.45 83.22C118.02 83.41 117.56 83.5 117.09 83.51C116.12 83.47 115.15 83.32 114.21 83.06C114.01 83.01 113.87 82.97 113.82 82.96" stroke="#006B99" stroke-opacity="1.000000" stroke-width="3.234350" stroke-linejoin="round" stroke-linecap="round"/>
		<path id="Vector" d="M113.8 82.96C113.8 82.96 113.86 83 113.94 83.08C114.39 83.46 114.86 83.81 115.35 84.14C115.61 84.33 115.91 84.46 116.24 84.52C116.56 84.58 116.89 84.56 117.2 84.46C117.79 84.07 118.31 83.59 118.76 83.04" stroke="#006B99" stroke-opacity="1.000000" stroke-width="3.234350" stroke-linejoin="round" stroke-linecap="round"/>
		<path id="Vector" d="M117.4 87.68L117.46 88.78L117.47 88.95L117.52 90.03" stroke="#006B99" stroke-opacity="1.000000" stroke-width="3.234350" stroke-linejoin="round" stroke-linecap="round"/>
		<path id="Vector" d="M120.96 91.12L117.52 90.03" stroke="#006B99" stroke-opacity="1.000000" stroke-width="3.234350" stroke-linejoin="round" stroke-linecap="round"/>
		<path id="Vector" d="M109.31 86.31L109.2 89.31L104.87 91.12" stroke="#006B99" stroke-opacity="1.000000" stroke-width="3.234350" stroke-linejoin="round" stroke-linecap="round"/>
		<path id="Vector" d="M107.31 79.04C107.31 79.04 106.05 77.74 105.27 78.61C105.17 78.73 105.08 78.86 105.02 79.01C104.15 80.89 106.01 82.96 107.43 83.48" stroke="#006B99" stroke-opacity="1.000000" stroke-width="3.234350" stroke-linejoin="round" stroke-linecap="round"/>
		<path id="Vector" d="M105.27 78.61L105.27 78.62" stroke="#006B99" stroke-opacity="1.000000" stroke-width="3.234350" stroke-linejoin="round" stroke-linecap="round"/>
		<path id="Vector" d="M110.38 84.68C110.41 84.36 110.35 84.03 110.22 83.74C110.13 83.53 109.99 83.34 109.83 83.19C109.66 83.04 109.47 82.93 109.25 82.86C109.04 82.79 108.82 82.77 108.6 82.79C108.37 82.82 108.16 82.89 107.97 83C107.74 83.1 107.56 83.27 107.43 83.47C107.3 83.69 107.22 83.93 107.2 84.18C107.17 84.43 107.2 84.68 107.28 84.92C107.4 85.31 107.65 85.65 107.99 85.88C108.33 86.11 108.74 86.2 109.14 86.16C109.15 86.16 109.17 86.16 109.18 86.16C109.36 86.13 109.53 86.07 109.68 85.97C109.83 85.87 109.96 85.74 110.06 85.59C110.24 85.32 110.36 85.01 110.38 84.68Z" stroke="#006B99" stroke-opacity="1.000000" stroke-width="3.234350" stroke-linejoin="round"/>
		<path id="Vector" d="M118.84 85.9C119.18 86.07 119.57 86.14 119.95 86.08C121.02 85.95 121.58 84.46 121.07 83.44C120.92 83.12 120.68 82.84 120.38 82.65" stroke="#006B99" stroke-opacity="1.000000" stroke-width="3.234350" stroke-linejoin="round" stroke-linecap="round"/>
		<path id="Vector" d="M113.94 83.07C113.94 83.07 114.04 83.07 114.2 83.06C114.89 83.02 116.67 82.93 116.98 82.96C117.37 82.99 118.44 83.23 118.44 83.23" stroke="#006B99" stroke-opacity="1.000000" stroke-width="3.234350" stroke-linejoin="round" stroke-linecap="round"/>
		<path id="Vector" d="M114.14 87.61L114.17 87.62C114.45 87.73 116.5 88.49 117.44 88.78" stroke="#006B99" stroke-opacity="1.000000" stroke-width="3.234350" stroke-linejoin="round" stroke-linecap="round"/>
		<path id="Vector" d="M112.15 72.95C112.14 72.84 112.11 72.07 114.02 72.38C115.42 72.69 116.73 73.33 117.83 74.25L117.84 74.26" stroke="#006B99" stroke-opacity="1.000000" stroke-width="3.234350" stroke-linejoin="round" stroke-linecap="round"/>
		<path id="Vector" d="M108.39 70.23C108.39 70.23 111.71 70.04 112.15 72.95C112.15 72.95 112.15 72.96 112.15 72.96" stroke="#006B99" stroke-opacity="1.000000" stroke-width="3.234350" stroke-linejoin="round" stroke-linecap="round"/>
		<path id="Vector" d="M107.39 79.02C111.49 80.58 111.95 74.72 112.15 72.96C112.15 72.96 116.16 73.4 117.46 74.05C117.59 74.11 117.71 74.18 117.83 74.25C119.11 75.01 120.05 76.22 120.46 77.65C120.46 77.65 122.06 76 119.97 71.71C119.2 70.24 117.99 69.06 116.51 68.34C115.02 67.62 113.35 67.4 111.73 67.7C111.57 67.74 111.4 67.78 111.22 67.83C109.68 68.18 108.23 68.89 107 69.89C104.56 72.66 104.75 76.03 104.6 76.48C103.12 80.89 97.81 88.37 99.42 92.89" stroke="#006B99" stroke-opacity="1.000000" stroke-width="3.234350" stroke-linejoin="round" stroke-linecap="round"/>
		<path id="Vector" d="M150.82 88.49C151.38 88.27 151.91 87.98 152.4 87.63C152.54 87.52 152.66 87.39 152.75 87.23C152.81 87.15 152.84 87.05 152.85 86.95C152.86 86.85 152.85 86.75 152.82 86.66C152.78 86.56 152.73 86.48 152.66 86.41C152.58 86.34 152.5 86.28 152.4 86.25C152.26 86.22 152.12 86.2 151.98 86.21C150.66 86.43 149.39 86.86 148.22 87.5C147.92 87.64 147.68 87.87 147.5 88.15L144.84 93.29L141.97 99.43" stroke="#006B99" stroke-opacity="1.000000" stroke-width="3.234350" stroke-linejoin="round" stroke-linecap="round"/>
		<path id="Vector" d="M149.75 88.89C149.75 88.89 150 88.81 150.34 88.68C150.49 88.62 150.65 88.56 150.82 88.49" stroke="#006B99" stroke-opacity="1.000000" stroke-width="3.234350" stroke-linejoin="round" stroke-linecap="round"/>
		<path id="Vector" d="M132.45 99.46L136.66 105.33" stroke="#006B99" stroke-opacity="1.000000" stroke-width="3.234350" stroke-linejoin="round" stroke-linecap="round"/>
		<path id="Vector" d="M129.58 111.88L132.45 115.3" stroke="#006B99" stroke-opacity="1.000000" stroke-width="3.234350" stroke-linejoin="round" stroke-linecap="round"/>
		<path id="Vector" d="M148.85 99.43L150.18 96.68C150.92 96.66 151.65 96.47 152.32 96.13C152.98 95.79 153.55 95.3 154 94.7C155.88 92.55 156.33 91.06 155.54 90.51C154.75 89.96 153.11 90.71 152.64 91.61C152.17 92.5 152.53 93.73 154.81 92.01" stroke="#006B99" stroke-opacity="1.000000" stroke-width="3.234350" stroke-linejoin="round" stroke-linecap="round"/>
		<path id="Vector" d="M155.54 90.51C155.54 90.51 156.57 89.56 156.24 88.62C155.9 87.67 154.12 88.13 153 88.8C152.52 89.1 152.09 89.49 151.75 89.95C151.25 90.66 151.22 91.41 152.64 91.6" stroke="#006B99" stroke-opacity="1.000000" stroke-width="3.234350" stroke-linejoin="round" stroke-linecap="round"/>
		<path id="Vector" d="M156.24 88.62C156.24 88.62 156.39 87.66 155.12 86.94C154.27 86.45 152.85 87.25 152.85 87.25" stroke="#006B99" stroke-opacity="1.000000" stroke-width="3.234350" stroke-linejoin="round" stroke-linecap="round"/>
		<path id="Vector" d="M150.82 88.49C150.78 88.55 150.16 89.52 151.21 89.78C151.33 89.81 151.46 89.83 151.59 89.84" stroke="#006B99" stroke-opacity="1.000000" stroke-width="3.234350" stroke-linejoin="round" stroke-linecap="round"/>
		<path id="Vector" d="M155.49 85.31L159.3 81.24L161.33 79.07L163.29 76.98C163.42 76.85 163.48 76.67 163.48 76.48C163.47 76.3 163.39 76.12 163.25 75.99C163.12 75.87 162.94 75.8 162.76 75.81C162.57 75.81 162.4 75.89 162.28 76.03L159.34 79.22L154.16 84.83" stroke="#006B99" stroke-opacity="1.000000" stroke-width="3.234350" stroke-linejoin="round" stroke-linecap="round"/>
		<path id="Vector" d="M150.37 88.75L145.93 93.49C145.86 93.56 145.81 93.65 145.78 93.74C145.75 93.83 145.74 93.93 145.75 94.03C145.76 94.13 145.79 94.22 145.84 94.31C145.89 94.39 145.95 94.47 146.03 94.53C146.15 94.61 146.29 94.66 146.44 94.66C146.53 94.66 146.63 94.64 146.72 94.6C146.8 94.56 146.88 94.5 146.95 94.43L151.09 90.01" stroke="#006B99" stroke-opacity="1.000000" stroke-width="3.234350" stroke-linejoin="round" stroke-linecap="round"/>
		<path id="Vector" d="M155.12 86.94C155.12 86.94 155.85 86.02 155.27 85.34C155.18 85.24 155.08 85.16 154.97 85.09C154.73 84.93 154.45 84.85 154.16 84.83C153.71 84.86 153.27 85 152.89 85.24C152.51 85.48 152.2 85.81 151.98 86.21" stroke="#006B99" stroke-opacity="1.000000" stroke-width="3.234350" stroke-linejoin="round" stroke-linecap="round"/>
	</g>
</svg>
