<svg width="355.000000" height="238.000000" viewBox="0 0 355 238" fill="none" xmlns="http://www.w3.org/2000/svg" xmlns:xlink="http://www.w3.org/1999/xlink">
	<desc>
			Created with Pixso.
	</desc>
	<defs>
		<clipPath id="clip2_1396">
			<rect id="IMAGE" rx="0.000000" width="354.000000" height="237.000000" transform="translate(0.500000 0.500000)" fill="white" fill-opacity="0"/>
		</clipPath>
	</defs>
	<g clip-path="url(#clip2_1396)">
		<path id="Vector" d="M0 0L355 0L355 238L0 238L0 0Z" fill="#FAE173" fill-opacity="1.000000" fill-rule="evenodd"/>
		<path id="Vector" d="M165.13 139.95C165.02 139.47 165.03 138.97 165.14 138.49C166.03 134.53 165.9 128.68 166.79 123.93C167.68 119.18 170.62 119.71 173.87 118.57C175.95 117.84 177.89 116.72 180.1 115.69C181.41 115.06 182.78 114.53 184.17 114.11C188.31 112.89 198.7 117.28 203.73 118.09C204.92 118.28 206.09 118.56 207.23 118.94L207.25 118.87C207.25 118.87 230.19 103.11 236.19 98.79C242.19 94.48 254.5 85.71 254.5 85.71L268.52 118.09C268.52 118.09 240.99 136.33 236.92 139.93C232.84 143.52 223.88 148.1 223.88 148.1L223.81 148.08C223.26 150.59 221.44 153.45 216.42 156.29L216.12 156.4C215.29 154.49 214.24 152.67 212.99 151C207.99 141.78 187.58 128.1 185.82 128.4C184.06 128.69 179.18 129.33 179.18 129.33C178.83 130.41 177.33 131.02 177.33 131.02L177.2 131.02C177.22 134.28 176.11 137.45 174.04 139.97C170.77 144.1 165.8 142.93 165.13 139.95Z" fill="#FFCEB6" fill-opacity="1.000000" fill-rule="nonzero"/>
		<path id="Vector" d="M221.89 58.74C222.21 60.21 222.34 61.72 222.26 63.22C222.24 63.48 222.17 63.74 222.05 63.98C221.93 64.21 221.76 64.42 221.56 64.58C221.35 64.74 221.11 64.86 220.86 64.93C220.6 64.99 220.34 65.01 220.08 64.96L213.26 63.83C212.84 63.77 212.46 63.56 212.17 63.25C211.89 62.93 211.72 62.53 211.7 62.11C211.67 60.98 211.26 59.9 210.55 59.03C210.25 58.69 209.92 58.38 209.57 58.11L207.6 70.03L210.41 71.73C214.26 74.01 216.74 76.65 217.83 79.66C218.93 82.66 219.22 85.9 218.68 89.05C218.33 91.27 217.55 93.4 216.37 95.31C215.24 97.13 213.79 98.72 212.09 100.02C210.36 101.31 208.39 102.24 206.3 102.74C204.94 103.07 203.54 103.23 202.14 103.2L201.2 108.9C201.15 109.22 201.04 109.52 200.87 109.79C200.7 110.07 200.48 110.3 200.22 110.49C199.96 110.67 199.67 110.81 199.35 110.88C199.04 110.95 198.72 110.96 198.41 110.91C198.09 110.86 197.79 110.75 197.52 110.58C197.25 110.41 197.01 110.19 196.82 109.92C196.64 109.66 196.5 109.37 196.43 109.06C196.36 108.75 196.35 108.42 196.4 108.11L197.33 102.47C193.98 101.58 191.02 99.6 188.91 96.85C187.88 95.55 187.07 94.08 186.53 92.52C186.36 92.05 186.21 91.57 186.07 91.08C185.73 89.79 185.55 88.46 185.53 87.12C185.52 86.69 185.6 86.25 185.78 85.86C185.95 85.46 186.21 85.11 186.54 84.82C186.87 84.54 187.25 84.33 187.67 84.21C188.09 84.09 188.52 84.06 188.95 84.13L191.83 84.61L193.88 84.95C194.48 85.05 195.04 85.34 195.47 85.78C195.91 86.21 196.19 86.77 196.3 87.38C196.44 88.22 196.68 89.04 197.02 89.82C197.42 90.75 198.15 91.49 199.07 91.9L201.28 78.46L198.84 77.06C195.8 75.41 193.3 72.92 191.62 69.9C190.03 66.86 189.52 63.37 190.18 60.01C190.53 57.79 191.33 55.66 192.55 53.76C193.7 51.96 195.21 50.4 196.97 49.2C198.66 47.99 200.58 47.14 202.61 46.72C203.91 46.45 205.23 46.34 206.56 46.38L207.39 41.36C207.49 40.72 207.85 40.15 208.37 39.77C208.63 39.59 208.92 39.45 209.24 39.38C209.55 39.31 209.87 39.3 210.18 39.35C210.5 39.4 210.8 39.51 211.07 39.68C211.34 39.85 211.58 40.07 211.77 40.33C211.95 40.6 212.09 40.89 212.16 41.2C212.23 41.51 212.24 41.84 212.19 42.15L211.37 47.16C212.68 47.56 213.94 48.12 215.11 48.85C216.85 49.92 218.34 51.34 219.49 53.03C220.65 54.76 221.46 56.7 221.89 58.74ZM208.24 87.55C208.51 86.16 208.31 84.71 207.69 83.44C207.21 82.57 206.55 81.81 205.76 81.21L203.92 92.36C204.52 92.19 205.09 91.95 205.62 91.63C206.34 91.2 206.95 90.61 207.41 89.9C207.86 89.19 208.15 88.39 208.24 87.55ZM203.12 67.27L204.82 56.98C204.01 57.12 203.26 57.47 202.65 58C201.55 58.92 200.82 60.21 200.6 61.63C200.44 62.67 200.53 63.74 200.87 64.74C201.34 65.8 202.13 66.68 203.12 67.27Z" fill="#CCEFF6" fill-opacity="1.000000" fill-rule="nonzero"/>
		<path id="Vector" d="M165.13 139.95C165.8 142.93 170.77 144.1 174.03 139.97C176.1 137.45 177.22 134.28 177.19 131.02L177.32 131.02C177.32 131.02 178.82 130.41 179.18 129.33C179.18 129.33 184.05 128.69 185.82 128.4C187.58 128.1 207.99 141.78 212.99 151C214.24 152.67 215.29 154.49 216.12 156.4C216.66 157.81 216.87 159.15 216.21 159.92C213.96 162.61 211.2 161.82 209.26 159.59C209.17 159.48 209.07 159.36 208.98 159.24C207.03 156.75 202.04 150.67 202.04 150.67L197.87 148.08C198.84 148.99 199.75 149.96 200.6 150.99C201.72 152.52 206.11 157.01 208.08 160.09C208.58 160.75 208.92 161.53 209.05 162.36C209 162.97 208.82 163.55 208.51 164.07C208.19 164.59 207.76 165.03 207.25 165.35C206.73 165.67 206.15 165.86 205.55 165.91C204.94 165.96 204.34 165.86 203.78 165.63C203.71 165.6 203.64 165.56 203.58 165.52C201.91 164.49 193.7 157.1 192.42 155.9C192.17 155.42 191.82 155 191.39 154.67C191.14 154.47 190.86 154.28 190.58 154.12L190.56 154.11C188.4 152.88 186.04 153.34 184 154.94C181.75 156.71 182.74 155.67 181.76 156.68C181.68 155.88 181.34 155.13 180.79 154.55C178.77 152.28 176.04 152.16 173.46 153.55C171.48 154.7 169.56 155.96 167.72 157.33L160.23 158.05L160.16 158.04C160.35 156.7 160.06 155.35 159.35 154.2C157.72 151.74 155.28 151.99 153.99 152.07C153.78 152.08 153.57 152.12 153.37 152.18L153.35 152.07C152.35 151.58 151.39 151.02 150.46 150.41C149.24 149.65 147.92 148.77 146.86 148.06C145.69 147.27 144.86 146.69 144.86 146.69C144.94 137.17 145.63 127.67 146.93 118.23L148.62 118.89C151.35 119.96 156.53 121.96 157.19 122.2C157.51 122.36 157.86 122.45 158.22 122.45C158.58 122.45 158.93 122.36 159.25 122.2C160.18 121.84 171.21 116.02 173.44 115.49C175.67 114.96 180.09 115.69 180.09 115.69C177.88 116.72 175.94 117.84 173.87 118.57C170.62 119.71 167.67 119.17 166.79 123.92C165.9 128.68 166.03 134.52 165.14 138.48C165.02 138.97 165.02 139.47 165.13 139.95Z" fill="#FFCEB6" fill-opacity="1.000000" fill-rule="nonzero"/>
		<path id="Vector" d="M208.99 159.24C209.08 159.36 209.18 159.48 209.27 159.58C209.27 159.58 208.12 160.12 208.09 160.09C206.12 157.01 201.73 152.52 200.62 150.99C199.77 149.96 198.86 148.99 197.88 148.08L202.05 150.67C202.05 150.67 207.04 156.75 208.99 159.24Z" fill="#FFCEB6" fill-opacity="1.000000" fill-rule="nonzero"/>
		<path id="Vector" d="M203.59 165.52L203.36 165.85C203.28 166.3 203.09 166.72 202.81 167.09C202.54 167.45 202.18 167.74 201.77 167.94C201.19 168.31 200.54 168.55 199.86 168.65C199.18 168.75 198.49 168.71 197.83 168.53C197.23 168.24 196.66 167.91 196.11 167.54L195.24 167.45C195.68 167.04 196.07 166.57 196.4 166.07C197.65 163.96 197.6 162.66 196.23 161.56C195.71 161.08 195.08 160.73 194.39 160.56C193.7 160.4 192.98 160.42 192.29 160.62L192.15 160.53C192.22 160.41 192.29 160.28 192.34 160.14C192.67 159.49 192.85 158.77 192.86 158.03C192.88 157.3 192.73 156.57 192.44 155.9C193.71 157.1 201.92 164.49 203.59 165.52Z" fill="#FFCEB6" fill-opacity="1.000000" fill-rule="nonzero"/>
		<path id="Vector" d="M197.83 168.53C196.66 169.98 195.07 171.02 193.27 171.5C192.9 171.64 192.49 171.69 192.09 171.65C191.7 171.62 191.31 171.49 190.96 171.29L190.51 171.29C192.17 170.11 193.75 168.83 195.24 167.45L196.11 167.54C196.66 167.91 197.23 168.24 197.83 168.53Z" fill="#FFCEB6" fill-opacity="1.000000" fill-rule="nonzero"/>
		<path id="Vector" d="M196.23 161.56C197.6 162.65 197.64 163.96 196.4 166.06C196.07 166.57 195.68 167.03 195.24 167.44C193.75 168.82 192.17 170.1 190.51 171.28C189.96 171.68 189.61 171.92 189.61 171.92C184.19 175.11 181.79 175.82 179.85 174.91C179.25 174.67 178.71 174.29 178.28 173.82C177.84 173.34 177.52 172.76 177.33 172.14L177.24 171.92C179.41 170.97 181.52 169.87 183.54 168.62C183.54 168.62 190.63 163.09 192.15 160.52L192.29 160.61C192.97 160.41 193.7 160.39 194.39 160.55C195.08 160.72 195.71 161.07 196.23 161.56Z" fill="#FFCEB6" fill-opacity="1.000000" fill-rule="nonzero"/>
		<path id="Vector" d="M192.44 155.89C192.73 156.56 192.88 157.29 192.86 158.02C192.85 158.76 192.67 159.48 192.34 160.14C192.29 160.27 192.22 160.4 192.15 160.52C190.63 163.1 183.55 168.62 183.55 168.62C181.52 169.87 179.42 170.97 177.24 171.93C172.74 173.81 171.69 172.7 170.07 171.93C168.53 171.12 167.38 169.73 166.86 168.06L166.86 168.01C168.19 167.91 169.5 167.56 170.7 166.96C170.7 166.96 179.49 162.25 180.81 160.08C181.49 159.09 181.83 157.89 181.78 156.68C182.75 155.66 181.76 156.71 184.02 154.94C186.06 153.34 188.42 152.87 190.58 154.1L190.59 154.11C190.88 154.28 191.15 154.46 191.41 154.67C191.83 155 192.18 155.42 192.44 155.89Z" fill="#FFCEB6" fill-opacity="1.000000" fill-rule="nonzero"/>
		<path id="Vector" d="M167.73 157.33C169.57 155.96 171.48 154.7 173.47 153.55C176.05 152.16 178.78 152.27 180.8 154.54C181.35 155.13 181.69 155.88 181.77 156.68C181.83 157.89 181.49 159.09 180.8 160.09C179.48 162.26 170.7 166.96 170.7 166.96C169.5 167.56 168.19 167.92 166.85 168.02C164.3 168.1 161.76 167.75 159.34 166.96C156.7 166.28 155.44 161.32 155.44 161.32C156.45 161.15 157.43 160.85 158.37 160.43C158.84 160.21 159.26 159.88 159.57 159.46C159.89 159.05 160.1 158.56 160.17 158.04L160.24 158.05L167.73 157.33Z" fill="#FFCEB6" fill-opacity="1.000000" fill-rule="nonzero"/>
		<path id="Vector" d="M178.88 36.87L179.5 39.89L142.46 47.54L152.5 96.4L149.49 97.02L148.87 94L138.82 45.14L175.86 37.49L178.88 36.87Z" fill="#CCEFF6" fill-opacity="1.000000" fill-rule="nonzero"/>
		<path id="Vector" d="M175.86 37.49L138.82 45.14L148.87 94L145.85 94.63L135.19 42.74L175.25 34.47L175.86 37.49Z" fill="#006B99" fill-opacity="1.000000" fill-rule="nonzero"/>
		<path id="Vector" d="M153.37 152.18C153.58 152.12 153.78 152.08 154 152.07C155.28 151.99 157.72 151.74 159.36 154.2C160.07 155.34 160.36 156.7 160.17 158.04C160.1 158.56 159.89 159.05 159.58 159.47C159.26 159.88 158.84 160.21 158.37 160.43C157.43 160.85 156.45 161.15 155.44 161.32C153.19 161.7 150.85 161.49 149.83 160.48C148.1 158.78 146.25 154.86 150.27 150.71L150.47 150.41C151.39 151.02 152.36 151.57 153.36 152.07L153.37 152.18Z" fill="#FFCEB6" fill-opacity="1.000000" fill-rule="nonzero"/>
		<path id="Vector" d="M148.05 116.58L148.01 116.61C147.98 116.56 147.93 116.52 147.88 116.49C147.83 116.46 147.77 116.45 147.71 116.44C147.65 116.44 147.59 116.45 147.53 116.47C147.48 116.5 147.43 116.53 147.39 116.58C147.14 117.09 146.98 117.66 146.94 118.23C145.64 127.66 144.94 137.17 144.87 146.69C144.91 148.89 145.08 150.33 145.43 150.53C145.65 150.68 145.92 150.74 146.19 150.69L146.2 150.73C145.22 151.39 142.6 151.72 141.89 149.64C141.72 147.96 141.7 146.26 141.85 144.58C142.19 136.42 143.52 121.06 144.25 116.85C144.28 116.48 144.38 116.12 144.52 115.78C145.3 114.75 147.96 115.34 148.05 116.58Z" fill="#CCEFF6" fill-opacity="1.000000" fill-rule="nonzero"/>
		<path id="Vector" d="M144.07 116.81L144.25 116.85C143.52 121.06 142.19 136.42 141.86 144.58L141.76 144.58C141.76 144.58 136.09 142.03 133.2 141.68C129.02 141.19 86.55 121.41 86.55 121.41L102.8 89.68L141.43 115.5L144.07 116.81Z" fill="#FFCEB6" fill-opacity="1.000000" fill-rule="nonzero"/>
		<path id="Vector" d="M254.5 85.71L268.52 118.09" stroke="#FFCEB6" stroke-opacity="1.000000" stroke-width="3.395670" stroke-linejoin="round" stroke-linecap="round"/>
		<path id="Vector" d="M86.54 121.41L102.8 89.68" stroke="#FFCEB6" stroke-opacity="1.000000" stroke-width="3.395670" stroke-linejoin="round" stroke-linecap="round"/>
		<path id="Vector" d="M221.01 189.83C210.85 196.55 199.11 200.49 186.97 201.25C174.82 202.01 162.69 199.56 151.77 194.15C140.86 188.74 131.56 180.56 124.79 170.43C118.01 160.29 114.01 148.55 113.17 136.38" stroke="#006B99" stroke-opacity="1.000000" stroke-width="3.395670" stroke-linejoin="round" stroke-linecap="round"/>
		<path id="Vector" d="M252.2 133.7C251.91 143.66 249.5 153.44 245.11 162.38C240.73 171.32 234.49 179.22 226.8 185.54" stroke="#006B99" stroke-opacity="1.000000" stroke-width="3.395670" stroke-linejoin="round" stroke-linecap="round"/>
		<path id="Vector" d="M213.24 178.71C205.66 183.73 196.96 186.81 187.92 187.67C178.88 188.54 169.76 187.17 161.37 183.68C152.97 180.19 145.57 174.69 139.79 167.66C134.01 160.63 130.04 152.29 128.23 143.36" stroke="#006B99" stroke-opacity="1.000000" stroke-width="3.395670" stroke-linejoin="round" stroke-linecap="round"/>
		<path id="Vector" d="M237.18 142.64C234.76 155.46 227.92 167.01 217.86 175.29" stroke="#006B99" stroke-opacity="1.000000" stroke-width="3.395670" stroke-linejoin="round" stroke-linecap="round"/>
		<path id="Vector" d="M219.95 91.3C223.24 94.27 226.16 97.63 228.65 101.29" stroke="#006B99" stroke-opacity="1.000000" stroke-width="3.395670" stroke-linejoin="round" stroke-linecap="round"/>
		<path id="Vector" d="M133.05 107.54C135.61 102.39 138.95 97.66 142.95 93.52" stroke="#006B99" stroke-opacity="1.000000" stroke-width="3.395670" stroke-linejoin="round" stroke-linecap="round"/>
		<path id="Vector" d="M216.67 70.72C225.43 75.66 233.03 82.43 238.95 90.58" stroke="#006B99" stroke-opacity="1.000000" stroke-width="3.395670" stroke-linejoin="round" stroke-linecap="round"/>
		<path id="Vector" d="M121.1 98.92C125.55 90.52 131.66 83.12 139.06 77.17" stroke="#006B99" stroke-opacity="1.000000" stroke-width="3.395670" stroke-linejoin="round" stroke-linecap="round"/>
		<path id="Vector" d="M207.26 118.87C207.26 118.87 230.2 103.11 236.19 98.79C242.19 94.47 254.5 85.71 254.5 85.71" stroke="#006B99" stroke-opacity="1.000000" stroke-width="3.395670" stroke-linejoin="round" stroke-linecap="round"/>
		<path id="Vector" d="M223.88 148.09C223.88 148.09 232.84 143.52 236.91 139.93C240.99 136.33 268.52 118.09 268.52 118.09" stroke="#006B99" stroke-opacity="1.000000" stroke-width="3.395670" stroke-linejoin="round" stroke-linecap="round"/>
		<path id="Vector" d="M86.54 121.41C86.54 121.41 129.02 141.19 133.2 141.68C136.08 142.02 141.76 144.58 141.76 144.58" stroke="#006B99" stroke-opacity="1.000000" stroke-width="3.395670" stroke-linejoin="round" stroke-linecap="round"/>
		<path id="Vector" d="M144.07 116.81L141.43 115.5L102.8 89.68" stroke="#006B99" stroke-opacity="1.000000" stroke-width="3.395670" stroke-linejoin="round" stroke-linecap="round"/>
		<path id="Vector" d="M148.66 118.8C148.6 118.03 148.38 117.28 148.01 116.61C147.98 116.56 147.93 116.52 147.88 116.49C147.83 116.46 147.77 116.45 147.71 116.44C147.65 116.44 147.59 116.45 147.53 116.47C147.48 116.5 147.43 116.53 147.39 116.58C147.14 117.09 146.98 117.66 146.94 118.23C145.64 127.66 144.94 137.17 144.87 146.69C144.91 148.89 145.08 150.33 145.43 150.53C145.65 150.68 145.92 150.74 146.19 150.69C147.05 150.47 146.77 148.34 146.77 148.34" stroke="#006B99" stroke-opacity="1.000000" stroke-width="3.395670" stroke-linejoin="round" stroke-linecap="round"/>
		<path id="Vector" d="M148.05 116.58C147.95 115.34 145.3 114.75 144.52 115.78C144.38 116.12 144.29 116.48 144.25 116.85C143.52 121.06 142.2 136.42 141.86 144.58C141.71 146.26 141.72 147.96 141.9 149.64C142.61 151.72 145.22 151.39 146.21 150.73" stroke="#006B99" stroke-opacity="1.000000" stroke-width="3.395670" stroke-linejoin="round" stroke-linecap="round"/>
		<path id="Vector" d="M146.94 118.23L148.62 118.89C151.36 119.95 156.54 121.96 157.2 122.2C157.52 122.36 157.87 122.45 158.23 122.45C158.58 122.45 158.94 122.36 159.25 122.2C160.19 121.84 171.22 116.02 173.45 115.49C175.68 114.96 180.1 115.69 180.1 115.69" stroke="#006B99" stroke-opacity="1.000000" stroke-width="3.395670" stroke-linejoin="round" stroke-linecap="round"/>
		<path id="Vector" d="M144.87 146.69C144.87 146.69 145.7 147.27 146.87 148.06C147.92 148.77 149.25 149.65 150.46 150.41C151.39 151.02 152.36 151.58 153.36 152.07" stroke="#006B99" stroke-opacity="1.000000" stroke-width="3.395670" stroke-linejoin="round" stroke-linecap="round"/>
		<path id="Vector" d="M223.55 141.8C223.55 143.19 224.38 145.44 223.81 148.08C223.26 150.59 221.44 153.45 216.42 156.3" stroke="#006B99" stroke-opacity="1.000000" stroke-width="3.395670" stroke-linejoin="round" stroke-linecap="round"/>
		<path id="Vector" d="M211.76 121.11C210.36 120.17 208.84 119.44 207.23 118.94C206.09 118.56 204.92 118.28 203.73 118.09C198.7 117.28 188.31 112.89 184.18 114.11C182.78 114.53 181.42 115.06 180.1 115.69C177.89 116.72 175.95 117.85 173.88 118.57C170.63 119.71 167.68 119.17 166.79 123.93C165.91 128.68 166.04 134.52 165.15 138.48C165.03 138.97 165.03 139.47 165.14 139.95C165.81 142.93 170.78 144.1 174.04 139.97C176.1 137.45 177.22 134.28 177.2 131.02C177.19 130.1 177.09 129.18 176.89 128.28" stroke="#006B99" stroke-opacity="1.000000" stroke-width="3.395670" stroke-linejoin="round" stroke-linecap="round"/>
		<path id="Vector" d="M177.33 131.02C177.33 131.02 178.82 130.41 179.18 129.33C179.18 129.33 184.05 128.69 185.82 128.4C187.59 128.1 207.99 141.78 212.99 151" stroke="#006B99" stroke-opacity="1.000000" stroke-width="3.395670" stroke-linejoin="round" stroke-linecap="round"/>
		<path id="Vector" d="M212.99 151C214.24 152.67 215.29 154.49 216.12 156.4C216.66 157.81 216.87 159.15 216.22 159.92C213.96 162.61 211.2 161.82 209.27 159.59C209.17 159.48 209.08 159.36 208.98 159.24C207.03 156.75 202.04 150.67 202.04 150.67L197.87 148.08" stroke="#006B99" stroke-opacity="1.000000" stroke-width="3.395670" stroke-linejoin="round" stroke-linecap="round"/>
		<path id="Vector" d="M190.59 139.22C190.67 140.11 190.9 140.98 191.25 141.8C191.52 142.12 195.16 145.41 197.88 148.08C198.85 148.99 199.76 149.96 200.61 150.99C201.73 152.52 206.12 157.01 208.09 160.09C208.59 160.75 208.93 161.54 209.06 162.36C209.01 162.97 208.83 163.56 208.52 164.08C208.2 164.59 207.77 165.03 207.26 165.35C206.74 165.67 206.16 165.86 205.56 165.91C204.95 165.96 204.35 165.86 203.79 165.63C203.72 165.6 203.65 165.56 203.59 165.52C201.92 164.49 193.71 157.1 192.43 155.9L192.43 155.89" stroke="#006B99" stroke-opacity="1.000000" stroke-width="3.395670" stroke-linejoin="round" stroke-linecap="round"/>
		<path id="Vector" d="M203.36 165.85C203.28 166.3 203.09 166.72 202.81 167.09C202.54 167.45 202.18 167.74 201.77 167.94C201.19 168.31 200.54 168.55 199.86 168.65C199.18 168.75 198.49 168.71 197.83 168.53C197.23 168.24 196.66 167.91 196.11 167.54" stroke="#006B99" stroke-opacity="1.000000" stroke-width="3.395670" stroke-linejoin="round" stroke-linecap="round"/>
		<path id="Vector" d="M197.83 168.53C196.66 169.98 195.07 171.02 193.27 171.5C192.9 171.63 192.49 171.69 192.1 171.65C191.7 171.62 191.31 171.49 190.96 171.29" stroke="#006B99" stroke-opacity="1.000000" stroke-width="3.395670" stroke-linejoin="round" stroke-linecap="round"/>
		<path id="Vector" d="M185.82 128.4C185.82 128.4 187.31 126.92 187.31 126.08" stroke="#006B99" stroke-opacity="1.000000" stroke-width="3.395670" stroke-linejoin="round" stroke-linecap="round"/>
		<path id="Vector" d="M179.18 129.33C179.31 128.64 179.31 127.93 179.18 127.23" stroke="#006B99" stroke-opacity="1.000000" stroke-width="3.395670" stroke-linejoin="round" stroke-linecap="round"/>
		<path id="Vector" d="M165.06 139.65C165.06 139.75 165.08 139.86 165.13 139.96C165.73 141.16 169.91 140.77 171.25 138.76C172.69 136.59 170.93 133.7 170.93 133.7" stroke="#006B99" stroke-opacity="1.000000" stroke-width="3.395670" stroke-linejoin="round" stroke-linecap="round"/>
		<path id="Vector" d="M165.95 132.91C165.95 132.91 167.02 132.83 168.44 132.66" stroke="#006B99" stroke-opacity="1.000000" stroke-width="3.395670" stroke-linejoin="round" stroke-linecap="round"/>
		<path id="Vector" d="M212.52 160.09C213.5 159.8 214.4 159.28 215.15 158.59" stroke="#006B99" stroke-opacity="1.000000" stroke-width="3.395670" stroke-linejoin="round" stroke-linecap="round"/>
		<path id="Vector" d="M209.27 159.59C209.27 159.59 208.11 160.12 208.09 160.09" stroke="#006B99" stroke-opacity="1.000000" stroke-width="3.395670" stroke-linejoin="round" stroke-linecap="round"/>
		<path id="Vector" d="M151.09 153.39C151.78 152.87 152.55 152.46 153.37 152.19C153.58 152.12 153.78 152.09 154 152.07C155.28 152 157.72 151.74 159.36 154.2C160.07 155.35 160.36 156.71 160.17 158.05C160.1 158.56 159.89 159.05 159.58 159.47C159.26 159.89 158.84 160.22 158.37 160.43C157.43 160.86 156.45 161.16 155.44 161.32C153.19 161.7 150.85 161.5 149.83 160.49C148.1 158.78 146.25 154.86 150.27 150.72" stroke="#006B99" stroke-opacity="1.000000" stroke-width="3.395670" stroke-linejoin="round" stroke-linecap="round"/>
		<path id="Vector" d="M167.73 157.33C166.97 157.89 166.33 158.36 165.94 158.65" stroke="#006B99" stroke-opacity="1.000000" stroke-width="3.395670" stroke-linejoin="round" stroke-linecap="round"/>
		<path id="Vector" d="M155.44 161.32C155.44 161.32 156.7 166.28 159.34 166.96C161.77 167.75 164.31 168.1 166.85 168.02C168.19 167.92 169.5 167.56 170.7 166.96C170.7 166.96 179.48 162.26 180.8 160.09C181.49 159.09 181.83 157.89 181.77 156.68C181.69 155.88 181.35 155.13 180.8 154.55C178.78 152.28 176.05 152.16 173.47 153.55C171.49 154.7 169.57 155.96 167.73 157.33" stroke="#006B99" stroke-opacity="1.000000" stroke-width="3.395670" stroke-linejoin="round" stroke-linecap="round"/>
		<path id="Vector" d="M167.73 157.33L167.73 157.33L160.24 158.05" stroke="#006B99" stroke-opacity="1.000000" stroke-width="3.395670" stroke-linejoin="round" stroke-linecap="round"/>
		<path id="Vector" d="M173.65 156.94C173.03 157.68 172.69 158.62 172.69 159.59C172.74 159.99 172.89 160.38 173.12 160.72C173.35 161.06 173.66 161.33 174.02 161.52C174.39 161.71 174.79 161.81 175.2 161.8C175.61 161.8 176.01 161.7 176.37 161.5C178.07 160.56 180.8 158.64 180.05 156.94" stroke="#006B99" stroke-opacity="1.000000" stroke-width="3.395670" stroke-linejoin="round" stroke-linecap="round"/>
		<path id="Vector" d="M174.82 155.89C175.42 155.36 176.14 155 176.92 154.85C177.47 154.83 178.01 155.01 178.43 155.37" stroke="#006B99" stroke-opacity="1.000000" stroke-width="3.395670" stroke-linejoin="round" stroke-linecap="round"/>
		<path id="Vector" d="M190.58 154.11C188.42 152.88 186.05 153.34 184.01 154.94C181.76 156.71 182.75 155.67 181.77 156.68C181.75 156.7 181.73 156.73 181.71 156.75" stroke="#006B99" stroke-opacity="1.000000" stroke-width="3.395670" stroke-linejoin="round" stroke-linecap="round"/>
		<path id="Vector" d="M166.86 168.07C167.38 169.73 168.53 171.12 170.07 171.94C171.69 172.7 172.74 173.81 177.24 171.93C179.42 170.98 181.52 169.87 183.55 168.63C183.55 168.63 190.64 163.1 192.15 160.53C192.22 160.4 192.29 160.27 192.34 160.14C192.67 159.49 192.85 158.76 192.86 158.03C192.88 157.3 192.73 156.57 192.44 155.9C192.18 155.42 191.83 155.01 191.41 154.68C191.15 154.47 190.88 154.28 190.59 154.12" stroke="#006B99" stroke-opacity="1.000000" stroke-width="3.395670" stroke-linejoin="round" stroke-linecap="round"/>
		<path id="Vector" d="M184.76 158.25C184.27 159.08 184.1 160.07 184.27 161.02C184.38 161.41 184.59 161.77 184.88 162.07C185.16 162.36 185.52 162.58 185.91 162.7C186.3 162.83 186.71 162.85 187.11 162.78C187.52 162.71 187.89 162.53 188.21 162.28C189.74 161.06 192.1 158.71 191.07 157.16" stroke="#006B99" stroke-opacity="1.000000" stroke-width="3.395670" stroke-linejoin="round" stroke-linecap="round"/>
		<path id="Vector" d="M185.73 157.01C186.23 156.39 186.88 155.92 187.62 155.63C188.16 155.52 188.72 155.61 189.2 155.89" stroke="#006B99" stroke-opacity="1.000000" stroke-width="3.395670" stroke-linejoin="round" stroke-linecap="round"/>
		<path id="Vector" d="M177.33 172.15C177.52 172.77 177.84 173.34 178.28 173.82C178.71 174.3 179.25 174.68 179.85 174.92C181.79 175.83 184.19 175.12 189.61 171.93C189.61 171.93 189.96 171.69 190.51 171.29C192.17 170.11 193.75 168.83 195.24 167.45C195.68 167.04 196.07 166.57 196.4 166.07C197.65 163.97 197.6 162.66 196.23 161.57C195.71 161.08 195.08 160.73 194.39 160.57C193.7 160.4 192.97 160.42 192.29 160.62" stroke="#006B99" stroke-opacity="1.000000" stroke-width="3.395670" stroke-linejoin="round" stroke-linecap="round"/>
		<path id="Vector" d="M190.82 163.82C190.44 164.47 190.31 165.23 190.44 165.96C190.53 166.27 190.69 166.55 190.91 166.78C191.13 167 191.41 167.17 191.71 167.27C192.01 167.36 192.33 167.38 192.64 167.33C192.95 167.27 193.25 167.14 193.49 166.94C194.67 166 196.5 164.18 195.7 162.98" stroke="#006B99" stroke-opacity="1.000000" stroke-width="3.395670" stroke-linejoin="round" stroke-linecap="round"/>
		<path id="Vector" d="M191.57 162.87C191.96 162.38 192.47 162.02 193.04 161.8C193.46 161.71 193.89 161.78 194.26 162" stroke="#006B99" stroke-opacity="1.000000" stroke-width="3.395670" stroke-linejoin="round" stroke-linecap="round"/>
		<path id="Vector" d="M187.31 149.93L188.41 152.04L190.58 154.11L190.59 154.12" stroke="#006B99" stroke-opacity="1.000000" stroke-width="3.395670" stroke-linejoin="round" stroke-linecap="round"/>
		<path id="Vector" d="M158.37 160.43C157.41 159.99 156.54 159.39 155.79 158.64C155.28 157.98 154.93 157.21 154.76 156.39C154.72 156.21 154.64 156.03 154.52 155.89C154.39 155.75 154.24 155.64 154.06 155.57C153.88 155.51 153.69 155.49 153.51 155.53C153.32 155.56 153.15 155.64 153 155.76C152.54 156.1 152.22 156.6 152.09 157.16C151.95 157.8 152.02 158.48 152.31 159.07C152.59 159.67 153.06 160.15 153.65 160.45" stroke="#006B99" stroke-opacity="1.000000" stroke-width="3.395670" stroke-linejoin="round" stroke-linecap="round"/>
		<path id="Vector" d="M186.5 92.52L153.12 99.42L152.5 96.4L142.46 47.54L179.5 39.89L182.51 39.27L191.83 84.61" stroke="#006B99" stroke-opacity="1.000000" stroke-width="3.395670" stroke-linejoin="round" stroke-linecap="round"/>
		<path id="Vector" d="M152.5 96.4L149.49 97.02L148.87 94L138.82 45.14L175.86 37.49L178.88 36.87L179.5 39.89L179.5 39.89" stroke="#006B99" stroke-opacity="1.000000" stroke-width="3.395670" stroke-linejoin="round" stroke-linecap="round"/>
		<path id="Vector" d="M148.87 94L145.85 94.63L135.19 42.74L175.25 34.47L175.86 37.49" stroke="#006B99" stroke-opacity="1.000000" stroke-width="3.395670" stroke-linejoin="round" stroke-linecap="round"/>
		<path id="Vector" d="M150.25 53.13L177.56 47.49" stroke="#006B99" stroke-opacity="1.000000" stroke-width="3.395670" stroke-linejoin="round" stroke-linecap="round"/>
		<path id="Vector" d="M152.99 58.85L180.3 53.21" stroke="#006B99" stroke-opacity="1.000000" stroke-width="3.395670" stroke-linejoin="round" stroke-linecap="round"/>
		<path id="Vector" d="M150.6 62.49L180.92 56.23" stroke="#006B99" stroke-opacity="1.000000" stroke-width="3.395670" stroke-linejoin="round" stroke-linecap="round"/>
		<path id="Vector" d="M151.22 65.51L181.54 59.25" stroke="#006B99" stroke-opacity="1.000000" stroke-width="3.395670" stroke-linejoin="round" stroke-linecap="round"/>
		<path id="Vector" d="M151.84 68.53L173.13 64.13" stroke="#006B99" stroke-opacity="1.000000" stroke-width="3.395670" stroke-linejoin="round" stroke-linecap="round"/>
		<path id="Vector" d="M155.47 70.93L182.78 65.29" stroke="#006B99" stroke-opacity="1.000000" stroke-width="3.395670" stroke-linejoin="round" stroke-linecap="round"/>
		<path id="Vector" d="M153.09 74.57L183.41 68.31" stroke="#006B99" stroke-opacity="1.000000" stroke-width="3.395670" stroke-linejoin="round" stroke-linecap="round"/>
		<path id="Vector" d="M153.7 77.59L184.02 71.33" stroke="#006B99" stroke-opacity="1.000000" stroke-width="3.395670" stroke-linejoin="round" stroke-linecap="round"/>
		<path id="Vector" d="M157.33 79.99L184.65 74.34" stroke="#006B99" stroke-opacity="1.000000" stroke-width="3.395670" stroke-linejoin="round" stroke-linecap="round"/>
		<path id="Vector" d="M154.94 83.63L185.27 77.36" stroke="#006B99" stroke-opacity="1.000000" stroke-width="3.395670" stroke-linejoin="round" stroke-linecap="round"/>
		<path id="Vector" d="M155.57 86.65L185.89 80.38" stroke="#006B99" stroke-opacity="1.000000" stroke-width="3.395670" stroke-linejoin="round" stroke-linecap="round"/>
		<path id="Vector" d="M165.25 92.51L168.34 91.88L172.01 91.12L179.64 89.54L181.09 89.24L183.52 88.74" stroke="#006B99" stroke-opacity="1.000000" stroke-width="3.395670" stroke-linejoin="round" stroke-linecap="round"/>
		<path id="Vector" d="M174.24 87.86C174.14 88.21 173.55 90.41 174.37 90.44C175.25 90.46 177.26 85.38 177.26 85.38C177.26 85.38 176.28 89.51 177.47 89.59C178.66 89.68 178.49 86.65 179.52 86.37C180.25 86.17 179.64 88.33 179.64 89.54C179.64 90.06 179.76 90.41 180.13 90.31C180.59 90.2 180.87 89.76 181.09 89.24C181.46 88.38 181.66 87.3 182.31 87.14" stroke="#006B99" stroke-opacity="1.000000" stroke-width="3.395670" stroke-linejoin="round" stroke-linecap="round"/>
		<path id="Vector" d="M170.41 89.34C170.83 90.37 171.46 91.17 171.99 91.04C173.21 90.75 174.11 88.23 174.24 87.86C174.24 87.85 174.24 87.84 174.25 87.83L174.25 87.82" stroke="#006B99" stroke-opacity="1.000000" stroke-width="3.395670" stroke-linejoin="round" stroke-linecap="round"/>
		<path id="Vector" d="M170.76 85.63C169.62 85.92 169.8 87.86 170.41 89.34C171.39 87.5 171.93 85.33 170.76 85.63Z" stroke="#006B99" stroke-opacity="1.000000" stroke-width="3.395670" stroke-linejoin="round"/>
		<path id="Vector" d="M168.32 91.77C168.97 91.59 169.78 90.54 170.41 89.34" stroke="#006B99" stroke-opacity="1.000000" stroke-width="3.395670" stroke-linejoin="round" stroke-linecap="round"/>
		<path id="Vector" d="M163.36 88.92L161.84 91.23L160.33 93.53" stroke="#006B99" stroke-opacity="1.000000" stroke-width="3.395670" stroke-linejoin="round" stroke-linecap="round"/>
		<path id="Vector" d="M159.54 89.71L161.84 91.23L164.14 92.74" stroke="#006B99" stroke-opacity="1.000000" stroke-width="3.395670" stroke-linejoin="round" stroke-linecap="round"/>
		<path id="Vector" d="M188.91 96.84C191.02 99.6 193.98 101.58 197.33 102.47L196.4 108.1C196.35 108.42 196.36 108.74 196.43 109.06C196.5 109.37 196.64 109.66 196.82 109.92C197.01 110.18 197.24 110.4 197.51 110.57C197.79 110.74 198.09 110.86 198.4 110.91C198.72 110.96 199.04 110.95 199.35 110.88C199.66 110.81 199.96 110.67 200.22 110.49C200.48 110.3 200.7 110.06 200.87 109.79C201.04 109.52 201.15 109.22 201.2 108.9L202.14 103.19C203.54 103.22 204.94 103.07 206.3 102.74C208.39 102.23 210.36 101.31 212.09 100.01C213.79 98.72 215.24 97.13 216.37 95.31C217.55 93.4 218.33 91.27 218.68 89.05C219.22 85.9 218.93 82.66 217.83 79.65C216.73 76.65 214.26 74 210.4 71.73L207.6 70.03L209.56 58.11C209.92 58.38 210.25 58.69 210.54 59.03C211.26 59.9 211.67 60.98 211.69 62.1C211.72 62.53 211.89 62.93 212.17 63.24C212.46 63.56 212.84 63.77 213.26 63.83L220.08 64.96C220.34 65.01 220.6 64.99 220.86 64.93C221.11 64.86 221.35 64.74 221.55 64.58C221.76 64.41 221.93 64.21 222.05 63.97C222.17 63.74 222.24 63.48 222.26 63.22C222.33 61.71 222.21 60.21 221.89 58.73C221.46 56.7 220.64 54.77 219.49 53.04C218.34 51.35 216.85 49.92 215.11 48.85C213.94 48.13 212.68 47.56 211.37 47.16L212.19 42.16C212.24 41.84 212.23 41.52 212.16 41.21C212.08 40.89 211.95 40.6 211.77 40.34C211.58 40.08 211.34 39.86 211.07 39.69C210.8 39.52 210.5 39.41 210.18 39.35C209.87 39.3 209.55 39.31 209.23 39.38C208.92 39.46 208.63 39.59 208.37 39.78C207.84 40.15 207.49 40.73 207.39 41.36L206.56 46.38C205.23 46.34 203.91 46.46 202.61 46.73C200.58 47.15 198.66 47.99 196.97 49.2C195.2 50.41 193.7 51.96 192.55 53.77C191.33 55.66 190.53 57.79 190.18 60.01C189.52 63.38 190.03 66.87 191.61 69.9C193.3 72.93 195.8 75.41 198.84 77.07L201.28 78.46L199.07 91.9C198.15 91.49 197.42 90.75 197.02 89.82C196.68 89.04 196.44 88.22 196.29 87.38C196.19 86.77 195.9 86.21 195.47 85.78C195.04 85.34 194.48 85.06 193.87 84.95L191.83 84.62L188.95 84.14C188.52 84.07 188.08 84.09 187.67 84.21C187.25 84.33 186.86 84.54 186.54 84.82C186.21 85.11 185.95 85.46 185.78 85.86C185.6 86.26 185.51 86.69 185.52 87.12C185.54 88.46 185.73 89.79 186.07 91.08C186.2 91.57 186.35 92.05 186.52 92.52C187.07 94.08 187.88 95.54 188.91 96.84Z" stroke="#006B99" stroke-opacity="1.000000" stroke-width="3.395670" stroke-linejoin="round"/>
		<path id="Vector" d="M200.6 61.63C200.82 60.21 201.54 58.92 202.64 58.01C203.26 57.47 204.01 57.12 204.81 56.98L203.12 67.27C202.12 66.68 201.33 65.8 200.86 64.74C200.52 63.74 200.43 62.67 200.6 61.63Z" stroke="#006B99" stroke-opacity="1.000000" stroke-width="3.395670" stroke-linejoin="round"/>
		<path id="Vector" d="M203.92 92.36L205.76 81.21C206.55 81.81 207.21 82.57 207.69 83.44C208.32 84.71 208.51 86.16 208.24 87.55C208.15 88.39 207.86 89.19 207.41 89.9C206.96 90.61 206.34 91.2 205.62 91.63C205.09 91.95 204.52 92.19 203.92 92.36Z" stroke="#006B99" stroke-opacity="1.000000" stroke-width="3.395670" stroke-linejoin="round"/>
	</g>
</svg>
