<svg width="21.359985" height="21.012207" viewBox="0 0 21.36 21.0122" fill="none" xmlns="http://www.w3.org/2000/svg" xmlns:xlink="http://www.w3.org/1999/xlink">
	<desc>
			Created with Pixso.
	</desc>
	<defs/>
	<path id="Vector" d="M21.36 2.48C20.56 2.91 19.71 3.19 18.84 3.32C19.75 2.65 20.44 1.61 20.76 0.38C19.9 1 18.96 1.44 17.98 1.67C17.57 1.14 17.08 0.72 16.53 0.43C15.98 0.14 15.38 -0.01 14.78 0C12.36 0 10.4 2.37 10.4 5.3C10.4 5.72 10.44 6.12 10.52 6.51C6.87 6.29 3.64 4.18 1.48 0.97C1.09 1.78 0.89 2.7 0.89 3.63C0.89 4.51 1.07 5.37 1.41 6.14C1.75 6.91 2.24 7.56 2.84 8.05C2.14 8.02 1.46 7.79 0.85 7.38C0.85 7.41 0.85 7.43 0.85 7.45C0.85 10.02 2.36 12.16 4.37 12.65C3.72 12.86 3.05 12.9 2.39 12.74C2.95 14.85 4.57 16.39 6.48 16.43C4.93 17.9 3.01 18.7 1.04 18.7C0.69 18.7 0.34 18.67 0 18.62C2 20.18 4.33 21.01 6.71 21.01C14.77 21.01 19.18 12.92 19.18 5.92C19.18 5.69 19.18 5.46 19.17 5.23C20.03 4.48 20.77 3.55 21.36 2.48Z" fill="#000000" fill-opacity="1.000000" fill-rule="nonzero"/>
</svg>
