<svg width="22.000000" height="23.000000" viewBox="0 0 22 23" fill="none" xmlns="http://www.w3.org/2000/svg" xmlns:xlink="http://www.w3.org/1999/xlink">
	<desc>
			Created with Pixso.
	</desc>
	<defs>
		<clipPath id="clip2_1669">
			<rect id="IMAGE" rx="0.000000" width="21.000000" height="21.000000" transform="translate(0.500000 1.500000)" fill="white" fill-opacity="0"/>
		</clipPath>
	</defs>
	<g clip-path="url(#clip2_1669)">
		<path id="Vector" d="M20.37 1L1.62 1C0.72 1 0 1.7 0 2.58L0 21.41C0 22.28 0.72 23 1.62 23L20.37 23C21.26 23 22 22.28 22 21.41L22 2.58C22 1.7 21.26 1 20.37 1ZM6.52 19.74L3.26 19.74L3.26 9.24L6.52 9.24L6.52 19.74ZM4.89 7.81C3.84 7.81 2.99 6.96 2.99 5.92C2.99 4.87 3.84 4.03 4.89 4.03C5.93 4.03 6.78 4.87 6.78 5.92C6.78 6.96 5.93 7.81 4.89 7.81ZM18.74 19.74L15.48 19.74L15.48 14.64C15.48 13.42 15.46 11.85 13.78 11.85C12.09 11.85 11.83 13.18 11.83 14.55L11.83 19.74L8.57 19.74L8.57 9.24L11.7 9.24L11.7 10.68L11.74 10.68C12.18 9.85 13.24 8.98 14.83 8.98C18.13 8.98 18.74 11.15 18.74 13.98L18.74 19.74Z" fill="#000000" fill-opacity="1.000000" fill-rule="nonzero"/>
	</g>
</svg>
