<svg width="22.000000" height="23.000000" viewBox="0 0 22 23" fill="none" xmlns="http://www.w3.org/2000/svg" xmlns:xlink="http://www.w3.org/1999/xlink">
	<desc>
			Created with Pixso.
	</desc>
	<defs>
		<clipPath id="clip2_1673">
			<rect id="IMAGE" rx="0.000000" width="21.000000" height="21.000000" transform="translate(0.500000 1.500000)" fill="white" fill-opacity="0"/>
		</clipPath>
	</defs>
	<g clip-path="url(#clip2_1673)">
		<path id="Vector" d="M22 12C22 5.92 17.07 1 11 1C4.92 1 0 5.92 0 12C0 17.49 4.02 22.04 9.28 22.86L9.28 15.17L6.48 15.17L6.48 12L9.28 12L9.28 9.57C9.28 6.81 10.92 5.29 13.43 5.29C14.63 5.29 15.89 5.51 15.89 5.51L15.89 8.21L14.51 8.21C13.14 8.21 12.71 9.06 12.71 9.93L12.71 12L15.76 12L15.28 15.17L12.71 15.17L12.71 22.86C17.97 22.04 22 17.49 22 12Z" fill="#000000" fill-opacity="1.000000" fill-rule="nonzero"/>
	</g>
</svg>
