<svg width="55.000000" height="55.000000" viewBox="0 0 55 55" fill="none" xmlns="http://www.w3.org/2000/svg" xmlns:xlink="http://www.w3.org/1999/xlink">
	<desc>
			Created with Pixso.
	</desc>
	<defs>
		<clipPath id="clip2_1198">
			<rect id="IMAGE" rx="0.000000" width="54.000000" height="54.000000" transform="translate(0.500000 0.500000)" fill="white" fill-opacity="0"/>
		</clipPath>
	</defs>
	<g clip-path="url(#clip2_1198)">
		<path id="Vector" d="M23.5 7.16C23.05 7.33 22.83 7.58 22.88 7.86C22.95 8.28 13.78 20.68 11.43 28.21C10.71 30.56 11.88 30.88 17.23 29.86C20.48 29.23 20.35 28.58 18.2 34.63C16.61 39.08 15.43 42.81 14.88 45.08C14.13 48.08 15.71 49.66 19.6 45.58C21.28 43.83 25.08 39.91 33.98 29.76C41.53 21.16 41.5 21.38 35.55 21.16L31.88 21.01C33.6 19.18 40.05 12.23 42.03 10.61C44 8.96 44.63 8.28 41.98 7.91C38.9 7.46 28.5 7.28 25.45 7.01C24.75 6.93 23.88 7.01 23.5 7.16ZM38.33 9.68L37.03 10.76C33.85 13.36 27.58 20.83 27.58 21.98C27.58 23.23 29.68 23.11 35.1 23.11C27.1 32.38 20.85 39.61 20.7 39.61C20.65 39.61 21.23 37.96 22 35.91C24.9 28.13 25.05 26.68 23 26.93C19.45 27.36 15.98 27.83 15.51 27.98C15.08 28.11 15.36 27.43 16.95 24.43C19.8 18.98 20.95 17.41 25.95 9.08C35.48 9.51 35.38 9.51 38.33 9.68Z" fill="#006B99" fill-opacity="1.000000" fill-rule="evenodd"/>
	</g>
</svg>
