<svg width="32.000000" height="32.000000" viewBox="0 0 32 32" fill="none" xmlns="http://www.w3.org/2000/svg" xmlns:xlink="http://www.w3.org/1999/xlink">
	<desc>
			Created with Pixso.
	</desc>
	<defs>
		<clipPath id="clip2_868">
			<rect id="IMAGE" rx="0.000000" width="31.000000" height="31.000000" transform="translate(0.500000 0.500000)" fill="white" fill-opacity="0"/>
		</clipPath>
	</defs>
	<g clip-path="url(#clip2_868)">
		<path id="Vector" d="M27.61 16.55C26.58 10.21 22.17 5.55 18.25 6.66C17.42 6.89 16.77 7.43 14.13 10.16C12.76 11.58 12.34 11.92 12.11 11.84C9.55 10.85 7.95 12.09 7.96 15.08C7.96 16.67 8.04 17.09 8.56 18.7C8.7 19.12 6.92 20.77 4.69 23.12C2.9 24.76 4.79 25.26 7.48 24.38C12.12 22.89 11.41 22.95 13.01 23.86C15.64 25.34 19.07 25.88 20.63 25.07C20.94 24.91 21.11 24.59 21.08 24.23C21.08 24.21 20.94 22.69 20.94 22.7C23.07 21.85 25.65 20.97 26.86 20.1C28.08 19.21 27.9 18.36 27.61 16.55ZM7.46 22.94C7.29 22.94 9.33 20.69 9.47 20.54C9.51 20.72 9.94 21.42 10.56 21.85C10.58 21.92 7.75 22.94 7.46 22.94ZM23.25 19.52C22.37 19.73 19.63 20.82 18.67 21.36C17.96 21.75 17.93 21.8 18.03 22.3C18.37 24.2 18.46 24.09 16.81 23.67C13.07 22.7 8.74 15.36 10.46 12.89C10.94 12.19 11.61 13.07 11.66 14.49C11.7 15.99 13.03 18.45 13.96 19.06C14.51 19.42 14.79 18.98 14.65 18.7C12.84 15.36 13.14 14.48 13.26 13.98C13.26 13.98 17.23 9.96 17.56 9.6C18.76 8.32 19.82 8.26 20.99 9.38C23.14 11.47 24.79 14.79 25.21 17.83C25.3 18.64 24.65 19.21 23.25 19.52Z" fill="#006B99" fill-opacity="1.000000" fill-rule="nonzero"/>
		<path id="Vector" d="M23.36 17.16C21.56 18.11 18 11.5 19.65 10.3C20.4 9.76 19.24 9.09 18.62 9.79C17.58 10.97 18.59 17.45 22.89 18.2C23.67 18.34 24.31 18.2 24.37 17.67C24.43 17.22 23.84 16.89 23.36 17.16Z" fill="#006B99" fill-opacity="1.000000" fill-rule="nonzero"/>
	</g>
</svg>
