<svg width="32.000000" height="32.000000" viewBox="0 0 32 32" fill="none" xmlns="http://www.w3.org/2000/svg" xmlns:xlink="http://www.w3.org/1999/xlink">
	<desc>
			Created with Pixso.
	</desc>
	<defs>
		<clipPath id="clip2_881">
			<rect id="IMAGE" rx="0.000000" width="31.000000" height="31.000000" transform="translate(0.500000 0.500000)" fill="white" fill-opacity="0"/>
		</clipPath>
	</defs>
	<g clip-path="url(#clip2_881)">
		<path id="Vector" d="M18.31 15.14C18.65 15.14 18.89 14.97 19.12 14.53C19.97 12.96 20.66 12.85 21.03 14.2C21.4 15.53 22.81 15.66 22.81 14.38C22.81 12.96 20.57 11.8 18.97 12.38C17.78 12.82 17.23 15.14 18.31 15.14Z" fill="#006B99" fill-opacity="1.000000" fill-rule="nonzero"/>
		<path id="Vector" d="M10.91 15.57C10.91 14.34 11.75 13.84 12.15 14.82C12.61 15.91 13.41 16.23 13.71 15.43C14.28 13.97 11.24 12.53 9.87 13.61C9.33 14.03 8.85 15.29 9.04 15.79C9.28 16.41 10.91 16.2 10.91 15.57Z" fill="#006B99" fill-opacity="1.000000" fill-rule="nonzero"/>
		<path id="Vector" d="M11.86 22.5C15.56 24.14 19.32 23.65 21.79 21.19C24.38 18.61 23.39 15.91 20.04 16.42C19.72 16.46 18.78 16.81 17.96 17.18C16.31 17.93 15.29 17.98 12.99 17.43C9.22 16.55 8.26 20.91 11.86 22.5ZM21.42 17.49C22.05 18.29 21.76 19.65 20.78 20.58C20.13 21.19 20.2 21.24 19.76 19.72C19.57 19.05 19.34 18.36 19.26 18.18C19.01 17.54 20.97 16.92 21.42 17.49ZM17.27 18.44C18.09 18.22 18.09 18.2 18.46 19.99C18.88 21.95 18.88 21.97 18.17 22.22C16.8 22.71 16.96 22.68 16.62 18.61L17.27 18.44ZM13.97 18.59L15.51 18.59C15.51 21.48 15.55 21.44 15.75 22.49L15.01 22.35C13.86 22.14 13.97 22.06 13.97 18.59ZM12.4 18.14C12.88 18.26 13.09 21.67 12.62 21.67C12.18 21.67 11.16 20.41 11.02 19.68C10.8 18.48 11.35 17.86 12.4 18.14Z" fill="#006B99" fill-opacity="1.000000" fill-rule="nonzero"/>
		<path id="Vector" d="M20.85 7.28C18.68 6.19 18.63 6.61 20.67 8.59C27.06 14.79 25.34 24.13 17.67 24.89C11.72 25.48 7.48 21.81 7.59 16.29C7.68 11.89 10.56 7.3 15.31 6.74C16.27 6.63 16.29 6.61 15.87 6.37C15.2 6 13.27 6.07 12.1 6.48C10.56 7.03 9 8.17 7.79 9.63C4.74 13.28 5.07 19.01 7.47 22.4C10.47 26.64 20.5 27.37 24.03 23.6C28.44 18.88 26.76 10.27 20.85 7.28Z" fill="#006B99" fill-opacity="1.000000" fill-rule="nonzero"/>
	</g>
</svg>
