<svg width="32.000000" height="32.000000" viewBox="0 0 32 32" fill="none" xmlns="http://www.w3.org/2000/svg" xmlns:xlink="http://www.w3.org/1999/xlink">
	<desc>
			Created with Pixso.
	</desc>
	<defs>
		<clipPath id="clip2_896">
			<rect id="IMAGE" rx="0.000000" width="31.000000" height="31.000000" transform="translate(0.500000 0.500000)" fill="white" fill-opacity="0"/>
		</clipPath>
	</defs>
	<g clip-path="url(#clip2_896)">
		<path id="Vector" d="M12.63 6.97C10.87 8.45 10.46 8.65 8.74 8.83C6.49 9.07 6.53 9.06 6.61 9.51C6.7 9.98 6.83 11.8 6.87 12.27C5.18 14.2 5.14 14.11 5.29 15.2C5.35 15.63 5.24 19.68 5.52 23.43C5.59 24.37 5.9 24.8 6.77 25.25C8.45 26.09 9.84 25.6 8.51 24.63C7.32 23.76 7.2 23.38 7.08 19.93C7.04 18.8 6.94 17.27 6.85 16.52C6.52 13.51 7.54 14.76 7.5 15.01C7.42 15.69 7.75 16.22 9.24 16.99C10.14 17.46 13.5 19.61 14.83 20.05C16.81 20.74 17.63 19.51 22.29 16.32C23.15 15.74 23.71 15.22 24.03 14.72C24.84 13.47 24.93 19.8 24.13 22.5C23.59 24.3 23.44 24.35 18.31 24.48C13.06 24.61 10.56 24.94 10.69 25.32C11 26.25 22.64 26.46 24.48 25.59C25.29 25.2 26.18 23.2 26.35 22.23C26.6 20.8 26.61 18.59 26.39 15.66C26.23 13.55 26.02 13.09 24.86 12.05C24.45 11.68 24.42 11 24.79 9.62C24.93 9.09 25.11 8.23 23.83 8.23C22.56 8.23 20.5 8.31 20.15 8.31C19.65 8 17.56 6.81 17.19 6.45C16.87 6.19 14.9 5.04 12.63 6.97ZM17.19 7.75C17.67 8.06 18.06 8.33 18.06 8.37C18.06 8.4 16.85 8.43 15.38 8.43C12.51 8.43 12.46 8.4 13.45 7.78C14.89 6.87 15.8 6.87 17.19 7.75ZM23.19 13.71C23.07 14.27 22.47 14.52 22.06 14.2C21.77 13.97 21.49 13.92 20.35 13.92C20 13.92 13.96 13.89 11.18 14.09C8.74 14.25 10.04 15.22 11.33 15.39C12.42 15.53 21.12 15.2 20.95 15.46C20.87 15.6 18.12 17.62 16.31 19.1C15.93 18.9 8.86 15.31 8.59 15.31C8.36 15.31 8.19 9.86 8.2 9.84C8.24 9.79 16.4 9.56 23.1 9.56C23.33 11.64 23.45 12.36 23.19 13.71ZM16.33 11.59C15.45 12.47 16.42 12.81 19.66 12.75C22.57 12.7 22.79 12.64 22.23 11.99C21.74 11.4 16.84 11.07 16.33 11.59Z" fill="#006B99" fill-opacity="1.000000" fill-rule="evenodd"/>
	</g>
</svg>
