<svg width="32.000000" height="32.000000" viewBox="0 0 32 32" fill="none" xmlns="http://www.w3.org/2000/svg" xmlns:xlink="http://www.w3.org/1999/xlink">
	<desc>
			Created with Pixso.
	</desc>
	<defs>
		<clipPath id="clip2_906">
			<rect id="IMAGE" rx="0.000000" width="31.000000" height="31.000000" transform="translate(0.500000 0.500000)" fill="white" fill-opacity="0"/>
		</clipPath>
	</defs>
	<g clip-path="url(#clip2_906)">
		<path id="Vector" d="M13.67 4.16C13.41 4.26 13.28 4.41 13.31 4.57C13.35 4.82 8.02 12.03 6.65 16.41C6.23 17.78 6.91 17.97 10.02 17.37C11.91 17.01 11.84 16.63 10.59 20.15C9.66 22.74 8.98 24.9 8.66 26.23C8.22 27.97 9.14 28.89 11.4 26.52C12.38 25.5 14.59 23.22 19.77 17.31C24.16 12.31 24.15 12.44 20.68 12.31L18.55 12.22C19.55 11.16 23.3 7.12 24.45 6.17C25.6 5.21 25.96 4.82 24.42 4.6C22.63 4.34 16.58 4.24 14.81 4.08C14.4 4.03 13.89 4.08 13.67 4.16ZM22.3 5.63L21.54 6.26C19.7 7.77 16.04 12.12 16.04 12.79C16.04 13.52 17.27 13.44 20.42 13.44C15.77 18.84 12.13 23.04 12.04 23.04C12.02 23.04 12.35 22.08 12.8 20.89C14.49 16.37 14.58 15.52 13.38 15.67C11.32 15.92 9.3 16.19 9.02 16.28C8.77 16.35 8.93 15.96 9.86 14.21C11.52 11.04 12.19 10.13 15.1 5.28C20.64 5.53 20.58 5.53 22.3 5.63Z" fill="#006B99" fill-opacity="1.000000" fill-rule="evenodd"/>
	</g>
</svg>
