<svg width="481.000000" height="479.000000" viewBox="0 0 481 479" fill="none" xmlns="http://www.w3.org/2000/svg" xmlns:xlink="http://www.w3.org/1999/xlink">
	<desc>
			Created with Pixso.
	</desc>
	<defs>
		<clipPath id="clip2_914">
			<rect id="IMAGE" rx="0.000000" width="480.000000" height="478.000000" transform="translate(0.500000 0.500000)" fill="white" fill-opacity="0"/>
		</clipPath>
	</defs>
	<g clip-path="url(#clip2_914)">
		<path id="Vector" d="M371.35 163.28L137.66 163.28L137.66 154.05C137.66 151.35 138.74 148.75 140.65 146.84C142.56 144.93 145.15 143.86 147.86 143.86L368.23 143.86C367.86 145.69 367.67 147.55 367.67 149.42C367.67 149.5 367.67 149.57 367.67 149.65L174.21 149.65L174.21 157.41L368.66 157.41L368.84 157.36C369.46 159.42 370.3 161.4 371.35 163.28Z" fill="#CCEFF6" fill-opacity="1.000000" fill-rule="nonzero"/>
		<path id="Vector" d="M264.8 314.62C266.29 314.62 267.75 315.06 268.99 315.89C270.24 316.72 271.2 317.9 271.78 319.28C272.35 320.66 272.5 322.17 272.21 323.64C271.92 325.1 271.2 326.45 270.14 327.5C269.08 328.56 267.74 329.28 266.27 329.57C264.81 329.86 263.29 329.71 261.91 329.14C260.53 328.57 259.35 327.6 258.52 326.36C257.69 325.12 257.25 323.66 257.25 322.16C257.25 320.16 258.05 318.24 259.46 316.83C260.88 315.41 262.79 314.62 264.8 314.62Z" fill="#F7CEDC" fill-opacity="1.000000" fill-rule="nonzero"/>
		<path id="Vector" d="M400.99 201.15L400.99 288.09C399.2 288.86 397.46 289.74 395.78 290.72L391.84 289.39L391.94 289.09L391.94 184.63L400.99 201.15Z" fill="#F7CEDC" fill-opacity="1.000000" fill-rule="nonzero"/>
		<path id="Vector" d="M400.99 183.28L400.99 201.15L391.94 184.62L391.94 180.53C394.87 181.72 397.9 182.64 400.99 183.28Z" fill="#006B99" fill-opacity="1.000000" fill-rule="nonzero"/>
		<path id="Vector" d="M383.49 335.93L366.99 335.93L374.7 308.4L379.77 308.4C378.44 311.7 377.75 315.23 377.75 318.78C377.8 324.96 379.81 330.97 383.49 335.93Z" fill="#006B99" fill-opacity="1.000000" fill-rule="nonzero"/>
		<path id="Vector" d="M374.7 308.4L366.99 335.93L142.36 335.93C138.71 335.93 135.22 334.48 132.64 331.9C130.06 329.32 128.61 325.83 128.61 322.18L128.61 256.52L137.66 244.97L137.66 298.21C137.66 300.91 138.74 303.51 140.65 305.42C142.56 307.33 145.15 308.4 147.86 308.4L374.7 308.4ZM272.36 322.16C272.36 320.67 271.92 319.21 271.09 317.97C270.26 316.73 269.08 315.76 267.7 315.19C266.32 314.61 264.81 314.46 263.34 314.75C261.87 315.04 260.53 315.76 259.47 316.82C258.42 317.87 257.7 319.22 257.4 320.68C257.11 322.15 257.26 323.67 257.83 325.05C258.4 326.43 259.37 327.61 260.61 328.44C261.85 329.27 263.31 329.71 264.81 329.71C266.81 329.71 268.73 328.92 270.14 327.5C271.56 326.09 272.35 324.17 272.36 322.16L272.36 322.16Z" fill="#F7CEDC" fill-opacity="1.000000" fill-rule="nonzero"/>
		<path id="Vector" d="M371.45 188.84C371.98 188.82 372.51 188.92 373 189.11C373.5 189.31 373.95 189.6 374.33 189.97C374.71 190.34 375.01 190.78 375.22 191.27C375.43 191.76 375.54 192.29 375.54 192.82C375.54 193.35 375.43 193.88 375.22 194.37C375.01 194.86 374.71 195.3 374.33 195.68C373.95 196.05 373.5 196.34 373 196.53C372.51 196.73 371.98 196.82 371.45 196.81L279.53 196.81C278.74 196.81 277.97 196.58 277.31 196.14C276.66 195.7 276.15 195.08 275.84 194.35C275.54 193.62 275.46 192.82 275.62 192.05C275.77 191.27 276.15 190.56 276.71 190C277.08 189.63 277.52 189.34 278 189.14C278.49 188.94 279.01 188.83 279.53 188.84L371.45 188.84Z" fill="#CCEFF6" fill-opacity="1.000000" fill-rule="nonzero"/>
		<path id="Vector" d="M371.45 205.88C372.51 205.88 373.52 206.3 374.27 207.05C375.02 207.8 375.44 208.81 375.44 209.87C375.44 210.93 375.02 211.94 374.27 212.69C373.52 213.44 372.51 213.86 371.45 213.86L233.03 213.86C231.97 213.86 230.96 213.44 230.21 212.69C229.46 211.94 229.04 210.92 229.04 209.87C229.04 208.81 229.46 207.8 230.21 207.05C230.96 206.31 231.97 205.89 233.03 205.88L371.45 205.88Z" fill="#006B99" fill-opacity="1.000000" fill-rule="nonzero"/>
		<path id="Vector" d="M371.45 222.93C371.98 222.92 372.51 223.01 373 223.21C373.5 223.4 373.95 223.69 374.33 224.07C374.71 224.44 375.01 224.88 375.22 225.37C375.43 225.86 375.53 226.39 375.53 226.92C375.53 227.45 375.43 227.98 375.22 228.47C375.01 228.96 374.71 229.4 374.33 229.77C373.95 230.15 373.5 230.44 373 230.63C372.51 230.83 371.98 230.92 371.45 230.91L326.04 230.91C324.98 230.91 323.96 230.49 323.21 229.74C322.47 228.99 322.05 227.97 322.04 226.92C322.05 225.86 322.47 224.85 323.22 224.1C323.97 223.35 324.98 222.93 326.04 222.93L371.45 222.93Z" fill="#CCEFF6" fill-opacity="1.000000" fill-rule="nonzero"/>
		<path id="Vector" d="M371.45 239.97C372.51 239.97 373.52 240.39 374.27 241.14C375.02 241.89 375.44 242.9 375.44 243.96C375.44 245.02 375.02 246.03 374.27 246.78C373.52 247.53 372.51 247.95 371.45 247.95L225.28 247.95C224.22 247.95 223.2 247.53 222.46 246.78C221.71 246.03 221.29 245.02 221.29 243.96C221.29 242.9 221.71 241.89 222.46 241.14C223.21 240.4 224.22 239.98 225.28 239.97L371.45 239.97Z" fill="#006B99" fill-opacity="1.000000" fill-rule="nonzero"/>
		<path id="Vector" d="M371.45 257.03C372.49 257.06 373.48 257.49 374.21 258.23C374.93 258.98 375.34 259.98 375.34 261.02C375.34 262.06 374.93 263.06 374.21 263.8C373.48 264.55 372.49 264.98 371.45 265.01L295.03 265.01C293.98 265 292.96 264.58 292.21 263.83C291.46 263.09 291.04 262.07 291.04 261.01C291.04 259.96 291.47 258.94 292.22 258.2C292.96 257.45 293.98 257.03 295.03 257.03L371.45 257.03Z" fill="#CCEFF6" fill-opacity="1.000000" fill-rule="nonzero"/>
		<path id="Vector" d="M371.45 274.08C371.98 274.07 372.51 274.16 373.01 274.35C373.5 274.55 373.95 274.84 374.33 275.21C374.71 275.58 375.02 276.03 375.22 276.52C375.43 277.01 375.54 277.53 375.54 278.06C375.54 278.6 375.43 279.12 375.22 279.61C375.02 280.1 374.71 280.55 374.33 280.92C373.95 281.29 373.5 281.58 373.01 281.78C372.51 281.97 371.98 282.07 371.45 282.05L349.29 282.05C348.23 282.05 347.22 281.63 346.47 280.88C345.72 280.13 345.3 279.12 345.3 278.06C345.3 277.01 345.72 275.99 346.47 275.25C347.22 274.5 348.23 274.08 349.29 274.08L371.45 274.08Z" fill="#006B99" fill-opacity="1.000000" fill-rule="nonzero"/>
		<path id="Vector" d="M371.45 291.13C372.51 291.13 373.52 291.55 374.27 292.29C375.02 293.04 375.44 294.06 375.44 295.12C375.44 296.17 375.02 297.19 374.27 297.93C373.52 298.68 372.51 299.1 371.45 299.1L248.53 299.1C247.47 299.1 246.46 298.68 245.71 297.93C244.96 297.18 244.54 296.17 244.54 295.11C244.54 294.05 244.96 293.04 245.71 292.29C246.46 291.55 247.47 291.13 248.53 291.13L371.45 291.13Z" fill="#CCEFF6" fill-opacity="1.000000" fill-rule="nonzero"/>
		<path id="Vector" d="M371.76 171.82L367.89 179.76L248.53 179.76C247.47 179.76 246.46 179.34 245.71 178.59C244.96 177.85 244.54 176.83 244.54 175.77C244.54 174.72 244.96 173.7 245.71 172.95C246.46 172.21 247.47 171.79 248.53 171.79L371.45 171.79C371.56 171.79 371.65 171.81 371.76 171.82Z" fill="#006B99" fill-opacity="1.000000" fill-rule="nonzero"/>
		<path id="Vector" d="M142.36 137.25L370.46 137.25C369.45 139.36 368.71 141.57 368.23 143.86L147.86 143.86C145.15 143.86 142.56 144.93 140.65 146.84C138.74 148.75 137.66 151.35 137.66 154.05L137.66 186.58C134.86 184.5 131.82 182.75 128.61 181.36L128.61 151C128.61 149.2 128.97 147.41 129.66 145.74C130.35 144.07 131.36 142.56 132.64 141.28C133.92 140 135.43 138.99 137.1 138.3C138.77 137.61 140.56 137.25 142.36 137.25Z" fill="#F7CEDC" fill-opacity="1.000000" fill-rule="nonzero"/>
		<path id="Vector" d="M368.85 157.36L368.66 157.41L174.21 157.41L174.21 149.65L367.68 149.65C367.69 152.26 368.09 154.86 368.85 157.36Z" fill="#006B99" fill-opacity="1.000000" fill-rule="nonzero"/>
		<path id="Vector" d="M327.27 274.08C328.31 274.1 329.3 274.54 330.03 275.28C330.76 276.03 331.16 277.02 331.16 278.06C331.16 279.11 330.76 280.1 330.03 280.85C329.3 281.6 328.31 282.03 327.27 282.05L173.35 282.05C172.29 282.05 171.28 281.63 170.53 280.88C169.78 280.13 169.36 279.12 169.36 278.06C169.36 277.01 169.78 275.99 170.53 275.25C171.28 274.5 172.29 274.08 173.35 274.08L327.27 274.08Z" fill="#CCEFF6" fill-opacity="1.000000" fill-rule="nonzero"/>
		<path id="Vector" d="M304.02 222.93C305.06 222.96 306.05 223.39 306.78 224.13C307.5 224.88 307.91 225.88 307.91 226.92C307.91 227.96 307.5 228.96 306.78 229.7C306.05 230.45 305.06 230.88 304.02 230.91L173.35 230.91C172.29 230.91 171.28 230.48 170.53 229.74C169.78 228.99 169.36 227.97 169.36 226.92C169.36 225.86 169.78 224.85 170.53 224.1C171.28 223.35 172.29 222.93 173.35 222.93L304.02 222.93Z" fill="#006B99" fill-opacity="1.000000" fill-rule="nonzero"/>
		<path id="Vector" d="M294.49 355.7L297.76 370.12L293.14 370.12L238.44 370.12L231.84 370.12L239.59 335.93L294.49 355.7Z" fill="#F7CEDC" fill-opacity="1.000000" fill-rule="nonzero"/>
		<path id="Vector" d="M290.01 335.93L294.49 355.7L239.59 335.93L290.01 335.93Z" fill="#006B99" fill-opacity="1.000000" fill-rule="nonzero"/>
		<path id="Vector" d="M273.01 257.03C274.06 257.06 275.04 257.49 275.77 258.23C276.5 258.98 276.91 259.98 276.91 261.02C276.91 262.06 276.5 263.06 275.77 263.8C275.04 264.55 274.06 264.98 273.01 265.01L173.35 265.01C172.29 265 171.28 264.58 170.53 263.83C169.78 263.09 169.36 262.07 169.36 261.01C169.36 259.96 169.78 258.94 170.53 258.2C171.28 257.45 172.29 257.03 173.35 257.03L273.01 257.03Z" fill="#006B99" fill-opacity="1.000000" fill-rule="nonzero"/>
		<path id="Vector" d="M257.51 188.84C258.04 188.82 258.57 188.92 259.07 189.11C259.56 189.31 260.01 189.6 260.4 189.97C260.78 190.34 261.08 190.78 261.29 191.27C261.49 191.76 261.6 192.29 261.6 192.82C261.6 193.35 261.49 193.88 261.29 194.37C261.08 194.86 260.78 195.3 260.4 195.68C260.01 196.05 259.56 196.34 259.07 196.53C258.57 196.73 258.04 196.82 257.51 196.81L173.35 196.81C172.82 196.82 172.29 196.73 171.79 196.53C171.3 196.34 170.85 196.05 170.47 195.68C170.08 195.3 169.78 194.86 169.58 194.37C169.37 193.88 169.26 193.35 169.26 192.82C169.26 192.29 169.37 191.76 169.58 191.27C169.78 190.78 170.08 190.34 170.47 189.97C170.85 189.6 171.3 189.31 171.79 189.11C172.29 188.92 172.82 188.82 173.35 188.84L257.51 188.84Z" fill="#006B99" fill-opacity="1.000000" fill-rule="nonzero"/>
		<path id="Vector" d="M226.51 171.79C227.57 171.79 228.58 172.21 229.33 172.95C230.08 173.7 230.5 174.72 230.5 175.77C230.5 176.83 230.08 177.85 229.33 178.59C228.58 179.34 227.57 179.76 226.51 179.76L173.35 179.76C172.29 179.76 171.28 179.34 170.53 178.59C169.78 177.84 169.36 176.83 169.36 175.77C169.36 174.71 169.78 173.7 170.53 172.95C171.28 172.21 172.29 171.79 173.35 171.79L226.51 171.79Z" fill="#CCEFF6" fill-opacity="1.000000" fill-rule="nonzero"/>
		<path id="Vector" d="M226.51 291.13C227.57 291.13 228.58 291.55 229.33 292.29C230.08 293.04 230.5 294.06 230.5 295.12C230.5 296.17 230.08 297.19 229.33 297.93C228.58 298.68 227.57 299.1 226.51 299.1L173.35 299.1C172.29 299.1 171.28 298.68 170.53 297.93C169.78 297.18 169.36 296.17 169.36 295.11C169.36 294.05 169.78 293.04 170.53 292.29C171.28 291.55 172.29 291.13 173.35 291.13L226.51 291.13Z" fill="#006B99" fill-opacity="1.000000" fill-rule="nonzero"/>
		<path id="Vector" d="M211.01 205.88C212.07 205.88 213.08 206.3 213.83 207.05C214.58 207.8 215 208.81 215 209.87C215 210.93 214.58 211.94 213.83 212.69C213.08 213.44 212.07 213.86 211.01 213.86L173.35 213.86C172.29 213.86 171.28 213.44 170.53 212.69C169.78 211.94 169.36 210.92 169.36 209.87C169.36 208.81 169.78 207.8 170.53 207.05C171.28 206.3 172.29 205.89 173.35 205.88L211.01 205.88Z" fill="#CCEFF6" fill-opacity="1.000000" fill-rule="nonzero"/>
		<path id="Vector" d="M203.26 239.97C204.32 239.97 205.33 240.39 206.08 241.14C206.83 241.89 207.25 242.9 207.25 243.96C207.25 245.02 206.83 246.03 206.08 246.78C205.33 247.53 204.32 247.95 203.26 247.95L173.35 247.95C172.29 247.95 171.28 247.53 170.53 246.78C169.78 246.03 169.36 245.02 169.36 243.96C169.36 242.9 169.78 241.89 170.53 241.14C171.28 240.4 172.29 239.97 173.35 239.97L203.26 239.97Z" fill="#CCEFF6" fill-opacity="1.000000" fill-rule="nonzero"/>
		<path id="Vector" d="M151.17 207.11C151.69 207.3 152.15 207.65 152.49 208.1C152.83 208.54 153.03 209.08 153.07 209.64C153.12 210.2 153 210.76 152.74 211.25C152.47 211.75 152.07 212.16 151.58 212.43C151.58 212.27 151.58 212.1 151.58 211.93C151.58 211.53 151.58 211.14 151.55 210.74L151.55 210.65C151.5 209.46 151.37 208.28 151.17 207.11Z" fill="#006B99" fill-opacity="1.000000" fill-rule="nonzero"/>
		<path id="Vector" d="M150.11 172.8C150.7 172.8 151.28 172.97 151.77 173.3C152.25 173.62 152.64 174.09 152.86 174.63C153.09 175.17 153.15 175.77 153.04 176.34C152.92 176.92 152.64 177.45 152.23 177.87C151.81 178.28 151.28 178.57 150.71 178.68C150.13 178.8 149.53 178.74 148.99 178.52C148.44 178.29 147.98 177.91 147.65 177.42C147.33 176.93 147.15 176.36 147.15 175.77C147.15 174.99 147.46 174.23 148.02 173.67C148.57 173.12 149.33 172.8 150.11 172.8Z" fill="#006B99" fill-opacity="1.000000" fill-rule="nonzero"/>
		<path id="Vector" d="M150.11 189.85C150.7 189.85 151.27 190.02 151.76 190.35C152.25 190.67 152.63 191.14 152.86 191.68C153.09 192.22 153.14 192.82 153.03 193.39C152.92 193.97 152.64 194.5 152.22 194.91C151.81 195.33 151.28 195.61 150.7 195.73C150.13 195.84 149.53 195.79 148.99 195.56C148.44 195.34 147.98 194.96 147.65 194.47C147.33 193.98 147.15 193.41 147.15 192.82C147.15 192.03 147.46 191.28 148.02 190.72C148.57 190.17 149.33 189.85 150.11 189.85Z" fill="#006B99" fill-opacity="1.000000" fill-rule="nonzero"/>
		<path id="Vector" d="M150.11 223.95C150.9 223.95 151.65 224.26 152.21 224.82C152.77 225.37 153.08 226.13 153.08 226.92C153.08 227.7 152.77 228.46 152.21 229.02C151.65 229.57 150.9 229.88 150.11 229.88C149.48 229.87 148.87 229.65 148.36 229.27C147.86 228.89 147.49 228.36 147.31 227.75L146.9 227.5C147.6 226.41 148.23 225.28 148.78 224.11L148.91 224.17C149.16 223.93 149.91 223.95 150.11 223.95Z" fill="#006B99" fill-opacity="1.000000" fill-rule="nonzero"/>
		<path id="Vector" d="M150.11 258.04C150.7 258.04 151.28 258.21 151.77 258.54C152.25 258.87 152.64 259.33 152.86 259.87C153.09 260.41 153.15 261.01 153.04 261.59C152.92 262.16 152.64 262.69 152.23 263.11C151.81 263.53 151.28 263.81 150.71 263.93C150.13 264.04 149.53 263.98 148.99 263.76C148.44 263.53 147.98 263.15 147.65 262.67C147.33 262.18 147.15 261.6 147.15 261.01C147.15 260.23 147.46 259.47 148.02 258.92C148.57 258.36 149.33 258.05 150.11 258.04Z" fill="#006B99" fill-opacity="1.000000" fill-rule="nonzero"/>
		<path id="Vector" d="M150.11 275.09C150.7 275.09 151.27 275.26 151.76 275.59C152.25 275.92 152.63 276.38 152.86 276.92C153.09 277.46 153.14 278.06 153.03 278.64C152.92 279.21 152.64 279.74 152.22 280.16C151.81 280.57 151.28 280.86 150.7 280.97C150.13 281.09 149.53 281.03 148.99 280.8C148.44 280.58 147.98 280.2 147.65 279.71C147.33 279.22 147.15 278.65 147.15 278.06C147.15 277.28 147.46 276.52 148.02 275.97C148.57 275.41 149.33 275.1 150.11 275.09Z" fill="#006B99" fill-opacity="1.000000" fill-rule="nonzero"/>
		<path id="Vector" d="M150.11 292.14C150.7 292.14 151.28 292.31 151.77 292.64C152.25 292.96 152.64 293.43 152.86 293.97C153.09 294.51 153.15 295.11 153.04 295.69C152.92 296.26 152.64 296.79 152.23 297.21C151.81 297.63 151.28 297.91 150.7 298.02C150.13 298.14 149.53 298.08 148.99 297.85C148.44 297.63 147.98 297.25 147.65 296.76C147.33 296.27 147.15 295.7 147.15 295.11C147.15 294.32 147.46 293.57 148.02 293.01C148.57 292.46 149.33 292.14 150.11 292.14Z" fill="#006B99" fill-opacity="1.000000" fill-rule="nonzero"/>
		<path id="Vector" d="M133.56 239.99L137.88 242.03L137.66 242.49L137.66 244.97L128.6 256.52L128.6 242.49C130.31 241.76 131.96 240.92 133.56 239.99Z" fill="#006B99" fill-opacity="1.000000" fill-rule="nonzero"/>
		<path id="Vector" d="M118.81 245.68L118.89 246.06C114.89 255.14 109.79 264.15 103.82 269.17C101.88 270.79 100.01 272.44 98.22 274.11C97.54 264.21 96.82 254.19 96.12 246.06C99.55 246.68 103.04 247 106.53 246.99C110.66 247 114.77 246.56 118.81 245.68Z" fill="#006B99" fill-opacity="1.000000" fill-rule="nonzero"/>
		<path id="Vector" d="M90.73 291.07C92.2 287.62 94.47 284.57 97.35 282.17C97.79 281.83 98.23 281.49 98.69 281.16C105.8 276.16 113.55 272.13 121.73 269.19C121.51 269.65 113.19 287.28 105.2 294.01C103.35 295.57 101.5 296.97 99.74 298.33C97.97 299.68 96.29 301.15 94.71 302.74C92.98 304.44 91.6 306.48 90.68 308.74C89.75 310.99 89.28 313.41 89.31 315.84L89.31 316.24L85.9 316.24L85.9 315.84C85.94 311.66 86.33 307.5 87.06 303.39C87.76 299.14 88.99 295.01 90.73 291.07Z" fill="#CCEFF6" fill-opacity="1.000000" fill-rule="nonzero"/>
		<path id="Vector" d="M100.59 315.84L100.59 316.24L96.44 316.24C96.24 311.69 95.66 307.18 94.7 302.74C96.27 301.15 97.96 299.68 99.73 298.33C100.27 307.32 100.59 314.04 100.59 315.84Z" fill="#006B99" fill-opacity="1.000000" fill-rule="nonzero"/>
		<path id="Vector" d="M98.68 281.15C98.23 281.49 97.79 281.83 97.35 282.17C94.47 284.57 92.2 287.62 90.72 291.07C89.8 289.64 88.66 288.04 87.34 286.27C84.28 282.13 80.32 277.09 76.25 271.5C71.35 264.93 66.97 257.99 63.16 250.74C63.16 250.74 63.14 250.71 63.1 250.64C62.53 249.5 61.98 248.37 61.47 247.22C44.51 209.84 55.5 172.56 55.5 172.56C61.31 177.86 66.76 183.54 71.82 189.57C68.64 192.38 66.08 195.81 64.3 199.66C62.52 203.51 61.55 207.69 61.47 211.93C61.47 228.51 76.25 242.4 96.12 246.06C96.82 254.19 97.54 264.21 98.22 274.11C98.38 276.47 98.54 278.83 98.68 281.15Z" fill="#CCEFF6" fill-opacity="1.000000" fill-rule="nonzero"/>
		<path id="Vector" d="M85.39 289.21C85.39 289.21 86.67 296.78 87.07 303.38C86.34 307.49 85.95 311.66 85.91 315.83L85.91 316.23L82.5 316.23L82.5 315.83C83.7 307.82 82.47 298.8 82.5 294.54C83.37 292.71 84.33 290.93 85.39 289.21Z" fill="#006B99" fill-opacity="1.000000" fill-rule="nonzero"/>
		<path id="Vector" d="M87.35 286.27C86.67 287.23 86.01 288.21 85.39 289.21C84.33 290.93 83.37 292.71 82.5 294.54C79.36 301.33 77.71 308.71 77.66 316.19L77.66 316.23L76.29 316.23C76.21 307.91 75.35 299.62 73.73 291.47C74.51 287.37 74.93 282.72 75.43 277.97C75.65 275.83 75.89 273.67 76.19 271.54L76.25 271.49C80.32 277.1 84.28 282.13 87.35 286.27Z" fill="#CCEFF6" fill-opacity="1.000000" fill-rule="nonzero"/>
		<path id="Vector" d="M76.29 316.24L70.26 316.24C69.86 295.7 55.97 289.21 42.07 277.5C27.69 265.4 12.74 233.46 12.74 233.46C27.69 238.85 41.82 246.29 54.71 255.57C55.12 255.91 55.54 256.23 55.97 256.52C66.03 264.41 71.15 278.67 73.73 291.47C75.35 299.63 76.21 307.92 76.29 316.24Z" fill="#CCEFF6" fill-opacity="1.000000" fill-rule="nonzero"/>
		<path id="Vector" d="M76.25 271.5L76.19 271.54C75.89 273.68 75.65 275.84 75.43 277.98C74.05 268.82 66.71 263.96 55.97 256.53C55.55 256.2 55.14 255.88 54.72 255.57C44.97 247.4 41.93 227.48 41.93 227.48C53.08 234.03 62.27 249.23 63.1 250.64C63.14 250.71 63.16 250.75 63.16 250.75C66.97 258 71.35 264.94 76.25 271.5Z" fill="#006B99" fill-opacity="1.000000" fill-rule="nonzero"/>
		<path id="Vector" d="M128.61 242.49C130.31 241.76 131.97 240.92 133.56 239.99L137.87 242.03L158.95 251.95L145.3 229.81C145.87 229.06 146.42 228.29 146.91 227.5C147.61 226.41 148.24 225.28 148.8 224.11C150.56 220.46 151.51 216.48 151.58 212.43C151.58 212.27 151.58 212.1 151.58 211.93C151.58 211.53 151.58 211.14 151.55 210.74" stroke="#006B99" stroke-opacity="1.000000" stroke-width="1.543420" stroke-linejoin="round" stroke-linecap="round"/>
		<path id="Vector" d="M151.56 210.65C151.51 209.46 151.38 208.28 151.17 207.11C149.46 198.79 144.63 191.44 137.66 186.58C134.86 184.5 131.82 182.75 128.61 181.36C121.64 178.35 114.12 176.82 106.53 176.86C93.78 176.59 81.39 181.12 71.82 189.56C68.64 192.37 66.08 195.81 64.3 199.66C62.52 203.51 61.55 207.68 61.47 211.92C61.47 228.5 76.25 242.39 96.12 246.05C99.55 246.67 103.04 246.99 106.53 246.99C110.66 246.99 114.78 246.55 118.81 245.67C122.17 244.93 125.46 243.87 128.61 242.49" stroke="#006B99" stroke-opacity="1.000000" stroke-width="1.543420" stroke-linejoin="round" stroke-linecap="round"/>
		<path id="Vector" d="M371.77 171.82L373.97 167.29C372.99 166.02 372.11 164.68 371.33 163.28C370.29 161.4 369.45 159.42 368.84 157.36C368.08 154.86 367.69 152.26 367.67 149.65C367.67 149.57 367.67 149.5 367.67 149.42C367.67 147.55 367.86 145.69 368.23 143.86C368.7 141.58 369.45 139.36 370.45 137.25C376.81 123.88 393.34 114.35 412.73 114.35C437.61 114.35 457.79 130.05 457.79 149.42C457.79 168.79 437.61 184.49 412.73 184.49C408.79 184.5 404.85 184.09 400.99 183.27C397.9 182.64 394.87 181.72 391.94 180.53C389.8 179.66 387.71 178.64 385.72 177.47L364.64 186.46L367.91 179.76L371.78 171.81" stroke="#006B99" stroke-opacity="1.000000" stroke-width="1.543420" stroke-linejoin="round" stroke-linecap="round"/>
		<path id="Vector" d="M378.36 284.83L384.04 300.91C382.28 303.2 380.84 305.72 379.77 308.4C378.44 311.7 377.75 315.23 377.75 318.78C377.8 324.96 379.81 330.97 383.5 335.93C391.21 346.62 405.93 353.85 422.82 353.85C447.7 353.85 467.87 338.15 467.87 318.78C467.87 299.42 447.7 283.72 422.82 283.72C415.32 283.68 407.9 285.17 401 288.1C399.21 288.87 397.46 289.75 395.78 290.73L391.84 289.39L378.36 284.83Z" stroke="#006B99" stroke-opacity="1.000000" stroke-width="1.543420" stroke-linejoin="round"/>
		<path id="Vector" d="M128.61 181.36L128.61 151C128.61 147.36 130.06 143.86 132.64 141.28C135.22 138.7 138.71 137.25 142.36 137.25L370.46 137.25" stroke="#006B99" stroke-opacity="1.000000" stroke-width="1.543420" stroke-linejoin="round" stroke-linecap="round"/>
		<path id="Vector" d="M239.6 335.93L142.36 335.93C138.71 335.93 135.22 334.48 132.64 331.9C130.06 329.32 128.61 325.83 128.61 322.18L128.61 242.49" stroke="#006B99" stroke-opacity="1.000000" stroke-width="1.543420" stroke-linejoin="round" stroke-linecap="round"/>
		<path id="Vector" d="M383.49 335.93L366.98 335.93L290.01 335.93" stroke="#006B99" stroke-opacity="1.000000" stroke-width="1.543420" stroke-linejoin="round" stroke-linecap="round"/>
		<path id="Vector" d="M400.99 183.28L400.99 201.15L400.99 288.1" stroke="#006B99" stroke-opacity="1.000000" stroke-width="1.543420" stroke-linejoin="round" stroke-linecap="round"/>
		<path id="Vector" d="M137.66 186.59L137.66 154.05C137.66 151.35 138.74 148.75 140.65 146.84C142.56 144.93 145.15 143.86 147.86 143.86L368.23 143.86" stroke="#006B99" stroke-opacity="1.000000" stroke-width="1.543420" stroke-linejoin="round" stroke-linecap="round"/>
		<path id="Vector" d="M379.77 308.4L147.86 308.4C145.15 308.4 142.56 307.33 140.65 305.42C138.74 303.51 137.66 300.91 137.66 298.21L137.66 242.49" stroke="#006B99" stroke-opacity="1.000000" stroke-width="1.543420" stroke-linejoin="round" stroke-linecap="round"/>
		<path id="Vector" d="M391.94 180.54L391.94 184.63L391.94 289.09" stroke="#006B99" stroke-opacity="1.000000" stroke-width="1.543420" stroke-linejoin="round" stroke-linecap="round"/>
		<path id="Vector" d="M137.66 163.28L371.34 163.28" stroke="#006B99" stroke-opacity="1.000000" stroke-width="1.543420" stroke-linejoin="round" stroke-linecap="round"/>
		<path id="Vector" d="M368.66 157.41L174.21 157.41L174.21 149.65L367.61 149.65" stroke="#006B99" stroke-opacity="1.000000" stroke-width="1.543420" stroke-linejoin="round" stroke-linecap="round"/>
		<path id="Vector" d="M271.09 326.36C270.26 327.6 269.08 328.57 267.7 329.14C266.32 329.72 264.8 329.87 263.33 329.58C261.87 329.29 260.52 328.57 259.47 327.51C258.41 326.46 257.69 325.11 257.4 323.65C257.1 322.18 257.25 320.66 257.82 319.28C258.39 317.9 259.36 316.72 260.6 315.89C261.85 315.06 263.3 314.62 264.8 314.62C266.8 314.62 268.72 315.41 270.14 316.82C271.56 318.24 272.35 320.16 272.36 322.16C272.36 323.66 271.91 325.12 271.09 326.36Z" stroke="#006B99" stroke-opacity="1.000000" stroke-width="1.543420" stroke-linejoin="round"/>
		<path id="Vector" d="M231.84 370.12L239.59 335.93L290.01 335.93L294.49 355.7L297.76 370.12" stroke="#006B99" stroke-opacity="1.000000" stroke-width="1.543420" stroke-linejoin="round" stroke-linecap="round"/>
		<path id="Vector" d="M293.14 370.12L238.44 370.12" stroke="#006B99" stroke-opacity="1.000000" stroke-width="1.543420" stroke-linejoin="round" stroke-linecap="round"/>
		<path id="Vector" d="M239.59 335.93L294.49 355.7" stroke="#006B99" stroke-opacity="1.000000" stroke-width="1.543420" stroke-linejoin="round" stroke-linecap="round"/>
		<path id="Vector" d="M210.99 370.12L222.94 370.12" stroke="#006B99" stroke-opacity="1.000000" stroke-width="1.543420" stroke-linejoin="round" stroke-linecap="round"/>
		<path id="Vector" d="M226.49 370.12L231.84 370.12L238.44 370.12" stroke="#006B99" stroke-opacity="1.000000" stroke-width="1.543420" stroke-linejoin="round" stroke-linecap="round"/>
		<path id="Vector" d="M40.47 370.12L52.42 370.12" stroke="#006B99" stroke-opacity="1.000000" stroke-width="1.543420" stroke-linejoin="round" stroke-linecap="round"/>
		<path id="Vector" d="M99.11 370.12L129.93 370.12" stroke="#006B99" stroke-opacity="1.000000" stroke-width="1.543420" stroke-linejoin="round" stroke-linecap="round"/>
		<path id="Vector" d="M55.97 370.12L72.14 370.12" stroke="#006B99" stroke-opacity="1.000000" stroke-width="1.543420" stroke-linejoin="round" stroke-linecap="round"/>
		<path id="Vector" d="M293.14 370.12L297.76 370.12L305.1 370.12" stroke="#006B99" stroke-opacity="1.000000" stroke-width="1.543420" stroke-linejoin="round" stroke-linecap="round"/>
		<path id="Vector" d="M308.64 370.12L320.6 370.12" stroke="#006B99" stroke-opacity="1.000000" stroke-width="1.543420" stroke-linejoin="round" stroke-linecap="round"/>
		<path id="Vector" d="M159.24 158.31L167.17 153.74L159.24 149.16" stroke="#006B99" stroke-opacity="1.000000" stroke-width="1.543420" stroke-linejoin="round" stroke-linecap="round"/>
		<path id="Vector" d="M154.12 149.16L146.18 153.74L154.12 158.31" stroke="#006B99" stroke-opacity="1.000000" stroke-width="1.543420" stroke-linejoin="round" stroke-linecap="round"/>
		<path id="Vector" d="M391.94 184.63L400.99 201.15" stroke="#006B99" stroke-opacity="1.000000" stroke-width="1.543420" stroke-linejoin="round" stroke-linecap="round"/>
		<path id="Vector" d="M374.7 308.4L366.99 335.93" stroke="#006B99" stroke-opacity="1.000000" stroke-width="1.543420" stroke-linejoin="round" stroke-linecap="round"/>
		<path id="Vector" d="M137.66 244.97L128.61 256.52" stroke="#006B99" stroke-opacity="1.000000" stroke-width="1.543420" stroke-linejoin="round" stroke-linecap="round"/>
		<path id="Vector" d="M72.14 370.12C67.85 370.12 63.74 368.41 60.71 365.38C57.68 362.35 55.97 358.24 55.97 353.95L55.97 316.24L115.28 316.24L115.28 353.95C115.28 358.24 113.57 362.35 110.54 365.38C107.51 368.41 103.4 370.12 99.11 370.12L72.14 370.12Z" stroke="#006B99" stroke-opacity="1.000000" stroke-width="1.543420" stroke-linejoin="round"/>
		<path id="Vector" d="M76.29 316.24C76.21 307.92 75.35 299.63 73.73 291.47C71.15 278.67 66.03 264.4 55.97 256.52C55.55 256.2 55.14 255.87 54.71 255.57C41.82 246.29 27.69 238.85 12.74 233.46C12.74 233.46 27.7 265.4 42.07 277.5C55.97 289.21 69.85 295.7 70.26 316.24" stroke="#006B99" stroke-opacity="1.000000" stroke-width="1.543420" stroke-linejoin="round" stroke-linecap="round"/>
		<path id="Vector" d="M82.5 294.54C79.36 301.33 77.71 308.72 77.66 316.2" stroke="#006B99" stroke-opacity="1.000000" stroke-width="1.543420" stroke-linejoin="round" stroke-linecap="round"/>
		<path id="Vector" d="M87.35 286.27C86.66 287.23 86.01 288.21 85.39 289.21C84.33 290.93 83.36 292.71 82.5 294.54" stroke="#006B99" stroke-opacity="1.000000" stroke-width="1.543420" stroke-linejoin="round" stroke-linecap="round"/>
		<path id="Vector" d="M118.89 246.06C114.89 255.14 109.79 264.15 103.82 269.17C101.88 270.79 100.01 272.44 98.22 274.11" stroke="#006B99" stroke-opacity="1.000000" stroke-width="1.543420" stroke-linejoin="round" stroke-linecap="round"/>
		<path id="Vector" d="M73.73 291.47C74.51 287.37 74.93 282.72 75.43 277.97C75.65 275.83 75.89 273.68 76.19 271.54" stroke="#006B99" stroke-opacity="1.000000" stroke-width="1.543420" stroke-linejoin="round" stroke-linecap="round"/>
		<path id="Vector" d="M121.75 269.17C121.52 269.65 113.2 287.27 105.22 294C103.37 295.56 101.51 296.96 99.76 298.31C97.98 299.67 96.3 301.14 94.73 302.72C92.99 304.43 91.62 306.47 90.69 308.72C89.76 310.98 89.3 313.39 89.33 315.83" stroke="#006B99" stroke-opacity="1.000000" stroke-width="1.543420" stroke-linejoin="round" stroke-linecap="round"/>
		<path id="Vector" d="M98.69 281.15C105.8 276.15 113.55 272.12 121.73 269.18" stroke="#006B99" stroke-opacity="1.000000" stroke-width="1.543420" stroke-linejoin="round" stroke-linecap="round"/>
		<path id="Vector" d="M85.9 315.84C85.94 311.66 86.33 307.5 87.06 303.39C87.76 299.15 88.99 295.01 90.73 291.08C92.2 287.63 94.47 284.58 97.35 282.18C97.79 281.84 98.23 281.49 98.69 281.17" stroke="#006B99" stroke-opacity="1.000000" stroke-width="1.543420" stroke-linejoin="round" stroke-linecap="round"/>
		<path id="Vector" d="M94.7 302.74C95.66 307.18 96.24 311.69 96.44 316.24" stroke="#006B99" stroke-opacity="1.000000" stroke-width="1.543420" stroke-linejoin="round" stroke-linecap="round"/>
		<path id="Vector" d="M63.16 250.75C66.97 258 71.35 264.94 76.25 271.5C80.32 277.1 84.28 282.14 87.35 286.28C88.66 288.05 89.8 289.65 90.73 291.08" stroke="#006B99" stroke-opacity="1.000000" stroke-width="1.543420" stroke-linejoin="round" stroke-linecap="round"/>
		<path id="Vector" d="M71.82 189.56C66.76 183.54 61.31 177.86 55.5 172.56C55.5 172.56 44.51 209.83 61.47 247.22C61.98 248.36 62.53 249.49 63.1 250.63" stroke="#006B99" stroke-opacity="1.000000" stroke-width="1.543420" stroke-linejoin="round" stroke-linecap="round"/>
		<path id="Vector" d="M98.68 281.17C98.54 278.83 98.38 276.48 98.22 274.12C97.54 264.21 96.82 254.19 96.12 246.06" stroke="#006B99" stroke-opacity="1.000000" stroke-width="1.543420" stroke-linejoin="round" stroke-linecap="round"/>
		<path id="Vector" d="M100.59 315.84C100.59 314.04 100.27 307.32 99.74 298.33" stroke="#006B99" stroke-opacity="1.000000" stroke-width="1.543420" stroke-linejoin="round" stroke-linecap="round"/>
		<path id="Vector" d="M63.16 250.75C63.16 250.75 63.14 250.71 63.1 250.64C62.27 249.23 53.08 234.04 41.93 227.48C41.93 227.48 44.97 247.4 54.72 255.57C55.12 255.91 55.54 256.23 55.97 256.53C66.71 263.96 74.05 268.83 75.43 277.98" stroke="#006B99" stroke-opacity="1.000000" stroke-width="1.543420" stroke-linejoin="round" stroke-linecap="round"/>
		<path id="Vector" d="M82.5 294.54C82.47 298.8 83.7 307.82 82.5 315.83" stroke="#006B99" stroke-opacity="1.000000" stroke-width="1.543420" stroke-linejoin="round" stroke-linecap="round"/>
		<path id="Vector" d="M85.39 289.21C85.39 289.21 86.66 296.78 87.07 303.38" stroke="#006B99" stroke-opacity="1.000000" stroke-width="1.543420" stroke-linejoin="round" stroke-linecap="round"/>
		<path id="Vector" d="M163.2 168.82L163.2 299.88" stroke="#006B99" stroke-opacity="1.000000" stroke-width="1.543420" stroke-linejoin="round" stroke-linecap="round"/>
		<path id="Vector" d="M173.35 179.76C172.29 179.76 171.28 179.34 170.53 178.59C169.78 177.84 169.36 176.83 169.36 175.77C169.36 174.71 169.78 173.7 170.53 172.95C171.28 172.21 172.29 171.79 173.35 171.79L226.51 171.79C227.57 171.79 228.58 172.21 229.33 172.95C230.08 173.7 230.5 174.72 230.5 175.77C230.5 176.83 230.08 177.85 229.33 178.59C228.58 179.34 227.57 179.76 226.51 179.76L173.35 179.76Z" stroke="#006B99" stroke-opacity="1.000000" stroke-width="1.543420" stroke-linejoin="round"/>
		<path id="Vector" d="M371.45 171.79L248.53 171.79C247.47 171.79 246.46 172.21 245.71 172.95C244.96 173.7 244.54 174.72 244.54 175.77C244.54 176.83 244.96 177.85 245.71 178.59C246.46 179.34 247.47 179.76 248.53 179.76L367.89 179.76L371.77 171.82C371.65 171.82 371.56 171.79 371.45 171.79Z" stroke="#006B99" stroke-opacity="1.000000" stroke-width="1.543420" stroke-linejoin="round"/>
		<path id="Vector" d="M152.58 177.42C152.25 177.9 151.79 178.28 151.25 178.51C150.71 178.73 150.11 178.79 149.53 178.67C148.96 178.56 148.43 178.28 148.02 177.86C147.6 177.45 147.32 176.92 147.21 176.34C147.09 175.77 147.15 175.17 147.38 174.63C147.6 174.09 147.98 173.63 148.47 173.3C148.95 172.98 149.53 172.8 150.11 172.8C150.5 172.8 150.89 172.88 151.25 173.03C151.61 173.18 151.94 173.39 152.21 173.67C152.49 173.95 152.71 174.27 152.86 174.63C153 174.99 153.08 175.38 153.08 175.77C153.08 176.36 152.91 176.93 152.58 177.42Z" stroke="#006B99" stroke-opacity="1.000000" stroke-width="1.543420" stroke-linejoin="round"/>
		<path id="Vector" d="M173.35 196.81C172.82 196.82 172.29 196.73 171.79 196.53C171.3 196.34 170.85 196.05 170.47 195.68C170.08 195.3 169.78 194.86 169.58 194.37C169.37 193.88 169.26 193.35 169.26 192.82C169.26 192.29 169.37 191.76 169.58 191.27C169.78 190.78 170.08 190.34 170.47 189.97C170.85 189.6 171.3 189.31 171.79 189.11C172.29 188.92 172.82 188.82 173.35 188.84L257.51 188.84C258.04 188.82 258.57 188.92 259.07 189.11C259.56 189.31 260.01 189.6 260.4 189.97C260.78 190.34 261.08 190.78 261.29 191.27C261.49 191.76 261.6 192.29 261.6 192.82C261.6 193.35 261.49 193.88 261.29 194.37C261.08 194.86 260.78 195.3 260.4 195.68C260.01 196.05 259.56 196.34 259.07 196.53C258.57 196.73 258.04 196.82 257.51 196.81L173.35 196.81Z" stroke="#006B99" stroke-opacity="1.000000" stroke-width="1.543420" stroke-linejoin="round"/>
		<path id="Vector" d="M279.53 196.81C278.74 196.81 277.97 196.58 277.31 196.14C276.66 195.7 276.15 195.08 275.84 194.35C275.54 193.62 275.46 192.82 275.62 192.05C275.77 191.27 276.15 190.56 276.71 190C277.08 189.63 277.52 189.34 278 189.14C278.49 188.94 279.01 188.83 279.53 188.84L371.45 188.84C371.98 188.82 372.51 188.92 373 189.11C373.5 189.31 373.95 189.6 374.33 189.97C374.71 190.34 375.01 190.78 375.22 191.27C375.43 191.76 375.54 192.29 375.54 192.82C375.54 193.35 375.43 193.88 375.22 194.37C375.01 194.86 374.71 195.3 374.33 195.68C373.95 196.05 373.5 196.34 373 196.53C372.51 196.73 371.98 196.82 371.45 196.81L279.53 196.81Z" stroke="#006B99" stroke-opacity="1.000000" stroke-width="1.543420" stroke-linejoin="round"/>
		<path id="Vector" d="M152.58 194.47C152.25 194.95 151.79 195.33 151.25 195.56C150.71 195.78 150.11 195.84 149.54 195.72C148.96 195.61 148.43 195.33 148.02 194.91C147.6 194.5 147.32 193.97 147.21 193.4C147.09 192.82 147.15 192.22 147.38 191.68C147.6 191.14 147.98 190.68 148.47 190.35C148.95 190.03 149.53 189.85 150.11 189.85C150.5 189.85 150.89 189.93 151.25 190.08C151.61 190.23 151.94 190.44 152.21 190.72C152.49 191 152.71 191.32 152.86 191.68C153 192.04 153.08 192.43 153.08 192.82C153.08 193.41 152.91 193.98 152.58 194.47Z" stroke="#006B99" stroke-opacity="1.000000" stroke-width="1.543420" stroke-linejoin="round"/>
		<path id="Vector" d="M173.35 213.87C172.29 213.87 171.28 213.45 170.53 212.7C169.78 211.95 169.36 210.93 169.36 209.88C169.36 208.82 169.78 207.81 170.53 207.06C171.28 206.31 172.29 205.89 173.35 205.89L211.01 205.89C212.07 205.89 213.08 206.31 213.83 207.06C214.58 207.81 215 208.82 215 209.88C215 210.94 214.58 211.95 213.83 212.7C213.08 213.45 212.07 213.87 211.01 213.87L173.35 213.87Z" stroke="#006B99" stroke-opacity="1.000000" stroke-width="1.543420" stroke-linejoin="round"/>
		<path id="Vector" d="M233.03 213.87C231.97 213.87 230.96 213.45 230.21 212.7C229.46 211.95 229.04 210.93 229.04 209.88C229.04 208.82 229.46 207.81 230.21 207.06C230.96 206.32 231.97 205.89 233.03 205.89L371.45 205.89C372.51 205.89 373.52 206.31 374.27 207.06C375.02 207.81 375.44 208.82 375.44 209.88C375.44 210.94 375.02 211.95 374.27 212.7C373.52 213.45 372.51 213.87 371.45 213.87L233.03 213.87Z" stroke="#006B99" stroke-opacity="1.000000" stroke-width="1.543420" stroke-linejoin="round"/>
		<path id="Vector" d="M151.58 212.43C152.06 212.16 152.46 211.75 152.73 211.25C152.99 210.76 153.11 210.2 153.07 209.64C153.02 209.08 152.82 208.54 152.48 208.1C152.14 207.65 151.68 207.3 151.16 207.11L151.14 207.11C151.35 208.28 151.49 209.47 151.55 210.66L151.55 210.76C151.58 211.14 151.59 211.53 151.59 211.93C151.59 212.1 151.59 212.27 151.58 212.43Z" stroke="#006B99" stroke-opacity="1.000000" stroke-width="1.543420" stroke-linejoin="round"/>
		<path id="Vector" d="M173.35 230.91C172.29 230.91 171.28 230.48 170.53 229.74C169.78 228.99 169.36 227.97 169.36 226.92C169.36 225.86 169.78 224.85 170.53 224.1C171.28 223.35 172.29 222.93 173.35 222.93L304.02 222.93C305.06 222.96 306.05 223.39 306.78 224.13C307.5 224.88 307.91 225.88 307.91 226.92C307.91 227.96 307.5 228.96 306.78 229.7C306.05 230.45 305.06 230.88 304.02 230.91L173.35 230.91Z" stroke="#006B99" stroke-opacity="1.000000" stroke-width="1.543420" stroke-linejoin="round"/>
		<path id="Vector" d="M326.04 230.91C324.98 230.91 323.96 230.49 323.21 229.74C322.47 228.99 322.05 227.97 322.04 226.92C322.05 225.86 322.47 224.85 323.22 224.1C323.97 223.35 324.98 222.93 326.04 222.93L371.45 222.93C371.98 222.92 372.51 223.01 373 223.21C373.5 223.4 373.95 223.69 374.33 224.07C374.71 224.44 375.01 224.88 375.22 225.37C375.43 225.86 375.53 226.39 375.53 226.92C375.53 227.45 375.43 227.98 375.22 228.47C375.01 228.96 374.71 229.4 374.33 229.77C373.95 230.15 373.5 230.44 373 230.63C372.51 230.83 371.98 230.92 371.45 230.91L326.04 230.91Z" stroke="#006B99" stroke-opacity="1.000000" stroke-width="1.543420" stroke-linejoin="round"/>
		<path id="Vector" d="M148.92 224.17C149.16 223.93 149.91 223.95 150.12 223.95C150.9 223.95 151.66 224.26 152.21 224.81C152.77 225.37 153.08 226.13 153.08 226.91C153.08 227.7 152.77 228.45 152.21 229.01C151.66 229.57 150.9 229.88 150.12 229.88C149.48 229.86 148.87 229.65 148.37 229.27C147.86 228.88 147.49 228.35 147.31 227.75" stroke="#006B99" stroke-opacity="1.000000" stroke-width="1.543420" stroke-linejoin="round" stroke-linecap="round"/>
		<path id="Vector" d="M173.35 247.96C172.29 247.95 171.28 247.53 170.53 246.79C169.78 246.04 169.36 245.02 169.36 243.96C169.36 242.91 169.78 241.89 170.53 241.15C171.28 240.4 172.29 239.98 173.35 239.98L203.26 239.98C204.32 239.98 205.33 240.4 206.08 241.15C206.83 241.9 207.25 242.91 207.25 243.97C207.25 245.03 206.83 246.04 206.08 246.79C205.33 247.54 204.32 247.96 203.26 247.96L173.35 247.96Z" stroke="#006B99" stroke-opacity="1.000000" stroke-width="1.543420" stroke-linejoin="round"/>
		<path id="Vector" d="M225.28 247.96C224.22 247.95 223.2 247.53 222.46 246.79C221.71 246.04 221.29 245.02 221.29 243.96C221.29 242.91 221.71 241.9 222.46 241.15C223.21 240.4 224.22 239.98 225.28 239.98L371.45 239.98C372.51 239.98 373.52 240.4 374.27 241.15C375.02 241.9 375.44 242.91 375.44 243.97C375.44 245.03 375.02 246.04 374.27 246.79C373.52 247.54 372.51 247.96 371.45 247.96L225.28 247.96Z" stroke="#006B99" stroke-opacity="1.000000" stroke-width="1.543420" stroke-linejoin="round"/>
		<path id="Vector" d="M173.35 265.01C172.29 265 171.28 264.58 170.53 263.83C169.78 263.09 169.36 262.07 169.36 261.01C169.36 259.96 169.78 258.94 170.53 258.2C171.28 257.45 172.29 257.03 173.35 257.03L273.01 257.03C274.06 257.06 275.04 257.49 275.77 258.23C276.5 258.98 276.91 259.98 276.91 261.02C276.91 262.06 276.5 263.06 275.77 263.8C275.04 264.55 274.06 264.98 273.01 265.01L173.35 265.01Z" stroke="#006B99" stroke-opacity="1.000000" stroke-width="1.543420" stroke-linejoin="round"/>
		<path id="Vector" d="M295.03 265.01C293.98 265 292.96 264.58 292.21 263.83C291.46 263.09 291.04 262.07 291.04 261.01C291.04 259.96 291.47 258.94 292.22 258.2C292.96 257.45 293.98 257.03 295.03 257.03L371.45 257.03C372.49 257.06 373.48 257.49 374.21 258.23C374.93 258.98 375.34 259.98 375.34 261.02C375.34 262.06 374.93 263.06 374.21 263.8C373.48 264.55 372.49 264.98 371.45 265.01L295.03 265.01Z" stroke="#006B99" stroke-opacity="1.000000" stroke-width="1.543420" stroke-linejoin="round"/>
		<path id="Vector" d="M152.58 262.66C152.25 263.15 151.79 263.53 151.25 263.75C150.71 263.97 150.11 264.03 149.53 263.92C148.96 263.8 148.43 263.52 148.02 263.1C147.6 262.69 147.32 262.16 147.21 261.59C147.09 261.01 147.15 260.42 147.38 259.88C147.6 259.33 147.98 258.87 148.47 258.54C148.95 258.22 149.53 258.04 150.11 258.04C150.5 258.04 150.89 258.12 151.25 258.27C151.61 258.42 151.94 258.64 152.21 258.91C152.49 259.19 152.71 259.52 152.86 259.88C153 260.24 153.08 260.63 153.08 261.01C153.08 261.6 152.91 262.17 152.58 262.66Z" stroke="#006B99" stroke-opacity="1.000000" stroke-width="1.543420" stroke-linejoin="round"/>
		<path id="Vector" d="M173.35 282.05C172.29 282.05 171.28 281.63 170.53 280.88C169.78 280.13 169.36 279.12 169.36 278.06C169.36 277.01 169.78 275.99 170.53 275.25C171.28 274.5 172.29 274.08 173.35 274.08L327.27 274.08C328.31 274.1 329.3 274.54 330.03 275.28C330.76 276.03 331.16 277.02 331.16 278.06C331.16 279.11 330.76 280.1 330.03 280.85C329.3 281.6 328.31 282.03 327.27 282.05L173.35 282.05Z" stroke="#006B99" stroke-opacity="1.000000" stroke-width="1.543420" stroke-linejoin="round"/>
		<path id="Vector" d="M349.29 282.05C348.23 282.05 347.22 281.63 346.47 280.88C345.72 280.13 345.3 279.12 345.3 278.06C345.3 277.01 345.72 275.99 346.47 275.25C347.22 274.5 348.23 274.08 349.29 274.08L371.45 274.08C371.98 274.07 372.51 274.16 373.01 274.35C373.5 274.55 373.95 274.84 374.33 275.21C374.71 275.58 375.02 276.03 375.22 276.52C375.43 277.01 375.54 277.53 375.54 278.06C375.54 278.6 375.43 279.12 375.22 279.61C375.02 280.1 374.71 280.55 374.33 280.92C373.95 281.29 373.5 281.58 373.01 281.78C372.51 281.97 371.98 282.07 371.45 282.05L349.29 282.05Z" stroke="#006B99" stroke-opacity="1.000000" stroke-width="1.543420" stroke-linejoin="round"/>
		<path id="Vector" d="M152.58 279.7C152.25 280.19 151.79 280.57 151.25 280.79C150.71 281.02 150.11 281.07 149.54 280.96C148.96 280.85 148.43 280.56 148.02 280.15C147.6 279.74 147.32 279.21 147.21 278.63C147.09 278.06 147.15 277.46 147.38 276.92C147.6 276.38 147.98 275.91 148.47 275.59C148.95 275.26 149.53 275.09 150.11 275.09C150.5 275.09 150.89 275.16 151.25 275.31C151.61 275.46 151.94 275.68 152.21 275.95C152.49 276.23 152.71 276.56 152.86 276.92C153 277.28 153.08 277.66 153.08 278.05C153.08 278.64 152.91 279.21 152.58 279.7Z" stroke="#006B99" stroke-opacity="1.000000" stroke-width="1.543420" stroke-linejoin="round"/>
		<path id="Vector" d="M173.35 299.1C172.29 299.1 171.28 298.68 170.53 297.93C169.78 297.18 169.36 296.17 169.36 295.11C169.36 294.05 169.78 293.04 170.53 292.29C171.28 291.55 172.29 291.13 173.35 291.13L226.51 291.13C227.57 291.13 228.58 291.55 229.33 292.29C230.08 293.04 230.5 294.06 230.5 295.12C230.5 296.17 230.08 297.19 229.33 297.93C228.58 298.68 227.57 299.1 226.51 299.1L173.35 299.1Z" stroke="#006B99" stroke-opacity="1.000000" stroke-width="1.543420" stroke-linejoin="round"/>
		<path id="Vector" d="M248.53 299.1C247.47 299.1 246.46 298.68 245.71 297.93C244.96 297.18 244.54 296.17 244.54 295.11C244.54 294.05 244.96 293.04 245.71 292.29C246.46 291.55 247.47 291.13 248.53 291.13L371.45 291.13C372.51 291.13 373.52 291.55 374.27 292.29C375.02 293.04 375.44 294.06 375.44 295.12C375.44 296.17 375.02 297.19 374.27 297.93C373.52 298.68 372.51 299.1 371.45 299.1L248.53 299.1Z" stroke="#006B99" stroke-opacity="1.000000" stroke-width="1.543420" stroke-linejoin="round"/>
		<path id="Vector" d="M152.58 296.76C152.25 297.24 151.79 297.62 151.25 297.85C150.71 298.07 150.11 298.13 149.54 298.01C148.96 297.9 148.43 297.62 148.02 297.2C147.6 296.79 147.32 296.26 147.21 295.69C147.09 295.11 147.15 294.51 147.38 293.97C147.6 293.43 147.98 292.97 148.47 292.64C148.95 292.32 149.53 292.14 150.11 292.14C150.5 292.14 150.89 292.22 151.25 292.37C151.61 292.52 151.94 292.74 152.21 293.01C152.49 293.29 152.71 293.61 152.86 293.97C153 294.33 153.08 294.72 153.08 295.11C153.08 295.7 152.91 296.27 152.58 296.76Z" stroke="#006B99" stroke-opacity="1.000000" stroke-width="1.543420" stroke-linejoin="round"/>
		<path id="Vector" d="M96.85 211.74C96.75 211.74 96.66 211.74 96.57 211.74C96.48 211.74 96.38 211.74 96.28 211.74C93.4 211.59 90.7 210.33 88.74 208.22C86.78 206.1 85.73 203.31 85.8 200.43C85.88 197.55 87.07 194.81 89.13 192.8C91.2 190.79 93.97 189.66 96.85 189.66" stroke="#006B99" stroke-opacity="1.000000" stroke-width="2.316320" stroke-linejoin="round" stroke-linecap="round"/>
		<path id="Vector" d="M81.16 211.73L96.85 211.73C96.75 211.73 96.66 211.73 96.57 211.73C93.67 211.81 90.93 213.03 88.92 215.12C86.91 217.21 85.81 220.01 85.85 222.91C85.88 225.8 87.06 228.57 89.11 230.61C91.17 232.65 93.95 233.8 96.85 233.81" stroke="#006B99" stroke-opacity="1.000000" stroke-width="2.316320" stroke-linejoin="round" stroke-linecap="round"/>
		<path id="Vector" d="M116.68 211.74C116.78 211.74 116.88 211.74 116.97 211.74C117.06 211.74 117.16 211.74 117.25 211.74C120.13 211.59 122.83 210.33 124.79 208.22C126.75 206.1 127.8 203.31 127.73 200.43C127.65 197.55 126.46 194.81 124.39 192.8C122.33 190.79 119.56 189.66 116.68 189.66" stroke="#006B99" stroke-opacity="1.000000" stroke-width="2.316320" stroke-linejoin="round" stroke-linecap="round"/>
		<path id="Vector" d="M132.37 211.73L116.68 211.73C116.78 211.73 116.88 211.73 116.97 211.73C119.87 211.81 122.62 213.03 124.62 215.12C126.63 217.22 127.73 220.01 127.69 222.91C127.66 225.81 126.48 228.58 124.42 230.62C122.36 232.66 119.58 233.81 116.68 233.81" stroke="#006B99" stroke-opacity="1.000000" stroke-width="2.316320" stroke-linejoin="round" stroke-linecap="round"/>
		<path id="Vector" d="M422.25 162.34L443.31 150.19L422.25 138.03" stroke="#006B99" stroke-opacity="1.000000" stroke-width="2.316320" stroke-linejoin="round" stroke-linecap="round"/>
		<path id="Vector" d="M400.63 138.03L379.57 150.19L400.63 162.34" stroke="#006B99" stroke-opacity="1.000000" stroke-width="2.316320" stroke-linejoin="round" stroke-linecap="round"/>
		<path id="Vector" d="M417.43 132.54L404.85 167.66" stroke="#006B99" stroke-opacity="1.000000" stroke-width="1.543420" stroke-linejoin="round" stroke-linecap="round"/>
		<path id="Vector" d="M398.79 333.25L402.2 322.89L410.3 298.33L418.39 322.89L421.81 333.25" stroke="#006B99" stroke-opacity="1.000000" stroke-width="2.316320" stroke-linejoin="round" stroke-linecap="round"/>
		<path id="Vector" d="M402.2 322.89L418.39 322.89" stroke="#006B99" stroke-opacity="1.000000" stroke-width="2.316320" stroke-linejoin="round" stroke-linecap="round"/>
		<path id="Vector" d="M430.04 333.4C427.14 332.05 426.6 327.09 428.83 322.31C431.05 317.54 435.2 314.78 438.11 316.13C439 316.68 439.72 317.47 440.18 318.41C440.64 319.35 440.82 320.41 440.7 321.45C440.66 323.45 440.2 325.42 439.33 327.22C437.11 331.98 432.94 334.75 430.04 333.4Z" stroke="#006B99" stroke-opacity="1.000000" stroke-width="1.543420" stroke-linejoin="round"/>
		<path id="Vector" d="M440.69 321.38C440.69 321.4 440.69 321.43 440.69 321.45C441.12 325.64 438.56 336.69 445.25 332.19" stroke="#006B99" stroke-opacity="1.000000" stroke-width="1.543420" stroke-linejoin="round" stroke-linecap="round"/>
	</g>
</svg>
