<svg width="124.000000" height="33.000000" viewBox="0 0 124 33" fill="none" xmlns="http://www.w3.org/2000/svg" xmlns:xlink="http://www.w3.org/1999/xlink">
	<desc>
			Created with Pixso.
	</desc>
	<defs>
		<clipPath id="clip2_716">
			<rect id="IMAGE" rx="0.000000" width="123.000000" height="32.000000" transform="translate(0.500000 0.500000)" fill="white" fill-opacity="0"/>
		</clipPath>
	</defs>
	<g clip-path="url(#clip2_716)">
		<path id="Vector" d="M17.81 2.21C18.14 2.11 18.51 2.14 18.82 2.31C19.5 2.69 20.01 3.34 20.4 3.99C20.79 4.66 21.13 5.47 21.39 6.34C21.91 8.05 22.18 10.12 21.99 12.01C21.91 12.72 21.28 13.24 20.57 13.17C19.87 13.09 19.35 12.46 19.42 11.75C19.57 10.25 19.36 8.53 18.92 7.09C18.8 6.69 18.67 6.33 18.53 6.01C18.11 7.09 17.68 8.28 17.48 8.92C17.28 9.61 16.56 10 15.88 9.79C15.2 9.59 14.81 8.86 15.01 8.18C15.39 6.92 16.52 3.96 17.04 2.89C17.19 2.57 17.47 2.32 17.81 2.21Z" fill="#969FA4" fill-opacity="1.000000" fill-rule="evenodd"/>
		<path id="Vector" d="M13.74 8.14C13.99 7.32 14.86 6.87 15.68 7.13C16.48 7.38 17.27 7.72 18.03 8.12L18.04 8.12C21.6 9.98 24.19 13.13 24.9 16.38C24.91 16.42 24.92 16.45 24.94 16.48C24.96 16.5 24.97 16.51 24.97 16.51L24.98 16.52L27.61 18.42L27.61 18.42C28.55 19.1 28.79 20.22 28.74 21.02C28.7 21.83 28.33 22.92 27.3 23.48L27.29 23.49C25.95 24.21 24.32 24.43 21.84 23.99C21.82 23.99 21.81 23.98 21.8 23.98C21.74 23.97 21.68 23.96 21.58 23.94L21.57 23.94C21.49 23.93 21.37 23.91 21.24 23.89C19.33 23.58 18.06 23.61 17.28 23.83C16.57 24.02 16.39 24.3 16.31 24.57C15.72 26.52 16.26 27.66 16.99 29.22C17.1 29.47 17.22 29.72 17.35 30C17.7 30.78 17.35 31.7 16.57 32.05C15.79 32.41 14.88 32.06 14.53 31.27C14.44 31.07 14.34 30.86 14.23 30.64C13.47 29.05 12.4 26.83 13.35 23.67L13.35 23.66C13.81 22.15 14.97 21.23 16.47 20.82C17.89 20.44 19.68 20.48 21.77 20.82C21.8 20.82 21.83 20.83 21.86 20.84C21.89 20.84 21.94 20.85 22.04 20.87C22.05 20.87 22.06 20.87 22.07 20.87C22.15 20.88 22.27 20.9 22.39 20.93C24.21 21.25 25.09 21.08 25.65 20.83L23.18 19.05C22.5 18.56 22.06 17.83 21.89 17.09C21.88 17.08 21.88 17.07 21.88 17.06C21.41 14.89 19.54 12.42 16.61 10.88C15.97 10.55 15.35 10.28 14.75 10.09C13.93 9.84 13.48 8.96 13.74 8.14Z" fill="#969FA4" fill-opacity="1.000000" fill-rule="evenodd"/>
		<path id="Vector" d="M10.09 4.75C10.05 5.21 10.02 5.66 9.98 6.08C9.97 6.23 9.96 6.38 9.95 6.52C9.86 7.53 9.81 8.24 9.81 8.53C9.81 9.11 9.51 9.78 8.83 10.12C8.07 10.5 7.03 11.09 6.1 11.79C6.08 11.8 6.07 11.81 6.06 11.82C6.32 11.89 6.53 11.96 6.66 12.02C7.34 12.27 7.65 12.89 7.7 13.39C7.74 13.85 7.59 14.34 7.22 14.71C7.18 14.76 7.12 14.8 7.07 14.85C6.8 15.05 5.85 15.83 5 17.05C4.57 17.68 4.17 18.41 3.91 19.22C5.15 19.01 6.44 20.22 5.86 21.64C5.37 22.92 4.08 26.77 4.38 30.72C4.44 31.58 3.8 32.32 2.95 32.39C2.1 32.45 1.36 31.81 1.29 30.95C1.09 28.18 1.53 25.51 2.04 23.51C1.84 23.48 1.65 23.43 1.47 23.34C0.94 23.09 0.51 22.53 0.49 21.83C0.35 19.09 1.37 16.85 2.47 15.27C2.54 15.17 2.61 15.07 2.68 14.97C2.32 14.9 2 14.72 1.76 14.48C1.29 14 1.08 13.25 1.4 12.53C1.97 11.19 3.18 10.09 4.26 9.29C5.1 8.66 6 8.12 6.75 7.71C6.78 7.29 6.82 6.8 6.86 6.28C6.88 6.13 6.89 5.98 6.9 5.83C7 4.65 7.1 3.32 7.14 2.17C7.15 1.78 7.3 1.4 7.58 1.1C7.84 0.83 8.13 0.72 8.28 0.67C8.45 0.62 8.58 0.61 8.66 0.6C8.73 0.6 8.79 0.6 8.8 0.6L8.8 0.6C8.97 0.6 9.14 0.63 9.3 0.68C10.83 1.21 12.14 2.31 13.26 3.54C14.4 4.77 15.47 6.26 16.48 7.72C16.97 8.42 16.8 9.39 16.1 9.88C15.4 10.38 14.44 10.21 13.95 9.5C12.93 8.04 11.97 6.71 10.99 5.65C10.68 5.31 10.38 5.01 10.09 4.75ZM5.53 14.91C5.56 14.92 5.59 14.93 5.62 14.94C5.59 14.93 5.56 14.92 5.54 14.91C5.53 14.91 5.53 14.91 5.53 14.91Z" fill="#969FA4" fill-opacity="1.000000" fill-rule="evenodd"/>
		<path id="Vector" d="M44.57 12.03C44.03 12.6 43.12 12.62 42.54 12.11C42.22 11.81 41.78 11.61 41.31 11.61C40.33 11.61 39.53 12.44 39.53 13.47L39.53 16.42L41.78 16.42C42.56 16.42 43.22 17.07 43.22 17.86C43.22 18.67 42.56 19.32 41.78 19.32L39.53 19.32L39.53 25.37C39.53 26.16 38.86 26.83 38.06 26.83C37.28 26.83 36.61 26.16 36.61 25.37L36.61 25.33C36.61 23.43 36.61 21.53 36.61 19.64L36.61 13.45C36.61 10.84 38.74 8.71 41.31 8.71C42.5 8.71 43.63 9.16 44.51 9.97C45.07 10.53 45.09 11.44 44.57 12.03Z" fill="#969FA4" fill-opacity="1.000000" fill-rule="nonzero"/>
		<path id="Vector" d="M49.85 26.85C46.6 26.85 43.93 24.18 43.93 20.88C43.93 17.6 46.6 14.91 49.85 14.91C53.11 14.91 55.78 17.6 55.8 20.9C55.78 24.2 53.11 26.85 49.85 26.85ZM49.85 17.84C48.19 17.84 46.82 19.2 46.82 20.9C46.82 22.58 48.17 23.95 49.85 23.95C51.52 23.95 52.89 22.6 52.89 20.9C52.87 19.2 51.52 17.84 49.85 17.84Z" fill="#969FA4" fill-opacity="1.000000" fill-rule="nonzero"/>
		<path id="Vector" d="M62.89 26.83C61.33 26.83 59.9 26.24 58.78 25.17C57.65 24.06 57.01 22.58 56.95 20.98C56.93 19.4 57.49 17.88 58.61 16.75C59.7 15.61 61.17 14.97 62.75 14.91C64.34 14.89 65.83 15.47 66.95 16.59C67.52 17.11 67.54 18.04 66.99 18.59C66.45 19.16 65.55 19.18 64.98 18.63C64.4 18.06 63.62 17.74 62.79 17.74C61.97 17.74 61.21 18.1 60.62 18.69C60.08 19.28 59.74 20.07 59.78 20.9C59.78 21.71 60.14 22.52 60.72 23.06C61.31 23.65 62.09 23.97 62.89 23.95C63.68 23.95 64.4 23.65 64.96 23.12C65.51 22.58 66.43 22.62 66.95 23.21C67.5 23.77 67.46 24.68 66.87 25.23C65.81 26.22 64.42 26.81 62.96 26.83L62.89 26.83Z" fill="#969FA4" fill-opacity="1.000000" fill-rule="nonzero"/>
		<path id="Vector" d="M74.45 26.97C71.37 26.97 68.84 24.28 68.84 21L68.84 16.44C68.84 15.66 69.42 15.01 70.17 15.01C70.93 15.01 71.66 15.66 71.66 16.44L71.66 21C71.66 22.72 73.08 24.1 74.45 24.1C76.06 24.1 77.26 22.72 77.26 21L77.26 16.65C77.26 15.84 78.08 15.21 78.73 15.21C79.45 15.21 80.07 15.84 80.07 16.65L80.07 21C80.07 24.28 77.56 26.97 74.45 26.97Z" fill="#969FA4" fill-opacity="1.000000" fill-rule="nonzero"/>
		<path id="Vector" d="M85.98 26.95C84.48 26.95 82.95 26.32 82.18 25.59C81.62 25.07 81.56 24.16 82.1 23.59C82.63 23 83.53 22.96 84.09 23.49C84.52 23.89 86.1 24.44 87.01 23.85C87.25 23.71 87.39 23.45 87.39 23.19C87.39 22.86 87.11 22.62 86.87 22.52C86.65 22.4 86.28 22.4 85.84 22.4C85.28 22.4 84.64 22.38 83.97 22.13C82.75 21.73 81.74 20.45 81.66 19.2C81.54 17.7 82.18 16.77 82.73 16.24C83.91 15.15 85.64 14.99 86.89 15.19C87.83 15.35 88.53 15.7 89.14 16.24C89.7 16.77 89.76 17.68 89.24 18.25C88.94 18.57 88.47 18.75 88.03 18.69C87.81 18.67 87.61 18.59 87.41 18.47C87.09 18.23 86.85 18.06 86.42 17.98C85.72 17.86 84.39 17.9 84.5 18.93C84.52 19.06 84.74 19.36 84.92 19.44C85.16 19.52 85.5 19.52 85.88 19.52C86.5 19.54 87.27 19.54 88.05 19.91C89.36 20.49 90.2 21.79 90.2 23.16C90.2 24.38 89.58 25.51 88.57 26.22C87.77 26.77 86.89 26.95 85.98 26.95Z" fill="#969FA4" fill-opacity="1.000000" fill-rule="nonzero"/>
		<path id="Vector" d="M99.81 12.03C99.26 12.6 98.36 12.62 97.78 12.11C97.46 11.81 97.01 11.61 96.55 11.61C95.57 11.61 94.76 12.44 94.76 13.47L94.76 16.42L97.01 16.42C97.8 16.42 98.46 17.07 98.46 17.86C98.46 18.67 97.8 19.32 97.01 19.32L94.76 19.32L94.76 25.37C94.76 26.16 94.1 26.83 93.3 26.83C92.51 26.83 91.85 26.16 91.85 25.37L91.85 25.33C91.85 23.43 91.85 21.53 91.85 19.64L91.85 13.45C91.85 10.84 93.98 8.71 96.55 8.71C97.74 8.71 98.86 9.16 99.75 9.97C100.31 10.53 100.33 11.44 99.81 12.03Z" fill="#969FA4" fill-opacity="1.000000" fill-rule="nonzero"/>
		<path id="Vector" d="M105.07 26.85C101.82 26.85 99.14 24.18 99.14 20.88C99.14 17.6 101.82 14.91 105.07 14.91C108.33 14.91 111 17.6 111.02 20.9C111 24.2 108.33 26.85 105.07 26.85ZM105.07 17.84C103.4 17.84 102.04 19.2 102.04 20.9C102.04 22.58 103.38 23.95 105.07 23.95C106.76 23.95 108.11 22.6 108.11 20.9C108.11 19.2 106.76 17.84 105.07 17.84Z" fill="#969FA4" fill-opacity="1.000000" fill-rule="nonzero"/>
		<path id="Vector" d="M122.79 24.48C123.32 25.03 123.3 25.92 122.75 26.46C122.49 26.73 122.13 26.85 121.79 26.85C121.43 26.85 121.09 26.71 120.81 26.42L117.49 22.96L114.23 26.36C113.97 26.65 113.61 26.79 113.25 26.79C112.93 26.79 112.57 26.67 112.29 26.4C111.74 25.86 111.72 24.97 112.27 24.42L115.6 20.94L112.25 17.44C111.72 16.87 111.72 15.98 112.29 15.45C112.83 14.91 113.71 14.93 114.25 15.47L117.51 18.89L120.85 15.41C121.37 14.87 122.23 14.85 122.81 15.39C123.36 15.92 123.38 16.79 122.83 17.38L119.46 20.92L122.79 24.48Z" fill="#969FA4" fill-opacity="1.000000" fill-rule="nonzero"/>
	</g>
</svg>
