<svg width="159.000000" height="27.000000" viewBox="0 0 159 27" fill="none" xmlns="http://www.w3.org/2000/svg" xmlns:xlink="http://www.w3.org/1999/xlink">
	<desc>
			Created with Pixso.
	</desc>
	<defs>
		<clipPath id="clip2_728">
			<rect id="IMAGE" rx="0.000000" width="158.000000" height="26.000000" transform="translate(0.500000 0.500000)" fill="white" fill-opacity="0"/>
		</clipPath>
	</defs>
	<g clip-path="url(#clip2_728)">
		<g opacity="0.400000">
			<path id="Vector" d="M28.17 10.25L17.44 17.83L12.68 17.83L1.95 10.25L15.06 1.58L28.17 10.25Z" fill="#969FA4" fill-opacity="1.000000" fill-rule="nonzero"/>
		</g>
		<path id="Vector" d="M14.45 0.68C14.82 0.44 15.3 0.44 15.66 0.68L28.77 9.35C29.08 9.55 29.26 9.88 29.26 10.25L29.26 24.32C29.26 24.9 29.03 25.45 28.62 25.86C28.21 26.26 27.65 26.49 27.07 26.49L3.04 26.49C2.47 26.49 1.91 26.26 1.5 25.86C1.09 25.45 0.86 24.9 0.86 24.32L0.86 10.25C0.86 9.88 1.04 9.55 1.35 9.35L14.45 0.68ZM3.04 10.83L3.04 24.32L27.07 24.32L27.07 10.83L15.06 2.88L3.04 10.83Z" fill="#969FA4" fill-opacity="1.000000" fill-rule="evenodd"/>
		<path id="Vector" d="M13.57 17.2C13.92 17.69 13.8 18.37 13.31 18.71L2.92 25.99C2.43 26.33 1.75 26.21 1.4 25.73C1.05 25.24 1.17 24.56 1.66 24.22L12.05 16.94C12.54 16.6 13.22 16.71 13.57 17.2Z" fill="#969FA4" fill-opacity="1.000000" fill-rule="evenodd"/>
		<path id="Vector" d="M16.55 17.2C16.9 16.71 17.58 16.6 18.07 16.94L28.46 24.22C28.95 24.56 29.07 25.24 28.72 25.73C28.37 26.21 27.69 26.33 27.2 25.99L16.81 18.71C16.32 18.37 16.2 17.69 16.55 17.2Z" fill="#969FA4" fill-opacity="1.000000" fill-rule="evenodd"/>
		<path id="Vector" d="M1.06 9.62C1.41 9.13 2.1 9.02 2.59 9.36L13.03 16.74L17.09 16.74L27.53 9.36C28.02 9.02 28.7 9.13 29.05 9.62C29.4 10.1 29.29 10.78 28.8 11.13L18.08 18.71C17.89 18.84 17.67 18.91 17.44 18.91L12.68 18.91C12.45 18.91 12.23 18.84 12.04 18.71L1.32 11.13C0.83 10.78 0.71 10.1 1.06 9.62Z" fill="#969FA4" fill-opacity="1.000000" fill-rule="evenodd"/>
		<path id="Vector" d="M41.01 22.5C40.72 22.5 40.47 22.4 40.27 22.2C40.07 22 39.97 21.76 39.97 21.47L39.97 7.78C39.97 7.37 40.12 7.02 40.41 6.73C40.7 6.42 41.06 6.27 41.47 6.27L41.77 6.27C42.27 6.27 42.69 6.5 43.05 6.96L51.95 19.7L51.95 7.33C51.95 7.04 52.05 6.79 52.25 6.59C52.45 6.38 52.69 6.27 52.99 6.27C53.28 6.27 53.53 6.38 53.73 6.59C53.94 6.79 54.05 7.04 54.05 7.33L54.05 21.01C54.05 21.42 53.9 21.77 53.59 22.06C53.29 22.35 52.94 22.5 52.52 22.5L52.25 22.5C52 22.5 51.77 22.45 51.55 22.34C51.34 22.22 51.16 22.06 51.02 21.88L42.07 9.07L42.07 21.47C42.07 21.76 41.97 22 41.75 22.2C41.55 22.4 41.3 22.5 41.01 22.5Z" fill="#969FA4" fill-opacity="1.000000" fill-rule="nonzero"/>
		<path id="Vector" d="M63 22.61C61.81 22.61 60.77 22.36 59.88 21.86C58.98 21.35 58.29 20.64 57.8 19.73C57.32 18.79 57.08 17.73 57.08 16.54C57.08 15.35 57.32 14.29 57.8 13.38C58.29 12.44 58.98 11.73 59.88 11.22C60.77 10.72 61.81 10.47 63 10.47C64.17 10.47 65.2 10.72 66.09 11.22C66.99 11.73 67.68 12.44 68.17 13.38C68.67 14.29 68.91 15.35 68.91 16.54C68.91 17.73 68.67 18.79 68.17 19.73C67.68 20.64 66.99 21.35 66.09 21.86C65.2 22.36 64.17 22.61 63 22.61ZM63 20.71C63.63 20.71 64.23 20.57 64.8 20.28C65.39 19.99 65.86 19.53 66.23 18.9C66.62 18.27 66.81 17.48 66.81 16.52C66.81 15.57 66.62 14.78 66.23 14.16C65.86 13.53 65.39 13.08 64.8 12.8C64.23 12.51 63.63 12.37 63 12.37C62.35 12.37 61.73 12.51 61.15 12.8C60.58 13.08 60.11 13.53 59.74 14.16C59.37 14.78 59.18 15.57 59.18 16.52C59.18 17.48 59.37 18.27 59.74 18.9C60.11 19.53 60.58 19.99 61.15 20.28C61.73 20.57 62.35 20.71 63 20.71Z" fill="#969FA4" fill-opacity="1.000000" fill-rule="nonzero"/>
		<path id="Vector" d="M75.22 22.5C74.91 22.5 74.63 22.41 74.38 22.22C74.14 22.04 73.97 21.81 73.87 21.54L70.59 12C70.55 11.86 70.52 11.73 70.52 11.61C70.52 11.32 70.62 11.08 70.82 10.88C71.02 10.68 71.27 10.58 71.56 10.58C71.78 10.58 71.97 10.64 72.14 10.76C72.33 10.87 72.45 11.02 72.51 11.2L75.22 20.02L77.9 11.41C77.97 11.16 78.11 10.96 78.31 10.81C78.53 10.66 78.77 10.58 79.03 10.58C79.29 10.58 79.52 10.66 79.72 10.81C79.94 10.96 80.08 11.16 80.16 11.41L82.84 20.02L85.55 11.2C85.61 11.02 85.73 10.87 85.89 10.76C86.08 10.64 86.28 10.58 86.5 10.58C86.79 10.58 87.04 10.68 87.24 10.88C87.44 11.08 87.54 11.32 87.54 11.61C87.54 11.73 87.51 11.86 87.47 12L84.18 21.54C84.09 21.81 83.92 22.04 83.68 22.22C83.43 22.41 83.15 22.5 82.84 22.5C82.54 22.5 82.26 22.41 82.01 22.22C81.76 22.04 81.59 21.8 81.48 21.51L79.03 13.93L76.58 21.51C76.47 21.8 76.29 22.04 76.05 22.22C75.8 22.41 75.52 22.5 75.22 22.5Z" fill="#969FA4" fill-opacity="1.000000" fill-rule="nonzero"/>
		<path id="Vector" d="M43.17 6.87C43.17 6.87 43.17 6.87 43.17 6.87L51.79 19.22L51.79 7.33C51.79 7 51.91 6.71 52.13 6.49C52.36 6.24 52.65 6.12 52.98 6.12C53.32 6.12 53.6 6.24 53.83 6.48C54.08 6.71 54.2 7 54.2 7.33L54.2 21.01C54.2 21.46 54.03 21.85 53.69 22.17C53.37 22.49 52.98 22.65 52.52 22.65L52.25 22.65C51.98 22.65 51.72 22.59 51.48 22.47C51.48 22.47 51.48 22.47 51.48 22.47C51.24 22.34 51.05 22.17 50.9 21.97L50.89 21.97L42.23 9.56L42.23 21.47C42.23 21.8 42.1 22.08 41.86 22.31C41.63 22.54 41.34 22.65 41.01 22.65C40.68 22.65 40.39 22.54 40.16 22.31C39.93 22.08 39.82 21.8 39.82 21.47L39.82 7.78C39.82 7.33 39.98 6.94 40.3 6.62C40.62 6.29 41.01 6.12 41.47 6.12L41.77 6.12C42.32 6.12 42.79 6.38 43.17 6.87ZM40.41 6.73C40.7 6.42 41.06 6.27 41.47 6.27L41.77 6.27C42.27 6.27 42.69 6.5 43.04 6.96L51.94 19.7L51.94 7.33C51.94 7.04 52.04 6.79 52.25 6.59C52.45 6.38 52.69 6.27 52.98 6.27C53.28 6.27 53.52 6.38 53.72 6.59C53.94 6.79 54.05 7.04 54.05 7.33L54.05 21.01C54.05 21.42 53.89 21.77 53.59 22.06C53.29 22.35 52.94 22.5 52.52 22.5L52.25 22.5C52 22.5 51.77 22.45 51.55 22.34C51.34 22.22 51.16 22.06 51.02 21.88L42.07 9.07L42.07 21.47C42.07 21.76 41.97 22 41.75 22.2C41.55 22.4 41.3 22.5 41.01 22.5C40.72 22.5 40.47 22.4 40.27 22.2C40.07 22 39.97 21.76 39.97 21.47L39.97 7.78C39.97 7.37 40.12 7.02 40.41 6.73ZM57.66 19.79C57.17 18.84 56.92 17.75 56.92 16.54C56.92 15.33 57.17 14.25 57.66 13.31L57.66 13.31C58.16 12.35 58.88 11.61 59.8 11.09C60.72 10.57 61.79 10.31 63 10.31C64.19 10.31 65.25 10.57 66.17 11.09C67.09 11.61 67.8 12.35 68.31 13.31C68.82 14.25 69.07 15.33 69.07 16.54C69.07 17.75 68.82 18.84 68.31 19.8L68.31 19.8C67.8 20.74 67.09 21.47 66.17 21.99C65.25 22.51 64.19 22.77 63 22.77C61.79 22.77 60.72 22.51 59.8 21.99C58.88 21.47 58.17 20.74 57.66 19.8L57.66 19.79ZM68.17 13.38C67.68 12.44 66.99 11.73 66.09 11.22C65.2 10.72 64.17 10.47 63 10.47C61.81 10.47 60.77 10.72 59.88 11.22C58.98 11.73 58.29 12.44 57.79 13.38C57.32 14.29 57.08 15.35 57.08 16.54C57.08 17.73 57.32 18.79 57.79 19.73C58.29 20.64 58.98 21.35 59.88 21.86C60.77 22.36 61.81 22.61 63 22.61C64.17 22.61 65.2 22.36 66.09 21.86C66.99 21.35 67.68 20.64 68.17 19.73C68.67 18.79 68.91 17.73 68.91 16.54C68.91 15.35 68.67 14.29 68.17 13.38ZM64.73 20.14L64.73 20.14C65.29 19.86 65.74 19.43 66.1 18.82L66.1 18.82C66.47 18.23 66.66 17.46 66.66 16.52C66.66 15.59 66.47 14.83 66.1 14.24L66.1 14.23C65.74 13.63 65.29 13.2 64.73 12.94L64.73 12.94C64.18 12.66 63.6 12.52 63 12.52C62.37 12.52 61.78 12.66 61.22 12.94L61.21 12.94C60.67 13.2 60.23 13.63 59.87 14.23C59.52 14.83 59.34 15.59 59.34 16.52C59.34 17.46 59.52 18.23 59.87 18.82C60.23 19.43 60.68 19.86 61.22 20.14C61.78 20.42 62.37 20.56 63 20.56C63.6 20.56 64.18 20.42 64.73 20.14ZM61.15 20.28C60.58 19.99 60.11 19.53 59.74 18.9C59.37 18.27 59.18 17.48 59.18 16.52C59.18 15.57 59.37 14.78 59.74 14.16C60.11 13.53 60.58 13.08 61.15 12.8C61.73 12.51 62.35 12.37 63 12.37C63.63 12.37 64.23 12.51 64.8 12.8C65.38 13.08 65.86 13.53 66.23 14.16C66.62 14.78 66.81 15.57 66.81 16.52C66.81 17.48 66.62 18.27 66.23 18.9C65.86 19.53 65.38 19.99 64.8 20.28C64.23 20.57 63.63 20.71 63 20.71C62.35 20.71 61.73 20.57 61.15 20.28ZM87.47 12L84.18 21.54C84.09 21.81 83.92 22.04 83.67 22.22C83.43 22.41 83.15 22.5 82.84 22.5C82.53 22.5 82.26 22.41 82.01 22.22C81.76 22.04 81.59 21.8 81.48 21.51L79.03 13.93L76.58 21.51C76.47 21.8 76.29 22.04 76.05 22.22C75.8 22.41 75.52 22.5 75.21 22.5C74.91 22.5 74.63 22.41 74.38 22.22C74.14 22.04 73.97 21.81 73.87 21.54L70.59 12C70.54 11.86 70.52 11.73 70.52 11.61C70.52 11.32 70.62 11.08 70.82 10.88C71.02 10.68 71.27 10.58 71.56 10.58C71.78 10.58 71.97 10.64 72.14 10.76C72.32 10.87 72.45 11.02 72.51 11.2L75.21 20.02L77.9 11.41C77.97 11.16 78.11 10.96 78.31 10.81C78.53 10.66 78.77 10.58 79.03 10.58C79.29 10.58 79.52 10.66 79.72 10.81C79.94 10.96 80.08 11.16 80.16 11.41L82.84 20.02L85.55 11.2C85.61 11.02 85.72 10.87 85.89 10.76C86.08 10.64 86.28 10.58 86.5 10.58C86.79 10.58 87.03 10.68 87.23 10.88C87.44 11.08 87.54 11.32 87.54 11.61C87.54 11.73 87.51 11.86 87.47 12ZM85.81 10.64C86.02 10.5 86.25 10.43 86.5 10.43C86.83 10.43 87.11 10.54 87.34 10.77C87.57 11 87.69 11.28 87.69 11.61C87.69 11.75 87.66 11.9 87.61 12.05L87.61 12.05L84.33 21.58C84.33 21.58 84.33 21.58 84.33 21.59C84.23 21.89 84.04 22.14 83.77 22.35C83.49 22.55 83.18 22.65 82.84 22.65C82.5 22.65 82.19 22.55 81.92 22.35C81.65 22.14 81.45 21.88 81.33 21.57C81.33 21.56 81.33 21.56 81.33 21.56L79.03 14.43L76.72 21.56C76.72 21.56 76.72 21.56 76.72 21.57C76.6 21.88 76.41 22.14 76.14 22.35C75.87 22.55 75.56 22.65 75.21 22.65C74.87 22.65 74.56 22.55 74.29 22.35C74.02 22.14 73.83 21.89 73.73 21.59C73.73 21.58 73.73 21.58 73.73 21.58L70.45 12.05C70.39 11.9 70.37 11.75 70.37 11.61C70.37 11.28 70.48 11 70.71 10.77C70.94 10.54 71.23 10.43 71.56 10.43C71.81 10.43 72.03 10.5 72.22 10.64C72.43 10.76 72.58 10.93 72.66 11.15L72.66 11.16L75.22 19.5L77.75 11.36L77.75 11.36C77.84 11.09 77.99 10.86 78.22 10.69L78.22 10.69C78.46 10.52 78.73 10.43 79.03 10.43C79.32 10.43 79.59 10.51 79.81 10.69C80.05 10.86 80.22 11.08 80.31 11.36L80.31 11.36L82.84 19.5L85.4 11.15C85.47 10.93 85.61 10.76 85.81 10.64Z" fill="#969FA4" fill-opacity="1.000000" fill-rule="evenodd"/>
		<path id="Vector" d="M92.3 22.5C92.01 22.5 91.76 22.4 91.56 22.2C91.36 22 91.26 21.76 91.26 21.47L91.26 7.33C91.26 7.04 91.36 6.79 91.56 6.59C91.76 6.38 92.01 6.27 92.3 6.27C92.6 6.27 92.84 6.38 93.04 6.59C93.26 6.79 93.37 7.04 93.37 7.33L93.37 21.47C93.37 21.76 93.26 22 93.04 22.2C92.84 22.4 92.6 22.5 92.3 22.5Z" fill="#969FA4" fill-opacity="1.000000" fill-rule="nonzero"/>
		<path id="Vector" d="M98.25 22.5C97.96 22.5 97.72 22.4 97.51 22.2C97.31 22 97.21 21.76 97.21 21.47L97.21 11.64C97.21 11.34 97.31 11.1 97.51 10.9C97.72 10.69 97.96 10.58 98.25 10.58C98.55 10.58 98.79 10.69 98.99 10.9C99.21 11.1 99.32 11.34 99.32 11.64L99.32 12.57C99.9 11.93 100.54 11.42 101.21 11.04C101.89 10.66 102.69 10.47 103.62 10.47C104.47 10.47 105.2 10.66 105.81 11.06C106.45 11.46 106.92 12 107.25 12.69C107.59 13.38 107.76 14.13 107.76 14.96L107.76 21.47C107.76 21.76 107.65 22 107.43 22.2C107.23 22.4 106.98 22.5 106.69 22.5C106.4 22.5 106.15 22.4 105.95 22.2C105.75 22 105.65 21.76 105.65 21.47L105.65 15.19C105.65 13.32 104.8 12.39 103.11 12.39C102.34 12.39 101.64 12.59 101.03 12.99C100.43 13.38 99.86 13.92 99.32 14.59L99.32 21.47C99.32 21.76 99.21 22 98.99 22.2C98.79 22.4 98.55 22.5 98.25 22.5Z" fill="#969FA4" fill-opacity="1.000000" fill-rule="nonzero"/>
		<path id="Vector" d="M92.3 22.65C91.97 22.65 91.69 22.54 91.46 22.31C91.23 22.08 91.11 21.8 91.11 21.47L91.11 7.33C91.11 7 91.23 6.71 91.45 6.49C91.68 6.24 91.97 6.12 92.3 6.12C92.64 6.12 92.92 6.24 93.15 6.48C93.4 6.71 93.52 7 93.52 7.33L93.52 21.47C93.52 21.8 93.4 22.08 93.15 22.31C92.92 22.54 92.64 22.65 92.3 22.65ZM93.04 22.2C93.26 22 93.37 21.76 93.37 21.47L93.37 7.33C93.37 7.04 93.26 6.79 93.04 6.59C92.84 6.38 92.6 6.27 92.3 6.27C92.01 6.27 91.76 6.38 91.56 6.59C91.36 6.79 91.26 7.04 91.26 7.33L91.26 21.47C91.26 21.76 91.36 22 91.56 22.2C91.76 22.4 92.01 22.5 92.3 22.5C92.6 22.5 92.84 22.4 93.04 22.2ZM98.25 22.65C97.92 22.65 97.64 22.54 97.41 22.31C97.18 22.08 97.06 21.8 97.06 21.47L97.06 11.64C97.06 11.31 97.17 11.02 97.4 10.8C97.63 10.55 97.92 10.43 98.25 10.43C98.59 10.43 98.87 10.55 99.1 10.79C99.35 11.02 99.47 11.3 99.47 11.64L99.47 12.19C99.99 11.67 100.55 11.24 101.14 10.91C101.84 10.51 102.67 10.31 103.62 10.31C104.49 10.31 105.25 10.52 105.9 10.93C106.55 11.35 107.05 11.91 107.39 12.62C107.74 13.33 107.91 14.11 107.91 14.96L107.91 21.47C107.91 21.8 107.78 22.08 107.54 22.31C107.31 22.54 107.02 22.65 106.69 22.65C106.36 22.65 106.07 22.54 105.84 22.31C105.61 22.08 105.5 21.8 105.5 21.47L105.5 15.19C105.5 14.28 105.29 13.62 104.9 13.19C104.52 12.77 103.93 12.54 103.11 12.54C102.37 12.54 101.7 12.73 101.11 13.11C100.54 13.49 99.99 14 99.47 14.65L99.47 21.47C99.47 21.8 99.35 22.08 99.1 22.31C98.87 22.54 98.58 22.65 98.25 22.65ZM98.99 22.2C99.21 22 99.32 21.76 99.32 21.47L99.32 14.59C99.86 13.92 100.43 13.38 101.03 12.99C101.64 12.59 102.34 12.39 103.11 12.39C104.8 12.39 105.65 13.32 105.65 15.19L105.65 21.47C105.65 21.76 105.75 22 105.95 22.2C106.15 22.4 106.4 22.5 106.69 22.5C106.98 22.5 107.23 22.4 107.43 22.2C107.65 22 107.76 21.76 107.76 21.47L107.76 14.96C107.76 14.13 107.59 13.38 107.25 12.69C106.92 12 106.45 11.46 105.81 11.06C105.2 10.66 104.46 10.47 103.62 10.47C102.69 10.47 101.89 10.66 101.21 11.04C100.59 11.39 100.01 11.85 99.47 12.41C99.42 12.46 99.37 12.52 99.32 12.57L99.32 11.64C99.32 11.34 99.21 11.1 98.99 10.9C98.79 10.69 98.55 10.58 98.25 10.58C97.96 10.58 97.72 10.69 97.51 10.9C97.31 11.1 97.21 11.34 97.21 11.64L97.21 21.47C97.21 21.76 97.31 22 97.51 22.2C97.72 22.4 97.96 22.5 98.25 22.5C98.55 22.5 98.79 22.4 98.99 22.2Z" fill="#969FA4" fill-opacity="1.000000" fill-rule="evenodd"/>
		<path id="Vector" d="M114.9 22.5C114.61 22.5 114.36 22.4 114.16 22.2C113.96 22 113.86 21.76 113.86 21.47L113.86 8.33L109.14 8.33C108.87 8.33 108.63 8.24 108.45 8.06C108.26 7.88 108.17 7.65 108.17 7.37C108.17 7.1 108.26 6.87 108.45 6.68C108.63 6.49 108.87 6.39 109.14 6.39L120.66 6.39C120.93 6.39 121.16 6.49 121.35 6.68C121.55 6.87 121.65 7.1 121.65 7.37C121.65 7.65 121.55 7.88 121.35 8.06C121.16 8.24 120.93 8.33 120.66 8.33L115.96 8.33L115.96 21.47C115.96 21.76 115.85 22 115.64 22.2C115.44 22.4 115.19 22.5 114.9 22.5Z" fill="#969FA4" fill-opacity="1.000000" fill-rule="nonzero"/>
		<path id="Vector" d="M127.57 22.61C125.69 22.61 124.21 22.09 123.15 21.03C122.1 19.96 121.58 18.46 121.58 16.54C121.58 15.45 121.78 14.45 122.18 13.54C122.58 12.62 123.2 11.88 124.03 11.31C124.86 10.75 125.89 10.47 127.1 10.47C128.24 10.47 129.23 10.73 130.06 11.27C130.89 11.79 131.53 12.49 131.96 13.38C132.39 14.25 132.6 15.2 132.6 16.24C132.6 16.53 132.5 16.78 132.3 16.98C132.12 17.17 131.87 17.27 131.54 17.27L123.7 17.27C123.83 18.34 124.23 19.18 124.91 19.77C125.59 20.37 126.53 20.67 127.75 20.67C128.4 20.67 128.96 20.6 129.44 20.48C129.93 20.36 130.41 20.18 130.87 19.95C130.99 19.89 131.13 19.86 131.29 19.86C131.53 19.86 131.75 19.95 131.93 20.12C132.12 20.28 132.21 20.5 132.21 20.76C132.21 21.09 132.01 21.38 131.61 21.6C131.01 21.94 130.42 22.19 129.83 22.36C129.24 22.53 128.49 22.61 127.57 22.61ZM130.52 15.58C130.48 14.83 130.28 14.2 129.92 13.7C129.58 13.19 129.16 12.83 128.65 12.6C128.14 12.35 127.63 12.23 127.1 12.23C126.58 12.23 126.06 12.35 125.55 12.6C125.05 12.83 124.62 13.19 124.28 13.7C123.94 14.2 123.75 14.83 123.7 15.58L130.52 15.58Z" fill="#969FA4" fill-opacity="1.000000" fill-rule="nonzero"/>
		<path id="Vector" d="M140.84 22.61C139.73 22.61 138.71 22.37 137.77 21.88C136.83 21.39 136.07 20.69 135.5 19.77C134.95 18.85 134.67 17.78 134.67 16.54C134.67 15.3 134.95 14.22 135.5 13.31C136.07 12.39 136.83 11.69 137.77 11.2C138.71 10.71 139.73 10.47 140.84 10.47C141.66 10.47 142.36 10.57 142.95 10.79C143.55 10.99 144.1 11.25 144.61 11.57C144.92 11.76 145.07 12.03 145.07 12.37C145.07 12.6 144.98 12.81 144.8 13.01C144.63 13.19 144.43 13.29 144.2 13.29C144.03 13.29 143.86 13.24 143.69 13.15C143.18 12.89 142.74 12.7 142.37 12.6C142.01 12.48 141.57 12.41 141.03 12.41C139.7 12.41 138.66 12.8 137.91 13.56C137.15 14.31 136.77 15.3 136.77 16.54C136.77 17.78 137.15 18.78 137.91 19.54C138.66 20.29 139.7 20.67 141.03 20.67C141.57 20.67 142.01 20.61 142.37 20.5C142.74 20.38 143.18 20.19 143.69 19.93C143.86 19.84 144.03 19.79 144.2 19.79C144.43 19.79 144.63 19.89 144.8 20.09C144.98 20.28 145.07 20.48 145.07 20.71C145.07 21.05 144.92 21.31 144.61 21.51C144.1 21.83 143.55 22.1 142.95 22.32C142.36 22.51 141.66 22.61 140.84 22.61Z" fill="#969FA4" fill-opacity="1.000000" fill-rule="nonzero"/>
		<path id="Vector" d="M148.75 22.5C148.46 22.5 148.21 22.4 148.01 22.2C147.81 22 147.71 21.76 147.71 21.47L147.71 6.59C147.71 6.3 147.81 6.06 148.01 5.86C148.21 5.65 148.46 5.54 148.75 5.54C149.05 5.54 149.29 5.65 149.49 5.86C149.71 6.06 149.82 6.3 149.82 6.59L149.82 12.57C150.4 11.93 151.03 11.42 151.71 11.04C152.39 10.66 153.19 10.47 154.12 10.47C154.96 10.47 155.7 10.66 156.31 11.06C156.95 11.46 157.42 12 157.75 12.69C158.09 13.38 158.25 14.13 158.25 14.96L158.25 21.47C158.25 21.76 158.15 22 157.93 22.2C157.73 22.4 157.48 22.5 157.19 22.5C156.9 22.5 156.65 22.4 156.45 22.2C156.25 22 156.15 21.76 156.15 21.47L156.15 15.19C156.15 13.32 155.3 12.39 153.61 12.39C152.84 12.39 152.14 12.59 151.53 12.99C150.93 13.38 150.36 13.92 149.82 14.59L149.82 21.47C149.82 21.76 149.71 22 149.49 22.2C149.29 22.4 149.05 22.5 148.75 22.5Z" fill="#969FA4" fill-opacity="1.000000" fill-rule="nonzero"/>
		<path id="Vector" d="M123.04 21.14C121.96 20.03 121.42 18.49 121.42 16.54C121.42 15.44 121.63 14.41 122.04 13.48C122.45 12.53 123.09 11.77 123.94 11.19C124.8 10.6 125.86 10.31 127.1 10.31C128.27 10.31 129.28 10.59 130.14 11.14C131 11.67 131.65 12.4 132.1 13.31C132.54 14.2 132.76 15.18 132.76 16.24C132.76 16.57 132.64 16.85 132.42 17.08C132.2 17.31 131.9 17.43 131.54 17.43L123.88 17.43C124.02 18.38 124.4 19.12 125.01 19.66C125.65 20.22 126.56 20.51 127.75 20.51C128.39 20.51 128.94 20.45 129.4 20.33L129.4 20.33C129.88 20.21 130.35 20.04 130.8 19.82C130.95 19.75 131.11 19.71 131.29 19.71C131.57 19.71 131.82 19.81 132.04 20C132.26 20.2 132.37 20.46 132.37 20.76C132.37 21.17 132.12 21.49 131.69 21.74L131.69 21.74C131.08 22.08 130.47 22.34 129.87 22.51C129.27 22.68 128.5 22.77 127.57 22.77C125.65 22.77 124.14 22.23 123.04 21.14L123.04 21.14ZM123.72 17.43C123.72 17.38 123.71 17.32 123.7 17.27L131.54 17.27C131.86 17.27 132.12 17.17 132.3 16.98C132.5 16.78 132.6 16.53 132.6 16.24C132.6 15.2 132.39 14.25 131.96 13.38C131.53 12.49 130.89 11.79 130.06 11.27C129.23 10.73 128.24 10.47 127.1 10.47C125.89 10.47 124.86 10.75 124.03 11.31C123.2 11.88 122.58 12.62 122.18 13.54C121.78 14.45 121.58 15.45 121.58 16.54C121.58 18.46 122.1 19.96 123.15 21.03C124.21 22.09 125.69 22.61 127.57 22.61C128.49 22.61 129.24 22.53 129.83 22.36C130.42 22.19 131.01 21.94 131.61 21.6C132.01 21.38 132.21 21.09 132.21 20.76C132.21 20.5 132.12 20.28 131.93 20.12C131.75 19.95 131.53 19.86 131.29 19.86C131.13 19.86 130.99 19.89 130.87 19.95C130.41 20.18 129.93 20.36 129.44 20.48C128.96 20.6 128.4 20.67 127.75 20.67C126.53 20.67 125.59 20.37 124.91 19.77C124.26 19.2 123.87 18.42 123.72 17.43ZM129.79 13.78C129.47 13.3 129.07 12.95 128.59 12.74L128.58 12.73C128.1 12.5 127.6 12.38 127.1 12.38C126.6 12.38 126.11 12.5 125.62 12.73L125.62 12.74C125.14 12.95 124.73 13.3 124.41 13.78C124.11 14.22 123.93 14.77 123.87 15.42L130.36 15.42C130.3 14.77 130.11 14.23 129.8 13.78L129.79 13.78ZM130.51 15.42C130.52 15.48 130.52 15.53 130.52 15.58L123.7 15.58C123.71 15.53 123.71 15.48 123.72 15.42C123.78 14.74 123.97 14.17 124.28 13.7C124.62 13.19 125.05 12.83 125.55 12.6C126.06 12.35 126.58 12.23 127.1 12.23C127.63 12.23 128.14 12.35 128.65 12.6C129.16 12.83 129.58 13.19 129.92 13.7C130.25 14.17 130.45 14.74 130.51 15.42ZM135.37 19.85L135.37 19.85C134.8 18.91 134.52 17.8 134.52 16.54C134.52 15.28 134.8 14.17 135.37 13.23L135.37 13.23C135.96 12.29 136.73 11.57 137.7 11.06C138.66 10.56 139.71 10.31 140.84 10.31C141.67 10.31 142.39 10.42 143 10.64C143.61 10.85 144.17 11.11 144.69 11.44L144.7 11.44C145.04 11.66 145.23 11.98 145.23 12.37C145.23 12.64 145.12 12.89 144.91 13.11C144.71 13.33 144.47 13.44 144.2 13.44C144 13.44 143.8 13.38 143.61 13.28C143.11 13.03 142.68 12.85 142.33 12.74L142.32 12.74L142.32 12.74C141.99 12.63 141.56 12.57 141.03 12.57C139.73 12.57 138.74 12.94 138.02 13.67L138.02 13.67C137.3 14.38 136.93 15.34 136.93 16.54C136.93 17.74 137.29 18.7 138.02 19.43C138.74 20.15 139.73 20.51 141.03 20.51C141.56 20.51 141.99 20.46 142.32 20.36C142.68 20.24 143.11 20.05 143.61 19.8C143.8 19.7 144 19.64 144.2 19.64C144.48 19.64 144.72 19.76 144.91 19.99C145.12 20.2 145.23 20.44 145.23 20.71C145.23 21.1 145.04 21.42 144.7 21.64L144.69 21.64C144.17 21.97 143.61 22.24 143 22.46L143 22.46C142.39 22.67 141.67 22.77 140.84 22.77C139.71 22.77 138.66 22.52 137.7 22.01C136.73 21.51 135.96 20.79 135.37 19.85ZM144.8 20.09C144.63 19.89 144.43 19.79 144.2 19.79C144.03 19.79 143.86 19.84 143.69 19.93C143.18 20.19 142.74 20.38 142.37 20.5C142.02 20.61 141.57 20.67 141.03 20.67C139.7 20.67 138.66 20.29 137.91 19.54C137.15 18.78 136.78 17.78 136.78 16.54C136.78 15.3 137.15 14.31 137.91 13.56C138.66 12.8 139.7 12.41 141.03 12.41C141.57 12.41 142.02 12.48 142.37 12.6C142.74 12.7 143.18 12.89 143.69 13.15C143.86 13.24 144.03 13.29 144.2 13.29C144.43 13.29 144.63 13.19 144.8 13.01C144.98 12.81 145.07 12.6 145.07 12.37C145.07 12.03 144.92 11.76 144.61 11.57C144.1 11.25 143.55 10.99 142.95 10.79C142.36 10.57 141.66 10.47 140.84 10.47C139.73 10.47 138.71 10.71 137.77 11.2C136.83 11.69 136.07 12.39 135.5 13.31C134.95 14.22 134.67 15.3 134.67 16.54C134.67 17.78 134.95 18.85 135.5 19.77C136.07 20.69 136.83 21.39 137.77 21.88C138.71 22.37 139.73 22.61 140.84 22.61C141.66 22.61 142.36 22.51 142.95 22.32C143.55 22.1 144.1 21.83 144.61 21.51C144.92 21.31 145.07 21.05 145.07 20.71C145.07 20.48 144.98 20.28 144.8 20.09ZM114.9 22.65C114.57 22.65 114.28 22.54 114.05 22.31C113.82 22.08 113.71 21.8 113.71 21.47L113.71 8.49L109.14 8.49C108.83 8.49 108.56 8.38 108.34 8.17C108.13 7.95 108.02 7.68 108.02 7.37C108.02 7.06 108.13 6.79 108.34 6.58C108.55 6.35 108.83 6.23 109.14 6.23L120.66 6.23C120.97 6.23 121.24 6.35 121.46 6.58C121.69 6.79 121.8 7.06 121.8 7.37C121.8 7.69 121.69 7.96 121.45 8.17C121.24 8.38 120.97 8.49 120.66 8.49L116.12 8.49L116.12 21.47C116.12 21.8 115.99 22.08 115.75 22.31C115.52 22.54 115.23 22.65 114.9 22.65ZM115.64 22.2C115.85 22 115.96 21.76 115.96 21.47L115.96 8.33L120.66 8.33C120.93 8.33 121.16 8.24 121.35 8.06C121.55 7.88 121.65 7.65 121.65 7.37C121.65 7.1 121.55 6.87 121.35 6.68C121.16 6.49 120.93 6.39 120.66 6.39L109.14 6.39C108.87 6.39 108.63 6.49 108.45 6.68C108.26 6.87 108.17 7.1 108.17 7.37C108.17 7.65 108.26 7.88 108.45 8.06C108.63 8.24 108.87 8.33 109.14 8.33L113.86 8.33L113.86 21.47C113.86 21.76 113.96 22 114.16 22.2C114.36 22.4 114.61 22.5 114.9 22.5C115.19 22.5 115.44 22.4 115.64 22.2ZM148.75 22.65C148.42 22.65 148.14 22.54 147.91 22.31C147.67 22.08 147.56 21.8 147.56 21.47L147.56 6.59C147.56 6.26 147.67 5.98 147.9 5.75C148.13 5.51 148.42 5.39 148.75 5.39C149.09 5.39 149.37 5.51 149.6 5.75C149.85 5.98 149.97 6.26 149.97 6.59L149.97 12.19C150.49 11.67 151.05 11.24 151.64 10.91C152.34 10.51 153.17 10.31 154.12 10.31C154.99 10.31 155.75 10.52 156.4 10.93C157.05 11.35 157.55 11.91 157.88 12.62C158.23 13.33 158.41 14.11 158.41 14.96L158.41 21.47C158.41 21.8 158.28 22.08 158.04 22.31C157.81 22.54 157.52 22.65 157.19 22.65C156.86 22.65 156.57 22.54 156.34 22.31C156.11 22.08 156 21.8 156 21.47L156 15.19C156 14.28 155.79 13.62 155.4 13.19C155.02 12.77 154.43 12.54 153.61 12.54C152.87 12.54 152.2 12.73 151.61 13.11C151.04 13.49 150.49 14 149.97 14.65L149.97 21.47C149.97 21.8 149.85 22.08 149.6 22.31C149.37 22.54 149.08 22.65 148.75 22.65ZM149.49 22.2C149.71 22 149.82 21.76 149.82 21.47L149.82 14.59C150.36 13.92 150.93 13.38 151.53 12.99C152.14 12.59 152.84 12.39 153.61 12.39C155.3 12.39 156.15 13.32 156.15 15.19L156.15 21.47C156.15 21.76 156.25 22 156.45 22.2C156.65 22.4 156.9 22.5 157.19 22.5C157.48 22.5 157.73 22.4 157.93 22.2C158.15 22 158.25 21.76 158.25 21.47L158.25 14.96C158.25 14.13 158.09 13.38 157.75 12.69C157.42 12 156.94 11.46 156.31 11.06C155.7 10.66 154.96 10.47 154.12 10.47C153.19 10.47 152.39 10.66 151.71 11.04C151.09 11.39 150.51 11.85 149.97 12.41C149.92 12.46 149.87 12.52 149.82 12.57L149.82 6.59C149.82 6.3 149.71 6.06 149.49 5.86C149.29 5.65 149.05 5.54 148.75 5.54C148.46 5.54 148.21 5.65 148.01 5.86C147.81 6.06 147.71 6.3 147.71 6.59L147.71 21.47C147.71 21.76 147.81 22 148.01 22.2C148.21 22.4 148.46 22.5 148.75 22.5C149.05 22.5 149.29 22.4 149.49 22.2Z" fill="#969FA4" fill-opacity="1.000000" fill-rule="evenodd"/>
	</g>
</svg>
