<svg width="148.000000" height="33.000000" viewBox="0 0 148 33" fill="none" xmlns="http://www.w3.org/2000/svg" xmlns:xlink="http://www.w3.org/1999/xlink">
	<desc>
			Created with Pixso.
	</desc>
	<defs>
		<clipPath id="clip2_746">
			<rect id="IMAGE" rx="0.000000" width="147.000000" height="32.000000" transform="translate(0.500000 0.500000)" fill="white" fill-opacity="0"/>
		</clipPath>
		<linearGradient x1="24.356915" y1="3.282383" x2="12.163868" y2="30.543175" id="paint_linear_2_758_0" gradientUnits="userSpaceOnUse">
			<stop offset="0.000100" stop-color="#ABB3B7"/>
			<stop offset="1.000000" stop-color="#BBD3DF"/>
		</linearGradient>
	</defs>
	<g clip-path="url(#clip2_746)">
		<path id="Vector" d="M49.19 26.3C47.3 26.3 45.65 25.87 44.23 25.02C42.83 24.17 41.73 22.99 40.92 21.49C40.13 19.97 39.73 18.22 39.73 16.24C39.73 14.25 40.13 12.51 40.92 11.01C41.73 9.49 42.83 8.3 44.23 7.45C45.65 6.6 47.3 6.17 49.19 6.17C51.06 6.17 52.7 6.6 54.12 7.45C55.54 8.3 56.64 9.49 57.43 11.01C58.22 12.51 58.62 14.25 58.62 16.24C58.62 18.22 58.22 19.97 57.43 21.49C56.64 22.99 55.54 24.17 54.12 25.02C52.7 25.87 51.06 26.3 49.19 26.3ZM49.19 23.1C50.99 23.1 52.41 22.49 53.47 21.27C54.55 20.04 55.09 18.37 55.09 16.24C55.09 14.11 54.55 12.43 53.47 11.2C52.41 9.98 50.99 9.37 49.19 9.37C47.39 9.37 45.96 9.98 44.88 11.2C43.8 12.43 43.26 14.11 43.26 16.24C43.26 18.37 43.8 20.04 44.88 21.27C45.96 22.49 47.39 23.1 49.19 23.1Z" fill="#969FA4" fill-opacity="1.000000" fill-rule="nonzero"/>
		<path id="Vector" d="M61.58 32.08L61.58 12.18L64.66 12.18L65.03 14.15C65.46 13.54 66.03 13 66.73 12.54C67.45 12.08 68.37 11.84 69.51 11.84C70.76 11.84 71.89 12.16 72.87 12.79C73.86 13.42 74.64 14.28 75.22 15.37C75.79 16.47 76.08 17.71 76.08 19.1C76.08 20.49 75.79 21.73 75.22 22.82C74.64 23.9 73.86 24.75 72.87 25.38C71.89 25.99 70.76 26.3 69.51 26.3C68.5 26.3 67.62 26.1 66.87 25.72C66.11 25.33 65.5 24.78 65.03 24.08L65.03 32.08L61.58 32.08ZM68.78 23.19C69.87 23.19 70.78 22.81 71.5 22.05C72.22 21.29 72.58 20.3 72.58 19.1C72.58 17.9 72.22 16.9 71.5 16.13C70.78 15.35 69.87 14.96 68.78 14.96C67.67 14.96 66.75 15.35 66.03 16.13C65.33 16.89 64.98 17.87 64.98 19.07C64.98 20.28 65.33 21.27 66.03 22.05C66.75 22.81 67.67 23.19 68.78 23.19Z" fill="#969FA4" fill-opacity="1.000000" fill-rule="nonzero"/>
		<path id="Vector" d="M84.59 25.97C83.19 25.97 82.07 25.61 81.22 24.91C80.38 24.21 79.96 22.95 79.96 21.16L79.96 15.15L77.67 15.15L77.67 12.18L79.96 12.18L80.36 8.48L83.41 8.48L83.41 12.18L87.02 12.18L87.02 15.15L83.41 15.15L83.41 21.18C83.41 21.85 83.54 22.31 83.81 22.57C84.1 22.82 84.58 22.94 85.26 22.94L86.94 22.94L86.94 25.97L84.59 25.97Z" fill="#969FA4" fill-opacity="1.000000" fill-rule="nonzero"/>
		<path id="Vector" d="M91.84 10.04C91.21 10.04 90.69 9.84 90.27 9.45C89.88 9.06 89.68 8.57 89.68 7.98C89.68 7.39 89.88 6.91 90.27 6.53C90.69 6.15 91.21 5.95 91.84 5.95C92.47 5.95 92.98 6.15 93.37 6.53C93.79 6.91 93.99 7.39 93.99 7.98C93.99 8.57 93.79 9.06 93.37 9.45C92.98 9.84 92.47 10.04 91.84 10.04ZM90.11 25.97L90.11 12.18L93.56 12.18L93.56 25.97L90.11 25.97Z" fill="#969FA4" fill-opacity="1.000000" fill-rule="nonzero"/>
		<path id="Vector" d="M97.16 25.97L97.16 12.18L100.21 12.18L100.5 14.04C100.93 13.37 101.5 12.84 102.2 12.46C102.92 12.05 103.75 11.84 104.68 11.84C106.75 11.84 108.21 12.67 109.07 14.32C109.56 13.56 110.2 12.96 111.01 12.51C111.84 12.07 112.74 11.84 113.71 11.84C115.45 11.84 116.79 12.38 117.72 13.46C118.66 14.53 119.12 16.11 119.12 18.18L119.12 25.97L115.67 25.97L115.67 18.52C115.67 17.33 115.45 16.42 115 15.79C114.57 15.16 113.89 14.85 112.98 14.85C112.04 14.85 111.29 15.2 110.72 15.9C110.16 16.61 109.88 17.59 109.88 18.85L109.88 25.97L106.43 25.97L106.43 18.52C106.43 17.33 106.21 16.42 105.76 15.79C105.31 15.16 104.62 14.85 103.68 14.85C102.77 14.85 102.02 15.2 101.45 15.9C100.89 16.61 100.61 17.59 100.61 18.85L100.61 25.97L97.16 25.97Z" fill="#969FA4" fill-opacity="1.000000" fill-rule="nonzero"/>
		<path id="Vector" d="M128.89 26.3C127.54 26.3 126.35 26 125.31 25.41C124.27 24.82 123.45 23.98 122.86 22.91C122.26 21.83 121.97 20.59 121.97 19.18C121.97 17.76 122.25 16.49 122.83 15.37C123.42 14.26 124.23 13.4 125.25 12.79C126.3 12.16 127.52 11.84 128.92 11.84C130.23 11.84 131.39 12.14 132.39 12.73C133.4 13.33 134.18 14.14 134.74 15.18C135.31 16.2 135.6 17.34 135.6 18.6C135.6 18.8 135.59 19.02 135.57 19.24C135.57 19.46 135.56 19.69 135.55 19.93L125.39 19.93C125.46 21.01 125.82 21.85 126.47 22.46C127.13 23.07 127.93 23.38 128.86 23.38C129.56 23.38 130.15 23.22 130.62 22.91C131.1 22.57 131.46 22.15 131.69 21.63L135.2 21.63C134.94 22.5 134.52 23.3 133.93 24.02C133.35 24.72 132.64 25.28 131.77 25.69C130.93 26.1 129.97 26.3 128.89 26.3ZM128.92 14.74C128.07 14.74 127.33 14.99 126.68 15.49C126.03 15.97 125.62 16.71 125.44 17.71L132.1 17.71C132.04 16.8 131.72 16.08 131.13 15.54C130.53 15 129.8 14.74 128.92 14.74Z" fill="#969FA4" fill-opacity="1.000000" fill-rule="nonzero"/>
		<path id="Vector" d="M138.5 25.97L138.5 12.18L141.57 12.18L141.89 14.76C142.38 13.87 143.04 13.17 143.86 12.65C144.71 12.11 145.7 11.84 146.83 11.84L146.83 15.6L145.86 15.6C145.1 15.6 144.43 15.72 143.84 15.96C143.24 16.2 142.78 16.62 142.43 17.21C142.11 17.8 141.95 18.63 141.95 19.68L141.95 25.97L138.5 25.97Z" fill="#969FA4" fill-opacity="1.000000" fill-rule="nonzero"/>
		<path id="Vector" d="M29.89 8.33L11.82 27.23C11.7 27.35 11.5 27.26 11.5 27.09L11.61 17.82C11.62 17.75 11.65 17.68 11.71 17.65L29.67 8.04C29.86 7.94 30.04 8.18 29.89 8.33Z" fill="#969FA4" fill-opacity="0.800000" fill-rule="nonzero"/>
		<path id="Vector" d="M30.76 6.82L30.52 7.16L10 18.27L2.5 13.3C2.33 13.17 2.37 12.9 2.58 12.86L30.76 6.82Z" fill="#969FA4" fill-opacity="1.000000" fill-rule="nonzero"/>
		<path id="Vector" d="M31.07 6.62C31.16 6.74 31.15 6.91 31.06 7.04L30.83 7.38C30.79 7.43 30.75 7.47 30.7 7.49L10.17 18.6C10.05 18.67 9.9 18.66 9.79 18.58L2.3 13.61C2.29 13.61 2.29 13.61 2.29 13.6C1.87 13.31 1.95 12.6 2.51 12.49L30.69 6.46C30.84 6.42 30.99 6.49 31.07 6.62ZM2.97 13.16L10.01 17.84L28.95 7.59L2.97 13.16Z" fill="#969FA4" fill-opacity="1.000000" fill-rule="evenodd"/>
		<path id="Vector" d="M31.11 6.94C31.17 6.77 31.1 6.58 30.93 6.49C30.77 6.4 30.57 6.45 30.46 6.6L30.28 6.86L9.71 18.2C9.57 18.28 9.5 18.44 9.53 18.6L11.12 27.03C11.15 27.19 11.28 27.31 11.45 27.33C11.61 27.34 11.77 27.25 11.83 27.09L14.27 20.76L30.79 7.71C30.84 7.66 30.89 7.6 30.91 7.54L31.11 6.94Z" fill="url(#paint_linear_2_758_0)" fill-opacity="1.000000" fill-rule="evenodd"/>
		<path id="Vector" d="M30.76 6.82L24.58 26.85C24.54 26.99 24.36 27.06 24.22 26.98L16.19 21.94L14.48 20.78L30.25 7.5C30.45 7.33 30.61 7.13 30.72 6.9L30.76 6.82Z" fill="#969FA4" fill-opacity="1.000000" fill-rule="nonzero"/>
		<path id="Vector" d="M30.9 6.47C31.08 6.55 31.17 6.75 31.12 6.93L24.94 26.96L24.94 26.96C24.81 27.34 24.36 27.5 24.03 27.3L16 22.26C15.99 22.26 15.99 22.26 15.98 22.25L14.28 21.09C14.18 21.02 14.12 20.91 14.11 20.8C14.11 20.68 14.16 20.56 14.25 20.49L30.02 7.21C30.17 7.08 30.3 6.92 30.39 6.73L30.43 6.65C30.52 6.48 30.72 6.4 30.9 6.47ZM29.93 8.26L15.1 20.75L16.39 21.63L24.28 26.57L29.93 8.26Z" fill="#969FA4" fill-opacity="1.000000" fill-rule="evenodd"/>
	</g>
</svg>
