<svg width="117.000000" height="34.000000" viewBox="0 0 117 34" fill="none" xmlns="http://www.w3.org/2000/svg" xmlns:xlink="http://www.w3.org/1999/xlink">
	<desc>
			Created with Pixso.
	</desc>
	<defs>
		<clipPath id="clip2_761">
			<rect id="IMAGE" rx="0.000000" width="116.000000" height="33.000000" transform="translate(0.500000 0.500000)" fill="white" fill-opacity="0"/>
		</clipPath>
	</defs>
	<g clip-path="url(#clip2_761)">
		<path id="Vector" d="M54.32 22.4C54.49 22.4 54.65 22.47 54.78 22.61L56.08 24.01C55.36 24.9 54.47 25.58 53.42 26.05C52.38 26.53 51.13 26.76 49.66 26.76C48.35 26.76 47.17 26.54 46.11 26.09C45.07 25.64 44.18 25.02 43.44 24.22C42.7 23.42 42.13 22.47 41.73 21.36C41.34 20.25 41.14 19.05 41.14 17.73C41.14 16.41 41.36 15.19 41.8 14.09C42.24 12.99 42.86 12.03 43.66 11.24C44.46 10.44 45.41 9.82 46.52 9.38C47.63 8.93 48.86 8.71 50.21 8.71C51.52 8.71 52.67 8.92 53.64 9.34C54.63 9.76 55.47 10.31 56.17 11L55.07 12.53C55.01 12.63 54.92 12.71 54.82 12.79C54.72 12.86 54.58 12.9 54.4 12.9C54.21 12.9 54.02 12.82 53.83 12.68C53.63 12.53 53.38 12.37 53.08 12.2C52.78 12.03 52.4 11.87 51.93 11.73C51.48 11.58 50.89 11.51 50.18 11.51C49.35 11.51 48.59 11.65 47.89 11.94C47.19 12.23 46.6 12.64 46.09 13.18C45.59 13.72 45.2 14.37 44.92 15.15C44.64 15.91 44.5 16.77 44.5 17.73C44.5 18.73 44.64 19.61 44.92 20.39C45.2 21.16 45.58 21.81 46.07 22.34C46.55 22.87 47.11 23.28 47.76 23.56C48.42 23.84 49.12 23.98 49.87 23.98C50.31 23.98 50.72 23.95 51.08 23.9C51.44 23.85 51.78 23.78 52.08 23.67C52.39 23.57 52.68 23.43 52.95 23.27C53.22 23.1 53.5 22.89 53.77 22.65C53.85 22.57 53.93 22.51 54.02 22.47C54.11 22.43 54.21 22.4 54.32 22.4Z" fill="#969FA4" fill-opacity="1.000000" fill-rule="nonzero"/>
		<path id="Vector" d="M67.73 26.57L66.38 26.57C66.09 26.57 65.87 26.53 65.7 26.44C65.54 26.35 65.42 26.18 65.34 25.92L65.07 25.03C64.75 25.31 64.44 25.56 64.13 25.78C63.83 26 63.51 26.18 63.19 26.32C62.86 26.47 62.51 26.58 62.15 26.65C61.78 26.72 61.37 26.76 60.93 26.76C60.4 26.76 59.91 26.69 59.46 26.55C59.01 26.41 58.62 26.19 58.3 25.91C57.98 25.62 57.73 25.27 57.55 24.84C57.37 24.42 57.28 23.93 57.28 23.37C57.28 22.89 57.41 22.43 57.65 21.97C57.9 21.51 58.32 21.09 58.9 20.73C59.48 20.35 60.25 20.04 61.21 19.8C62.17 19.55 63.36 19.42 64.79 19.38L64.79 18.65C64.79 17.81 64.61 17.19 64.25 16.79C63.9 16.39 63.39 16.18 62.71 16.18C62.22 16.18 61.81 16.24 61.49 16.35C61.16 16.47 60.88 16.6 60.63 16.75C60.4 16.88 60.18 17.01 59.97 17.12C59.77 17.24 59.54 17.29 59.3 17.29C59.1 17.29 58.92 17.24 58.77 17.14C58.63 17.03 58.51 16.9 58.42 16.75L57.87 15.78C59.31 14.46 61.05 13.8 63.09 13.8C63.82 13.8 64.47 13.92 65.04 14.17C65.62 14.4 66.11 14.74 66.51 15.17C66.91 15.59 67.21 16.1 67.42 16.7C67.63 17.29 67.73 17.94 67.73 18.65L67.73 26.57ZM61.87 24.68C62.18 24.68 62.46 24.66 62.72 24.6C62.98 24.54 63.23 24.46 63.46 24.34C63.69 24.23 63.92 24.09 64.13 23.93C64.35 23.76 64.57 23.56 64.79 23.33L64.79 21.22C63.91 21.26 63.17 21.33 62.58 21.45C61.99 21.55 61.52 21.69 61.16 21.86C60.8 22.03 60.54 22.23 60.39 22.46C60.24 22.69 60.17 22.94 60.17 23.21C60.17 23.74 60.32 24.11 60.63 24.34C60.95 24.57 61.36 24.68 61.87 24.68Z" fill="#969FA4" fill-opacity="1.000000" fill-rule="nonzero"/>
		<path id="Vector" d="M70.21 26.57L70.21 14.03L71.99 14.03C72.29 14.03 72.51 14.09 72.63 14.2C72.76 14.32 72.84 14.51 72.88 14.79L73.06 16.31C73.51 15.53 74.03 14.92 74.64 14.47C75.24 14.03 75.92 13.8 76.67 13.8C77.29 13.8 77.8 13.94 78.21 14.23L77.82 16.49C77.79 16.64 77.74 16.74 77.66 16.81C77.58 16.86 77.47 16.89 77.33 16.89C77.2 16.89 77.04 16.86 76.83 16.81C76.61 16.75 76.33 16.72 75.98 16.72C75.35 16.72 74.82 16.9 74.37 17.25C73.92 17.59 73.54 18.09 73.23 18.76L73.23 26.57L70.21 26.57Z" fill="#969FA4" fill-opacity="1.000000" fill-rule="nonzero"/>
		<path id="Vector" d="M88.53 26.57C88.14 26.57 87.88 26.38 87.76 26.02L87.51 24.81C87.25 25.1 86.98 25.36 86.69 25.6C86.41 25.84 86.1 26.04 85.76 26.21C85.44 26.38 85.08 26.51 84.7 26.6C84.33 26.7 83.92 26.75 83.48 26.75C82.79 26.75 82.17 26.61 81.6 26.32C81.03 26.04 80.53 25.63 80.12 25.09C79.71 24.54 79.39 23.87 79.16 23.07C78.94 22.27 78.83 21.36 78.83 20.34C78.83 19.41 78.96 18.54 79.21 17.75C79.47 16.95 79.83 16.26 80.3 15.67C80.77 15.08 81.34 14.63 82 14.3C82.66 13.97 83.4 13.8 84.23 13.8C84.93 13.8 85.52 13.92 86.02 14.14C86.52 14.36 86.96 14.66 87.35 15.04L87.35 8.41L90.37 8.41L90.37 26.57L88.53 26.57ZM84.51 24.36C85.13 24.36 85.67 24.22 86.11 23.96C86.55 23.7 86.96 23.33 87.35 22.85L87.35 17.23C87.01 16.82 86.64 16.53 86.23 16.35C85.83 16.18 85.4 16.1 84.93 16.1C84.48 16.1 84.06 16.18 83.69 16.35C83.32 16.53 83.01 16.79 82.75 17.14C82.49 17.48 82.3 17.92 82.16 18.46C82.02 18.98 81.95 19.61 81.95 20.34C81.95 21.07 82.01 21.69 82.12 22.21C82.24 22.71 82.42 23.13 82.64 23.45C82.86 23.77 83.12 24 83.44 24.15C83.76 24.29 84.11 24.36 84.51 24.36Z" fill="#969FA4" fill-opacity="1.000000" fill-rule="nonzero"/>
		<path id="Vector" d="M98.34 13.84C99.13 13.84 99.85 13.96 100.51 14.22C101.18 14.47 101.76 14.84 102.24 15.33C102.72 15.81 103.09 16.4 103.36 17.11C103.63 17.81 103.76 18.61 103.76 19.52C103.76 19.75 103.75 19.94 103.73 20.09C103.71 20.24 103.67 20.36 103.62 20.45C103.57 20.53 103.5 20.59 103.41 20.63C103.32 20.66 103.21 20.68 103.07 20.68L95.32 20.68C95.41 21.97 95.75 22.91 96.36 23.51C96.96 24.11 97.76 24.42 98.75 24.42C99.24 24.42 99.66 24.36 100.01 24.25C100.37 24.13 100.68 24 100.94 23.87C101.21 23.73 101.44 23.6 101.64 23.49C101.84 23.37 102.04 23.32 102.22 23.32C102.35 23.32 102.45 23.34 102.54 23.39C102.63 23.44 102.71 23.51 102.77 23.6L103.65 24.7C103.32 25.09 102.95 25.42 102.53 25.69C102.11 25.95 101.68 26.16 101.22 26.32C100.77 26.48 100.31 26.59 99.84 26.65C99.38 26.72 98.92 26.75 98.48 26.75C97.61 26.75 96.8 26.61 96.05 26.32C95.3 26.03 94.65 25.6 94.1 25.04C93.54 24.47 93.11 23.77 92.79 22.94C92.47 22.1 92.31 21.13 92.31 20.03C92.31 19.18 92.45 18.37 92.73 17.62C93 16.87 93.4 16.21 93.91 15.66C94.43 15.1 95.07 14.65 95.81 14.33C96.56 14 97.4 13.84 98.34 13.84ZM98.4 16C97.52 16 96.83 16.25 96.33 16.75C95.84 17.24 95.52 17.95 95.38 18.86L101.05 18.86C101.05 18.47 101 18.1 100.89 17.76C100.79 17.41 100.62 17.1 100.4 16.84C100.18 16.58 99.91 16.38 99.57 16.23C99.24 16.08 98.85 16 98.4 16Z" fill="#969FA4" fill-opacity="1.000000" fill-rule="nonzero"/>
		<path id="Vector" d="M114.55 26.57C114.16 26.57 113.9 26.38 113.78 26.02L113.53 24.81C113.27 25.1 113 25.36 112.72 25.6C112.43 25.84 112.12 26.04 111.79 26.21C111.46 26.38 111.11 26.51 110.72 26.6C110.35 26.7 109.94 26.75 109.5 26.75C108.82 26.75 108.19 26.61 107.62 26.32C107.05 26.04 106.56 25.63 106.14 25.09C105.73 24.54 105.41 23.87 105.19 23.07C104.97 22.27 104.86 21.36 104.86 20.34C104.86 19.41 104.98 18.54 105.24 17.75C105.49 16.95 105.85 16.26 106.32 15.67C106.8 15.08 107.36 14.63 108.02 14.3C108.68 13.97 109.42 13.8 110.25 13.8C110.95 13.8 111.55 13.92 112.04 14.14C112.54 14.36 112.98 14.66 113.38 15.04L113.38 8.41L116.39 8.41L116.39 26.57L114.55 26.57ZM110.53 24.36C111.15 24.36 111.69 24.22 112.13 23.96C112.57 23.7 112.98 23.33 113.38 22.85L113.38 17.23C113.03 16.82 112.66 16.53 112.25 16.35C111.85 16.18 111.42 16.1 110.96 16.1C110.5 16.1 110.08 16.18 109.71 16.35C109.34 16.53 109.03 16.79 108.77 17.14C108.52 17.48 108.32 17.92 108.18 18.46C108.04 18.98 107.97 19.61 107.97 20.34C107.97 21.07 108.03 21.69 108.14 22.21C108.27 22.71 108.44 23.13 108.66 23.45C108.88 23.77 109.15 24 109.46 24.15C109.78 24.29 110.14 24.36 110.53 24.36Z" fill="#969FA4" fill-opacity="1.000000" fill-rule="nonzero"/>
		<path id="Vector" d="M7.07 6.88C7.62 5.01 9.57 3.94 11.43 4.49L23.19 7.92C25.05 8.46 26.12 10.42 25.58 12.28L20.31 30.28C19.77 32.14 17.82 33.21 15.95 32.67L4.2 29.24C2.33 28.69 1.26 26.74 1.81 24.88L7.07 6.88ZM10.67 7.08C10.24 6.96 9.79 7.2 9.67 7.63L4.41 25.63C4.28 26.06 4.53 26.51 4.96 26.64L16.71 30.07C17.14 30.2 17.59 29.95 17.72 29.52L22.98 11.52C23.1 11.09 22.86 10.64 22.43 10.51L10.67 7.08Z" fill="#969FA4" fill-opacity="1.000000" fill-rule="evenodd"/>
		<path id="Vector" d="M14.41 3.71C14.96 1.85 16.91 0.78 18.77 1.32L30.53 4.75C32.39 5.3 33.46 7.25 32.92 9.11L27.65 27.11C27.11 28.98 25.16 30.05 23.29 29.5L11.54 26.07C9.68 25.53 8.61 23.57 9.15 21.71L14.41 3.71ZM18.02 3.92C17.59 3.79 17.13 4.04 17.01 4.47L11.75 22.47C11.62 22.9 11.87 23.35 12.3 23.48L24.05 26.91C24.48 27.03 24.93 26.79 25.06 26.36L30.32 8.36C30.44 7.93 30.2 7.48 29.77 7.35L18.02 3.92Z" fill="#969FA4" fill-opacity="1.000000" fill-rule="evenodd"/>
	</g>
</svg>
