<svg width="55.000000" height="55.000000" viewBox="0 0 55 55" fill="none" xmlns="http://www.w3.org/2000/svg" xmlns:xlink="http://www.w3.org/1999/xlink">
	<desc>
			Created with Pixso.
	</desc>
	<defs>
		<clipPath id="clip2_1049">
			<rect id="IMAGE" rx="0.000000" width="54.000000" height="54.000000" transform="translate(0.500000 0.500000)" fill="white" fill-opacity="0"/>
		</clipPath>
	</defs>
	<g clip-path="url(#clip2_1049)">
		<path id="Vector" d="M19.46 8.1C13.04 9.33 9.74 14.22 9.74 22.61C9.72 31.2 18.22 36.48 26.98 33.3L28.59 32.71C29.92 34.12 30.14 34.12 28.73 34.99C27.6 35.68 27.72 36.39 28.43 36.66C29.4 37.03 35.26 42.76 36.04 44.15C38.94 49.29 46.16 47.49 45.67 43.47C45.44 41.64 44.07 39.52 42.46 38.01C40.66 36.32 39.65 34.95 38.33 32.39C37.05 29.9 35.91 29.35 34.25 30.38C33.53 30.81 33.46 30.83 33.08 30.47C32.29 29.76 32.34 29.28 33.3 27.79C36.98 22.04 37.19 17.01 33.93 13.01C29.4 7.44 25.52 9.45 28.16 11.19C34.6 15.39 34.27 23.93 27.4 30.38C23.59 33.96 15.91 32.04 13.94 27.02C10.82 19.02 15.96 8.47 24.28 10.16C27.16 10.91 28.3 6.41 19.46 8.1ZM18.56 13.79C17.6 14.61 18.22 15.32 20.02 14.06C21.28 13.2 21.88 13.04 23.03 13.31C24.53 13.65 25.45 13.26 24.98 12.49C24.82 12.21 21.52 11.25 18.56 13.79ZM27.56 13.49C26.35 13.42 26.03 14.11 26.86 15C27.9 16.12 29.96 16.3 29.85 15.27C29.78 14.57 28.48 13.54 27.56 13.49ZM35.37 32.64C35.55 33.39 37.32 36.04 38.26 37.03C39.41 38.19 39.9 38.97 41.38 40.61C44.39 43.97 40.8 47.31 37.97 43.1C34.4 37.8 31.08 36.13 31.13 35.52C31.19 34.74 35.21 32 35.37 32.64Z" fill="#006B99" fill-opacity="1.000000" fill-rule="evenodd"/>
	</g>
</svg>
