<svg width="55.000000" height="55.000000" viewBox="0 0 55 55" fill="none" xmlns="http://www.w3.org/2000/svg" xmlns:xlink="http://www.w3.org/1999/xlink">
	<desc>
			Created with Pixso.
	</desc>
	<defs>
		<clipPath id="clip2_1056">
			<rect id="IMAGE" rx="0.000000" width="54.000000" height="54.000000" transform="translate(0.500000 0.500000)" fill="white" fill-opacity="0"/>
		</clipPath>
	</defs>
	<g clip-path="url(#clip2_1056)">
		<path id="Vector" d="M15.62 9.52C13.14 9.93 14.81 11.61 16.86 11.9C18.58 12.14 21.87 12.14 28.96 12.12C37.6 12.09 41.3 12.19 41.85 12.43C43.21 13.07 43.8 15.5 44.19 22.08C44.33 24.41 44.62 27.91 44.83 29.86C45.5 36.1 44.88 36.71 37.03 37.03C34 37.15 30.06 37.39 28.29 37.56C20.03 38.36 14.9 38.22 12.04 37.05C9.65 36.08 9.77 35.3 9.7 33.67C9.53 30.51 9.6 24.07 9.91 18.22C10.18 13.31 10.49 12.34 12.04 11.61C12.99 11.17 12.66 10.66 11.47 10.71C9.68 10.81 8.29 11.41 8.03 14.26C7.7 17.76 5.57 36.98 9.39 38.61C11.9 39.67 16.26 40.72 17.98 40.72C19.17 40.72 19.13 42.08 17.93 42.45C15.19 43.25 17.12 45.19 20.75 45.34C28.1 45.58 38.84 44.97 38.94 44.27C39.03 43.56 37.48 41.96 36.67 41.96C36.41 41.96 36.24 41.64 36.24 41.18C36.24 40.53 36.24 39.6 36.98 39.6C40.15 39.6 41.85 39.46 42.8 39.24C47.46 38.22 47.65 35.01 47.6 33.14C47.43 25.48 46.02 18.17 46.02 16.44C46 13.46 44.28 10.52 40.61 9.98C39.17 9.54 18.08 9.11 15.62 9.52ZM28.08 24.39C27.79 24.07 25.02 20.94 24.26 20.14C23.3 19.14 22.33 19.46 20.27 21.38C19.22 22.37 17.58 23.86 16.6 24.71C13.21 27.62 12.95 28.93 15.74 28.93C16.69 28.93 17.15 28.59 19.99 25.63C23.66 21.79 23.33 21.81 26.53 24.97C28.67 27.09 28.41 27.11 31.9 24.34C34.9 21.5 36.62 19.6 38.79 17.39C40.94 15.21 37.65 14.21 35.9 15.72C33.85 17.44 28.1 24.37 28.08 24.39ZM35.81 23.25C35.38 24.37 35.59 31.83 36.07 32.29C37.24 33.48 37.96 30.93 37.89 25.87C37.84 23.08 36.5 21.4 35.81 23.25ZM21.99 26.29C21.25 28.28 21.87 33.72 23.38 33.45C24.88 33.19 23.85 27.18 23.52 26.31C23.3 25.68 22.23 25.65 21.99 26.29ZM31.7 26.84C31.3 27.35 30.89 31.12 31.16 32.14C31.61 33.96 33.49 33.16 33.49 31.15C33.49 27.77 32.64 25.7 31.7 26.84ZM18.12 29.44C17.77 29.81 17.91 32.53 18.34 33.11C19.1 34.18 19.77 33.5 19.77 31.63C19.75 29.69 18.94 28.59 18.12 29.44ZM26.36 29.44C25.74 30.08 26.17 32.68 26.93 33.04C28.15 33.6 28.55 32.07 27.81 29.64C27.7 29.2 26.72 29.08 26.36 29.44ZM32.52 40.02C33.47 40.28 33.11 41.16 33.21 41.96L22.18 42.15C22.18 42.08 22.37 40.16 22.37 40.28C23.14 40.26 30.13 39.97 31.08 39.89C31.47 39.85 32.13 39.92 32.52 40.02Z" fill="#006B99" fill-opacity="1.000000" fill-rule="evenodd"/>
	</g>
</svg>
