<svg width="64.285721" height="72.000000" viewBox="0 0 64.2857 72" fill="none" xmlns="http://www.w3.org/2000/svg" xmlns:xlink="http://www.w3.org/1999/xlink">
	<desc>
			Created with Pixso.
	</desc>
	<defs/>
	<path id="Vector" d="M64.28 25.2L42.85 25.2L42.85 72L35.71 72L35.71 50.4L28.57 50.4L28.57 72L21.42 72L21.42 25.2L0 25.2L0 18L64.28 18L64.28 25.2ZM32.14 0C34.03 0 35.85 0.75 37.19 2.1C38.53 3.45 39.28 5.29 39.28 7.19C39.28 9.1 38.53 10.94 37.19 12.29C35.85 13.64 34.03 14.4 32.14 14.4C30.24 14.4 28.43 13.64 27.09 12.29C25.75 10.94 25 9.1 25 7.19C25 3.2 28.17 0 32.14 0Z" fill="#EC5863" fill-opacity="1.000000" fill-rule="nonzero"/>
</svg>
