<svg width="66.715576" height="72.000000" viewBox="0 0 66.7156 72" fill="none" xmlns="http://www.w3.org/2000/svg" xmlns:xlink="http://www.w3.org/1999/xlink">
	<desc>
			Created with Pixso.
	</desc>
	<defs/>
	<path id="Vector" d="M33.35 0C27.52 0 24.02 0.88 21.8 1.99C20.69 2.54 19.9 3.12 19.37 3.72C18.83 4.31 18.5 5.19 18.5 5.19C18.41 5.41 18.35 5.64 18.33 5.88L16.85 24.83C16.83 24.95 16.87 25.14 16.85 25.26L16.67 27.17C16.66 27.34 16.66 27.52 16.67 27.69C16.67 36.83 24.18 44.3 33.35 44.3C42.53 44.3 50.03 36.83 50.03 27.69L50.03 27.26C50.03 27.23 50.03 27.2 50.03 27.17L48.38 5.88C48.35 5.64 48.3 5.41 48.21 5.19C48.21 5.19 47.87 4.31 47.34 3.72C46.81 3.12 46.02 2.54 44.91 1.99C42.68 0.88 39.19 0 33.35 0ZM33.35 44.3C15.01 44.3 0 52.9 0 60.66L0 72L66.71 72L66.71 60.66C66.71 53.29 53.14 45.18 36.05 44.39C35.15 44.33 34.25 44.3 33.35 44.3ZM33.35 5.53C38.63 5.53 41.27 6.36 42.39 6.92C42.76 7.1 42.8 7.18 42.91 7.26L44.04 21.46C41.48 21.61 38 22.15 33.35 22.15C28.71 22.15 25.23 21.61 22.67 21.46L23.8 7.26C23.9 7.18 23.95 7.1 24.32 6.92C25.43 6.36 28.07 5.53 33.35 5.53ZM31.09 8.3L31.09 11.59L27.79 11.59L27.79 16.09L31.1 16.09L31.1 19.38L35.61 19.38L35.61 16.09L38.91 16.09L38.91 11.59L35.61 11.59L35.61 8.3L31.1 8.3L31.09 8.3ZM25.01 50.53L32.14 66.46L5.55 66.46L5.55 60.66C5.55 58.59 12.64 52.55 25.01 50.53ZM41.69 50.53C54.06 52.56 61.15 58.59 61.15 60.66L61.15 66.46L34.57 66.46L41.69 50.53Z" fill="#EC5863" fill-opacity="1.000000" fill-rule="nonzero"/>
</svg>
