<svg width="87.428589" height="72.000000" viewBox="0 0 87.4286 72" fill="none" xmlns="http://www.w3.org/2000/svg" xmlns:xlink="http://www.w3.org/1999/xlink">
	<desc>
			Created with Pixso.
	</desc>
	<defs/>
	<path id="Vector" d="M24.04 0C17.66 0 11.55 2.5 7.04 6.95C2.53 11.4 0 17.44 0 23.74C0 25.9 0.39 28.06 0.96 30.22L18.79 30.22L24.34 15.67C25.66 12.21 30.81 11.87 32.47 15.67L41.52 38.86L44.1 32.72C44.67 31.3 46.2 30.22 48.08 30.22L86.46 30.22C87.03 28.06 87.42 25.9 87.42 23.74C87.42 17.44 84.89 11.4 80.38 6.95C75.87 2.5 69.76 0 63.38 0C55.25 0 48.08 4.01 43.71 10.1C39.34 4.01 32.17 0 24.04 0ZM4.37 36.7C3.21 36.7 2.1 37.15 1.28 37.96C0.46 38.77 0 39.87 0 41.01C0 42.16 0.46 43.26 1.28 44.07C2.1 44.88 3.21 45.33 4.37 45.33L15.03 45.33L39.34 69.08C43.71 72.97 43.71 72.97 48.08 69.08L72.39 45.33L83.05 45.33C84.21 45.33 85.32 44.88 86.14 44.07C86.96 43.26 87.42 42.16 87.42 41.01C87.42 39.87 86.96 38.77 86.14 37.96C85.32 37.15 84.21 36.7 83.05 36.7L49.83 36.7L45.76 46.63C44.02 50.99 38.99 50.38 37.37 46.76L28.41 23.74L24.21 33.8C23.56 35.44 22.07 36.7 20.1 36.7L4.37 36.7Z" fill="#EC5863" fill-opacity="1.000000" fill-rule="nonzero"/>
</svg>
