<svg width="30.741943" height="34.733353" viewBox="0 0 30.7419 34.7334" fill="none" xmlns="http://www.w3.org/2000/svg" xmlns:xlink="http://www.w3.org/1999/xlink">
	<desc>
			Created with Pixso.
	</desc>
	<defs/>
	<path id="Vector" d="M18.53 5.11C16.66 4.33 14.64 4 12.62 4.13C10.61 4.26 8.65 4.86 6.9 5.88L5.13 6.9L3.09 3.35L4.86 2.32C7.15 0.99 9.71 0.21 12.36 0.03C15 -0.14 17.64 0.3 20.09 1.32C22.53 2.34 24.71 3.91 26.46 5.91C28.2 7.91 29.46 10.29 30.15 12.87C30.83 15.44 30.92 18.14 30.41 20.75C29.89 23.36 28.78 25.82 27.17 27.93C25.56 30.05 23.49 31.76 21.11 32.94C18.74 34.12 15.68 34.73 13.48 34.73C11.29 34.73 10.01 34.4 8.32 33.69C6.69 33.01 5.2 32.01 3.95 30.75C2.69 29.49 1.7 27.99 1.02 26.35C0.34 24.7 0 22.93 0 21.15C0 19.37 0.34 17.6 1.02 15.95C1.7 14.31 2.69 12.81 3.95 11.55C5.2 10.29 6.69 9.29 8.32 8.61C9.96 7.92 11.71 7.57 13.48 7.57C15.26 7.57 17.01 7.92 18.65 8.61C20.28 9.29 21.77 10.29 23.02 11.55C24.27 12.81 25.27 14.31 25.95 15.95C26.24 16.66 26.47 17.39 26.64 18.14C26.72 16.73 26.58 15.3 26.21 13.93C25.69 11.96 24.72 10.15 23.39 8.62C22.06 7.09 20.39 5.89 18.53 5.11ZM5.34 25.9C5.57 21.48 9.2 17.98 13.64 17.98C17.91 17.98 21.43 21.22 21.9 25.39C22 25.19 22.09 24.98 22.18 24.78C22.65 23.63 22.89 22.39 22.89 21.15C22.89 19.91 22.65 18.68 22.18 17.53C21.71 16.38 21.01 15.33 20.14 14.45C19.26 13.57 18.23 12.88 17.09 12.4C15.94 11.92 14.72 11.68 13.48 11.68C12.25 11.68 11.02 11.92 9.88 12.4C8.74 12.88 7.7 13.57 6.83 14.45C5.96 15.33 5.26 16.38 4.79 17.53C4.32 18.68 4.07 19.91 4.07 21.15C4.07 22.39 4.32 23.63 4.79 24.78C4.95 25.16 5.13 25.54 5.34 25.9ZM17.88 26.35C17.88 28.7 15.98 30.61 13.64 30.61C11.3 30.61 9.41 28.7 9.41 26.35C9.41 23.99 11.3 22.08 13.64 22.08C15.98 22.08 17.88 23.99 17.88 26.35Z" fill="#006B99" fill-opacity="1.000000" fill-rule="evenodd"/>
</svg>
