<svg width="106.000000" height="37.000000" viewBox="0 0 106 37" fill="none" xmlns="http://www.w3.org/2000/svg" xmlns:xlink="http://www.w3.org/1999/xlink">
	<desc>
			Created with Pixso.
	</desc>
	<defs>
		<clipPath id="clip2_635">
			<rect id="IMAGE" rx="0.000000" width="105.000000" height="36.000000" transform="translate(0.500000 0.500000)" fill="white" fill-opacity="0"/>
		</clipPath>
	</defs>
	<g clip-path="url(#clip2_635)">
		<path id="Vector" d="M43.15 29.58L37.55 9.62L41.42 9.62L44.99 24.29L45.17 24.29L48.98 9.62L52.5 9.62L56.32 24.3L56.5 24.3L60.07 9.62L63.93 9.62L58.33 29.58L54.79 29.58L50.82 15.58L50.67 15.58L46.69 29.58L43.15 29.58ZM69.49 20.81L69.49 29.58L65.99 29.58L65.99 9.62L69.42 9.62L69.42 17.15L69.59 17.15C69.94 16.31 70.48 15.64 71.21 15.16C71.94 14.66 72.88 14.42 74.01 14.42C75.05 14.42 75.95 14.63 76.72 15.07C77.48 15.5 78.08 16.14 78.5 16.98C78.92 17.82 79.14 18.84 79.14 20.05L79.14 29.58L75.63 29.58L75.63 20.59C75.63 19.59 75.37 18.8 74.86 18.25C74.35 17.68 73.63 17.4 72.71 17.4C72.09 17.4 71.53 17.53 71.04 17.81C70.56 18.07 70.18 18.46 69.9 18.97C69.63 19.47 69.49 20.09 69.49 20.81ZM82.43 29.58L82.43 14.61L85.94 14.61L85.94 29.58L82.43 29.58ZM84.2 12.49C83.64 12.49 83.16 12.3 82.76 11.93C82.36 11.56 82.16 11.1 82.16 10.58C82.16 10.05 82.36 9.59 82.76 9.22C83.16 8.85 83.64 8.66 84.2 8.66C84.76 8.66 85.23 8.85 85.63 9.22C86.03 9.59 86.23 10.05 86.23 10.58C86.23 11.1 86.03 11.56 85.63 11.93C85.23 12.3 84.76 12.49 84.2 12.49ZM89.27 29.58L89.27 14.61L92.67 14.61L92.67 17.11L92.82 17.11C93.09 16.24 93.56 15.58 94.21 15.11C94.88 14.63 95.64 14.4 96.49 14.4C96.68 14.4 96.9 14.41 97.14 14.43C97.38 14.44 97.59 14.46 97.75 14.49L97.75 17.74C97.6 17.69 97.36 17.64 97.04 17.6C96.72 17.56 96.42 17.53 96.12 17.53C95.48 17.53 94.91 17.67 94.4 17.95C93.89 18.23 93.5 18.61 93.21 19.09C92.92 19.58 92.77 20.14 92.77 20.78L92.77 29.58L89.27 29.58ZM103.31 9.62L103.31 29.58L99.8 29.58L99.8 9.62L103.31 9.62Z" fill="#2D2D2D" fill-opacity="1.000000" fill-rule="nonzero"/>
		<path id="Vector" d="M18.53 5.61C16.66 4.83 14.64 4.5 12.62 4.63C10.61 4.76 8.65 5.36 6.9 6.38L5.13 7.4L3.09 3.85L4.86 2.82C7.15 1.49 9.71 0.71 12.36 0.53C15 0.36 17.64 0.8 20.09 1.82C22.53 2.84 24.71 4.41 26.46 6.41C28.2 8.42 29.46 10.8 30.15 13.37C30.83 15.94 30.92 18.64 30.41 21.25C29.89 23.86 28.78 26.32 27.17 28.44C25.56 30.55 23.49 32.26 21.11 33.44C18.74 34.62 15.68 35.23 13.48 35.23C11.29 35.23 10.01 34.9 8.32 34.2C6.69 33.51 5.2 32.51 3.95 31.25C2.69 29.99 1.7 28.5 1.02 26.85C0.34 25.2 0 23.44 0 21.65C0 19.87 0.34 18.1 1.02 16.46C1.7 14.81 2.69 13.31 3.95 12.05C5.2 10.79 6.69 9.79 8.32 9.11C9.96 8.43 11.71 8.08 13.48 8.08C15.26 8.08 17.01 8.43 18.65 9.11C20.28 9.79 21.77 10.79 23.02 12.05C24.27 13.31 25.27 14.81 25.95 16.46C26.24 17.17 26.47 17.9 26.64 18.64C26.72 17.23 26.58 15.81 26.21 14.43C25.69 12.47 24.72 10.65 23.39 9.12C22.06 7.59 20.39 6.39 18.53 5.61ZM5.34 26.4C5.57 21.99 9.2 18.48 13.64 18.48C17.91 18.48 21.43 21.72 21.9 25.89C22 25.69 22.09 25.49 22.18 25.28C22.65 24.13 22.89 22.9 22.89 21.65C22.89 20.41 22.65 19.18 22.18 18.03C21.71 16.88 21.01 15.83 20.14 14.95C19.26 14.08 18.23 13.38 17.09 12.9C15.94 12.43 14.72 12.18 13.48 12.18C12.25 12.18 11.02 12.43 9.88 12.9C8.74 13.38 7.7 14.08 6.83 14.95C5.96 15.83 5.26 16.88 4.79 18.03C4.32 19.18 4.07 20.41 4.07 21.65C4.07 22.9 4.32 24.13 4.79 25.28C4.95 25.66 5.13 26.04 5.34 26.4ZM17.88 26.85C17.88 29.2 15.98 31.11 13.64 31.11C11.3 31.11 9.41 29.2 9.41 26.85C9.41 24.49 11.3 22.58 13.64 22.58C15.98 22.58 17.88 24.49 17.88 26.85Z" fill="#006B99" fill-opacity="1.000000" fill-rule="evenodd"/>
	</g>
</svg>
