<svg width="452.000000" height="422.000000" viewBox="0 0 452 422" fill="none" xmlns="http://www.w3.org/2000/svg" xmlns:xlink="http://www.w3.org/1999/xlink">
	<desc>
			Created with Pixso.
	</desc>
	<defs>
		<clipPath id="clip2_670">
			<rect id="IMAGE" rx="0.000000" width="451.000000" height="421.000000" transform="translate(0.500000 0.500000)" fill="white" fill-opacity="0"/>
		</clipPath>
	</defs>
	<g clip-path="url(#clip2_670)">
		<path id="Vector" d="M17.38 50.03L452 50.03L452 422L17.38 422L17.38 50.03Z" fill="#DEF2F7" fill-opacity="1.000000" fill-rule="evenodd"/>
		<path id="Vector" d="M380.38 25.82C379.89 26.98 382.17 53.25 378.71 95.73C376.51 122.94 379.63 148.02 379.75 181.72C379.75 206.29 377.45 240.09 377.79 264.26C378.14 302.02 379.42 333.69 380.07 353.73C380.54 368.3 368.5 376.91 351.57 376.63C313.77 376.02 244.49 374.66 182.18 373.22C160.14 372.75 144.17 368.97 125.59 368.56C109.99 368.2 91.03 371.22 80.06 370.98L53.04 370.37C53.04 370.37 62.87 71.97 62.87 70.98C63.85 61.68 64.05 52.31 63.46 42.97L64.13 27.56C64.13 27.56 62.93 24.64 70.79 24.13C78.66 23.62 160.2 23.62 160.2 23.62L380.38 25.82Z" fill="#FFFFFF" fill-opacity="1.000000" fill-rule="nonzero"/>
		<path id="Vector" d="M279.93 377.97C279.93 377.59 284.06 353.03 284.23 349.86C284.41 346.69 283.19 337.08 289.88 338.22C296.56 339.36 337.69 346.77 337.69 346.77L334.62 382.2C334.62 382.2 321.76 382.55 313.83 382.73C305.91 382.91 289.88 381.93 286.71 381.85C283.54 381.77 278.94 382.2 279.93 377.97Z" fill="#FFEF5F" fill-opacity="1.000000" fill-rule="nonzero"/>
		<path id="Vector" d="M56.56 252.59C56.56 252.59 44.89 274.24 44.89 274.54C44.89 274.83 40.04 372.3 42 371C43.97 369.7 52.94 370.45 52.94 370.45L56.56 252.59Z" fill="#D8E9FF" fill-opacity="1.000000" fill-rule="nonzero"/>
		<path id="Vector" d="M56.32 154.43L60.1 150.38L64.13 27.56C64.13 27.56 64.82 24.13 70.03 23.99C75.24 23.85 381.17 25.72 381.17 25.72L379.56 11.18C371.69 13.3 58.99 9.56 54.86 14.9C51.99 18.62 52.29 26.43 52.29 26.43C52.29 26.43 47.8 168.17 48.35 166.86C48.91 165.54 54.43 155.81 56.32 154.43Z" fill="#D8E9FF" fill-opacity="1.000000" fill-rule="nonzero"/>
		<path id="Vector" d="M12.52 246.47L25.36 227.92C25.36 227.92 36.71 210.09 38.58 203.96C40.45 197.84 43.28 189.32 44.48 184.51C45.68 179.71 48.92 169.61 48.92 169.61C48.92 169.61 55.12 156.21 56.28 154.43C57.44 152.66 61.94 150.5 64.62 148.39C67.29 146.28 84.28 142.33 87.23 140.87C90.18 139.41 98.23 141.01 101.51 140.87C104.8 140.73 110.36 141.97 114.45 140.87C118.54 139.77 126.78 140.04 126.86 143.59C126.81 146.71 126.54 149.83 126.06 152.92C126.06 152.92 119.51 159.04 124.09 161.87C128.67 164.71 132.15 169.16 130.42 170.54C128.73 171.57 126.85 172.28 124.9 172.62C124.9 181.3 124.33 178.84 124.44 189.14C124.13 190.38 123.5 191.53 122.61 192.46C121.73 193.39 120.62 194.08 119.39 194.45C115.32 195.52 116.24 185.34 114.08 186.58C107.87 190.32 106.37 188.35 106.02 190.04C105.66 191.74 103.34 196.09 99.17 203.27C95 210.46 88.49 225.17 73.25 233.51C58.01 241.86 54.1 256.51 51.62 261.29C49.14 266.07 33.96 299.22 22.18 324.15L12.96 342.53C12.3 336.11 12.09 329.64 12.35 323.18C12.88 314.74 11.89 293.44 11.72 284.2C11.54 274.97 11.19 250.56 12.52 246.47Z" fill="#FFCEB6" fill-opacity="1.000000" fill-rule="nonzero"/>
		<path id="Vector" d="M214.54 250.36L212.27 238.55C212.46 229.35 212.13 220.15 211.27 210.99C211.27 210.99 214.52 197.21 220.51 194.22C220.51 194.22 223.78 188.67 225.9 184.12C228.03 179.57 232.02 177.86 234.28 175.73C236.54 173.61 242.82 167.62 245.08 170.18C246.55 171.85 247.93 173.61 249.21 175.44L252.94 169.53C252.94 169.53 255.3 161.66 259.02 161.66C262.74 161.66 266.24 164.83 266.55 166.89C266.87 168.96 267.91 172.8 266.95 175.93C265.98 179.06 263.84 184.06 270.23 185.77C276.62 187.49 273.97 190.12 274.93 192.21C275.89 194.3 282.54 197.19 282.42 200.54C282.31 203.88 280.81 206.44 282.42 209.32C282.42 209.32 287.12 222.41 285.87 226.35C284.61 230.28 276.37 246.7 275.54 249.97C274.71 253.24 267.48 266.51 266.89 269.36C266.3 272.21 265.81 283.97 265.29 288.16C264.78 292.35 263.88 299.97 264.55 302.94C265.22 305.92 267.58 329.97 268.48 334.78C269.39 339.58 272.98 375.23 272.65 375.82C272.32 376.41 251.96 378.15 244.25 378.91C236.54 379.68 221.4 379.7 216.46 379.62C211.53 379.54 208.32 379.72 209.5 378.36C210.68 377 209.99 369.21 210.76 365.33C211.53 361.45 215.07 344.68 215.38 338.89C215.7 333.1 218.39 316.15 219.06 310.13C219.73 304.11 220.24 293.53 220.16 288.75C220.2 283 219.48 277.27 218.04 271.7C216.15 264.71 215.13 253.37 214.54 250.36Z" fill="#FFCEB6" fill-opacity="1.000000" fill-rule="nonzero"/>
		<path id="Vector" d="M111.54 295.88C109.73 312.03 107.95 328.19 106.19 344.34C102.35 342.87 98.41 341.69 94.39 340.8C90.71 339.46 86.84 338.71 82.93 338.6C81.41 338.28 79.96 337.65 78.44 337.28C71.25 335.47 73.47 343.18 81.06 288.22C91.46 289.71 101.67 292.28 111.54 295.88Z" fill="#DEF2F7" fill-opacity="1.000000" fill-rule="nonzero"/>
		<path id="Vector" d="M335.78 46.06C350.98 47.73 351.24 46.24 351.02 48.03C348.68 66.87 349.05 70.39 347.6 75.24C345.49 82.24 342.96 97.97 340.01 97.89C311.51 97.26 333.77 98.66 309.01 96.34C302.54 95.73 299.36 96.73 297.49 96.34C302.35 84.07 301.97 84.53 305.53 68.64C309.88 49.13 307.14 59.47 309.07 45.23C332.36 45.1 324.49 44.84 335.78 46.06Z" fill="#FFEF5F" fill-opacity="1.000000" fill-rule="nonzero"/>
		<path id="Vector" d="M265.73 46.47C267.69 46.18 268.72 46.14 268.56 47.83C264.82 88.66 267.85 61.42 263.66 90.16C263.39 91.97 263.47 92.13 261.7 92.3C255.8 92.62 235.15 91.56 222.17 92.81C224.74 84 226.35 74.93 226.98 65.77C226.98 65.77 228.24 46.08 229.38 45.92C233.47 45.68 237.57 45.78 241.64 46.22C244.57 46.34 263.72 46.79 265.73 46.47Z" fill="#DEF2F7" fill-opacity="1.000000" fill-rule="nonzero"/>
		<path id="Vector" d="M254.81 119.21C257.35 119.43 259.12 119 259.02 121.05C258.24 131.1 256.93 141.11 255.09 151.03C252.26 167.68 252.83 165.24 248.87 172.15C244.68 167.39 245.57 167.82 242.78 167.88C237.94 167.88 235.93 174.53 232.94 172.86C232.08 172.39 217.94 172.09 212.39 170.69C212.39 169.3 213.08 163.61 215.24 150.16C216.95 139.65 217.21 120.28 218.17 119.53C217.27 118.96 216.74 118.94 226.95 119.41C233.34 118.93 239.77 118.86 246.18 119.21C250.53 119.33 246.24 118.41 254.81 119.21Z" fill="#FFEF5F" fill-opacity="1.000000" fill-rule="nonzero"/>
		<path id="Vector" d="M322.6 117.46C337.96 118.71 341.37 117.24 341.16 118.95C339.8 138.42 332.23 157.3 326.08 174.5C325.21 176.95 324.47 179.57 323.48 179.45C316.28 178.49 298.34 174.09 298.29 174.09C297.14 173.85 295.92 173.89 294.77 173.66C289.9 172.64 288.85 171.99 286.13 171.94C278.7 171.94 279.46 171.7 279.24 171.09C283.01 163.09 284.99 160.25 291.14 135.23C296.42 113.82 289.53 117.38 299.91 117.24C299.91 117.24 307.85 116.42 310.42 116.38C311.87 116.36 308.63 116.32 322.6 117.46Z" fill="#006B99" fill-opacity="1.000000" fill-rule="nonzero"/>
		<path id="Vector" d="M344.57 236.86C340.64 297.16 341.44 277.2 339.95 306.15C336.82 307.89 321.97 303.04 316.8 302.35C310.29 301.47 310.49 301.53 310.07 301.33C307.01 299.72 304.9 300.09 294.01 297.63C292.63 297.31 291.47 296.57 290.63 296.49C287.99 296.21 289.13 295.42 289.45 288.95C290 277.55 296.37 231.11 296.41 230.44C298.12 230.78 311.02 232.67 311.76 232.41C314.21 231.82 316.43 232.92 318.77 233.26C343.39 236.82 332.04 234.5 344.57 236.86Z" fill="#FFCCDD" fill-opacity="1.000000" fill-rule="nonzero"/>
		<path id="Vector" d="M215.4 323.57C211.29 355.07 209.5 357.71 208.08 371.75L196.66 369.27C197.01 360.64 200.81 327.93 201.75 320.05L215.4 323.57Z" fill="#006B99" fill-opacity="1.000000" fill-rule="nonzero"/>
		<path id="Vector" d="M175.24 313.3C177.64 313.95 172.35 340.62 169.48 367.85C150.64 362.22 159.65 362.61 147.71 359.98C144.76 359.37 145.29 360.37 139.25 357.73C136.95 356.75 135.32 356 135.44 355.03C137.4 341.63 138.5 340.53 138.78 335.9C139.19 329.15 142.46 306.74 142.71 304.62C153.9 308.71 149.46 306.27 175.24 313.3Z" fill="#FFCCDD" fill-opacity="1.000000" fill-rule="nonzero"/>
		<path id="Vector" d="M211.76 244.97C216.17 258.41 211.57 251.82 218.06 282.37C211.92 281.9 206.37 279.83 200.51 278.87C200.51 278.87 207.99 216.35 208.71 216.66C209.44 216.98 210.07 216.48 210.11 217.47C210.68 233.49 208.46 235.13 211.76 244.97Z" fill="#FFEF5F" fill-opacity="1.000000" fill-rule="nonzero"/>
		<path id="Vector" d="M187.97 214.18C185.17 233.39 181.46 252.31 177.72 271.27C174.63 269.71 177.13 274.03 155.22 268.14C151.15 267.06 147.02 265.23 143.27 265.88C141 265.94 138.75 265.69 136.56 265.13C143.46 238.93 138.53 257.53 141.81 241.03C144.35 227.98 142.66 230.15 143.48 225.09C144.64 217.9 144.76 222.29 146.1 210.22C155.64 212.43 152.31 211.42 164.05 211.48C169.22 211.56 179.98 214.18 187.97 214.18Z" fill="#DEF2F7" fill-opacity="1.000000" fill-rule="nonzero"/>
		<path id="Vector" d="M118.31 207.35C110.44 248.02 117.44 217.9 107.83 259.6C107.33 261.7 95.67 258.1 78.01 254.73C76.44 254.44 76.77 253.37 76.91 252.76C83.62 227.03 81.77 228.96 82.81 228.18C93.35 220.79 97.62 205.89 100.29 206.15C107.98 206.95 114.77 206.7 118.31 207.35Z" fill="#006B99" fill-opacity="1.000000" fill-rule="nonzero"/>
		<path id="Vector" d="M118.17 119.12C118.17 126.81 117.33 129.71 117.07 138.09C117.08 138.2 117.07 138.3 117.04 138.4C117 138.5 116.95 138.59 116.88 138.66C116.81 138.74 116.72 138.8 116.62 138.83C116.53 138.87 116.43 138.89 116.32 138.88C113.69 139.08 111.05 139.37 108.46 139.43C99.88 139.63 98.62 136.42 88.24 138.7C89.14 131.89 90.03 125.28 90.91 118.51C112.86 118.92 93.96 119.12 118.17 119.12Z" fill="#FFEF5F" fill-opacity="1.000000" fill-rule="nonzero"/>
		<path id="Vector" d="M188.04 121.71C188.04 154.92 187.89 152.44 185.78 166.99C153.57 165.89 167.12 165.63 151.15 164.83C151.15 163.43 151.35 152.52 152.64 152.09C156.58 150.73 165.02 149.04 167.67 146.64C168.65 145.75 169.2 144.47 167.95 143.49C166.69 142.5 163.6 141.89 153.2 143.49C153.77 136.1 154.34 128.88 154.87 121.83C170.86 120.42 179.9 122.5 188.04 121.71Z" fill="#FFCCDD" fill-opacity="1.000000" fill-rule="nonzero"/>
		<path id="Vector" d="M194.83 46.67C194.83 55.04 195.16 48.97 192.86 65.02C189.09 91.69 188.93 89.53 187.49 89.27C182.13 88.25 177.8 89.27 170.6 89.04C168.63 89.04 168.63 89.41 157.27 90.04C155.1 90.18 153.86 90.73 154.18 88.84C154.95 84.19 154.87 83.29 156.93 70.94C158.45 61.93 158.9 62.7 159.23 56.38C159.59 49.01 159.61 47.3 160.57 47.69C162.69 48.56 164.5 47.69 172.25 46.47C177.01 45.73 175.07 46.61 186.75 46.85C190.23 46.93 192.86 46.47 194.83 46.67Z" fill="#FFCCDD" fill-opacity="1.000000" fill-rule="nonzero"/>
		<path id="Vector" d="M129.79 47.71C130.42 47.71 126.29 77.77 124.21 84.21C122.69 88.76 126.55 86.61 109.91 86.61C105.32 86.5 100.72 86.67 96.14 87.11C93.61 87.11 94.55 87.26 97.34 74.21C97.34 74.21 100.59 51.42 100.59 47.52C106.06 47.99 102.67 47.52 108.16 47.52C122.5 47.83 123.64 47.44 129.79 47.71Z" fill="#FFEF5F" fill-opacity="1.000000" fill-rule="nonzero"/>
		<path id="Vector" d="M382.11 11.1C382.11 13.2 385.12 12.85 225.67 13.5C46.15 14.21 57.34 13.24 54.94 17.99C53.25 21.33 53.84 19.96 52.66 60.79C49.16 181.7 47.06 167.21 54.94 153.82C60.21 144.92 57.85 167.94 60.39 92.05C61.75 51.36 62.36 31.34 62.63 28.58C62.97 24.88 64.6 22.95 68.2 22.95C74.1 22.95 372.14 24.27 380.89 24.76C384.02 24.92 382.41 26.85 381.21 26.98C380.15 27.97 69.69 24.76 65.78 25.98C64.78 26.3 61.57 148.66 61.57 148.7C82.42 139.57 85.58 140.65 85.58 138.7C85.58 133.98 86.41 134.25 87.55 123.76C88.34 116.44 87.77 116.46 90.6 116.08C100.2 114.84 101.38 116.87 116.58 116.08C118.27 116.08 120.51 115.87 120.51 117.19C121.93 144.49 116.03 136.54 124.9 139.77C126.16 140.34 127.2 141.32 127.86 142.54C128.53 143.76 128.78 145.16 128.57 146.54C128.38 147.64 147.28 144.25 147.39 144.24C150.78 143.68 150.13 146.97 151.62 127.82C152.23 119.77 151.62 119.17 153.08 118.78C153.71 118.55 154.38 118.47 155.04 118.54C157.31 119.04 159.43 118.17 161.61 118.11C164.68 117.99 184.66 118.62 184.7 118.62C193 118.62 190.5 114.69 190.76 136.99C191.11 149.39 190.27 154.51 188.4 168.06C188.24 169.08 187.97 169.91 186.67 169.75C186.55 169.75 186.41 169.93 186.27 169.96C182.34 171.01 153.45 168.69 151.76 168C148.16 166.4 147.02 171.93 149.4 154.22C149.4 153.84 149.4 153.45 149.4 153.07C140.75 155.04 132.39 157.82 123.42 158.98C128.53 163.86 131.86 165.77 130.36 170.58C130.08 171.58 129.5 172.47 128.71 173.13C127.91 173.8 126.93 174.21 125.9 174.32C126.67 184.04 125.55 178.94 125.9 184.69C126.23 191.01 125.9 195.85 120 196.29C115.36 196.64 113.9 193.81 113.33 189.73C113.1 187.92 114.08 187.76 111.76 188.82C104.25 192.21 109.66 189.57 103.13 199.24C102.33 200.63 101.67 202.09 101.16 203.61C111.66 204.53 116.48 202.66 120.47 205.58C121.18 206.09 117.93 226.31 115.26 241.35C112.66 256.03 113.29 248.75 110.46 261.58C109.97 263.79 110.09 264.36 92.49 260.6C91.58 260.4 90.76 259.81 89.87 259.62C85.47 258.67 78.74 257.65 74.96 256.43C71.54 255.38 74.02 254.46 79.43 231.29C79.72 229.99 78.92 231.29 76.14 233.26C67.96 239.16 65.52 239.93 61.96 245.07C56.06 253.71 58.8 236.9 55.04 342.75C54.04 370.82 55.04 371.73 52.56 371.67C50.85 371.67 50.91 376.61 54.43 272.47C55.16 250.82 56.4 252.94 49.61 268.02C44.56 279.22 46.47 263.45 43.71 345.53C42.91 370.92 43.46 370.55 41.85 370.76C39.49 371.08 40.04 370.76 40.66 350.33C42.91 277.29 42.99 282.35 42.51 282.2C21.79 325.92 30.36 310.37 18.62 334.34C16.63 337.66 14.83 341.1 13.23 344.62C13.09 344.96 12.82 345.24 12.47 345.38C12.13 345.53 11.75 345.53 11.4 345.39C11.06 345.25 10.78 344.98 10.64 344.63C10.5 344.29 10.49 343.9 10.63 343.56C13.94 335.05 16.67 332.53 23.34 317.16C31.32 298.77 25.31 310.58 40.47 279.75C49.83 260.7 53.27 251.35 57.83 244.93C60.96 240.52 64.4 238.04 71.6 232.57C87.79 220.11 86.02 223.9 99.47 199.79C100.27 198.35 101.26 197.03 102.02 195.58C107.06 186.11 103.09 190.56 111.62 185.42C112.21 185.06 111.74 182.37 113.35 182.25C113.49 182.23 113.63 182.23 113.77 182.27C113.91 182.3 114.03 182.37 114.14 182.45C114.25 182.54 114.35 182.65 114.41 182.77C114.48 182.9 114.52 183.03 114.53 183.18C114.53 183.69 115 184.16 115.12 184.67C115.5 187.19 116.16 189.65 117.09 192.01C117.76 193.19 122.83 193.78 122.99 189.79C123.21 182.27 124.56 186.23 120.02 185.06C111.39 182.88 113.35 177.78 111.96 172.5C109.2 174.61 105.7 174.47 102.91 176.6C104.48 179.97 106.35 183.49 104.74 184C103.13 184.51 103.11 182.54 100.98 178.55C99.66 176.09 95.81 170.67 97.38 170.24C98.96 169.81 99.68 171.6 101.55 173.92C111.52 170.5 108.18 171.38 111.88 169C111.32 167.71 110.44 166.59 109.32 165.75C108.59 165.06 109.87 164.18 110.42 164.34C117.13 166.3 120.26 172.48 126.16 170.71C127.22 170.4 128.67 167.62 127.12 166.26C126.57 165.77 121.44 161.09 121.34 160.83C120.63 158.86 119.59 159.98 112.29 161.42C110.62 161.76 108.91 161.89 107.24 162.19C99.72 163.53 102.67 166.64 90.42 174C82.04 179.14 82.95 179.43 80.94 182.51C78.94 185.58 78.21 187.15 79.13 189.12C83.24 197.94 83.28 199.45 82.48 206.29C82.18 208.85 82.04 210.44 80.51 210.22C77.95 209.75 81.94 203.61 79.6 197.09C74.1 221.56 68.32 216.78 69.97 213.96C73.27 208.55 73.31 209.24 74.83 203.88C76.34 198.53 76.3 199.45 76.34 190.73C75.8 189.84 75.51 188.82 75.51 187.78C75.51 186.74 75.8 185.72 76.34 184.83C84.3 169.2 85.68 177.19 100.57 161.6C105.25 156.7 102.36 151.75 97.99 151.3C99.96 154.43 101.4 155.83 98.48 159.75C96.08 163 89.77 163.51 89.16 159.41C89.06 158.74 89.56 156.75 90.89 157.45C92.23 158.13 91.4 160.02 93.49 159.41C97.8 158.29 98.33 155.89 96.44 153.51C94.55 151.13 94.63 151.54 91.56 152.92C75.83 160.4 73.57 163.69 70.54 167.09C59.03 180.08 56.63 175.44 49.5 190.71C49.34 191.03 49.24 191.99 47.53 191.86C46.49 191.76 48.24 187.58 48.57 186.84C54.47 173.61 65.23 172.37 57.17 173.75C54.46 173.99 51.79 174.53 49.2 175.34C47.23 175.91 44.72 189.81 40.63 201.36C39.49 204.65 38.17 207.88 36.69 211.03C27.13 229.54 23.16 233.91 15.79 243.98C13.82 246.62 13.41 248.32 11.85 247.92C7.35 246.82 15.33 243.26 31.99 213.55C38.34 202.23 39.23 194.83 44.13 179.3C44.99 176.52 45.94 175.54 44.64 175.52C42.97 175.52 41.08 176.26 39.72 173.55C37.75 169.45 38.62 165.52 44.24 163.71C47.61 162.66 46.39 168.19 47.63 128.07C47.63 128.07 50.97 22.44 51.42 19.94C52.98 11.37 48.39 10.66 136.19 10.66C162.24 10.66 196.62 9.96 241.46 10.07C386.18 10.63 382.13 8.64 382.11 11.1ZM185.78 167.09C187.89 152.44 188.04 154.92 188.04 121.81C179.9 122.6 170.86 120.51 154.87 122.07C154.34 129.1 153.77 136.32 153.2 143.72C163.6 142.11 166.63 142.68 167.95 143.72C169.26 144.77 168.65 145.99 167.67 146.87C165.02 149.27 156.68 150.97 152.64 152.33C151.35 152.76 151.15 163.67 151.15 165.06C167.16 165.73 153.57 165.99 185.78 167.09ZM165 145.44C165 144.59 162.24 145.14 161.06 145.28C150.91 146.4 152.15 146.34 152 149.22C161.77 147.25 164.9 146.18 165 145.36L165 145.44ZM124.21 147.9C126.18 147.58 125.96 142.76 122.71 142.25C118.23 141.56 111.54 142.44 106.1 142.37C101.47 142.37 94.59 140.06 90.89 141.2C68.16 148.19 57.46 150.65 54.35 161.8C64.56 158.72 78.86 158.02 89.4 151.03C92.18 149.34 95.37 148.44 98.62 148.41C106.84 151.4 99.39 151.74 124.21 147.9ZM115.46 176.72C115.65 182.8 124.15 183.9 123.6 179.75C123.34 177.94 123.32 176.09 123.21 174.12C119.27 174.28 117.03 171.42 113.96 169.61C114.84 171.88 115.35 174.28 115.46 176.72ZM117.07 138.09C117.33 129.71 118.17 126.81 118.17 119.12C93.96 119.12 112.86 118.92 90.87 118.51C89.99 125.28 89.1 131.89 88.2 138.7C98.6 136.42 99.84 139.63 108.42 139.43C111.05 139.43 113.69 139.08 116.28 138.88C116.39 138.89 116.5 138.88 116.6 138.85C116.7 138.81 116.79 138.75 116.87 138.68C116.94 138.6 117 138.51 117.04 138.41C117.07 138.31 117.08 138.2 117.07 138.09ZM107.83 259.6C117.42 217.88 110.38 248.02 118.31 207.35C114.77 206.62 107.98 206.95 100.39 206.21C97.72 205.95 93.45 220.85 82.91 228.24C81.77 229.02 83.62 227.09 77.01 252.82C76.87 253.37 76.54 254.44 78.11 254.79C95.67 258.1 107.33 261.7 107.83 259.6Z" fill="#000001" fill-opacity="1.000000" fill-rule="nonzero"/>
		<path id="Vector" d="M351.22 44.33C352.04 44.33 353.95 44.49 353.83 47.3C353.2 62.75 348.62 89.86 343.57 100.36C343.19 101.1 342.96 101.14 337.04 100.95C310.96 100.06 336.11 101.58 309.74 99.15C301.72 98.41 292.73 100.75 294.74 95.55C298.94 84.72 299.99 79.8 303.72 64.41C308.58 44.33 302.35 42.36 309.49 42.36C349.25 42.42 321.36 43.3 351.22 44.33ZM351.02 47.95C351.24 46.24 351.02 47.73 335.78 45.98C324.47 44.76 332.32 45.02 309.07 45.02C307.1 59.25 309.88 48.95 305.53 68.42C301.97 84.39 302.35 83.86 297.49 96.12C299.36 96.58 302.54 95.57 309.01 96.12C333.77 98.45 311.51 97.05 340.01 97.68C342.96 97.68 345.49 82.03 347.6 75.02C349.03 70.31 348.68 66.79 351.02 47.95Z" fill="#000001" fill-opacity="1.000000" fill-rule="nonzero"/>
		<path id="Vector" d="M347.32 235.68C347.32 236.13 346.32 260.03 346.1 262.35C345.41 269.87 345.06 273.2 344.9 274.46C344.45 290.48 342.6 302.02 343.39 302.14C342.21 312.59 345.36 312.26 321.19 306.72C315.98 305.54 312.14 305.15 308.66 304.4C307.34 304.13 306.12 303.44 304.73 303.14C301.24 302.35 297.72 301.7 294.2 300.94C293.12 300.7 291.21 299.83 287.85 298.97C284.96 298.26 285.89 297.51 286.32 287.61C286.67 282.2 287.32 276.82 288.28 271.49C288.79 263.25 289.72 255.04 291.06 246.9C291.53 243.96 292.32 240.68 293.65 232.06C294.13 228.96 293.52 227.19 295.62 227.45C311.65 229.42 311.35 229.3 312.45 229.06C314.17 228.69 326.54 231.45 326.57 231.45C330.94 231.55 335.3 231.9 339.63 232.49C347.21 234.04 347.18 231.94 347.32 235.68ZM339.95 306.15C341.44 277.2 340.68 297.16 344.57 236.86C332.04 234.5 343.39 236.86 318.77 233.35C316.43 233.02 314.21 231.92 311.76 232.51C311.02 232.67 298.12 230.78 296.41 230.54C296.41 231.21 290 277.65 289.45 289.04C289.13 295.52 287.99 296.31 290.63 296.59C291.47 296.59 292.59 297.41 294.01 297.73C304.9 300.19 307.01 299.81 310.07 301.43C310.49 301.63 310.29 301.57 316.8 302.45C321.97 303.04 336.82 307.89 339.95 306.15Z" fill="#000001" fill-opacity="1.000000" fill-rule="nonzero"/>
		<path id="Vector" d="M342.31 117.09C343.76 124.31 340.46 139.79 336.41 152.52C334.44 158.8 331.89 165.73 330.76 168.94C326.26 181.74 327.24 177.82 326.54 179.83C325.93 181.52 326.38 181.64 320.64 180.52C320.64 180.52 291 174.61 290.05 174.3C287.6 173.35 284.15 174.18 278.37 173.06C275.68 172.52 277.07 169.95 277.92 168.02C282.32 158.17 281.66 163.03 290.23 127.09C291.18 123.15 289.86 125.12 292.43 116.1C292.65 115.36 293.06 115.43 298.04 114.82L298.04 115.22C313.77 112.95 305.49 114.65 323.96 115.04C328.15 115.8 332.43 115.92 336.66 115.41C338.36 115.18 341.99 115.61 342.31 117.09ZM339.61 119.86C339.73 118.21 336.49 119.63 321.91 118.43C308.6 117.32 311.69 117.36 310.39 117.38C307.93 117.38 300.36 118.21 300.36 118.21C290.53 118.35 297.04 114.92 292 135.53C286.1 159.61 284.25 162.35 280.65 170.04C280.87 170.63 280.14 170.77 287.22 170.87C289.82 170.87 290.82 171.54 295.46 172.52C296.56 172.74 297.72 172.7 298.83 172.94C298.83 172.94 315.97 177.17 322.84 178.1C323.78 178.21 324.49 175.69 325.32 173.33C331.1 156.78 338.26 138.61 339.61 119.86Z" fill="#000001" fill-opacity="1.000000" fill-rule="nonzero"/>
		<path id="Vector" d="M323.88 342.95C342.27 346.08 340.16 340.23 338.24 361.02C336.45 380.31 336.68 384.33 333.97 383.83C331.26 383.34 334.76 367.5 335.44 356.92C335.72 352.73 335.44 354.01 335.97 347.77C324.08 345.8 291.27 339.72 287.01 339.09C285.67 348.4 282.23 374.07 281.1 378.11C280.99 378.4 280.78 378.64 280.5 378.8C280.23 378.95 279.91 379.01 279.6 378.96C279.28 378.9 279 378.74 278.79 378.51C278.59 378.27 278.46 377.97 278.45 377.65C278.61 375.31 280.42 362.34 280.71 360.74C283.62 340.74 282.82 335.92 287.1 336.57C328.42 342.93 310.21 340.56 323.88 342.95Z" fill="#000001" fill-opacity="1.000000" fill-rule="nonzero"/>
		<path id="Vector" d="" fill="#000001" fill-opacity="1.000000" fill-rule="nonzero"/>
		<path id="Vector" d="M284.04 207.31C283.88 209.65 288.64 213.79 287.58 221.54C285.82 234.59 288.01 226.23 278.59 247.13C275.15 254.79 276.43 255.28 271.96 263.34C267.85 270.76 267.71 271.6 267.83 278C268.21 299.93 264.43 280.13 267.83 316.31C270.07 339.94 271.06 342.1 272.14 351.12C272.59 354.92 273.08 363.46 273.16 363.6C273.99 365.01 273.5 366.63 273.83 368.14C276.5 380.11 270.41 378.09 270.15 375.74C269.9 373.4 270.31 376.94 268.89 358.03C266.36 324.56 261.15 304.97 263.8 289.87C265.77 278.24 263.21 278.93 265.27 269.95C266.45 264.77 270.64 260.11 272.69 252.61C274.24 246.94 275.36 247.25 280.18 236.31C282.15 231.9 283.84 229.75 283.94 222.94C283.94 217.04 285.08 217.78 282.38 212.66C279.69 207.55 281.26 206.42 280.75 203.35C279.57 196.4 275.99 199.42 273.85 192.98C273.61 191.76 273.04 190.64 272.21 189.72C271.38 188.81 270.31 188.13 269.13 187.78C259.14 181.4 266.91 178.75 265.43 169.45C265.31 168.67 264.99 167.93 264.51 167.3C264.04 166.67 263.41 166.17 262.7 165.83C254.56 160.73 255.87 165.04 254.83 168.11C254.54 168.98 251.9 172.86 250.9 175.2C248.64 181.11 244.09 186.07 240.02 190.64C237.21 193.81 235.17 199.59 230.56 203.02C229.36 203.92 226.22 204.49 223.94 208.92C223.17 210.38 220.85 209.36 221.54 207.49C224.33 199.73 228.32 203.55 234.2 192.86C237.66 186.58 239.22 186.8 245.02 179.08C245.74 178.15 246.12 177 246.1 175.82C246.08 174.64 245.66 173.51 244.9 172.6C244.69 172.22 244.37 171.9 243.97 171.7C243.58 171.5 243.14 171.42 242.7 171.48C241.36 171.74 240.14 172.43 239.24 173.45C230.29 181.05 228.52 181.44 226.53 186.62C223.46 194.49 217.84 197.13 213.69 207.68C211.72 212.82 213.06 215.38 213.06 220.62C213.06 224.55 212.73 230.46 212.63 233.79C212.47 240.28 215.34 243.63 217.13 254.95C217.64 258.24 218.25 265.76 218.53 267.35C219.9 275.66 222.01 280.15 221.64 291.49C221.44 297.29 221.03 305.27 220.69 309.21C220.36 313.14 211.19 373.42 210.86 375.78C210.41 378.7 210.44 381.08 207.57 380.47C206 380.13 206.55 377.93 207.24 375.7C207.53 374.68 208.08 375.13 196.86 372.22C194.89 371.75 192.92 371.57 193.37 369.68C193.37 369.68 196.62 340.49 196.62 340.45C196.52 335.66 198.11 331.14 198.45 326.43C198.64 323.88 199.14 321.36 199.92 318.93C200.69 316.55 199.59 316.67 215.95 320.43C217.62 306.11 218.13 311.47 218.13 285.74C207.44 284.52 205.78 282.94 200.79 281.98C194.71 280.84 197.72 278.42 203.68 229.61C205.65 214.38 205.15 212.7 209.58 213.86C210.15 208.53 210.88 202.76 219.9 191.82C223.19 187.88 224.51 182.66 226.63 180C228.05 178.23 229.9 177.39 231.11 175.95C219.31 174.53 207.67 175.12 208.79 171.34C209.94 166.66 210.56 161.86 210.64 157.03C211.15 150.04 211.07 163.51 214.42 124.57C214.67 121.56 214.71 119.16 214.71 119.12C214.44 116.52 215.95 115.53 216.95 115.83C221.16 117.05 226.79 115.51 245.82 116.05C249.03 116.05 245.82 115.2 254.62 115.89C261.52 116.44 261.42 116.58 261.6 117.6C262.19 121.06 259.51 145.16 256.52 160.4C260.61 160.1 263.52 162.37 266.53 164.34C267.06 164.68 267.5 165.15 267.82 165.7C268.13 166.25 268.3 166.87 268.32 167.5C268.81 169.97 268.9 172.51 268.6 175C267.58 179.28 266.1 181.93 269.07 183.45C274.1 186.05 274.2 185.99 276.11 189.36C277.49 191.76 276.82 193.02 278.88 194.3C283.66 197.33 284.39 201.92 284.04 207.31ZM259.02 121.05C259.02 119.08 257.35 119.43 254.81 119.21C246.24 118.41 250.53 119.33 246.16 119.21C239.75 118.86 233.33 118.93 226.93 119.41C216.72 118.94 217.25 118.96 218.15 119.53C217.17 120.28 216.93 139.65 215.22 150.16C213.06 163.61 212.39 169.3 212.39 170.69C217.94 172.09 232.06 172.39 232.94 172.86C235.97 174.53 237.98 167.96 242.78 167.88C245.57 167.88 244.74 167.39 248.87 172.15C252.81 165.24 252.26 167.68 255.09 151.03C256.93 141.11 258.24 131.1 259.02 121.05ZM218.06 282.37C211.57 251.82 216.09 258.42 211.76 244.97C208.54 235.13 210.68 233.49 210.11 217.41C210.11 216.42 209.21 216.84 208.71 216.6C208.22 216.37 200.59 278.83 200.59 278.87C206.37 279.83 211.92 281.9 218.06 282.37ZM208.08 371.75C209.56 357.71 211.29 355.15 215.4 323.58L201.81 320.07C200.87 327.95 197.07 360.64 196.72 369.29L208.08 371.75Z" fill="#000001" fill-opacity="1.000000" fill-rule="nonzero"/>
		<path id="Vector" d="M270.66 44.54C271.82 47.34 269.07 83.92 264.76 94.82C264.39 95.77 224.03 95.02 222.58 95.41C219.39 96.24 218.65 93.66 219.31 91.48C222.1 82.12 223.73 72.46 224.19 62.71C225.1 57.41 225.69 52.05 225.96 46.67C225.94 46.01 226.11 45.37 226.46 44.81C226.81 44.25 227.32 43.82 227.93 43.56C230.11 43.08 232.35 42.9 234.58 43.03C269.58 44.45 269.76 42.34 270.66 44.54ZM268.56 47.83C268.72 46.14 267.62 46.18 265.73 46.47C263.84 46.77 244.57 46.34 241.56 46.22C237.49 45.78 233.39 45.68 229.31 45.92C228.16 45.92 226.91 65.73 226.91 65.77C226.27 74.93 224.66 84 222.09 92.82C235.07 91.56 255.7 92.62 261.62 92.3C263.47 92.3 263.39 91.97 263.58 90.16C267.85 61.42 264.82 88.58 268.56 47.83Z" fill="#000001" fill-opacity="1.000000" fill-rule="nonzero"/>
		<path id="Vector" d="M197.11 45.67C197.34 48.03 197.43 50.4 197.39 52.77C197.27 56.4 191.88 91.38 191.37 91.46C190.39 91.61 189.7 92.5 188.54 92.38C185.47 91.96 182.36 91.86 179.27 92.09C175.71 92.48 174.24 91.97 168.54 92.28C143.86 93.56 151.27 96.95 156.44 58.82C157.42 46.24 156.58 44.25 161.77 45.04C162.83 45.21 161.77 45.31 168.26 44.17C182.54 41.63 176.97 44.9 194.52 43.46C196.38 43.3 196.93 43.7 197.11 45.67ZM192.9 64.96C195.14 48.91 194.87 54.98 194.87 46.61C192.9 46.41 190.27 46.87 186.83 46.79C175.14 46.55 176.99 45.67 172.33 46.41C164.6 47.64 162.77 48.5 160.65 47.64C159.69 47.24 159.67 48.95 159.31 56.32C159.02 62.64 158.53 61.87 157.01 70.88C155.05 83.23 155.05 84.13 154.26 88.78C153.94 90.75 155.18 90.12 157.35 89.98C168.81 89.35 168.69 88.88 170.68 88.98C177.88 89.29 182.2 88.19 187.57 89.21C188.93 89.53 189.13 91.69 192.9 64.96Z" fill="#000001" fill-opacity="1.000000" fill-rule="nonzero"/>
		<path id="Vector" d="M175.62 209.73C188.42 211.38 190.96 210.07 190.58 213.43C188.62 232.06 182.18 267.9 180.24 273.71C179.88 274.77 177.88 275.15 176.64 274.54C175.4 273.93 172.92 274.66 170.97 274.42C163.28 273.41 155.7 271.64 148.36 269.12C145.9 268.08 142.81 268.89 140.96 268.51C134.85 267.27 133.47 267.86 133.69 266.35C134.98 257 135.5 258.47 136.87 252.39C137.58 249.22 136.32 253.69 139.76 235.99C140.18 233.31 140.3 230.59 140.1 227.88C140.1 223.63 141.14 223.77 143.54 210.16C144.27 206.07 147.04 207.68 153.06 208.51C153.76 208.51 154.47 208.47 155.16 208.37C173.06 208.49 168.77 208.83 175.62 209.73ZM177.72 271.33C181.46 252.31 185.17 233.39 187.97 214.24C179.98 214.24 169.22 211.62 164.05 211.6C152.25 211.6 155.63 212.55 146.1 210.34C144.76 222.41 144.64 218.02 143.48 225.2C142.65 230.26 144.35 228.1 141.81 241.15C138.6 257.65 143.46 239.04 136.56 265.25C138.75 265.81 141 266.06 143.27 265.99C147.02 265.34 151.13 267.17 155.22 268.26C177.13 274.08 174.63 269.69 177.72 271.33Z" fill="#000001" fill-opacity="1.000000" fill-rule="nonzero"/>
		<path id="Vector" d="M176.84 310.23C179.53 310.92 178.51 312.53 178.23 316.47C177.52 326.9 177.98 325.66 177.72 327.63C176.64 335.86 174.48 348.52 174 352.46C171.78 370.53 173.04 372.24 169.6 371.26C157.01 367.67 158.55 367.99 155.83 366.37C147.97 361.67 147.06 365.35 135.12 359.05C130.8 356.77 132.17 357.85 135.24 340.23C135.77 337.1 137.21 324.05 137.92 319.89C140.79 300.05 140.1 302.02 143.17 302.18C150.01 303.54 148.53 304.15 154 304.89C158.29 305.37 160.33 306.06 176.84 310.23ZM169.48 367.85C172.35 340.62 177.64 313.95 175.24 313.3C149.36 306.27 153.9 308.71 142.69 304.7C142.46 306.82 139.19 329.23 138.76 335.98C138.49 340.6 137.35 341.71 135.42 355.11C135.28 356.08 136.93 356.83 139.23 357.81C145.27 360.45 144.74 359.44 147.69 360.05C159.74 362.61 150.64 362.22 169.48 367.85Z" fill="#000001" fill-opacity="1.000000" fill-rule="nonzero"/>
		<path id="Vector" d="M129.64 44.6C133.57 44.41 134.1 42.52 129.77 70.83C128.95 76.14 127.39 83.13 126.12 89.19C125.76 90.89 123.97 90.39 121.63 90.26C99.41 88.94 92.13 92.22 91.8 86.85C100.77 37.63 94.9 45.31 104.31 44.9C108.46 44.72 124.27 44.88 129.64 44.6ZM124.17 84.21C126.13 77.77 130.38 47.73 129.75 47.71C123.64 47.44 122.5 47.83 108.12 47.6C102.63 47.5 106.02 48.03 100.55 47.6C100.55 51.53 97.32 74.25 97.3 74.29C94.51 87.34 93.57 87.26 96.1 87.18C100.68 86.75 105.28 86.58 109.87 86.69C126.55 86.61 122.69 88.76 124.17 84.21Z" fill="#000001" fill-opacity="1.000000" fill-rule="nonzero"/>
		<path id="Vector" d="M112.43 292.73C115.57 293.46 114.1 295.23 113.23 304.13C109.3 343.87 109.75 349.01 105.9 347.69C101.64 346 97.25 344.68 92.76 343.75C80.96 340.66 88.59 342.47 81.18 341.43C78.92 341.12 76.58 338.89 73.31 339.27C69.14 339.74 71.34 329.82 78.31 289.22C78.76 286.49 77.95 284.48 80.27 285.03C83.42 285.76 90.34 286.78 96.01 287.86C105.19 289.6 106.88 291.35 112.43 292.73ZM106.19 344.34C108 328.16 109.82 312.01 111.64 295.88C101.77 292.27 91.56 289.7 81.16 288.2C73.57 343.12 71.32 335.45 78.54 337.26C80.06 337.63 81.51 338.26 83.03 338.58C86.9 338.71 90.72 339.46 94.35 340.8C98.38 341.69 102.34 342.87 106.19 344.34Z" fill="#000001" fill-opacity="1.000000" fill-rule="nonzero"/>
		<path id="Vector" d="M94.16 184.87C95.4 187.01 97.68 187.96 97.54 189.93C97.54 190.22 96.89 190.46 96.42 190.81C94.64 189.82 93.15 188.39 92.07 186.66C89.12 181.58 87.1 181.58 86.68 180.16C86.17 178.39 87.69 177.76 88.65 178.57C90.87 180.3 92.74 182.44 94.16 184.87Z" fill="#000001" fill-opacity="1.000000" fill-rule="nonzero"/>
	</g>
</svg>
