<svg width="55.000000" height="55.000000" viewBox="0 0 55 55" fill="none" xmlns="http://www.w3.org/2000/svg" xmlns:xlink="http://www.w3.org/1999/xlink">
	<desc>
			Created with Pixso.
	</desc>
	<defs>
		<clipPath id="clip2_828">
			<rect id="IMAGE" rx="0.000000" width="54.000000" height="54.000000" transform="translate(0.500000 0.500000)" fill="white" fill-opacity="0"/>
		</clipPath>
	</defs>
	<g clip-path="url(#clip2_828)">
		<path id="Vector" d="M30.29 6.31C25.55 8.72 14.87 20.61 11.38 27.27C9.28 31.29 9.54 31.52 16.33 31.91L21.17 32.19C12.38 47.56 13.28 45.92 13.2 46.07C11.28 49.38 13.89 51.58 16.66 48.99C16.68 48.97 40.43 30.52 44.68 24.4C45.17 23.71 45.04 22.91 43.97 22.12C42.2 20.81 39.82 20.4 31.13 19.69C29.77 19.58 29.16 19.43 29.26 19.23C29.9 17.66 32.36 11.11 33.54 8.54C34.92 5.55 34.8 4.01 30.29 6.31ZM28.52 12.05C28.29 12.59 25.45 19.41 25.32 19.69C24.65 21.02 25.09 21.71 26.75 21.89C32.29 22.48 34.49 22.68 36.72 22.79C40.41 22.97 40.43 22.81 36.54 26.73C32.39 30.93 21.78 40.67 21.55 40.44C21.35 40.23 24.75 33.73 25.68 32.52C27.34 30.34 26.83 30.04 21.53 30.04C19.14 30.04 17.66 29.99 16.53 29.91C15.48 29.83 14.84 28.7 15.35 27.76C17.27 24.25 20.71 19.87 26.42 13.59C29.03 10.77 29.08 10.72 28.52 12.05Z" fill="#000001" fill-opacity="1.000000" fill-rule="evenodd"/>
	</g>
</svg>
