<svg width="55.000000" height="55.000000" viewBox="0 0 55 55" fill="none" xmlns="http://www.w3.org/2000/svg" xmlns:xlink="http://www.w3.org/1999/xlink">
	<desc>
			Created with Pixso.
	</desc>
	<defs>
		<clipPath id="clip2_836">
			<rect id="IMAGE" rx="0.000000" width="54.000000" height="54.000000" transform="translate(0.500000 0.500000)" fill="white" fill-opacity="0"/>
		</clipPath>
	</defs>
	<g clip-path="url(#clip2_836)">
		<path id="Vector" d="M38.15 37.05C38.6 37.25 39.1 37.14 39.47 36.82C39.79 36.53 41.33 35.13 41.92 34.78C42.65 34.35 43.21 26.96 43.21 26.98C43.26 26.55 43.11 26.12 42.8 25.81C39.84 22.8 39.68 22.41 36.15 21.98C35.18 21.85 34.53 21.89 34.4 22.11C33.86 22.98 36.31 24.56 38.23 24.56C38.97 24.56 41.24 26.96 41.03 27.5C40.88 27.87 40.94 30.23 40.92 32.83L39.94 33.33C39.4 33.61 38.73 34.11 38.45 34.48C37.95 35.11 37.91 35.11 37.06 34.61C36.26 34.13 34.88 34.15 34.88 34.65C34.88 35.08 36.59 36.45 37.71 36.9L38.15 37.05Z" fill="#000001" fill-opacity="1.000000" fill-rule="nonzero"/>
		<path id="Vector" d="M48.22 18.65C48.24 17.97 47.94 17.32 47.42 16.91C46.44 16.16 45.38 16.07 44.86 16.67C43.21 18.67 36.59 17.95 29.94 15.05C25.37 13.06 20.09 12.17 15.54 12.63C5.66 13.6 6.68 13.84 7.63 38.03L8.69 38.57C9.73 39.11 9.82 39.11 12.77 38.46C17.46 37.42 25.13 37.51 29.59 38.61C33.6 39.61 34.42 39.44 32.78 37.88C29.74 35.02 17.66 33.37 12.77 35.17C11.77 35.54 10.84 35.82 10.69 35.82C10.17 35.82 11.14 29.3 10.64 15.81C10.66 15.81 20.89 12.93 28.49 16.8C32.6 18.91 37.63 20.27 41.4 20.29L45.06 20.29C45.06 37.9 45.21 39.74 44.58 39.74C44.3 39.74 42.59 39.54 40.77 39.31C37.24 38.85 36.74 38.94 37.45 39.96C38.15 40.93 42.5 41.99 45.23 42.12C47.74 42.25 47.44 41.88 47.55 40.35C47.65 38.46 47.55 39.96 48.22 18.65Z" fill="#000001" fill-opacity="1.000000" fill-rule="nonzero"/>
		<path id="Vector" d="M15.17 20.36C15.84 20.18 16.99 19.21 17.18 18.65C17.27 18.36 18.07 18.39 20.54 18.67C26.65 19.38 23.83 16.85 22.66 16.52C21.3 16.13 19.18 16.29 16.75 16.65C16.3 16.72 15.75 17.06 15.56 17.43C15.36 17.8 14.37 18.41 13.67 19.12C11.79 21.01 11.6 30.43 13.42 30.71C14.91 30.92 15.41 31.12 16.17 31.83C17.1 32.68 17.2 32.59 23.38 32.59C24.22 32.59 24.68 30.51 19.37 30.3C17.18 30.21 16.71 30.08 15.93 29.43C15.43 29.02 14.89 28.67 14.74 28.67C14.06 28.67 14.5 20.51 15.17 20.36Z" fill="#000001" fill-opacity="1.000000" fill-rule="nonzero"/>
		<path id="Vector" d="M28.08 32.03C28.31 31.73 28.49 30.56 28.49 30.45C28.49 30.34 29.14 30.38 29.85 30.19C32.49 29.47 32.43 26.27 29.74 24.75C29.01 24.34 26.32 24.19 26.69 22.54C26.95 21.33 27.86 21.74 28.83 22.22C29.51 22.52 30.09 22.87 30.68 23.17C31.71 23.71 31.69 22.33 31 21.74C30.57 21.37 29.94 21.01 29.31 20.73C29.18 20.66 29.44 20.03 29.22 19.58C28.77 18.65 27.47 18.23 27.47 19.04C27.47 19.14 27.28 20.01 27.28 20.01C27.25 20.01 24.96 18.95 24.09 21.5C23.66 22.78 24.2 24.64 25.82 25.14C27.12 25.55 29.48 25.97 29.31 27.31C29.07 29.17 25.91 27.89 25.89 27.89C23.64 27.33 22.1 28.07 24.76 29.26C25.22 29.47 26.24 29.73 26.45 29.93C26.67 30.12 26.43 31.36 26.43 31.57C26.47 32.53 27.56 32.74 28.08 32.03Z" fill="#000001" fill-opacity="1.000000" fill-rule="nonzero"/>
	</g>
</svg>
