<svg width="55.000000" height="55.000000" viewBox="0 0 55 55" fill="none" xmlns="http://www.w3.org/2000/svg" xmlns:xlink="http://www.w3.org/1999/xlink">
	<desc>
			Created with Pixso.
	</desc>
	<defs>
		<clipPath id="clip2_847">
			<rect id="IMAGE" rx="0.000000" width="54.000000" height="54.000000" transform="translate(0.500000 0.500000)" fill="white" fill-opacity="0"/>
		</clipPath>
	</defs>
	<g clip-path="url(#clip2_847)">
		<path id="Vector" d="M36.55 10.91C34.75 11.73 33.78 13.31 33.64 15.65C33.46 18.78 32.75 19.85 31.94 18.23C28.98 12.4 18.84 10.76 17.81 15.95C17.69 16.5 17.67 16.5 16.38 16.5C10.71 16.46 7.44 27.62 11.51 33.15C11.78 33.52 11.39 34.85 10.22 37.45C9.56 38.89 9.64 39.13 10.79 39.65C11.84 40.12 12.18 39.63 14.28 34.48C14.6 33.7 14.6 32.83 14.28 32.06C13.8 30.91 13.23 29.64 12.77 28.79C11.27 25.84 12.26 21.67 15.07 19.18C17.65 16.9 20.28 18.78 18.03 21.3C14.91 24.75 17.87 28.93 22.44 27.56C26.55 26.35 26.7 20.62 22.66 19.53C20.52 18.96 19.61 15.95 21.24 14.86C25.28 12.12 30.31 17.73 29.78 24.39C29.5 27.86 32.99 26.27 32.99 23.89C32.99 23.28 33.15 22.94 33.78 22.21C35.13 20.64 35.76 19 36.06 16.17C36.34 13.55 39.74 11.37 40.71 13.19C41.33 14.34 40.36 20.49 39.27 22.25C38.4 23.68 35.31 27.18 34.31 27.86C33.03 28.73 33.16 29.48 34.69 29.74C35.44 29.86 35.56 29.82 36.97 28.65C40.48 25.74 41.59 24.31 42.42 21.58C43.01 19.63 43.89 20.07 43.91 22.09C43.93 26.23 39.59 31.07 35.42 32.77C34.43 33.19 34.37 33.64 35.23 34.28C36.49 35.21 38.75 34.24 41.35 31.64C42.97 30.02 43.05 29.98 42.87 30.63C41.9 34.4 38.77 37.51 34.79 38.68C32.15 39.45 29.7 40 27.85 40.24C27.6 40.32 26.03 40.26 24.72 41.65C22.8 43.69 25.75 45.32 26.76 43.69C27.52 42.46 27.75 42.34 29.22 42.32C30.67 42.32 30.75 42.3 34.85 41.15C38.34 40.18 40.4 39.17 41.88 37.73C45.02 34.65 46.32 30.22 44.7 28.08C44.34 27.6 44.34 27.58 44.92 26.33C46.09 23.83 45.81 20.54 44.26 18.68C43.71 18.01 43.67 17.83 43.61 16.2C43.53 12.36 39.7 9.49 36.55 10.91ZM22.35 20.74C23.99 21.58 23.02 25.88 21.1 26.35C20.42 26.53 17.43 24.98 19.77 21.75C20.84 20.27 21.16 20.13 22.35 20.74Z" fill="#000001" fill-opacity="1.000000" fill-rule="evenodd"/>
	</g>
</svg>
